<svg width="23" height="23" viewBox="0 0 23 23" fill="none" xmlns="http://www.w3.org/2000/svg">
<path d="M21.0126 11.4275C21.0126 13.3231 20.4504 15.1763 19.3973 16.7524C18.3441 18.3286 16.8472 19.5571 15.0958 20.2826C13.3444 21.008 11.4173 21.1978 9.55801 20.828C7.69876 20.4582 5.99094 19.5453 4.65049 18.2049C3.31005 16.8644 2.3972 15.1566 2.02737 13.2974C1.65754 11.4381 1.84735 9.51094 2.5728 7.75957C3.29824 6.00819 4.52673 4.51127 6.10292 3.45809C7.67912 2.40491 9.53222 1.84277 11.4279 1.84277C13.9699 1.84277 16.4078 2.85259 18.2053 4.65007C20.0028 6.44755 21.0126 8.88545 21.0126 11.4275Z" fill="#FBFBFB"/>
<path d="M21.0126 11.4279C21.012 9.39868 20.3674 7.42199 19.1715 5.78254C17.9757 4.1431 16.2903 2.9255 14.3582 2.30511C12.4262 1.68472 10.347 1.69355 8.42027 2.33033C6.49353 2.96711 4.8186 4.19898 3.63672 5.84853C5.48256 4.52584 7.73814 3.90166 10.0014 4.08724C12.2646 4.27283 14.3883 5.25612 15.994 6.86183C17.5998 8.46755 18.583 10.5913 18.7686 12.8545C18.9542 15.1178 18.33 17.3733 17.0074 19.2192C18.247 18.3331 19.2572 17.1639 19.9538 15.8088C20.6505 14.4536 21.0135 12.9517 21.0126 11.4279Z" fill="#E3EFFA"/>
<path d="M11.4279 0C13.6881 0 15.8976 0.670235 17.7769 1.92595C19.6562 3.18167 21.1209 4.96646 21.9859 7.05464C22.8508 9.14282 23.0771 11.4406 22.6362 13.6574C22.1953 15.8742 21.1069 17.9104 19.5086 19.5087C17.9104 21.1069 15.8742 22.1953 13.6574 22.6362C11.4406 23.0772 9.1428 22.8509 7.05463 21.9859C4.96645 21.121 3.18166 19.6562 1.92595 17.7769C0.670234 15.8976 0 13.6881 0 11.4279C0 8.39704 1.20401 5.49031 3.34715 3.34716C5.4903 1.20401 8.39703 0 11.4279 0ZM11.4279 21.0126C13.3236 21.0126 15.1767 20.4505 16.7529 19.3973C18.3291 18.3441 19.5575 16.8472 20.283 15.0958C21.0084 13.3444 21.1982 11.4173 20.8284 9.55803C20.4586 7.69878 19.5457 5.99095 18.2053 4.65051C16.8648 3.31006 15.157 2.39721 13.2978 2.02738C11.4385 1.65755 9.51136 1.84736 7.75999 2.5728C6.00862 3.29825 4.5117 4.52674 3.45852 6.10294C2.40534 7.67913 1.84321 9.53224 1.84321 11.4279C1.84321 13.9699 2.85302 16.4078 4.6505 18.2053C6.44797 20.0028 8.88588 21.0126 11.4279 21.0126Z" fill="#FCC369"/>
<path d="M12.1656 5.97176V11.236C12.1669 11.4073 12.1067 11.5734 11.996 11.7041L9.68095 14.5206C9.61175 14.5988 9.52513 14.6597 9.42807 14.6983C9.33101 14.7369 9.22624 14.7522 9.1222 14.7428C9.01816 14.7335 8.91777 14.6999 8.82913 14.6446C8.74049 14.5893 8.66608 14.514 8.61189 14.4247C8.51333 14.2628 8.47076 14.0729 8.49075 13.8844C8.51073 13.6959 8.59216 13.5192 8.72249 13.3815L10.6026 11.1622C10.6606 11.096 10.6921 11.0107 10.691 10.9226V5.97176C10.6813 5.86906 10.6931 5.76546 10.7257 5.66759C10.7583 5.56972 10.811 5.47974 10.8804 5.40342C10.9498 5.32711 11.0344 5.26613 11.1288 5.22441C11.2231 5.18268 11.3252 5.16113 11.4283 5.16113C11.5315 5.16113 11.6335 5.18268 11.7278 5.22441C11.8222 5.26613 11.9068 5.32711 11.9762 5.40342C12.0456 5.47974 12.0983 5.56972 12.1309 5.66759C12.1635 5.76546 12.1754 5.86906 12.1656 5.97176Z" fill="#555FA3"/>
<path d="M8.61169 14.4251C8.51313 14.2632 8.47056 14.0733 8.49054 13.8848C8.51053 13.6963 8.59196 13.5195 8.72228 13.3819L10.6024 11.1626C10.6604 11.0964 10.6919 11.0111 10.6908 10.923V5.97216C10.6908 5.82137 10.7302 5.67319 10.8051 5.54232C10.7674 5.53497 10.7292 5.53078 10.6908 5.52979C10.4857 5.54001 10.2929 5.63108 10.1547 5.78307C10.0166 5.93506 9.94422 6.1356 9.95355 6.3408V11.2917C9.95459 11.3797 9.92309 11.465 9.86507 11.5313L7.985 13.7505C7.85467 13.8882 7.77324 14.0649 7.75326 14.2534C7.73327 14.442 7.77584 14.6318 7.87441 14.7938C7.92859 14.8831 8.003 14.9584 8.09164 15.0136C8.18029 15.0689 8.28068 15.1026 8.38471 15.1119C8.48875 15.1212 8.59352 15.106 8.69058 15.0673C8.78764 15.0287 8.87426 14.9679 8.94347 14.8896L9.07249 14.7326C8.97863 14.7159 8.88924 14.6799 8.80994 14.627C8.73064 14.5741 8.66314 14.5054 8.61169 14.4251Z" fill="#E3EFFA"/>
<path d="M11.4278 1.10547C9.38635 1.10547 7.3907 1.71084 5.69326 2.84504C3.99582 3.97923 2.67283 5.59131 1.89158 7.4774C1.11034 9.3635 0.905928 11.4389 1.3042 13.4412C1.70248 15.4434 2.68555 17.2826 4.1291 18.7262C5.57266 20.1698 7.41186 21.1528 9.41412 21.5511C11.4164 21.9494 13.4918 21.745 15.3779 20.9637C17.264 20.1825 18.8761 18.8595 20.0102 17.162C21.1444 15.4646 21.7498 13.469 21.7498 11.4275C21.7498 8.68989 20.6623 6.06446 18.7266 4.12871C16.7908 2.19296 14.1654 1.10547 11.4278 1.10547ZM11.4278 21.0122C9.53217 21.0122 7.67907 20.45 6.10287 19.3968C4.52668 18.3437 3.29819 16.8467 2.57274 15.0954C1.8473 13.344 1.65749 11.4168 2.02732 9.55757C2.39715 7.69832 3.31 5.99049 4.65044 4.65005C5.99089 3.3096 7.69871 2.39675 9.55796 2.02692C11.4172 1.65709 13.3444 1.8469 15.0957 2.57235C16.8471 3.29779 18.344 4.52628 19.3972 6.10248C20.4504 7.67868 21.0125 9.53178 21.0125 11.4275C21.0125 13.9695 20.0027 16.4074 18.2052 18.2049C16.4078 20.0023 13.9699 21.0122 11.4278 21.0122Z" fill="#ED9B52"/>
<path d="M11.7966 3.68647V1.85248C11.6742 1.84805 11.5514 1.84326 11.4279 1.84326C11.3044 1.84326 11.1817 1.84805 11.0593 1.85248V3.68647H11.7966ZM11.0593 19.1695V21.0034C11.1817 21.0079 11.3044 21.0127 11.4279 21.0127C11.5514 21.0127 11.6742 21.0079 11.7966 21.0034V19.1695H11.0593ZM21.0034 11.0593H19.1694V11.7966H21.0034C21.0078 11.6742 21.0126 11.5515 21.0126 11.428C21.0126 11.3045 21.0078 11.1817 21.0034 11.0593ZM3.68644 11.0593H1.85245C1.84802 11.1817 1.84323 11.3045 1.84323 11.428C1.84323 11.5515 1.84802 11.6742 1.85245 11.7966H3.68644V11.0593Z" fill="#555FA3"/>
</svg>
