<svg width="349" height="126" viewBox="0 0 349 126" fill="none" xmlns="http://www.w3.org/2000/svg">
<path d="M9.5 23.7568L15.5 20H21.5H36H62.5H114V29.5628H0L9.5 23.7568Z" fill="#9A2600"/>
<rect y="29.1919" width="114" height="95.6283" fill="#E45F35"/>
<path d="M44.78 95.2514C44.78 94.5714 44.92 93.9314 45.2 93.3314C45.52 92.7314 46.06 91.9714 46.82 91.0514L60.14 74.5514C60.98 73.5114 61.64 72.4914 62.12 71.4914C62.6 70.4514 62.84 69.3514 62.84 68.1914C62.84 66.5114 62.34 65.1914 61.34 64.2314C60.38 63.2314 59.06 62.7314 57.38 62.7314C55.9 62.7314 54.7 63.0514 53.78 63.6914C52.9 64.3314 52.2 65.3314 51.68 66.6914C51.08 68.2914 50.04 69.0914 48.56 69.0914C47.64 69.0914 46.88 68.8314 46.28 68.3114C45.68 67.7514 45.38 67.0114 45.38 66.0914C45.38 65.9314 45.38 65.7914 45.38 65.6714C45.42 65.5114 45.46 65.3314 45.5 65.1314C45.74 64.0914 46.16 63.0714 46.76 62.0714C47.4 61.0714 48.22 60.1714 49.22 59.3714C50.26 58.5714 51.46 57.9314 52.82 57.4514C54.22 56.9714 55.8 56.7314 57.56 56.7314C59.44 56.7314 61.12 57.0314 62.6 57.6314C64.08 58.1914 65.34 58.9714 66.38 59.9714C67.42 60.9714 68.2 62.1714 68.72 63.5714C69.28 64.9714 69.56 66.4714 69.56 68.0714C69.56 69.9914 69.2 71.7514 68.48 73.3514C67.76 74.9514 66.76 76.5114 65.48 78.0314L53.78 92.0714V92.1914H66.74C67.74 92.1914 68.5 92.4714 69.02 93.0314C69.58 93.5914 69.86 94.3114 69.86 95.1914C69.86 96.0714 69.58 96.7914 69.02 97.3514C68.5 97.9114 67.74 98.1914 66.74 98.1914H47.96C46.96 98.1914 46.18 97.9314 45.62 97.4114C45.06 96.8514 44.78 96.1314 44.78 95.2514Z" fill="white"/>
<rect x="235" y="47.3823" width="114" height="77.8687" fill="#E45F35"/>
<path d="M339.5 42.9518L333.5 40H327.5H313H286.5H235V47.5136H349L339.5 42.9518Z" fill="#9A2600"/>
<path d="M281.8 98.3823C281.633 97.8823 281.55 97.4323 281.55 97.0323C281.55 96.3323 281.767 95.749 282.2 95.2823C282.667 94.7823 283.3 94.5323 284.1 94.5323C285.167 94.5323 286.033 95.1323 286.7 96.3323C287.167 97.199 287.783 97.849 288.55 98.2823C289.317 98.7157 290.3 98.9323 291.5 98.9323C293.1 98.9323 294.35 98.4657 295.25 97.5323C296.15 96.599 296.6 95.349 296.6 93.7823C296.6 92.0823 296.083 90.7657 295.05 89.8323C294.017 88.8657 292.733 88.3823 291.2 88.3823H290.7C289.933 88.3823 289.317 88.149 288.85 87.6823C288.417 87.2157 288.2 86.6157 288.2 85.8823C288.2 85.149 288.417 84.549 288.85 84.0823C289.317 83.6157 289.933 83.3823 290.7 83.3823H291.2C292.6 83.3823 293.717 82.9323 294.55 82.0323C295.417 81.1323 295.85 79.9323 295.85 78.4323C295.85 76.999 295.433 75.8823 294.6 75.0823C293.8 74.249 292.683 73.8323 291.25 73.8323C290.05 73.8323 289.117 74.0657 288.45 74.5323C287.783 74.999 287.267 75.6157 286.9 76.3823C286.633 76.949 286.267 77.3823 285.8 77.6823C285.367 77.9823 284.9 78.1323 284.4 78.1323C283.633 78.1323 283.017 77.899 282.55 77.4323C282.083 76.9657 281.85 76.3657 281.85 75.6323C281.85 75.199 281.95 74.749 282.15 74.2823C282.783 72.7823 283.867 71.499 285.4 70.4323C286.967 69.3657 288.983 68.8323 291.45 68.8323C293.017 68.8323 294.417 69.0657 295.65 69.5323C296.917 69.999 297.983 70.649 298.85 71.4823C299.717 72.2823 300.367 73.249 300.8 74.3823C301.267 75.5157 301.5 76.749 301.5 78.0823C301.5 79.7157 301.15 81.149 300.45 82.3823C299.75 83.5823 298.833 84.549 297.7 85.2823V85.3823C298.233 85.649 298.767 86.0157 299.3 86.4823C299.833 86.949 300.317 87.5323 300.75 88.2323C301.183 88.9323 301.533 89.749 301.8 90.6823C302.067 91.5823 302.2 92.599 302.2 93.7323C302.2 95.2323 301.933 96.6157 301.4 97.8823C300.867 99.1157 300.117 100.182 299.15 101.082C298.217 101.982 297.1 102.682 295.8 103.182C294.5 103.682 293.083 103.932 291.55 103.932C289.017 103.932 286.917 103.416 285.25 102.382C283.617 101.349 282.467 100.016 281.8 98.3823Z" fill="#FCFCF9"/>
<rect x="114" y="8" width="121" height="117.486" fill="#E77552"/>
<path d="M227.213 4L218.969 0H215.305H202.022H177.746H130.568L114 8H235L227.213 4Z" fill="#9A2600"/>
<path d="M172.76 50.24H172.6L166.6 54.48C165.853 55.0133 164.947 55.28 163.88 55.28C162.867 55.28 161.987 54.9067 161.24 54.16C160.493 53.36 160.12 52.4267 160.12 51.36C160.12 49.92 160.92 48.6133 162.52 47.44L171.24 41.28C172.2 40.5867 173.107 40.08 173.96 39.76C174.867 39.3867 175.827 39.2 176.84 39.2C178.333 39.2 179.507 39.68 180.36 40.64C181.267 41.6 181.72 42.88 181.72 44.48V89.68C181.72 91.1733 181.293 92.3467 180.44 93.2C179.64 94 178.573 94.4 177.24 94.4C175.907 94.4 174.813 94 173.96 93.2C173.16 92.3467 172.76 91.1733 172.76 89.68V50.24Z" fill="#FCFCF9"/>
</svg>
