<svg width="349" height="183" viewBox="0 0 349 183" fill="none" xmlns="http://www.w3.org/2000/svg">
<rect y="43" width="114" height="140" fill="#E45F35"/>
<g filter="url(#filter0_di_1188_10638)">
<path d="M62.0081 79.114L34.8176 91.6162L12 42H44.9369L62.0081 79.114Z" fill="#E95454"/>
<path d="M17.724 42L38.2093 86.5424L40.4995 84.2018L21.0933 42H17.724ZM35.4482 42L55.9336 86.5424L58.2266 84.2018L38.8176 42H35.4482Z" fill="white"/>
<path d="M51.272 79.114L78.4625 91.6162L101.28 42H68.3432L51.272 79.114Z" fill="#E95454"/>
<path d="M95.556 42L75.0707 86.5424L72.7805 84.2018L92.1867 42H95.556ZM77.8318 42L57.3464 86.5424L55.0534 84.2018L74.4624 42H77.8318Z" fill="white"/>
<path d="M56.4298 131.491C74.9486 131.491 89.961 116.478 89.961 97.9593C89.961 79.4403 74.9486 64.4277 56.4298 64.4277C37.9111 64.4277 22.8986 79.4403 22.8986 97.9593C22.8986 116.478 37.9111 131.491 56.4298 131.491Z" fill="#E5E5E5"/>
<path d="M65.1139 93.949H42.941C41.2171 93.949 39.8015 92.5362 39.8015 90.8094L39.8268 90.5936V90.5459C39.8015 88.7267 41.2872 87.241 43.1092 87.241H58.4789C60.5139 87.241 62.3108 85.7329 62.4313 83.695C62.5266 81.5617 60.8251 79.7649 58.6947 79.7649H42.4169C40.62 79.7649 39.2773 78.2568 39.3026 76.46V76.3647C39.2773 74.5678 40.62 73.0597 42.4169 73.0597H59.4515C61.4642 73.0597 63.261 71.5516 63.3816 69.5389C63.4769 67.3833 61.7754 65.6089 59.645 65.6089H47.7456C33.4468 69.4408 22.9014 82.4532 22.9014 97.9631C22.9014 113.473 33.444 126.485 47.7456 130.317H63.0115C65.0242 130.317 66.821 128.809 66.9415 126.797C67.0368 124.641 65.3353 122.867 63.205 122.867L45.1892 122.861C43.0644 122.861 41.3517 121.081 41.4666 118.931C41.5731 116.915 43.3811 115.402 45.4022 115.402H52.3876C54.3975 115.343 56.0177 113.7 56.0177 111.676C56.0177 109.616 54.3414 107.94 52.2811 107.94H41.6908C39.9669 107.94 38.5513 106.527 38.5766 104.803V104.539C38.456 102.838 39.8211 101.4 41.5227 101.4H64.9093C66.9443 101.4 68.7412 99.8917 68.8617 97.879C68.9486 95.7234 67.2471 93.949 65.1139 93.949Z" fill="#F0EFEF"/>
<path d="M56.4298 69.3198C40.6369 69.3198 27.7873 82.1668 27.7873 97.9627C27.7873 113.759 40.6369 126.605 56.4298 126.605C72.2227 126.605 85.0723 113.759 85.0723 97.9627C85.0723 82.1668 72.2227 69.3198 56.4298 69.3198ZM56.4298 122.115C43.1121 122.115 32.278 111.281 32.278 97.9627C32.278 84.6448 43.1121 73.8105 56.4298 73.8105C69.7476 73.8105 80.5817 84.6448 80.5817 97.9627C80.5817 111.281 69.7448 122.115 56.4298 122.115Z" fill="#CACACA"/>
<path d="M58.6303 101.184C59.8468 100.068 60.6878 99.213 61.1531 98.6187C61.8567 97.7217 62.3725 96.8667 62.6948 96.0482C63.02 95.2297 63.1826 94.3691 63.1826 93.4636C63.1826 91.8743 62.6163 90.5427 61.4839 89.4747C60.3514 88.4039 58.7928 87.8713 56.8082 87.8713C54.9974 87.8713 53.4893 88.3338 52.284 89.2561C51.0786 90.1783 50.361 91.7005 50.1311 93.8225L53.9686 94.2065C54.0415 93.0824 54.3162 92.2779 54.79 91.793C55.2665 91.308 55.9056 91.0669 56.7101 91.0669C57.523 91.0669 58.1621 91.2968 58.6219 91.7593C59.0816 92.2218 59.3142 92.8806 59.3142 93.7412C59.3142 94.5176 59.0479 95.3053 58.5181 96.0986C58.1257 96.6733 57.0605 97.7721 55.3226 99.3896C53.1669 101.391 51.7205 102.997 50.9889 104.208C50.2573 105.419 49.82 106.7 49.6714 108.054H63.177V104.475H55.5272C55.729 104.127 55.9925 103.771 56.3149 103.407C56.6428 103.039 57.4137 102.299 58.6303 101.184ZM44.281 112.321C44.3427 111.827 44.623 111.398 44.7603 110.936C44.8921 110.471 44.9005 109.98 44.8949 109.484C44.8809 108.985 44.8472 108.483 44.6874 107.928C44.6398 107.911 44.5921 107.894 44.5445 107.875C44.1576 108.228 43.9306 108.646 43.7484 109.091C43.5774 109.537 43.4513 110.008 43.4849 110.535C43.5213 111.065 43.7344 111.648 43.768 112.172C43.7736 112.239 43.7568 112.304 43.7596 112.371C42.7764 111.072 41.9229 109.68 41.2115 108.214C41.2312 107.922 41.276 107.645 41.3797 107.398C41.5507 106.969 41.9151 106.65 42.145 106.266C42.372 105.876 42.4842 105.433 42.5823 104.982C42.672 104.525 42.7421 104.06 42.6972 103.513C42.6552 103.485 42.6131 103.457 42.5711 103.432C42.1282 103.664 41.8254 103.995 41.5591 104.357C41.304 104.724 41.0854 105.122 41.0041 105.607C40.9256 106.095 41.0041 106.672 40.9172 107.149C40.9032 107.241 40.8611 107.32 40.8387 107.409C40.2018 105.966 39.7025 104.465 39.3475 102.927C39.4287 102.596 39.5353 102.288 39.7175 102.044C39.9669 101.697 40.379 101.492 40.6761 101.198C40.9705 100.898 41.1611 100.516 41.3405 100.118C41.5115 99.7147 41.6657 99.2999 41.7217 98.7757C41.6853 98.7392 41.6516 98.7028 41.6152 98.6663C41.1527 98.7757 40.8023 99.0083 40.4799 99.2802C40.166 99.5577 39.8829 99.8745 39.7119 100.301C39.5437 100.732 39.5044 101.282 39.3278 101.697C39.283 101.809 39.2129 101.896 39.154 101.994C38.8647 100.477 38.7145 98.9375 38.7055 97.3937C38.8625 97.0293 39.0475 96.6985 39.3138 96.4799C39.6166 96.2192 40.0398 96.1351 40.3762 95.9304C40.707 95.723 40.9593 95.4119 41.1975 95.0811C41.4302 94.7419 41.6488 94.3831 41.7946 93.8981C41.7666 93.8561 41.7413 93.8112 41.7133 93.7692C41.2592 93.758 40.8892 93.8953 40.5388 94.0719C40.194 94.257 39.8716 94.484 39.6306 94.8428C39.3923 95.2072 39.2549 95.7146 39.0083 96.0566C38.927 96.1771 38.8205 96.2668 38.7195 96.3621C38.7728 94.8568 38.9578 93.3487 39.2802 91.8658C39.2942 91.8434 39.311 91.821 39.325 91.7986C39.5661 91.4342 39.8324 91.1118 40.1632 90.9492C40.4911 90.7782 40.9004 90.809 41.248 90.6969C41.5928 90.582 41.8843 90.3437 42.1674 90.083C42.4477 89.8111 42.7168 89.5168 42.9439 89.0767C42.9271 89.029 42.9102 88.9786 42.8934 88.9309C42.4758 88.8104 42.1113 88.8524 41.7525 88.9365C41.3994 89.0318 41.0574 89.172 40.7658 89.4579C40.4771 89.7494 40.2501 90.2036 39.9585 90.4671C39.8324 90.5876 39.6894 90.6689 39.5465 90.7446C39.9421 89.2559 40.4722 87.8063 41.1302 86.4137C41.1443 86.4305 41.1555 86.4473 41.1695 86.4641C41.2256 86.4053 41.2844 86.3492 41.3405 86.2903C41.6348 85.996 41.9432 85.7493 42.2795 85.6764C42.6131 85.5923 42.9803 85.7241 43.3167 85.6989C43.6559 85.6708 43.967 85.5082 44.281 85.3148C44.5921 85.113 44.9005 84.8831 45.2032 84.4991C45.2004 84.4458 45.1948 84.3926 45.192 84.3421C44.8388 84.1263 44.4996 84.0842 44.1576 84.0814C43.8185 84.0898 43.4765 84.1487 43.1513 84.3589C42.8262 84.5776 42.5262 84.9644 42.2039 85.1494C42.0469 85.2476 41.8815 85.3036 41.7133 85.3401C41.7189 85.3064 41.7189 85.2756 41.7245 85.2447C42.8037 83.2433 44.1745 81.3511 45.8395 79.63C44.2614 81.1549 42.9187 82.834 41.8142 84.628C41.817 84.5748 41.8422 84.5131 41.8422 84.4599C41.8675 84.0758 41.8871 83.6946 41.8507 83.3302C41.7357 82.6238 41.5451 81.937 41.0181 81.3624C40.9621 81.382 40.906 81.4044 40.8499 81.424C40.2921 82.4023 40.1463 83.2601 40.1435 84.0422C40.166 84.4234 40.2557 84.7738 40.3706 85.1074C40.4659 85.4522 40.6369 85.7577 40.8499 86.0409C40.8808 86.0801 40.9116 86.1221 40.9396 86.1614C40.3061 87.3667 39.7735 88.6142 39.3418 89.8924C39.339 89.8784 39.3418 89.8644 39.339 89.8532C39.2634 89.4495 39.1793 89.0487 39.0531 88.6814C38.756 87.9666 38.3972 87.2883 37.7413 86.7837C37.6908 86.8145 37.6403 86.8482 37.5927 86.879C37.2927 88.0059 37.3656 88.9253 37.5647 89.7354C37.6852 90.1279 37.8646 90.4727 38.0664 90.7978C38.2514 91.1398 38.5009 91.4201 38.7868 91.6724C38.7952 91.6808 38.8036 91.6864 38.8121 91.6949C38.4871 92.9607 38.2575 94.2491 38.1253 95.5492C37.9487 95.168 37.7749 94.7895 37.5618 94.4476C37.0825 93.7664 36.5527 93.1301 35.7734 92.7208C35.7314 92.7629 35.6894 92.8049 35.6501 92.847C35.6305 94.0663 35.9388 95.0026 36.3481 95.8015C36.5695 96.1827 36.8386 96.5079 37.1274 96.8022C37.3796 97.091 37.6824 97.3124 38.0047 97.5058C37.9712 98.7906 38.033 100.076 38.1898 101.352C37.9291 101.021 37.6712 100.687 37.3853 100.399C36.7237 99.7932 36.0257 99.2382 35.1371 98.9523C35.1063 99.0027 35.0727 99.0532 35.0418 99.1036C35.3277 100.357 35.8744 101.259 36.4967 101.997C36.819 102.347 37.1778 102.624 37.5478 102.871C37.845 103.093 38.1757 103.233 38.5121 103.362C38.7659 104.618 39.1126 105.854 39.5493 107.059C39.2157 106.793 38.8849 106.518 38.5373 106.294C37.702 105.806 36.847 105.369 35.8659 105.237L35.8071 105.405C36.4126 106.627 37.2059 107.443 38.0384 108.071C38.4617 108.363 38.9046 108.576 39.3503 108.752C39.6754 108.901 40.0146 108.965 40.3538 109.027C40.8949 110.205 41.5227 111.342 42.2319 112.427C41.8366 112.237 41.4414 112.037 41.0462 111.886C40.051 111.558 39.0503 111.278 37.9991 111.323C37.9935 111.384 37.9851 111.443 37.9795 111.505C38.9186 112.629 39.9557 113.296 40.9873 113.764C41.5059 113.974 42.0245 114.101 42.5402 114.188C42.8794 114.26 43.2102 114.252 43.5438 114.252C44.1073 114.969 44.707 115.657 45.3406 116.312L46.3553 115.298C45.6261 114.594 44.94 113.847 44.3006 113.061C44.2558 112.803 44.2445 112.553 44.281 112.321ZM74.3335 106.285C73.9859 106.51 73.6579 106.784 73.3215 107.051C73.7589 105.846 74.1056 104.61 74.3587 103.353C74.6951 103.224 75.0258 103.081 75.323 102.863C75.693 102.616 76.0518 102.338 76.3742 101.988C76.9965 101.248 77.5431 100.348 77.829 99.0952C77.7981 99.0448 77.7645 98.9943 77.7337 98.9439C76.8451 99.2298 76.1471 99.7848 75.4856 100.39C75.1996 100.679 74.9417 101.013 74.6811 101.343C74.8378 100.068 74.8996 98.7822 74.8661 97.4974C75.1884 97.304 75.4912 97.0826 75.7435 96.7938C76.0322 96.4995 76.3013 96.1743 76.5227 95.7931C76.932 94.9942 77.2375 94.0579 77.2207 92.8385L77.0946 92.7124C76.3153 93.1217 75.7855 93.758 75.3062 94.4392C75.0931 94.7811 74.9165 95.1596 74.7427 95.5408C74.6105 94.2406 74.381 92.9522 74.056 91.6864C74.0644 91.678 74.0728 91.6724 74.0812 91.664C74.3671 91.4117 74.6166 91.1286 74.8016 90.7894C75.0034 90.4643 75.1828 90.1167 75.3034 89.727C75.5024 88.9141 75.5753 87.9947 75.2753 86.8706C75.2249 86.837 75.1744 86.8061 75.1268 86.7753C74.4708 87.2799 74.1092 87.9582 73.8149 88.673C73.6887 89.043 73.6018 89.4411 73.529 89.8448C73.5262 89.856 73.5262 89.8728 73.5262 89.884C73.0929 88.6001 72.5586 87.3525 71.9284 86.153C71.9592 86.1137 71.99 86.0717 72.0181 86.0324C72.2311 85.7493 72.4021 85.4438 72.4974 85.099C72.6123 84.7654 72.702 84.415 72.7245 84.0338C72.7217 83.2517 72.5759 82.3939 72.0181 81.4156C71.962 81.3932 71.9059 81.3736 71.8499 81.3539C71.3229 81.9286 71.1323 82.6154 71.0173 83.3218C70.9809 83.6834 71.0005 84.0646 71.0258 84.4515C71.0258 84.5047 71.0482 84.5636 71.0538 84.6196C69.9242 82.7933 68.5721 81.1144 67.0285 79.6216C68.6936 81.3455 70.0643 83.2377 71.1435 85.2363C71.1491 85.27 71.1519 85.3008 71.1547 85.3316C70.9818 85.2985 70.8165 85.2339 70.667 85.141C70.3446 84.956 70.0447 84.5664 69.7195 84.3505C69.3943 84.1403 69.0523 84.0842 68.7132 84.073C68.3712 84.0758 68.0292 84.1179 67.6788 84.3337C67.676 84.387 67.6704 84.4402 67.6676 84.4907C67.9703 84.8747 68.2759 85.1046 68.5898 85.3064C68.9038 85.497 69.2149 85.6624 69.5541 85.6905C69.8905 85.7157 70.2577 85.5839 70.5913 85.668C70.9277 85.7409 71.236 85.9876 71.5303 86.2819C71.5864 86.3408 71.6453 86.3969 71.7013 86.4557C71.7153 86.4389 71.7265 86.4221 71.7406 86.4053C72.4003 87.7972 72.9304 89.247 73.3243 90.7362C73.1814 90.6605 73.0384 90.5792 72.9123 90.4587C72.6207 90.1952 72.3937 89.7438 72.105 89.4495C71.8162 89.1636 71.4715 89.0234 71.1183 88.9281C70.7623 88.844 70.3951 88.802 69.9774 88.9225C69.9606 88.9702 69.9437 89.0206 69.9269 89.0683C70.154 89.5084 70.4231 89.8027 70.7034 90.0746C70.9865 90.3353 71.278 90.5736 71.6228 90.6885C71.9704 90.8006 72.3797 90.7698 72.7076 90.9408C73.0412 91.1034 73.3075 91.4229 73.5458 91.7902C73.5598 91.8126 73.5766 91.835 73.5906 91.8574C73.9108 93.3365 74.0985 94.8413 74.1513 96.3537C74.0503 96.2584 73.9466 96.1687 73.8625 96.0482C73.6159 95.7062 73.4785 95.1988 73.2402 94.8344C72.9992 94.4756 72.6768 94.2485 72.332 94.0635C71.9816 93.8869 71.6116 93.7496 71.1575 93.7608C71.1295 93.8028 71.1042 93.8477 71.0762 93.8897C71.222 94.3775 71.4406 94.7335 71.6761 95.0727C71.9172 95.4034 72.1666 95.7174 72.4974 95.922C72.831 96.1267 73.2571 96.208 73.5598 96.4715C73.8261 96.6901 74.0111 97.0209 74.1681 97.3853C74.1597 98.9298 74.0083 100.469 73.7196 101.985C73.6607 101.887 73.5906 101.797 73.5458 101.688C73.3664 101.273 73.3299 100.724 73.1618 100.292C72.9908 99.8661 72.7048 99.5493 72.3937 99.2718C72.0713 98.9999 71.7209 98.7673 71.2584 98.6579C71.222 98.6944 71.1883 98.7308 71.1519 98.7673C71.208 99.2886 71.3621 99.7035 71.5331 100.11C71.7125 100.505 71.9031 100.886 72.1975 101.189C72.4946 101.486 72.9067 101.688 73.1561 102.036C73.3384 102.277 73.4477 102.588 73.529 102.919C73.1752 104.457 72.6758 105.958 72.0377 107.401C72.0153 107.314 71.9732 107.233 71.9592 107.14C71.8723 106.664 71.9508 106.086 71.8723 105.599C71.791 105.114 71.5724 104.716 71.3173 104.348C71.051 103.987 70.7482 103.659 70.3054 103.423C70.2633 103.451 70.2213 103.479 70.1792 103.505C70.1344 104.051 70.2044 104.517 70.2941 104.973C70.3923 105.428 70.5044 105.87 70.7314 106.257C70.9613 106.644 71.3257 106.964 71.4967 107.39C71.6004 107.636 71.6453 107.914 71.6649 108.206C70.9541 109.672 70.1007 111.064 69.1168 112.363C69.1168 112.295 69.1028 112.231 69.1056 112.164C69.1364 111.639 69.3523 111.056 69.3887 110.527C69.4196 110 69.2934 109.529 69.1252 109.083C68.943 108.64 68.716 108.222 68.3291 107.866C68.2815 107.883 68.2338 107.903 68.1862 107.92C68.0264 108.475 67.9956 108.974 67.9787 109.475C67.9731 109.972 67.9815 110.465 68.1133 110.927C68.2478 111.39 68.531 111.819 68.5926 112.312C68.6291 112.548 68.6179 112.794 68.5842 113.047C67.9535 113.823 67.2667 114.572 66.5295 115.284L67.5443 116.298C68.1786 115.643 68.7783 114.955 69.3411 114.238C69.6746 114.235 70.0054 114.246 70.3446 114.173C70.8604 114.087 71.379 113.96 71.8975 113.75C72.9291 113.282 73.9663 112.615 74.9053 111.491C74.9002 111.43 74.8936 111.369 74.8857 111.309C73.8345 111.264 72.8338 111.544 71.8387 111.872C71.4434 112.023 71.0482 112.222 70.6529 112.413C71.3627 111.328 71.9905 110.191 72.531 109.013C72.8702 108.948 73.2094 108.884 73.5346 108.738C73.9803 108.562 74.4232 108.349 74.8464 108.057C75.679 107.429 76.4723 106.613 77.0777 105.391L77.0189 105.223C76.0238 105.36 75.1688 105.798 74.3335 106.285Z" fill="#CACACA"/>
<path d="M42.0217 62.1747L34.8176 46.3256C33.9711 44.4503 31.7622 43.6177 29.8897 44.4671C28.0172 45.3164 27.1819 47.5225 28.0312 49.3979L35.1456 65.0508C35.9837 66.9065 38.1001 67.9212 39.9838 67.2008C41.9852 66.3963 42.9019 64.1173 42.0217 62.1747ZM71.8051 62.1747L79.0091 46.3256C79.8557 44.4503 82.0646 43.6177 83.9371 44.4671C85.8124 45.3136 86.6449 47.5225 85.7955 49.3979L78.6812 65.0508C77.843 66.9065 75.7267 67.9212 73.8429 67.2008C71.8415 66.3963 70.9277 64.1173 71.8051 62.1747Z" fill="#DC494A"/>
</g>
<path d="M9.5 34.5L15.5 29H21.5H36H62.5H114V43H0L9.5 34.5Z" fill="#9A2600"/>
<rect x="114" y="11" width="121" height="172" fill="#E77552"/>
<g filter="url(#filter1_di_1188_10638)">
<path d="M187.408 10H212.93L187.408 44.729H161.885L187.408 10Z" fill="#C32430"/>
<path d="M195.262 62.0347H154.031C153.555 62.0347 153.098 61.8455 152.761 61.5088C152.425 61.172 152.235 60.7153 152.235 60.239V45.4603C152.235 42.1243 154.323 39.0747 157.429 37.8717C157.626 37.7954 157.835 37.7544 158.047 37.7506L183.25 37.3171L183.281 37.3169H188.915C193.405 37.3169 197.058 40.9699 197.058 45.4603V60.239C197.058 60.7153 196.869 61.1721 196.532 61.5088C196.195 61.8456 195.738 62.0347 195.262 62.0347ZM155.827 58.4433H193.466V45.4603C193.466 42.9503 191.425 40.9085 188.915 40.9085H183.296L158.456 41.3357C156.872 42.0729 155.827 43.6946 155.827 45.4603L155.827 58.4433Z" fill="#EAB14D"/>
<path d="M161.885 10H136.363L161.885 44.729H187.408L161.885 10Z" fill="#DA4A54"/>
<path d="M174.647 129C196.543 129 214.293 111.249 214.293 89.3531C214.293 67.4569 196.543 49.7065 174.647 49.7065C152.75 49.7065 135 67.4569 135 89.3531C135 111.249 152.75 129 174.647 129Z" fill="#F4DD45"/>
<path d="M176.526 128.954C175.903 128.985 175.276 129 174.646 129C152.752 129 135 111.25 135 89.3538C135 67.4574 152.752 49.708 174.646 49.708C175.276 49.708 175.903 49.7224 176.526 49.7536C155.501 50.733 138.757 68.0872 138.757 89.3541C138.757 110.62 155.501 127.975 176.526 128.954Z" fill="#EAB14D"/>
<path d="M174.646 118.468C190.726 118.468 203.761 105.433 203.761 89.3536C203.761 73.2742 190.726 60.2393 174.646 60.2393C158.567 60.2393 145.532 73.2742 145.532 89.3536C145.532 105.433 158.567 118.468 174.646 118.468Z" fill="#EAB14D"/>
<path d="M175.736 109.244C173.753 109.244 172.145 107.636 172.145 105.653V76.6456H168.768C166.785 76.6456 165.177 75.0377 165.177 73.054C165.177 71.0703 166.785 69.4624 168.768 69.4624H175.736C177.72 69.4624 179.328 71.0705 179.328 73.054V105.653C179.328 107.637 177.72 109.244 175.736 109.244Z" fill="#F4DD45"/>
</g>
<path d="M226.746 5.5L218.535 0H214.886H201.658H177.482H130.5L114 11H234.5L226.746 5.5Z" fill="#9A2600"/>
<rect x="235" y="69" width="114" height="114" fill="#E45F35"/>
<g filter="url(#filter2_di_1188_10638)">
<path d="M300.71 69H327L305.145 96.893H278.855L300.71 69Z" fill="#E52E40"/>
<path d="M300.71 69H311.821L289.966 96.893H278.855L300.71 69Z" fill="#E52E40"/>
<path d="M309.208 69H318.502L296.647 96.893H287.352L309.208 69Z" fill="#EAEAE4"/>
<path d="M292 156.342C307.038 156.342 319.229 144.151 319.229 129.113C319.229 114.074 307.038 101.883 292 101.883C276.962 101.883 264.771 114.074 264.771 129.113C264.771 144.151 276.962 156.342 292 156.342Z" fill="#FFC059"/>
<path d="M278.855 105.262V96.8928H305.145V105.262L309.601 108.336V94.6646C309.601 93.4346 308.605 92.4365 307.373 92.4365H276.627C275.397 92.4365 274.399 93.4346 274.399 94.6646V108.338L278.855 105.262Z" fill="#FFC059"/>
<path d="M292 149.497C303.258 149.497 312.384 140.371 312.384 129.113C312.384 117.854 303.258 108.728 292 108.728C280.742 108.728 271.616 117.854 271.616 129.113C271.616 140.371 280.742 149.497 292 149.497Z" fill="#DD8D19"/>
<path d="M283.29 69H257L278.855 96.893H305.145L283.29 69Z" fill="#E52E40"/>
<path d="M283.29 69H272.179L294.034 96.893H305.145L283.29 69Z" fill="#E52E40"/>
<path d="M274.792 69H265.498L287.353 96.893H296.648L274.792 69Z" fill="#EAEAE4"/>
<path d="M297.244 134.712V133.967C297.244 130.828 295.322 129.69 292.458 129.69C291.477 129.69 291.124 128.867 291.124 128.043C291.124 127.18 291.477 126.356 292.458 126.356C294.851 126.356 296.538 125.61 296.538 122.04C296.538 119.176 295.165 117.999 292.615 117.999C289.437 117.999 288.534 119.607 288.534 121.216C288.534 122.236 288.063 122.903 286.573 122.903C284.729 122.903 284.415 122.471 284.415 120.981C284.415 118.43 286.18 114.35 292.654 114.35C297.244 114.35 300.54 116.155 300.54 121.334C300.54 124.59 299.284 126.983 297.401 127.886C299.716 128.788 301.403 130.632 301.403 133.967V134.713C301.403 140.951 297.401 143.265 292.458 143.265C286.337 143.265 283.787 139.46 283.787 136.36C283.787 134.987 284.297 134.595 285.709 134.595C287.436 134.595 287.867 135.105 287.867 136.164C287.867 137.891 289.319 139.578 292.497 139.578C295.714 139.577 297.244 138.126 297.244 134.712Z" fill="#FFC059"/>
</g>
<path d="M339.5 62.3214L333.5 58H327.5H313H286.5H235V69H349L339.5 62.3214Z" fill="#9A2600"/>
<defs>
<filter id="filter0_di_1188_10638" x="7" y="38" width="99.2801" height="102.491" filterUnits="userSpaceOnUse" color-interpolation-filters="sRGB">
<feFlood flood-opacity="0" result="BackgroundImageFix"/>
<feColorMatrix in="SourceAlpha" type="matrix" values="0 0 0 0 0 0 0 0 0 0 0 0 0 0 0 0 0 0 127 0" result="hardAlpha"/>
<feOffset dy="4"/>
<feGaussianBlur stdDeviation="2.5"/>
<feComposite in2="hardAlpha" operator="out"/>
<feColorMatrix type="matrix" values="0 0 0 0 0 0 0 0 0 0 0 0 0 0 0 0 0 0 0.35 0"/>
<feBlend mode="normal" in2="BackgroundImageFix" result="effect1_dropShadow_1188_10638"/>
<feBlend mode="normal" in="SourceGraphic" in2="effect1_dropShadow_1188_10638" result="shape"/>
<feColorMatrix in="SourceAlpha" type="matrix" values="0 0 0 0 0 0 0 0 0 0 0 0 0 0 0 0 0 0 127 0" result="hardAlpha"/>
<feOffset dy="-4"/>
<feGaussianBlur stdDeviation="2"/>
<feComposite in2="hardAlpha" operator="arithmetic" k2="-1" k3="1"/>
<feColorMatrix type="matrix" values="0 0 0 0 1 0 0 0 0 0.686997 0 0 0 0 0.620833 0 0 0 0.3 0"/>
<feBlend mode="normal" in2="shape" result="effect2_innerShadow_1188_10638"/>
</filter>
<filter id="filter1_di_1188_10638" x="130" y="6" width="89.2931" height="132" filterUnits="userSpaceOnUse" color-interpolation-filters="sRGB">
<feFlood flood-opacity="0" result="BackgroundImageFix"/>
<feColorMatrix in="SourceAlpha" type="matrix" values="0 0 0 0 0 0 0 0 0 0 0 0 0 0 0 0 0 0 127 0" result="hardAlpha"/>
<feOffset dy="4"/>
<feGaussianBlur stdDeviation="2.5"/>
<feComposite in2="hardAlpha" operator="out"/>
<feColorMatrix type="matrix" values="0 0 0 0 0 0 0 0 0 0 0 0 0 0 0 0 0 0 0.35 0"/>
<feBlend mode="normal" in2="BackgroundImageFix" result="effect1_dropShadow_1188_10638"/>
<feBlend mode="normal" in="SourceGraphic" in2="effect1_dropShadow_1188_10638" result="shape"/>
<feColorMatrix in="SourceAlpha" type="matrix" values="0 0 0 0 0 0 0 0 0 0 0 0 0 0 0 0 0 0 127 0" result="hardAlpha"/>
<feOffset dy="-4"/>
<feGaussianBlur stdDeviation="2"/>
<feComposite in2="hardAlpha" operator="arithmetic" k2="-1" k3="1"/>
<feColorMatrix type="matrix" values="0 0 0 0 1 0 0 0 0 0.686997 0 0 0 0 0.620833 0 0 0 0.3 0"/>
<feBlend mode="normal" in2="shape" result="effect2_innerShadow_1188_10638"/>
</filter>
<filter id="filter2_di_1188_10638" x="252" y="65" width="80" height="100.342" filterUnits="userSpaceOnUse" color-interpolation-filters="sRGB">
<feFlood flood-opacity="0" result="BackgroundImageFix"/>
<feColorMatrix in="SourceAlpha" type="matrix" values="0 0 0 0 0 0 0 0 0 0 0 0 0 0 0 0 0 0 127 0" result="hardAlpha"/>
<feOffset dy="4"/>
<feGaussianBlur stdDeviation="2.5"/>
<feComposite in2="hardAlpha" operator="out"/>
<feColorMatrix type="matrix" values="0 0 0 0 0 0 0 0 0 0 0 0 0 0 0 0 0 0 0.35 0"/>
<feBlend mode="normal" in2="BackgroundImageFix" result="effect1_dropShadow_1188_10638"/>
<feBlend mode="normal" in="SourceGraphic" in2="effect1_dropShadow_1188_10638" result="shape"/>
<feColorMatrix in="SourceAlpha" type="matrix" values="0 0 0 0 0 0 0 0 0 0 0 0 0 0 0 0 0 0 127 0" result="hardAlpha"/>
<feOffset dy="-4"/>
<feGaussianBlur stdDeviation="2"/>
<feComposite in2="hardAlpha" operator="arithmetic" k2="-1" k3="1"/>
<feColorMatrix type="matrix" values="0 0 0 0 1 0 0 0 0 0.686997 0 0 0 0 0.620833 0 0 0 0.3 0"/>
<feBlend mode="normal" in2="shape" result="effect2_innerShadow_1188_10638"/>
</filter>
</defs>
</svg>
