<svg width="52" height="54" viewBox="0 0 52 54" fill="none" xmlns="http://www.w3.org/2000/svg">
<path d="M23.8621 47.3481C21.8826 47.3481 20.2723 45.7377 20.2723 43.7582V22.8184C20.2723 20.8389 21.8827 19.2285 23.8621 19.2285H44.8021C46.7816 19.2285 48.3919 20.8389 48.3919 22.8184V41.0634C50.5847 37.2664 51.8398 32.8599 51.8398 28.1602C51.8398 13.8892 40.271 2.32031 26 2.32031C11.729 2.32031 0.160156 13.8892 0.160156 28.1602C0.160156 42.4311 11.729 54 26 54C32.6566 54 38.7246 51.4822 43.3056 47.3481H23.8621Z" fill="#D4F2F6"/>
<path d="M15.0313 31.0233H0.318848C1.40264 40.8544 8.00045 49.0233 16.9525 52.3704V32.9445C16.9526 31.8834 16.0924 31.0233 15.0313 31.0233ZM35.7185 4.2124V12.6337C35.7185 13.6948 36.5787 14.555 37.6398 14.555H47.9702C45.1014 9.9325 40.8154 6.28286 35.7185 4.2124Z" fill="#A6E7F0"/>
<path d="M20.2724 22.8184C20.2724 20.8389 21.8828 19.2285 23.8623 19.2285H31.8332V3.69531C31.8332 1.65438 30.1788 0 28.1379 0H7.19799C5.15717 0 3.50269 1.65438 3.50269 3.69531V24.6353C3.50269 26.6761 5.15717 28.3306 7.19799 28.3306H20.2724V22.8184Z" fill="#2ED1E2"/>
<path d="M20.2723 22.8185C20.2723 20.839 21.8827 19.2286 23.8621 19.2286H28.9521V3.69539C28.9521 3.24631 28.5867 2.88086 28.1376 2.88086H7.19784C6.74875 2.88086 6.3833 3.2462 6.3833 3.69539V24.6354C6.3833 25.0845 6.74864 25.4498 7.19784 25.4498H20.2723V22.8185Z" fill="#03BED7"/>
<path d="M11.2503 24.6353V3.69539C11.2503 3.24631 11.6156 2.88086 12.0648 2.88086H7.19784C6.74875 2.88086 6.3833 3.2462 6.3833 3.69539V24.6354C6.3833 25.0845 6.74864 25.4498 7.19784 25.4498H12.0647C11.6156 25.4497 11.2503 25.0845 11.2503 24.6353Z" fill="#07B2CD"/>
<path d="M17.668 10.2257L16.8939 12.2697L18.2694 15.9019H19.8175L17.668 10.2257ZM21.4359 20.1753L20.9085 18.7827H19.3604L20.4582 21.6812C20.6515 21.1047 20.9879 20.5866 21.4359 20.1753ZM10.0171 22.2943L16.3209 5.6486C16.431 5.35844 16.632 5.11167 16.8938 4.94513C16.6628 4.79716 16.3942 4.71844 16.1198 4.71826C15.8274 4.71826 15.5419 4.80726 15.3013 4.97345C15.0607 5.13963 14.8764 5.37512 14.7729 5.6486L8.469 22.2943C8.33832 22.6393 8.59324 23.0084 8.96217 23.0084H10.5102C10.1413 23.0083 9.88639 22.6393 10.0171 22.2943Z" fill="#0199B1"/>
<path d="M21.4357 20.1754C22.0752 19.5879 22.9274 19.2284 23.8622 19.2284H24.1576L19.0148 5.64857C18.9113 5.3751 18.7269 5.13962 18.4863 4.97344C18.2457 4.80727 17.9602 4.71826 17.6678 4.71826C17.3753 4.71826 17.0898 4.80727 16.8492 4.97344C16.6086 5.13962 16.4243 5.3751 16.3207 5.64857L10.0168 22.2943C9.88617 22.6393 10.1411 23.0084 10.51 23.0084H12.4628C12.5698 23.0084 12.6743 22.9758 12.7624 22.915C12.8505 22.8542 12.918 22.768 12.9559 22.6679L14.4272 18.7827H20.9083L21.4357 20.1754ZM15.5183 15.9019L17.6679 10.2258L19.8174 15.9019H15.5183Z" fill="white"/>
<path d="M48.4975 22.8184C48.4975 20.7775 46.843 19.123 44.8022 19.123H23.8623C21.8215 19.123 20.167 20.7774 20.167 22.8184V43.7583C20.167 45.7992 21.8215 47.4536 23.8623 47.4536H43.1868C45.3046 45.5664 47.0986 43.3448 48.4975 40.8771V22.8184Z" fill="#FD6930"/>
<path d="M26.1317 43.7582V22.8184C26.1317 20.7775 27.7862 19.123 29.8271 19.123H23.8621C21.8212 19.123 20.1667 20.7774 20.1667 22.8184V43.7583C20.1667 45.7992 21.8212 47.4536 23.8621 47.4536H29.8271C27.7862 47.4535 26.1317 45.7992 26.1317 43.7582Z" fill="#FD5426"/>
<path d="M25.96 36.3145C25.9984 33.7983 27.5327 31.6588 29.6963 30.6726C29.3438 30.0724 29.1372 29.3977 29.0932 28.703C28.9371 26.2491 30.7329 24.1737 33.0752 23.8786C32.905 23.854 32.7332 23.8415 32.5612 23.8413H31.7303C29.115 23.8413 27.0064 26.052 27.1749 28.703C27.219 29.3977 27.4255 30.0724 27.778 30.6726C25.6144 31.6588 24.0802 33.7982 24.0418 36.3145C23.9879 39.8455 26.8446 42.735 30.3634 42.735H32.2817C28.7629 42.7351 25.9061 39.8455 25.96 36.3145Z" fill="#D73D24"/>
<path d="M42.5468 38.1636C40.4589 39.2739 38.1304 39.8545 35.7658 39.8545H32.3551C30.4824 39.8545 28.8974 38.389 28.8418 36.5171C28.784 34.5721 30.3495 32.9714 32.2818 32.9714H35.6823C36.2522 32.9714 36.8108 33.1296 37.2961 33.4283L38.2147 33.9937L39.1842 28.232L38.819 28.6407C38.4114 29.0968 37.9121 29.4618 37.3537 29.7116C36.7954 29.9615 36.1906 30.0906 35.5789 30.0906H33.6488C32.6557 30.0906 31.8607 29.2265 31.9758 28.2108C32.0731 27.3533 32.8312 26.7226 33.6944 26.7226H38.7909L37.0957 24.9568C36.7573 24.6043 36.3511 24.3238 35.9015 24.1322C35.452 23.9406 34.9684 23.8418 34.4797 23.8418H33.6488C31.0335 23.8418 28.9248 26.0525 29.0934 28.7035C29.1374 29.3982 29.344 30.0728 29.6965 30.6731C27.5329 31.6592 25.9986 33.7987 25.9602 36.315C25.9063 39.8459 28.7631 42.7355 32.2818 42.7355H35.5132C38.8989 42.7355 42.0125 40.7534 43.4454 37.6859L42.5468 38.1636Z" fill="white"/>
</svg>
