<svg width="393" height="678" viewBox="0 0 393 678" fill="none" xmlns="http://www.w3.org/2000/svg">
<path d="M265.838 88.8181C264.421 86.363 262.382 84.3244 259.927 82.9075L120.076 2.16388C117.621 0.746303 114.836 0 112.001 0C109.166 0 106.382 0.746303 103.927 2.16388L-35.9234 82.9075C-38.3783 84.3246 -40.4168 86.3631 -41.834 88.8181L112.002 177.636L265.838 88.8181Z" fill="#FCFCF9" fill-opacity="0.06"/>
<path d="M112.001 355.274C114.836 355.274 117.62 354.528 120.075 353.109L259.926 272.365C262.381 270.948 264.419 268.909 265.836 266.455C267.254 264 268 261.215 268 258.38V96.8925C268 94.0073 267.23 91.2331 265.836 88.8184L112.001 177.637V355.274Z" fill="#FCFCF9" fill-opacity="0.04"/>
<path d="M103.926 353.109C106.381 354.528 109.166 355.274 112.001 355.274V177.637L-41.8357 88.8184C-43.2538 91.2729 -44.0003 94.0578 -44 96.8925V258.38C-44.0001 261.215 -43.254 264 -41.8367 266.455C-40.4194 268.909 -38.3808 270.948 -35.9258 272.365L103.926 353.109Z" fill="#FCFCF9" fill-opacity="0.02"/>
<path d="M392.014 298.25C391.515 297.386 390.798 296.669 389.934 296.17L340.729 267.761C339.865 267.263 338.885 267 337.888 267C336.89 267 335.91 267.263 335.047 267.761L285.842 296.17C284.978 296.669 284.261 297.386 283.762 298.25L337.888 329.5L392.014 298.25Z" fill="#FCFCF9" fill-opacity="0.06"/>
<path d="M337.888 392C338.885 392 339.865 391.738 340.728 391.239L389.934 362.829C390.797 362.331 391.515 361.613 392.013 360.75C392.512 359.886 392.775 358.906 392.775 357.909V301.091C392.775 300.076 392.504 299.1 392.013 298.25L337.888 329.5V392Z" fill="#FCFCF9" fill-opacity="0.04"/>
<path d="M335.047 391.239C335.91 391.738 336.89 392 337.887 392V329.5L283.761 298.25C283.263 299.114 283 300.093 283 301.091V357.909C283 358.906 283.262 359.886 283.761 360.75C284.26 361.614 284.977 362.331 285.841 362.829L335.047 391.239Z" fill="#FCFCF9" fill-opacity="0.02"/>
<path d="M135.666 423.75C135.031 422.651 134.119 421.739 133.02 421.105L70.4308 384.968C69.3322 384.334 68.0858 384 66.8172 384C65.5485 384 64.3021 384.334 63.2035 384.968L0.6146 421.105C-0.484082 421.739 -1.39641 422.651 -2.03064 423.75L66.8173 463.5L135.666 423.75Z" fill="#FCFCF9" fill-opacity="0.06"/>
<path d="M66.817 543C68.0857 543 69.332 542.666 70.4305 542.031L133.02 505.895C134.118 505.261 135.031 504.348 135.665 503.25C136.299 502.151 136.633 500.905 136.633 499.636V427.364C136.633 426.072 136.289 424.831 135.665 423.75L66.817 463.5V543Z" fill="#FCFCF9" fill-opacity="0.04"/>
<path d="M63.2033 542.031C64.3018 542.666 65.5482 543 66.8169 543V463.5L-2.0314 423.75C-2.66605 424.849 -3.00013 426.095 -3 427.364V499.636C-3.00006 500.905 -2.66614 502.151 -2.03183 503.25C-1.39752 504.348 -0.485161 505.261 0.613525 505.895L63.2033 542.031Z" fill="#FCFCF9" fill-opacity="0.02"/>
<path d="M406.365 476.183C405.293 474.326 403.751 472.784 401.894 471.712L296.109 410.637C294.252 409.565 292.145 409 290.001 409C287.857 409 285.75 409.565 283.893 410.637L178.109 471.712C176.252 472.784 174.71 474.326 173.638 476.183L290.001 543.366L406.365 476.183Z" fill="#FCFCF9" fill-opacity="0.06"/>
<path d="M290.001 677.733C292.145 677.734 294.251 677.169 296.108 676.096L401.893 615.02C403.75 613.948 405.292 612.406 406.364 610.549C407.436 608.693 408 606.586 408 604.442V482.291C408 480.109 407.418 478.01 406.363 476.184L290.001 543.367V677.733Z" fill="#FCFCF9" fill-opacity="0.04"/>
<path d="M283.893 676.096C285.75 677.169 287.856 677.733 290 677.733V543.367L173.637 476.184C172.564 478.04 172 480.147 172 482.291V604.442C172 606.586 172.564 608.693 173.636 610.549C174.708 612.406 176.25 613.948 178.107 615.02L283.893 676.096Z" fill="#FCFCF9" fill-opacity="0.02"/>
</svg>
