<svg width="312" height="298" viewBox="0 0 312 298" fill="none" xmlns="http://www.w3.org/2000/svg">
<path d="M309.838 30.8181C308.421 28.363 306.382 26.3244 303.927 24.9075L164.076 -55.8361C161.621 -57.2537 158.836 -58 156.001 -58C153.166 -58 150.382 -57.2537 147.927 -55.8361L8.07661 24.9075C5.62168 26.3246 3.58315 28.3631 2.16602 30.8181L156.002 119.636L309.838 30.8181Z" fill="#FCFCF9" fill-opacity="0.06"/>
<path d="M156.001 297.274C158.836 297.274 161.62 296.528 164.075 295.109L303.926 214.365C306.381 212.948 308.419 210.909 309.836 208.455C311.254 206 312 203.215 312 200.38V38.8925C312 36.0073 311.23 33.2331 309.836 30.8184L156.001 119.637V297.274Z" fill="#FCFCF9" fill-opacity="0.04"/>
<path d="M147.926 295.109C150.381 296.528 153.166 297.274 156.001 297.274V119.637L2.16425 30.8184C0.746181 33.2729 -0.000281345 36.0578 7.95456e-08 38.8925V200.38C-0.000123139 203.215 0.745979 206 2.1633 208.455C3.58062 210.909 5.61922 212.948 8.07415 214.365L147.926 295.109Z" fill="#FCFCF9" fill-opacity="0.02"/>
</svg>
