<svg width="19" height="17" viewBox="0 0 19 17" fill="none" xmlns="http://www.w3.org/2000/svg">
<path fill-rule="evenodd" clip-rule="evenodd" d="M5.87996 1.16028C5.87996 0.674517 6.2434 0.280273 6.6922 0.280273H12.1077C12.5565 0.280273 12.9199 0.674517 12.9199 1.16028C12.9199 1.64605 12.5565 2.04029 12.1077 2.04029H6.6922C6.2434 2.04029 5.87996 1.64605 5.87996 1.16028ZM7.4446 16.1204H11.3553C14.1018 16.1204 15.4755 16.1204 16.4619 15.4851C16.8864 15.2122 17.253 14.8584 17.5408 14.444C18.1999 13.4936 18.1999 12.1692 18.1999 9.52037C18.1999 6.87154 18.1999 5.54801 17.5399 4.59672C17.2524 4.18233 16.8861 3.8286 16.4619 3.55567C15.4755 2.9203 14.1018 2.9203 11.3553 2.9203H7.4446C4.69813 2.9203 3.32445 2.9203 2.33797 3.55567C1.91383 3.82861 1.54754 4.18235 1.25997 4.59672C0.599976 5.54713 0.599976 6.87154 0.599976 9.51861V9.52037C0.599976 12.1692 0.599976 13.4927 1.25909 14.444C1.54421 14.8559 1.91029 15.2096 2.33797 15.4851C3.32445 16.1204 4.69813 16.1204 7.4446 16.1204ZM5.733 9.52037C5.733 7.56675 7.37508 5.98449 9.39995 5.98449C11.4248 5.98449 13.0669 7.56763 13.0669 9.52037C13.0669 11.4731 11.4239 13.0562 9.39995 13.0562C7.37508 13.0562 5.733 11.4722 5.733 9.52037ZM7.19996 9.52037C7.19996 8.3482 8.18556 7.39955 9.39995 7.39955C10.6144 7.39955 11.5999 8.34908 11.5999 9.52037C11.5999 10.6917 10.6144 11.6412 9.39995 11.6412C8.18556 11.6412 7.19996 10.6917 7.19996 9.52037ZM14.7776 5.98449C14.3728 5.98449 14.0446 6.30129 14.0446 6.69202C14.0446 7.08186 14.3728 7.39867 14.7776 7.39867H15.2669C15.6717 7.39867 15.9999 7.08186 15.9999 6.69202C15.9999 6.30129 15.6717 5.98449 15.2669 5.98449H14.7776Z" fill="#7F8589"/>
</svg>
