<svg width="65" height="65" viewBox="0 0 65 65" fill="none" xmlns="http://www.w3.org/2000/svg">
<path d="M32.076 64.1514C49.7911 64.1514 64.152 49.7906 64.152 32.0757C64.152 14.3608 49.7911 0 32.076 0C14.3609 0 0 14.3608 0 32.0757C0 49.7906 14.3609 64.1514 32.076 64.1514Z" fill="#FF6161"/>
<path fill-rule="evenodd" clip-rule="evenodd" d="M64.1444 32.6993C63.8153 49.9179 49.9196 63.8135 32.7008 64.1426C27.2522 58.6941 21.789 53.2577 16.3411 47.8099C14.9156 46.3844 14.9155 44.0518 16.341 42.6262L26.8925 32.0748L16.341 21.5233C14.9155 20.0978 14.9155 17.7653 16.341 16.3398C17.7665 14.9143 20.0991 14.9141 21.5247 16.3396L32.0763 26.8911L42.6278 16.3396C44.0533 14.9141 46.3859 14.9141 47.8115 16.3396C53.2594 21.7874 58.6957 27.2507 64.1444 32.6993Z" fill="#D75254"/>
<path fill-rule="evenodd" clip-rule="evenodd" d="M16.341 47.8099C17.7665 49.2354 20.0992 49.2354 21.5247 47.8099L32.0763 37.2585L42.6278 47.8099C44.0533 49.2354 46.3859 49.2354 47.8114 47.8099C49.2369 46.3844 49.2369 44.0518 47.8114 42.6262L37.26 32.0748L47.8115 21.5233C49.2371 20.0978 49.2371 17.7653 47.8115 16.3398C46.386 14.9143 44.0534 14.9143 42.6278 16.3398L32.0763 26.8911L21.5247 16.3396C20.0992 14.9141 17.7666 14.9141 16.3411 16.3396C14.9156 17.7651 14.9156 20.0977 16.3411 21.5232L26.8925 32.0748L16.341 42.6262C14.9155 44.0517 14.9155 46.3844 16.341 47.8099Z" fill="white"/>
</svg>
