<svg width="24" height="23" viewBox="0 0 24 23" fill="none" xmlns="http://www.w3.org/2000/svg">
<path d="M5.95399 12.1001H1.92322C1.65596 12.1001 1.39965 12.2063 1.21067 12.3953C1.02169 12.5842 0.915527 12.8406 0.915527 13.1078V21.1694C0.915527 21.4366 1.02169 21.6929 1.21067 21.8819C1.39965 22.0709 1.65596 22.177 1.92322 22.177H5.95399C6.22125 22.177 6.47756 22.0709 6.66653 21.8819C6.85551 21.6929 6.96168 21.4366 6.96168 21.1694V13.1078C6.96168 12.8406 6.85551 12.5842 6.66653 12.3953C6.47756 12.2063 6.22125 12.1001 5.95399 12.1001ZM4.9463 20.1617H2.93091V14.1155H4.9463V20.1617ZM22.0771 8.06935H18.0463C17.779 8.06935 17.5227 8.17552 17.3337 8.3645C17.1448 8.55348 17.0386 8.80979 17.0386 9.07704V21.1694C17.0386 21.4366 17.1448 21.6929 17.3337 21.8819C17.5227 22.0709 17.779 22.177 18.0463 22.177H22.0771C22.3443 22.177 22.6006 22.0709 22.7896 21.8819C22.9786 21.6929 23.0848 21.4366 23.0848 21.1694V9.07704C23.0848 8.80979 22.9786 8.55348 22.7896 8.3645C22.6006 8.17552 22.3443 8.06935 22.0771 8.06935ZM21.0694 20.1617H19.054V10.0847H21.0694V20.1617ZM14.0155 0.0078125H9.98476C9.7175 0.0078125 9.46119 0.11398 9.27221 0.302959C9.08323 0.491938 8.97707 0.748248 8.97707 1.0155V21.1694C8.97707 21.4366 9.08323 21.6929 9.27221 21.8819C9.46119 22.0709 9.7175 22.177 9.98476 22.177H14.0155C14.2828 22.177 14.5391 22.0709 14.7281 21.8819C14.9171 21.6929 15.0232 21.4366 15.0232 21.1694V1.0155C15.0232 0.748248 14.9171 0.491938 14.7281 0.302959C14.5391 0.11398 14.2828 0.0078125 14.0155 0.0078125ZM13.0078 20.1617H10.9925V2.0232H13.0078V20.1617Z" fill="#7F8589"/>
</svg>
