<svg width="67" height="67" viewBox="0 0 67 67" fill="none" xmlns="http://www.w3.org/2000/svg">
<path d="M33.1776 66.3548C51.5011 66.3548 66.3552 51.5008 66.3552 33.1774C66.3552 14.854 51.5011 0 33.1776 0C14.8541 0 0 14.854 0 33.1774C0 51.5008 14.8541 66.3548 33.1776 66.3548Z" fill="#3ECFA5"/>
<path d="M24.6998 48.1441L41.7596 65.2038C55.8889 61.436 66.355 48.5627 66.355 33.1776V32.2357L52.9583 19.8857L24.6998 48.1441Z" fill="#20B583"/>
<path d="M34.0145 40.6097C35.4797 42.075 35.4797 44.5869 34.0145 46.0521L30.9793 49.0873C29.514 50.5525 27.0022 50.5525 25.5369 49.0873L12.2449 35.6907C10.7797 34.2255 10.7797 31.7136 12.2449 30.2484L15.2801 27.2132C16.7454 25.7479 19.2572 25.7479 20.7225 27.2132L34.0145 40.6097Z" fill="white"/>
<path d="M45.6321 17.4788C47.0973 16.0136 49.6092 16.0136 51.0745 17.4788L54.1096 20.514C55.5749 21.9792 55.5749 24.4911 54.1096 25.9563L31.0842 48.877C29.6189 50.3422 27.1071 50.3422 25.6418 48.877L22.6066 45.8418C21.1414 44.3766 21.1414 41.8647 22.6066 40.3995L45.6321 17.4788Z" fill="white"/>
</svg>
