<svg width="52" height="54" viewBox="0 0 52 54" fill="none" xmlns="http://www.w3.org/2000/svg">
<path fill-rule="evenodd" clip-rule="evenodd" d="M36.2935 35.8562C31.4335 35.7421 26.5399 37.3437 21.6266 39.9307C16.533 35.8226 7.6323 34.8893 4.18579 36.9656L12.7106 25.7418C13.8373 24.2566 15.013 21.3306 15.1032 18.7273C15.1075 18.6263 15.1097 18.5252 15.1097 18.4242L15.113 17.0975L15.1195 14.3823L15.1228 12.7525L15.1293 10.0361L15.1337 8.40631L15.1445 3.78857H26.1792L26.2128 18.4239C26.2194 21.1 27.4416 24.1988 28.6151 25.7417L36.2935 35.8562Z" fill="#F9F7F8"/>
<path fill-rule="evenodd" clip-rule="evenodd" d="M0.628906 43.4266C11.858 44.9666 17.531 40.7779 21.6271 36.8511C16.5331 32.7424 7.63235 34.8891 4.18605 36.965L2.80019 38.7883C1.83621 40.0603 1.07546 41.6988 0.628906 43.4266Z" fill="#A1D4FF"/>
<path fill-rule="evenodd" clip-rule="evenodd" d="M6.6869 54.0001H34.6362C37.0016 54.0001 38.6338 53.15 39.6748 51.8257C42.0493 48.062 40.3708 41.4341 38.6184 38.9178L36.2931 35.8563C30.6294 32.6008 26.5394 34.2641 21.627 36.8511C16.4652 39.5706 10.3949 43.3097 0.628771 43.4267C-0.652358 48.3485 0.579623 54.0001 6.6869 54.0001Z" fill="#22A6FE"/>
<path fill-rule="evenodd" clip-rule="evenodd" d="M49.3425 7.72412V28.1724C47.8605 29.1612 45.4582 29.1612 43.9806 28.1724C42.4985 27.1836 40.0995 27.1836 38.6187 28.1724V7.72412H49.3425Z" fill="#F9F7F8"/>
<path fill-rule="evenodd" clip-rule="evenodd" d="M38.6185 8.8116H49.5643C50.8085 8.8116 51.8279 7.71514 51.8279 6.37537C51.8279 5.03255 50.8085 3.93609 49.5643 3.93609H38.3967C37.1493 3.93609 36.133 5.03255 36.133 6.37537C36.133 7.71514 37.1493 8.8116 38.3967 8.8116H38.6185ZM15.1441 4.8755H26.6749C28.0177 4.8755 29.1141 3.77905 29.1141 2.43622C29.1142 1.09645 28.0147 0 26.6749 0H14.6482C13.3084 0 12.209 1.09645 12.209 2.43622C12.209 3.77905 13.3055 4.8755 14.6482 4.8755H15.1441ZM18.5104 27.3033C18.5104 28.4922 19.4744 29.4562 20.6601 29.4562C21.849 29.4562 22.813 28.4922 22.813 27.3033C22.813 26.1145 21.849 25.1536 20.6601 25.1536C19.4744 25.1536 18.5104 26.1145 18.5104 27.3033ZM25.8157 46.0231C25.8157 47.8464 27.294 49.3248 29.1142 49.3248C30.9374 49.3248 32.4158 47.8464 32.4158 46.0231C32.4158 44.1997 30.9374 42.7245 29.1142 42.7245C27.294 42.7244 25.8157 44.1997 25.8157 46.0231ZM10.5151 49.8791C11.6238 49.8791 12.5231 48.9798 12.5231 47.871C12.5231 46.7653 11.6238 45.8659 10.5151 45.8659C9.40641 45.8659 8.50708 46.7653 8.50708 47.871C8.50708 48.9798 9.40641 49.8791 10.5151 49.8791Z" fill="#A1D4FF"/>
<path fill-rule="evenodd" clip-rule="evenodd" d="M26.2129 18.424L26.179 4.87549H22.7727L22.8066 18.424C22.8127 21.1005 24.0354 24.1988 25.2088 25.7418L31.5933 34.1531C33.0623 34.3563 34.6084 34.8892 36.2931 35.8563L28.615 25.7418C27.4417 24.1988 26.219 21.1004 26.2129 18.424Z" fill="#DDDAEC"/>
<path fill-rule="evenodd" clip-rule="evenodd" d="M38.523 38.7886L36.2932 35.8565C34.6085 34.8895 33.0624 34.3567 31.5934 34.1533L32.89 35.8565C36.2163 40.2422 37.0385 54.0002 29.6809 54.0002H34.6364C37.0017 54.0002 38.6339 53.1501 39.6749 51.8258C39.0128 50.9326 38.6185 49.83 38.6185 48.6381V38.9179L38.523 38.7886Z" fill="#0593FC"/>
<path fill-rule="evenodd" clip-rule="evenodd" d="M29.1143 2.43622C29.1143 1.09645 28.0148 0 26.675 0H23.278C24.6146 0.00305859 25.708 1.09951 25.708 2.43622C25.708 3.77905 24.6115 4.8755 23.2688 4.8755H26.675C28.0178 4.8755 29.1143 3.77905 29.1143 2.43622Z" fill="#80B4FB"/>
<path fill-rule="evenodd" clip-rule="evenodd" d="M49.3425 27.0846V8.81152H46.5891V27.8238C47.5807 27.8361 48.5817 27.5897 49.3425 27.0846Z" fill="#DDDAEC"/>
<path fill-rule="evenodd" clip-rule="evenodd" d="M51.8278 6.37532C51.8278 5.03249 50.8084 3.93604 49.5642 3.93604H46.8169C48.0581 3.93909 49.0745 5.03555 49.0745 6.37532C49.0745 7.71509 48.055 8.81154 46.8108 8.81154H49.5642C50.8084 8.81154 51.8278 7.71509 51.8278 6.37532Z" fill="#80B4FB"/>
<path fill-rule="evenodd" clip-rule="evenodd" d="M38.6184 38.9177V48.6379C38.6184 49.8298 39.0127 50.9325 39.6748 51.8256C40.6325 53.1131 42.154 53.9632 43.8664 54.0001H44.0943C46.9894 53.9385 49.3424 51.5484 49.3424 48.6379V27.0848C47.861 28.0734 45.4587 28.0734 43.9804 27.0848C42.499 26.0961 40.0998 26.0961 38.6185 27.0848V38.9177H38.6184Z" fill="#EB5468"/>
<path fill-rule="evenodd" clip-rule="evenodd" d="M43.9804 36.8294C45.0399 36.8294 45.8991 35.9702 45.8991 34.9106C45.8991 33.848 45.0399 32.9888 43.9804 32.9888C42.918 32.9888 42.0586 33.848 42.0586 34.9106C42.0587 35.9702 42.918 36.8294 43.9804 36.8294Z" fill="#A1D4FF"/>
<path fill-rule="evenodd" clip-rule="evenodd" d="M49.3424 48.6376V27.0845C48.5816 27.5896 47.5807 27.8359 46.589 27.8237V48.6377C46.589 51.1109 44.889 53.2083 42.6038 53.8212C43.016 53.9312 43.44 53.9912 43.8665 53.9999H44.0945C46.9894 53.9382 49.3424 51.5482 49.3424 48.6376Z" fill="#E5384F"/>
<path d="M16.5299 44.8237C16.3685 44.8237 16.2107 44.7758 16.0766 44.6861C15.9424 44.5963 15.838 44.4688 15.7764 44.3196C15.7149 44.1704 15.699 44.0063 15.7309 43.848C15.7627 43.6898 15.8408 43.5446 15.9553 43.4308L15.9646 43.4216C16.1184 43.2718 16.325 43.1887 16.5397 43.1904C16.7544 43.1922 16.9597 43.2785 17.1111 43.4307C17.2625 43.583 17.3476 43.7888 17.3481 44.0035C17.3487 44.2181 17.2644 44.4243 17.1138 44.5773L17.1045 44.5866C16.952 44.7386 16.7453 44.8239 16.5299 44.8237ZM23.1823 42.215C23.0211 42.2151 22.8635 42.1673 22.7295 42.0778C22.5954 41.9882 22.4909 41.8609 22.4293 41.712C22.3676 41.5631 22.3515 41.3992 22.3829 41.2411C22.4144 41.083 22.4921 40.9378 22.6062 40.8239L22.6154 40.8146C22.7688 40.6645 22.9752 40.5809 23.1899 40.582C23.4045 40.5832 23.61 40.669 23.7617 40.8207C23.9135 40.9725 23.9993 41.178 24.0004 41.3926C24.0016 41.6072 23.918 41.8137 23.7679 41.967L23.7586 41.9763C23.683 42.0521 23.5932 42.1122 23.4943 42.1531C23.3954 42.1941 23.2894 42.2151 23.1823 42.215ZM42.7207 42.6554C42.5595 42.6555 42.4019 42.6077 42.2679 42.5182C42.1338 42.4287 42.0293 42.3014 41.9677 42.1525C41.906 42.0035 41.8899 41.8396 41.9213 41.6815C41.9528 41.5234 42.0305 41.3782 42.1446 41.2643L42.1538 41.255C42.3072 41.1049 42.5136 41.0213 42.7283 41.0225C42.9429 41.0236 43.1484 41.1094 43.3002 41.2612C43.4519 41.4129 43.5377 41.6184 43.5388 41.8331C43.54 42.0477 43.4564 42.2541 43.3063 42.4075L43.2969 42.4168C43.2213 42.4925 43.1315 42.5526 43.0326 42.5936C42.9338 42.6345 42.8278 42.6556 42.7207 42.6554ZM44.4577 48.8799C44.2963 48.8799 44.1385 48.832 44.0044 48.7423C43.8703 48.6525 43.7658 48.525 43.7042 48.3758C43.6427 48.2266 43.6268 48.0625 43.6587 47.9043C43.6905 47.746 43.7686 47.6008 43.8831 47.4871L43.8924 47.4778C44.0462 47.328 44.2529 47.2449 44.4675 47.2467C44.6822 47.2484 44.8875 47.3347 45.0389 47.487C45.1903 47.6392 45.2755 47.845 45.276 48.0597C45.2765 48.2744 45.1922 48.4806 45.0416 48.6335L45.0323 48.6428C44.8798 48.7949 44.6731 48.8802 44.4577 48.8799Z" fill="#A1D4FF"/>
<path d="M19.5002 9.22121C19.5003 9.32823 19.4792 9.43422 19.4383 9.5331C19.3974 9.63199 19.3374 9.72184 19.2617 9.79752C19.186 9.87319 19.0962 9.93321 18.9973 9.97414C18.8984 10.0151 18.7924 10.0361 18.6854 10.0361H15.1292L15.1335 8.40625H18.6854C18.7924 8.40622 18.8984 8.42728 18.9973 8.46823C19.0961 8.50918 19.186 8.56921 19.2617 8.64489C19.3373 8.72057 19.3974 8.81042 19.4383 8.90931C19.4792 9.0082 19.5003 9.11418 19.5002 9.22121ZM19.5002 13.5674C19.5003 13.6744 19.4792 13.7804 19.4383 13.8793C19.3974 13.9781 19.3374 14.068 19.2617 14.1437C19.186 14.2194 19.0962 14.2794 18.9973 14.3203C18.8984 14.3612 18.7924 14.3823 18.6854 14.3822H15.1194L15.1226 12.7524H18.6854C18.7924 12.7523 18.8985 12.7733 18.9974 12.8142C19.0963 12.8551 19.1862 12.9151 19.2619 12.9908C19.3376 13.0665 19.3976 13.1564 19.4385 13.2553C19.4794 13.3543 19.5004 13.4603 19.5002 13.5674ZM19.5002 17.9124C19.5004 18.0194 19.4794 18.1254 19.4385 18.2244C19.3976 18.3233 19.3376 18.4132 19.2619 18.4889C19.1862 18.5645 19.0963 18.6246 18.9974 18.6655C18.8984 18.7064 18.7924 18.7273 18.6854 18.7272H15.103C15.1073 18.6262 15.1095 18.5252 15.1096 18.4241L15.1128 17.0974H18.6853C18.7923 17.0973 18.8983 17.1184 18.9972 17.1593C19.0961 17.2003 19.186 17.2603 19.2617 17.336C19.3373 17.4117 19.3974 17.5015 19.4383 17.6004C19.4792 17.6993 19.5003 17.8053 19.5002 17.9124ZM42.9756 13.1577C42.9755 13.3738 42.8896 13.581 42.7368 13.7338C42.584 13.8866 42.3768 13.9725 42.1607 13.9726H38.6187V12.3428H42.1607C42.2677 12.3427 42.3737 12.3638 42.4726 12.4047C42.5715 12.4457 42.6613 12.5057 42.737 12.5814C42.8127 12.6571 42.8727 12.7469 42.9136 12.8458C42.9546 12.9447 42.9756 13.0507 42.9756 13.1577ZM42.9756 17.5027C42.9756 17.6097 42.9546 17.7157 42.9137 17.8146C42.8727 17.9135 42.8127 18.0034 42.737 18.079C42.6614 18.1547 42.5715 18.2147 42.4726 18.2557C42.3737 18.2966 42.2677 18.3176 42.1607 18.3176H38.6187V16.6878H42.1607C42.3768 16.6879 42.584 16.7738 42.7368 16.9266C42.8896 17.0794 42.9755 17.2866 42.9756 17.5027ZM42.9756 21.852C42.9755 22.0681 42.8896 22.2753 42.7368 22.4281C42.584 22.5809 42.3768 22.6668 42.1607 22.6669H38.6187V21.0371H42.1607C42.3768 21.0372 42.584 21.1231 42.7368 21.2759C42.8896 21.4287 42.9755 21.6359 42.9756 21.852Z" fill="#2B4D66"/>
</svg>
