<svg width="36" height="36" viewBox="0 0 36 36" fill="none" xmlns="http://www.w3.org/2000/svg">
<g filter="url(#filter0_d_1397_6758)">
<circle cx="17.6551" cy="17.6558" r="13.0103" fill="url(#paint0_linear_1397_6758)"/>
<circle cx="17.706" cy="17.7065" r="11.2388" fill="url(#paint1_linear_1397_6758)"/>
<g opacity="0.32" filter="url(#filter1_f_1397_6758)">
<path fill-rule="evenodd" clip-rule="evenodd" d="M17.2635 27.637C22.9925 27.637 27.6368 22.9927 27.6368 17.2637C27.6368 14.5892 26.6246 12.1511 24.9624 10.3115C27.0633 12.2098 28.3835 14.956 28.3835 18.0104C28.3835 23.7395 23.7392 28.3837 18.0102 28.3837C14.9557 28.3837 12.2096 27.0635 10.3113 24.9627C12.1508 26.6248 14.589 27.637 17.2635 27.637Z" fill="#3ECFA5"/>
</g>
<g opacity="0.61" filter="url(#filter2_f_1397_6758)">
<path fill-rule="evenodd" clip-rule="evenodd" d="M24.496 9.8453C22.6562 8.18219 20.2174 7.16938 17.542 7.16938C11.813 7.16938 7.16875 11.8137 7.16875 17.5427C7.16875 20.216 8.18005 22.6532 9.84096 24.4925C7.74108 22.5942 6.42163 19.8488 6.42163 16.7952C6.42163 11.0661 11.0659 6.42188 16.7949 6.42188C19.8505 6.42188 22.5976 7.74304 24.496 9.8453Z" fill="#3ECFA5"/>
</g>
<rect x="16.2566" y="9.31055" width="3.50574" height="10.1085" rx="1.75287" fill="white"/>
<rect x="16.1873" y="20.6846" width="3.50574" height="10.1085" rx="1.75287" transform="rotate(-90 16.1873 20.6846)" fill="white"/>
</g>
<defs>
<filter id="filter0_d_1397_6758" x="0.756775" y="0.757507" width="33.7968" height="33.7965" filterUnits="userSpaceOnUse" color-interpolation-filters="sRGB">
<feFlood flood-opacity="0" result="BackgroundImageFix"/>
<feColorMatrix in="SourceAlpha" type="matrix" values="0 0 0 0 0 0 0 0 0 0 0 0 0 0 0 0 0 0 127 0" result="hardAlpha"/>
<feOffset/>
<feGaussianBlur stdDeviation="1.944"/>
<feColorMatrix type="matrix" values="0 0 0 0 1 0 0 0 0 0.780392 0 0 0 0 0 0 0 0 0.3 0"/>
<feBlend mode="normal" in2="BackgroundImageFix" result="effect1_dropShadow_1397_6758"/>
<feBlend mode="normal" in="SourceGraphic" in2="effect1_dropShadow_1397_6758" result="shape"/>
</filter>
<filter id="filter1_f_1397_6758" x="6.42328" y="6.42352" width="25.8483" height="25.8483" filterUnits="userSpaceOnUse" color-interpolation-filters="sRGB">
<feFlood flood-opacity="0" result="BackgroundImageFix"/>
<feBlend mode="normal" in="SourceGraphic" in2="BackgroundImageFix" result="shape"/>
<feGaussianBlur stdDeviation="1.944" result="effect1_foregroundBlur_1397_6758"/>
</filter>
<filter id="filter2_f_1397_6758" x="2.53363" y="2.53387" width="25.8502" height="25.8463" filterUnits="userSpaceOnUse" color-interpolation-filters="sRGB">
<feFlood flood-opacity="0" result="BackgroundImageFix"/>
<feBlend mode="normal" in="SourceGraphic" in2="BackgroundImageFix" result="shape"/>
<feGaussianBlur stdDeviation="1.944" result="effect1_foregroundBlur_1397_6758"/>
</filter>
<linearGradient id="paint0_linear_1397_6758" x1="9.47466" y1="7.52254" x2="25.534" y2="27.1441" gradientUnits="userSpaceOnUse">
<stop stop-color="white"/>
<stop offset="1" stop-color="#3ECFA5"/>
</linearGradient>
<linearGradient id="paint1_linear_1397_6758" x1="12.3862" y1="11.1566" x2="24.0278" y2="26.2148" gradientUnits="userSpaceOnUse">
<stop stop-color="#7EC492" stop-opacity="0.59"/>
<stop offset="0.938927" stop-color="#269A78"/>
</linearGradient>
</defs>
</svg>
