<svg width="20" height="20" viewBox="0 0 20 20" fill="none" xmlns="http://www.w3.org/2000/svg">
<path d="M10.4667 14.5333V15.4667H9.53333V14.5333H10.4667ZM6.37726 1.25394C7.52581 0.778196 8.75682 0.533333 10 0.533333C11.2432 0.533333 12.4742 0.778196 13.6227 1.25394C14.7713 1.72968 15.8149 2.42699 16.6939 3.30606C17.573 4.18512 18.2703 5.22871 18.7461 6.37726C19.2218 7.52581 19.4667 8.75682 19.4667 10C19.4667 12.5107 18.4693 14.9186 16.6939 16.6939C14.9186 18.4693 12.5107 19.4667 10 19.4667C8.75682 19.4667 7.52581 19.2218 6.37726 18.7461C5.22871 18.2703 4.18512 17.573 3.30606 16.6939C1.53071 14.9186 0.533333 12.5107 0.533333 10C0.533333 7.48928 1.53071 5.0814 3.30606 3.30606C4.18512 2.42699 5.22871 1.72968 6.37726 1.25394ZM1.46667 10C1.46667 14.7046 5.29545 18.5333 10 18.5333C14.7046 18.5333 18.5333 14.7046 18.5333 10C18.5333 5.29545 14.7046 1.46667 10 1.46667C5.29545 1.46667 1.46667 5.29545 1.46667 10ZM7.5487 5.5487C8.19882 4.89857 9.08058 4.53333 10 4.53333C10.9194 4.53333 11.8012 4.89857 12.4513 5.5487C13.1014 6.19882 13.4667 7.08058 13.4667 8C13.4667 8.98649 12.9052 9.5305 12.1488 10.1924C12.1173 10.2199 12.0853 10.2478 12.0529 10.276C11.4508 10.8003 10.7119 11.4437 10.5162 12.4667H9.5667C9.62595 12.0194 9.75908 11.6793 9.92506 11.405C10.1564 11.0226 10.4714 10.7341 10.831 10.4494C10.9054 10.3906 10.9851 10.3296 11.0675 10.2664C11.3551 10.0464 11.6767 9.80016 11.9254 9.52722C12.2767 9.1418 12.5333 8.65927 12.5333 8C12.5333 7.32812 12.2664 6.68376 11.7913 6.20866C11.3162 5.73357 10.6719 5.46667 10 5.46667C9.32812 5.46667 8.68375 5.73357 8.20866 6.20866C7.86134 6.55599 7.62528 6.99379 7.52343 7.46667H6.57459C6.68699 6.74475 7.02564 6.07176 7.5487 5.5487Z" fill="#544C4C" stroke="#7F8589" stroke-width="1.06667"/>
</svg>
