<svg width="35" height="35" viewBox="0 0 35 35" fill="none" xmlns="http://www.w3.org/2000/svg">
    <path d="M15.703 21.518c-.215-1.026.53-2.078 1.577-2.078 1.048 0 1.792 1.052 1.578 2.078-.201.962-.332 2.083-.138 2.962.546 2.463 2.88 5.04 2.88 5.04h-8.64s2.334-2.577 2.88-5.04c.195-.879.063-2-.137-2.962z" fill="#F6B307"/>
    <path fill-rule="evenodd" clip-rule="evenodd" d="M22.258 29.812a.72.72 0 0 1-.658.428h-8.64a.72.72 0 0 1-.534-1.203l.534.483h8.64s-.245-.27-.595-.72c-.73-.938-1.916-2.655-2.285-4.32-.195-.879-.063-2 .138-2.962.214-1.026-.53-2.078-1.578-2.078-1.047 0-1.792 1.052-1.578 2.078.201.962.333 2.083.138 2.962-.369 1.665-1.555 3.382-2.285 4.32-.35.45-.595.72-.595.72m-.534-.483.004-.005.017-.019a9.209 9.209 0 0 0 .327-.388c.218-.269.515-.652.827-1.108.636-.929 1.293-2.097 1.536-3.193.16-.722.057-1.717-.14-2.66-.293-1.405.713-2.944 2.283-2.944 1.57 0 2.576 1.54 2.282 2.945-.197.942-.299 1.937-.139 2.659.243 1.096.9 2.264 1.536 3.193a17.156 17.156 0 0 0 1.154 1.496l.017.019.004.004a.72.72 0 0 1 .124.776" fill="#5B3303"/>
    <path fill-rule="evenodd" clip-rule="evenodd" d="M20.16 29.52h1.44s-2.334-2.577-2.88-5.04c-.195-.879-.063-2 .138-2.962.214-1.026-.53-2.078-1.578-2.078-.237 0-.458.054-.656.149.527.25.794.84.794 1.929 0 1.37.027 3.343.222 4.222.546 2.463 2.52 3.78 2.52 3.78z" fill="#C18B00"/>
    <path fill-rule="evenodd" clip-rule="evenodd" d="M16.107 25.75a.36.36 0 0 1 .262.437c-.192.77-.572 1.527-.95 2.092a.36.36 0 1 1-.599-.399c.343-.514.683-1.197.85-1.867a.36.36 0 0 1 .437-.262z" fill="#FFCB43"/>
    <path fill-rule="evenodd" clip-rule="evenodd" d="M27.72 13.68a3.96 3.96 0 1 0 0-7.92 3.96 3.96 0 0 0 0 7.92zm0-1.8a2.16 2.16 0 1 0 0-4.32 2.16 2.16 0 0 0 0 4.32z" fill="#F6B307"/>
    <path fill-rule="evenodd" clip-rule="evenodd" d="M32.4 9.72a4.68 4.68 0 1 1-9.36 0 4.68 4.68 0 0 1 9.36 0zm-4.68 1.44a1.44 1.44 0 1 0 0-2.88 1.44 1.44 0 0 0 0 2.88zm3.96-1.44a3.96 3.96 0 1 1-7.92 0 3.96 3.96 0 0 1 7.92 0zm-1.8 0a2.16 2.16 0 1 1-4.32 0 2.16 2.16 0 0 1 4.32 0z" fill="#5B3303"/>
    <path fill-rule="evenodd" clip-rule="evenodd" d="M31.32 9a3.96 3.96 0 0 1-7.305 2.12 3.962 3.962 0 1 0 7.05-3.52c.165.435.255.907.255 1.4zm-5.679 1.308a2.161 2.161 0 0 1 3.798-1.896 2.16 2.16 0 1 0-3.798 1.896z" fill="#D29700"/>
    <path fill-rule="evenodd" clip-rule="evenodd" d="M6.84 13.68a3.96 3.96 0 1 0 0-7.92 3.96 3.96 0 0 0 0 7.92zm0-1.8a2.16 2.16 0 1 0 0-4.32 2.16 2.16 0 0 0 0 4.32z" fill="#F6B307"/>
    <path fill-rule="evenodd" clip-rule="evenodd" d="M11.52 9.72a4.68 4.68 0 1 1-9.36 0 4.68 4.68 0 0 1 9.36 0zm-4.68 1.44a1.44 1.44 0 1 0 0-2.88 1.44 1.44 0 0 0 0 2.88zm3.96-1.44a3.96 3.96 0 1 1-7.92 0 3.96 3.96 0 0 1 7.92 0zm-1.8 0a2.16 2.16 0 1 1-4.32 0 2.16 2.16 0 0 1 4.32 0z" fill="#5B3303"/>
    <path fill-rule="evenodd" clip-rule="evenodd" d="M9.814 12.334a3.96 3.96 0 0 1-5.589-5.589 3.96 3.96 0 1 0 5.589 5.589zm-4.31-4.31a2.16 2.16 0 0 1 3.034 3.034 2.16 2.16 0 1 0-3.034-3.034z" fill="#D29700"/>
    <path d="M7.2 7.92a2.88 2.88 0 0 1 2.88-2.88h14.4a2.88 2.88 0 0 1 2.88 2.88v4.32c0 5.567-4.513 10.08-10.08 10.08S7.2 17.807 7.2 12.24V7.92z" fill="#FFCF23"/>
    <path fill-rule="evenodd" clip-rule="evenodd" d="M10.08 4.32h14.4a3.6 3.6 0 0 1 3.6 3.6v4.32c0 5.964-4.835 10.8-10.8 10.8-5.965 0-10.8-4.835-10.8-10.8V7.92a3.6 3.6 0 0 1 3.6-3.6zm0 .72A2.88 2.88 0 0 0 7.2 7.92v4.32c0 5.567 4.513 10.08 10.08 10.08s10.08-4.513 10.08-10.08V7.92a2.88 2.88 0 0 0-2.88-2.88h-14.4z" fill="#5B3303"/>
    <path fill-rule="evenodd" clip-rule="evenodd" d="M14.76 22.003a10.1 10.1 0 0 0 2.52.317c5.567 0 10.08-4.513 10.08-10.08v-7.2h-5.04v7.2c0 4.697-3.212 8.644-7.56 9.763z" fill="#FFC429"/>
    <path d="M7.2 5.04v7.2c0 3.437 1.72 6.471 4.346 8.29 1.248.866 3.62-2.102 3.58-3.62a20.733 20.733 0 0 1-.006-.53V5.04H7.2z" fill="#FFDB5B"/>
    <path fill-rule="evenodd" clip-rule="evenodd" d="M12.072 20.872a10.033 10.033 0 0 0 5.208 1.448c5.567 0 10.08-4.513 10.08-10.08v-7.2h-1.44v6.48c0 5.567-4.513 10.08-10.08 10.08a10.05 10.05 0 0 1-3.768-.728z" fill="#F5B40C"/>
    <path d="M27.36 5.04H7.2v1.44h20.16V5.04z" fill="#D29803"/>
    <path fill-rule="evenodd" clip-rule="evenodd" d="M8.64 6.12a.72.72 0 0 1 .72.72c0 2.448.002 4.417.218 6 .216 1.577.633 2.653 1.371 3.391a.72.72 0 1 1-1.018 1.018c-1.062-1.061-1.545-2.505-1.78-4.214-.231-1.69-.231-3.756-.231-6.15V6.84a.72.72 0 0 1 .72-.72z" fill="#FFEBA6"/>
    <path fill-rule="evenodd" clip-rule="evenodd" d="M8.64 7.2a.36.36 0 0 1 .36.36c0 .473-.004.754-.007.983-.005.348-.008.574.007 1.167a.36.36 0 0 1-.72.019c-.015-.605-.012-.85-.007-1.211.003-.23.007-.509.007-.958a.36.36 0 0 1 .36-.36z" fill="#fff"/>
    <path d="M10.08 30.24a.72.72 0 0 1 .72-.72h12.96a.72.72 0 0 1 0 1.44H10.8a.72.72 0 0 1-.72-.72z" fill="#FFD84F"/>
    <path fill-rule="evenodd" clip-rule="evenodd" d="M10.8 28.8h12.96a1.44 1.44 0 1 1 0 2.88H10.8a1.44 1.44 0 1 1 0-2.88zm0 .72a.72.72 0 1 0 0 1.44h12.96a.72.72 0 1 0 0-1.44H10.8z" fill="#5B3303"/>
    <path d="M4.32 4.32a.72.72 0 0 1 .72-.72h24.48a.72.72 0 0 1 0 1.44H5.04a.72.72 0 0 1-.72-.72z" fill="#FFD84F"/>
    <path fill-rule="evenodd" clip-rule="evenodd" d="M5.04 2.88h24.48a1.44 1.44 0 1 1 0 2.88H5.04a1.44 1.44 0 0 1 0-2.88zm0 .72a.72.72 0 0 0 0 1.44h24.48a.72.72 0 0 0 0-1.44H5.04z" fill="#5B3303"/>
    <path fill-rule="evenodd" clip-rule="evenodd" d="M5.04 4.14a.36.36 0 0 1 .36-.36h18.36a.36.36 0 1 1 0 .72H5.4a.36.36 0 0 1-.36-.36zM10.44 29.88a.36.36 0 0 1 .36-.36h10.44a.36.36 0 0 1 0 .72H10.8a.36.36 0 0 1-.36-.36z" fill="#FFEBA6"/>
    <path fill-rule="evenodd" clip-rule="evenodd" d="M7.2 4.14a.36.36 0 0 1 .36-.36h2.16a.36.36 0 1 1 0 .72H7.56a.36.36 0 0 1-.36-.36z" fill="#fff"/>
    <path d="M20.88 19.62a.54.54 0 1 1-1.08 0 .54.54 0 0 1 1.08 0zM22.68 18.36a.36.36 0 1 1-.72 0 .36.36 0 0 1 .72 0zM19.8 20.88a.36.36 0 1 1-.72 0 .36.36 0 0 1 .72 0zM18.72 19.8a.36.36 0 1 1-.72 0 .36.36 0 0 1 .72 0zM17.28 20.88a.36.36 0 1 1-.72 0 .36.36 0 0 1 .72 0zM25.92 15.84a.36.36 0 1 1-.72 0 .36.36 0 0 1 .72 0zM22.68 16.92a.36.36 0 1 1-.72 0 .36.36 0 0 1 .72 0zM26.28 14.04a.36.36 0 1 1-.72 0 .36.36 0 0 1 .72 0zM20.88 17.64a.36.36 0 1 1-.72 0 .36.36 0 0 1 .72 0zM22.32 19.8a.36.36 0 1 1-.72 0 .36.36 0 0 1 .72 0zM24.48 18.36a.36.36 0 1 1-.72 0 .36.36 0 0 1 .72 0zM23.76 16.92a.36.36 0 1 1-.72 0 .36.36 0 0 1 .72 0zM25.2 16.74a.18.18 0 1 1-.36 0 .18.18 0 0 1 .36 0zM24.84 15.3a.18.18 0 1 1-.36 0 .18.18 0 0 1 .36 0zM23.76 15.66a.18.18 0 1 1-.36 0 .18.18 0 0 1 .36 0zM24.84 14.22a.18.18 0 1 1-.36 0 .18.18 0 0 1 .36 0zM22.68 15.66a.18.18 0 1 1-.36 0 .18.18 0 0 1 .36 0zM16.92 19.62a.18.18 0 1 1-.36 0 .18.18 0 0 1 .36 0zM24.48 17.1a.18.18 0 1 1-.36 0 .18.18 0 0 1 .36 0zM23.4 19.26a.18.18 0 1 1-.36 0 .18.18 0 0 1 .36 0zM21.6 18.54a.18.18 0 1 1-.36 0 .18.18 0 0 1 .36 0zM19.8 18.54a.18.18 0 1 1-.36 0 .18.18 0 0 1 .36 0zM18.36 21.06a.18.18 0 1 1-.36 0 .18.18 0 0 1 .36 0z" fill="#E6A809"/>
    <path fill-rule="evenodd" clip-rule="evenodd" d="M5.902 6.499a.36.36 0 0 1-.161.483c-.329.164-.772.448-1.133.929-.357.476-.648 1.165-.648 2.169a.36.36 0 0 1-.72 0c0-1.156.339-1.997.792-2.601.45-.6.996-.946 1.387-1.141a.36.36 0 0 1 .483.16z" fill="#FFD953"/>
    <path d="m13.68 12.096 2.25-.456.675-1.14.675-1.14 1.35 2.28 2.25.456-1.8 1.824.45 2.28-2.25-1.14-2.25 1.14.45-2.28-1.8-1.824z" fill="#FFEBA6"/>
    <path fill-rule="evenodd" clip-rule="evenodd" d="m15.93 11.64 1.35-2.28 1.35 2.28 2.25.456-1.8 1.824.45 2.28-2.25-1.14-2.25 1.14.45-2.28-1.8-1.824 2.25-.456zm-1.23 2.514-1.532-1.553a.72.72 0 0 1 .369-1.211l1.936-.393 1.187-2.004a.72.72 0 0 1 1.24 0l1.187 2.005 1.936.392a.72.72 0 0 1 .37 1.211l-1.533 1.553.376 1.906a.72.72 0 0 1-1.031.782l-1.925-.975-1.925.975a.72.72 0 0 1-1.031-.782l.376-1.906z" fill="#F5B40C"/>
    <path fill-rule="evenodd" clip-rule="evenodd" d="M17.441 10.478a.36.36 0 0 1 .161.483l-.72 1.44a.36.36 0 0 1-.282.197l-1.62.18a.36.36 0 1 1-.08-.716l1.426-.158.632-1.265a.36.36 0 0 1 .483-.161z" fill="#fff"/>
</svg>
