<svg width="23" height="23" viewBox="0 0 23 23" fill="none" xmlns="http://www.w3.org/2000/svg">
    <path fill-rule="evenodd" clip-rule="evenodd" d="M3.068 0A3.068 3.068 0 0 0 0 3.068v16.364A3.068 3.068 0 0 0 3.068 22.5h16.364a3.069 3.069 0 0 0 3.068-3.068V3.068A3.069 3.069 0 0 0 19.432 0H3.068zm11.25 7.16a4.09 4.09 0 1 1-8.182 0 4.09 4.09 0 0 1 8.182 0zm-3.92 5.115.34 2.043h.341l.569 5.114h-8.58a7.158 7.158 0 0 1 7.33-7.157zm4.769-.411a.511.511 0 0 0-.511.511v.204H12.86c-.783 0-.783 1.432 0 1.432h5.985c.782 0 .782-1.431 0-1.431h-1.796v-.205a.511.511 0 0 0-.511-.511h-1.371zm3.256 2.863h-5.142a.266.266 0 0 0-.215.12.44.44 0 0 0-.076.282l.458 4.979c.004.09.036.175.092.245a.262.262 0 0 0 .197.101h4.23a.261.261 0 0 0 .198-.1.421.421 0 0 0 .092-.245l.458-4.98c.007-.1-.02-.2-.077-.282a.267.267 0 0 0-.215-.12z" fill="#D32A05"/>
</svg>
