<svg width="34" height="31" viewBox="0 0 34 31" fill="none" xmlns="http://www.w3.org/2000/svg">
<path d="M32.7999 10.8002L17.1999 30.0002L1.59985 10.8002L9.99985 1.2002H24.3999L32.7999 10.8002Z" fill="#FFB547"/>
<path fill-rule="evenodd" clip-rule="evenodd" d="M17.1998 30.8004C16.9589 30.8004 16.7308 30.6918 16.5789 30.5049L0.978914 11.3049C0.733166 11.0024 0.741118 10.5669 0.997744 10.2736L9.39774 0.673587C9.54965 0.499975 9.76911 0.400391 9.9998 0.400391H24.3998C24.6305 0.400391 24.85 0.499975 25.0019 0.673587L33.4019 10.2736C33.6585 10.5669 33.6664 11.0024 33.4207 11.3049L17.8207 30.5049C17.6688 30.6918 17.4407 30.8004 17.1998 30.8004ZM9.9998 1.20039H24.3998L32.7998 10.8004L17.1998 30.0004L1.59981 10.8004L9.9998 1.20039Z" fill="#604104"/>
<path d="M24.3999 1.2002L32.7999 10.8002H1.59985L9.99985 1.2002H24.3999Z" fill="#FFC368"/>
<path d="M32.7997 10.8002L17.1997 30.0002V1.2002H24.3997L32.7997 10.8002Z" fill="#E39130"/>
<path d="M32.7997 10.8002H17.1997V1.2002H24.3997L32.7997 10.8002Z" fill="#FAA847"/>
<path d="M1.59971 10.8002L17.1997 30.0002L9.19971 10.8002L17.1997 1.2002H9.99971L1.59971 10.8002Z" fill="#FFCB7C"/>
<path d="M10.3997 1.2002L1.59971 10.8002H9.19971L17.1997 1.2002H10.3997Z" fill="#FFDBA5"/>
<path d="M1.59971 10.8002L17.1997 30.0002L4.39971 10.8002L12.7997 1.2002H9.99971L1.59971 10.8002Z" fill="#FFEEC1"/>
<path d="M9.9998 1.2002L1.5998 10.8002H4.3998L12.7998 1.2002H9.9998Z" fill="#FFF1CB"/>
<path d="M32.7997 10.8002L17.1997 30.0002L25.1997 10.8002L17.1997 1.2002H24.3997L32.7997 10.8002Z" fill="#CA693F"/>
<path d="M24.3997 1.2002L32.7997 10.8002H25.1997L17.1997 1.2002H24.3997Z" fill="#DC794F"/>
<path d="M32.7997 10.8002L17.1997 30.0002L29.9997 10.8002L21.5997 1.2002H24.3997L32.7997 10.8002Z" fill="#E39130"/>
<path d="M24.3999 1.2002L32.7999 10.8002H29.9999L21.5999 1.2002H24.3999Z" fill="#F0A347"/>
<path fill-rule="evenodd" clip-rule="evenodd" d="M8.66178 3.69832C8.82872 3.843 8.84677 4.09562 8.70209 4.26256L3.50209 10.2626C3.3574 10.4295 3.10478 10.4476 2.93784 10.3029C2.7709 10.1582 2.75285 9.90556 2.89754 9.73862L8.09754 3.73862C8.24222 3.57168 8.49484 3.55363 8.66178 3.69832Z" fill="white"/>
<path fill-rule="evenodd" clip-rule="evenodd" d="M16.2619 3.69832C16.4288 3.843 16.4469 4.09562 16.3022 4.26256L11.1022 10.2626C10.9575 10.4295 10.7049 10.4476 10.5379 10.3029C10.371 10.1582 10.3529 9.90556 10.4976 9.73862L15.6976 3.73862C15.8423 3.57168 16.0949 3.55363 16.2619 3.69832Z" fill="#FFD596"/>
<path d="M20.8 16.0001C20.8 16.221 20.6209 16.4001 20.4 16.4001C20.1791 16.4001 20 16.221 20 16.0001C20 15.7792 20.1791 15.6001 20.4 15.6001C20.6209 15.6001 20.8 15.7792 20.8 16.0001Z" fill="#CA8028"/>
<path d="M22 17.6002C22 17.8211 21.8209 18.0002 21.6 18.0002C21.379 18.0002 21.2 17.8211 21.2 17.6002C21.2 17.3793 21.379 17.2002 21.6 17.2002C21.8209 17.2002 22 17.3793 22 17.6002Z" fill="#CA8028"/>
<path d="M20.3999 19.6002C20.3999 19.8211 20.2208 20.0002 19.9999 20.0002C19.7789 20.0002 19.5999 19.8211 19.5999 19.6002C19.5999 19.3793 19.7789 19.2002 19.9999 19.2002C20.2208 19.2002 20.3999 19.3793 20.3999 19.6002Z" fill="#CA8028"/>
<path d="M19.1999 20.4C19.1999 20.6209 19.0208 20.8 18.7999 20.8C18.579 20.8 18.3999 20.6209 18.3999 20.4C18.3999 20.1791 18.579 20 18.7999 20C19.0208 20 19.1999 20.1791 19.1999 20.4Z" fill="#CA8028"/>
<path d="M19.1999 22.8004C19.1999 23.0213 19.0208 23.2004 18.7999 23.2004C18.579 23.2004 18.3999 23.0213 18.3999 22.8004C18.3999 22.5795 18.579 22.4004 18.7999 22.4004C19.0208 22.4004 19.1999 22.5795 19.1999 22.8004Z" fill="#CA8028"/>
<path d="M19.5998 14.8004C19.5998 15.0213 19.4207 15.2004 19.1998 15.2004C18.9789 15.2004 18.7998 15.0213 18.7998 14.8004C18.7998 14.5795 18.9789 14.4004 19.1998 14.4004C19.4207 14.4004 19.5998 14.5795 19.5998 14.8004Z" fill="#CA8028"/>
<path d="M22.8 14.0001C22.8 14.221 22.6209 14.4001 22.4 14.4001C22.1791 14.4001 22 14.221 22 14.0001C22 13.7792 22.1791 13.6001 22.4 13.6001C22.6209 13.6001 22.8 13.7792 22.8 14.0001Z" fill="#CA8028"/>
<path d="M21.2 13.8002C21.2 14.1316 20.9314 14.4002 20.6 14.4002C20.2686 14.4002 20 14.1316 20 13.8002C20 13.4688 20.2686 13.2002 20.6 13.2002C20.9314 13.2002 21.2 13.4688 21.2 13.8002Z" fill="#CA8028"/>
<path d="M20.4 17.8002C20.4 18.1316 20.1313 18.4002 19.8 18.4002C19.4686 18.4002 19.2 18.1316 19.2 17.8002C19.2 17.4688 19.4686 17.2002 19.8 17.2002C20.1313 17.2002 20.4 17.4688 20.4 17.8002Z" fill="#CA8028"/>
</svg>
