<svg fill="none" height="232" viewBox="0 0 279 232" width="279" xmlns="http://www.w3.org/2000/svg"
    xmlns:xlink="http://www.w3.org/1999/xlink">
    <clipPath id="a">
        <path d="m0 0h279v232h-279z" />
    </clipPath>
    <g clip-path="url(#a)">
        <path
            d="m199.319 52.5231h-1.983c-.391 0-.708.3176-.708.7094v26.6472c0 .3917.317.7093.708.7093h1.983c.391 0 .708-.3176.708-.7093v-26.6472c0-.3918-.317-.7094-.708-.7094z"
            fill="#3f3d56" />
        <path
            d="m186.41 0h-89.5823c-6.6565 0-12.0526 5.40739-12.0526 12.0777v207.3803c0 6.67 5.3961 12.077 12.0526 12.077h89.5823c6.656 0 12.052-5.407 12.052-12.077v-207.3803c0-6.67031-5.396-12.0777-12.052-12.0777z"
            fill="#3f3d56" />
        <path
            d="m182.639 6.03082h-13.041v1.57206c0 .97854-.193 1.9475-.567 2.85152-.373.904-.921 1.7253-1.612 2.4171-.691.6917-1.511 1.2403-2.413 1.6144s-1.869.5664-2.846.5659h-41.474c-.976.0005-1.943-.1918-2.846-.5659-.902-.3741-1.722-.9227-2.413-1.6144-.69-.6918-1.238-1.5131-1.612-2.4171-.374-.90402-.566-1.87298-.566-2.85152v-1.57206h-12.21c-2.3951 0-4.6917.95326-6.3849 2.65008-1.6933 1.6968-2.6446 3.9982-2.6446 6.3978v201.3933c0 2.4.9513 4.701 2.6446 6.398 1.6932 1.697 3.9898 2.65 6.3849 2.65h81.6c2.394 0 4.691-.953 6.384-2.65s2.645-3.998 2.645-6.398v-201.3778c.002-1.1895-.23-2.3677-.683-3.4672s-1.118-2.09881-1.956-2.94063c-.839-.84182-1.835-1.50967-2.931-1.96534-1.097-.45566-2.272-.69021-3.459-.69021z"
            fill="#fcfcfc" />
        <path
            d="m145.332 6.91458h-13.483c-.661 0-1.196.53672-1.196 1.19879v.8311c0 .66207.535 1.19883 1.196 1.19883h13.483c.66 0 1.196-.53676 1.196-1.19883v-.8311c0-.66207-.536-1.19879-1.196-1.19879z"
            fill="#e6e8ec" />
        <path
            d="m150.759 10.3626c1.01 0 1.83-.82091 1.83-1.83353 0-1.01261-.82-1.8335-1.83-1.8335-1.011 0-1.83.82089-1.83 1.8335 0 1.01262.819 1.83353 1.83 1.83353z"
            fill="#e6e8ec" />
        <path
            d="m142.313 140.162c11.878 0 21.506-9.649 21.506-21.552 0-11.902-9.628-21.551-21.506-21.551s-21.506 9.649-21.506 21.551c0 11.903 9.628 21.552 21.506 21.552z"
            fill="#fcfcfc" />
        <path
            d="m170.6 115.601c0 5.697-1.686 11.266-4.845 16.002-3.159 4.737-7.648 8.429-12.9 10.609-5.253 2.18-11.032 2.75-16.608 1.638-5.576-1.111-10.697-3.855-14.717-7.883-4.02-4.029-6.757-9.161-7.866-14.749-1.109-5.587-.54-11.379 1.636-16.642s5.86-9.7614 10.587-12.9263 10.285-4.854 15.97-4.8539c3.774.0002 7.512.7453 10.999 2.193 3.488 1.4476 6.656 3.5694 9.326 6.2442 2.669 2.6748 4.786 5.85 6.23 9.345 1.445 3.495 2.188 7.24 2.188 11.023zm-32.066 15.247 21.322-21.367c.173-.173.31-.377.403-.603s.141-.467.141-.712c0-.244-.048-.486-.141-.711-.093-.226-.23-.431-.403-.603l-2.623-2.61c-.172-.173-.376-.31-.601-.403-.225-.094-.466-.142-.709-.142-.244 0-.485.048-.71.142-.224.093-.428.23-.6.403l-17.391 17.427-8.119-8.156c-.349-.347-.821-.542-1.312-.542-.492 0-.963.195-1.312.542l-2.623 2.645c-.347.349-.542.821-.542 1.314s.195.965.542 1.314l12.055 12.077c.172.173.377.31.602.404.225.093.466.142.71.142s.485-.049.71-.142c.225-.094.43-.231.602-.404z"
            fill="#3c9cf4" />
        <path
            d="m255.011 230.96c7.682 0 13.909-1.055 13.909-2.357s-6.227-2.357-13.909-2.357-13.909 1.055-13.909 2.357 6.227 2.357 13.909 2.357z"
            fill="#3c9cf4" />
        <path
            d="m260.763 224.749c.634-.52 1.096-1.219 1.325-2.007.173-.794-.166-1.735-.927-2.042-.851-.326-1.762.267-2.449.863-.688.596-1.481 1.279-2.384 1.151.465-.421.813-.956 1.01-1.552.198-.595.237-1.232.116-1.848-.041-.256-.15-.495-.315-.694-.47-.506-1.329-.291-1.892.111-1.799 1.265-2.3 3.717-2.311 5.917-.183-.794-.028-1.623-.034-2.427-.007-.804-.225-1.734-.914-2.159-.424-.228-.901-.341-1.383-.326-.809-.031-1.709.052-2.262.645-.692.734-.505 1.969.09 2.773s1.504 1.32 2.342 1.878c.669.401 1.239.947 1.669 1.599.051.091.093.187.123.287h5.054c1.14-.578 2.196-1.307 3.141-2.168z"
            fill="#3c9cf4" />
        <g fill="#efefef">
            <path
                d="m65.9077 232c5.0694 0 9.179-.696 9.179-1.555s-4.1096-1.556-9.179-1.556-9.1789.697-9.1789 1.556 4.1095 1.555 9.1789 1.555z" />
            <path
                d="m69.7038 227.901c.4183-.343.7231-.805.8742-1.325.0665-.261.0421-.536-.0691-.781-.1113-.245-.3027-.445-.5427-.566-.5617-.215-1.162.176-1.6161.57-.4541.393-.9771.844-1.5727.759.3066-.278.5361-.631.6661-1.024s.1561-.813.0757-1.22c-.0267-.168-.0985-.326-.2077-.457-.3091-.334-.8767-.192-1.2485.073-1.187.836-1.5181 2.452-1.5249 3.905-.1209-.524-.0183-1.071-.0229-1.602-.0046-.53-.1484-1.143-.6028-1.424-.2802-.151-.5952-.225-.9131-.215-.5342-.021-1.1277.034-1.493.425-.4566.485-.3333 1.3.0593 1.83.3926.531.9929.872 1.5456 1.239.4418.264.8187.624 1.1026 1.053.0342.061.0618.124.0822.19h3.3351c.752-.381 1.4492-.863 2.0727-1.432z" />
            <path
                d="m13.9968 232c5.0694 0 9.179-.696 9.179-1.555s-4.1096-1.556-9.179-1.556c-5.06937 0-9.17893.697-9.17893 1.556s4.10956 1.555 9.17893 1.555z" />
            <path
                d="m17.7931 227.901c.4183-.343.7231-.805.8742-1.325.0666-.261.0422-.536-.0691-.781-.1112-.245-.3027-.445-.5426-.566-.5617-.215-1.162.176-1.6161.57-.4541.393-.9771.844-1.5728.759.3066-.278.5361-.631.6661-1.024s.1562-.813.0758-1.22c-.0268-.168-.0985-.326-.2077-.457-.3092-.334-.8767-.192-1.2486.073-1.187.836-1.5181 2.452-1.5249 3.905-.1208-.524-.0182-1.071-.0228-1.602-.0047-.53-.1484-1.143-.6028-1.424-.2803-.151-.5952-.225-.9132-.215-.5341-.021-1.1276.034-1.49298.425-.45657.485-.33324 1.3.05934 1.83.39254.531.99284.872 1.54554 1.239.4418.264.8187.624 1.1027 1.053.0342.061.0618.124.0822.19h3.3351c.752-.381 1.4492-.863 2.0726-1.432z" />
        </g>
        <path d="m279 231.112h-279v.564h279z" fill="#2f2e41" />
        <path
            d="m265.381 15.6506s-29.125-1.7611-25.694 18.6902c0 0-.692 3.6153 2.588 5.2549 0 0 .052-1.5148 2.988-.9984 1.046.1737 2.108.2248 3.165.1524 1.427-.094 2.784-.65 3.867-1.5841 0 0 8.188-3.3901 11.37-16.7976 0 0 2.356-2.9255 2.262-3.6779l-4.915 2.104s1.681 3.553.346 6.505c0 0-.159-6.378-1.103-6.2393-.19.0279-2.553 1.2304-2.553 1.2304s2.889 6.1873.709 10.6869c0 0 .827-7.6258-1.612-10.2396l-3.459 2.0243s3.376 6.392 1.086 11.6088c0 0 .588-8.0003-1.816-11.1166l-3.134 2.4506s3.172 6.2981 1.239 10.6249c0 0-.253-9.3106-1.917-10.014 0 0-2.743 2.4263-3.161 3.4176 0 0 2.172 4.5755.823 6.988 0 0-.827-6.2046-1.505-6.2393 0 0-2.733 4.1109-3.016 6.9325 0 0 .117-4.1908 2.355-7.3206 0 0-2.643.4541-4.185 2.1683 0 0 .425-2.9047 4.86-3.1611 0 0 2.258-3.1197 2.86-3.3068 0 0-4.407-.3717-7.081.8181 0 0 2.353-2.7417 7.891-1.494l3.096-2.5339s-5.805-.7939-8.267.0834c0 0 2.833-2.4264 9.1-.6586l3.37-2.0175s-4.95-1.0678-7.897-.6933c0 0 3.113-1.681 8.886.1422l2.421-1.0841s-3.625-.7141-4.687-.8284-1.117-.4054-1.117-.4054c2.296-.3838 4.654-.1209 6.811.7592 0 0 5.113-1.9088 5.026-2.2312z"
            fill="#0082ff" fill-opacity=".960784" />
        <path
            d="m225.475 4.82334s-13.144-.79392-11.609 8.44726c0 0-.309 1.6328 1.17 2.3744 0 0 .024-.6933 1.352-.4541.472.0795.951.1028 1.428.0694.646-.0428 1.259-.2961 1.747-.7212 0 0 3.701-1.5321 5.14-7.59108 0 0 1.062-1.32052 1.02-1.66034l-2.22.94974s.757 1.60489.162 2.93936c0 0-.072-2.88081-.498-2.81452-.086 0-1.155.55757-1.155.55757s1.307 2.79718.322 4.82867c0 0 .373-3.44556-.73-4.62763l-1.564.9293s1.526 2.88733.491 5.24463c0 0 .267-3.61527-.819-5.02253l-1.415 1.10926s1.432 2.84577.56 4.80137c0 0-.117-4.20817-.868-4.52691 0 0-1.238 1.09531-1.429 1.54601 0 0 .983 2.0798.374 3.1578 0 0-.374-2.8043-.692-2.8189 0 0-1.235 1.8586-1.363 3.1197.062-1.1765.429-2.3163 1.066-3.3068-.713.1353-1.371.4763-1.892.981 0 0 .193-1.3137 2.196-1.428 0 0 1.038-1.41065 1.294-1.49738 0 0-1.992-.16635-3.2.37171 0 0 1.062-1.23751 3.563-.67591l1.384-1.14396s-2.625-.35003-3.738.03594c0 0 1.28-1.09533 4.113-.298l1.522-.91164s-2.238-.48168-3.569-.30976c0 0 1.407-.75924 4.016.06195l1.089-.48881s-1.638-.32246-2.12-.3745-.505-.1837-.505-.1837c1.038-.1731 2.104-.05307 3.078.34663 0 0 2.34-.87168 2.299-1.01603z"
            fill="#0082ff" fill-opacity=".960784" />
        <path
            d="m44.6948 145.902s-13.1443-.794-11.6086 8.447c0 0-.3091 1.633 1.1691 2.374 0 0 .0241-.693 1.3524-.454.4717.08.9512.103 1.4284.07.6453-.043 1.2588-.296 1.7469-.721s3.701-1.533 5.14-7.592c0 0 1.0618-1.32 1.0201-1.66l-2.2207.95s.7576 1.605.1626 2.939c0 0-.0727-2.881-.498-2.814-.0866 0-1.1555.557-1.1555.557s1.3076 2.797.3218 4.829c0 0 .3734-3.446-.7299-4.628l-1.5635.93s1.5255 2.887.4912 5.244c0 0 .2665-3.615-.8198-5.022l-1.4148 1.109s1.4321 2.846.5604 4.801c0 0-.1174-4.208-.8683-4.527 0 0-1.2383 1.096-1.4287 1.546 0 0 .9824 2.08.3737 3.158 0 0-.3737-2.804-.6918-2.819 0 0-1.2349 1.859-1.3629 3.12.0618-1.176.4291-2.316 1.0655-3.307-.7126.135-1.3702.476-1.8921.981 0 0 .1938-1.313 2.1966-1.428 0 0 1.0377-1.41 1.2937-1.497 0 0-1.9923-.167-3.1997.372 0 0 1.0618-1.238 3.5629-.676l1.3836-1.144s-2.6244-.35-3.7372.036c0 0 1.2797-1.096 4.1128-.298l1.5221-.912s-2.238-.482-3.5697-.31c0 0 1.4077-.759 4.016.062l1.0897-.489s-1.6383-.322-2.1206-.374c-.4822-.052-.5051-.184-.5051-.184 1.0384-.173 2.1044-.053 3.0785.347 0 0 2.3394-.872 2.2989-1.016z"
            fill="#3c9cf4" />
    </g>
</svg>