<svg fill="none" height="566" viewBox="0 0 375 566" width="375" xmlns="http://www.w3.org/2000/svg"
    xmlns:xlink="http://www.w3.org/1999/xlink">
    <mask id="a" height="566" maskUnits="userSpaceOnUse" width="566" x="-93" y="0">
        <path clip-rule="evenodd"
            d="m472 283c0 155.744-126.256 282-282 282-155.7443 0-282-126.256-282-282s126.2557-282 282-282c155.744 0 282 126.256 282 282zm1 0c0 156.297-126.703 283-283 283-156.2966 0-283-126.703-283-283s126.7034-283 283-283c156.297 0 283 126.703 283 283zm-91.253 0c0 105.899-85.848 191.747-191.747 191.747s-191.74712-85.848-191.74712-191.747 85.84812-191.7473 191.74712-191.7473 191.747 85.8483 191.747 191.7473zm1 0c0 106.451-86.296 192.747-192.747 192.747-106.4512 0-192.74712-86.296-192.74712-192.747s86.29592-192.7473 192.74712-192.7473c106.451 0 192.747 86.2963 192.747 192.7473zm-192.507 108.215c59.633 0 107.975-48.342 107.975-107.975s-48.342-107.975-107.975-107.975-107.9755 48.342-107.9755 107.975 48.3425 107.975 107.9755 107.975zm0 1c60.185 0 108.975-48.79 108.975-108.975s-48.79-108.975-108.975-108.975c-60.186 0-108.9755 48.79-108.9755 108.975s48.7895 108.975 108.9755 108.975zm37.886-109.215c0 21.056-17.07 38.126-38.126 38.126s-38.126-17.07-38.126-38.126 17.07-38.126 38.126-38.126 38.126 17.07 38.126 38.126zm1 0c0 21.608-17.518 39.126-39.126 39.126s-39.126-17.518-39.126-39.126 17.518-39.126 39.126-39.126 39.126 17.518 39.126 39.126z"
            fill="#000" fill-rule="evenodd" />
    </mask>
    <g mask="url(#a)">
        <path d="m-93-52.7627h566v335.763h-566z" fill="#ebe4ff" />
    </g>
</svg>