<svg width="21" height="21" viewBox="0 0 21 21" fill="none" xmlns="http://www.w3.org/2000/svg">
<mask id="mask0_1188_10623" style="mask-type:luminance" maskUnits="userSpaceOnUse" x="0" y="0" width="21" height="21">
<path d="M0 0H20.48V20.4801H0V0Z" fill="white"/>
</mask>
<g mask="url(#mask0_1188_10623)">
<path d="M14.1565 7.68057H12.7997V3.41388C12.7997 2.94455 12.4157 2.56055 11.9464 2.56055H8.53307C8.06373 2.56055 7.67973 2.94455 7.67973 3.41388V7.68057H6.32293C5.56347 7.68057 5.17947 8.60217 5.71707 9.13977L9.63387 13.0566C9.96666 13.3894 10.5043 13.3894 10.8371 13.0566L14.7539 9.13977C15.2915 8.60217 14.916 7.68057 14.1565 7.68057ZM4.2664 16.2139C4.2664 16.6833 4.6504 17.0673 5.11974 17.0673H15.3597C15.8291 17.0673 16.2131 16.6833 16.2131 16.2139C16.2131 15.7446 15.8291 15.3606 15.3597 15.3606H5.11974C4.6504 15.3606 4.2664 15.7446 4.2664 16.2139Z" fill="#E45F35"/>
</g>
</svg>
