<svg xmlns="http://www.w3.org/2000/svg" version="1.1" xmlns:xlink="http://www.w3.org/1999/xlink" xmlns:svgjs="http://svgjs.com/svgjs" width="512" height="512" x="0" y="0" viewBox="0 0 512 512" style="enable-background:new 0 0 512 512" xml:space="preserve" class=""><g><path d="M473.655 88.276H38.345C17.167 88.276 0 105.443 0 126.621v73.471h512v-73.471c0-21.178-17.167-38.345-38.345-38.345z" style="" fill="#ff4b55" data-original="#ff4b55" class=""></path><path d="M0 385.379c0 21.177 17.167 38.345 38.345 38.345h435.31c21.177 0 38.345-17.167 38.345-38.345v-73.471H0v73.471z" style="" fill="#464655" data-original="#464655"></path><path d="M0 200.09h512V311.9H0z" style="" fill="#f5f5f5" data-original="#f5f5f5"></path><path d="M284.186 238.57c0-4.377-4.289-7.469-8.441-6.084l-7.804 2.601-1.895-11.443a14.048 14.048 0 0 0-13.906-11.782h-7.299l-7.634 9.396h10.109l-2.829 13.972-8.233-2.744c-4.153-1.385-8.441 1.707-8.441 6.084v47.475l11.363-11.363-5.354 16.061h-6.008v9.396h56.373v-9.396h-6.008l-5.354-16.061 11.363 11.363V238.57h-.002zm-32.883 52.172h-7.574l5.208-13.909 2.366 3.021v10.888zm9.394 0v-10.888l2.366-3.021 5.208 13.909h-7.574zM256 273.713s-14.534-9.836-13.946-28.186c0 0 8.956-1.468 13.946-9.396 4.991 7.927 13.947 9.396 13.947 9.396.587 18.351-13.947 28.186-13.947 28.186z" style="" fill="#f0c727" data-original="#f0c727"></path></g></svg>