<svg enable-background="new 0 0 512 512" height="512" viewBox="0 0 512 512" width="512" xmlns="http://www.w3.org/2000/svg"><path d="m440.93 375.7-184.93 101.545-184.93-101.545v-203.09l184.93-101.547 184.93 101.546zm0 0" fill="#ffb954"/><path d="m71.07 172.61v.003l184.93 101.547 184.93-101.547v-.004l-184.93-101.546zm0 0" fill="#fea02c"/><path d="m71.07 172.672v203.027l184.93 101.547.11-.059v-203.03l-184.93-101.549zm0 0" fill="#ffc66c"/><path d="m440.93 172.613 61.07 61.067-184.93 101.547-61.07-61.07zm-369.86 0-61.07 61.067 184.93 101.547 61.07-61.07zm369.86 0 61.07-61.066-184.93-101.547-61.07 61.07zm-369.86 0-61.07-61.066 184.93-101.547 61.07 61.07zm0 0" fill="#feda9b"/><path d="m455.074 172.613 53.996-53.996a10 10 0 0 0 -2.258-15.836l-64.914-35.644c-4.84-2.657-10.918-.887-13.578 3.953-2.656 4.844-.89 10.922 3.953 13.578l53.235 29.23-46.34 46.336-166.668-91.52 46.336-46.335 46.84 25.723c4.84 2.656 10.922.89 13.578-3.954 2.66-4.84.89-10.921-3.953-13.578l-53.418-29.336a9.996 9.996 0 0 0 -11.883 1.696l-54 54-54-54a10.003 10.003 0 0 0 -11.883-1.696l-184.93 101.547a9.994 9.994 0 0 0 -5.085 7.356 9.987 9.987 0 0 0 2.828 8.48l53.996 53.996-53.996 53.992a9.994 9.994 0 0 0 -2.828 8.485 9.987 9.987 0 0 0 5.086 7.351l55.882 30.689v102.57c0 3.653 1.989 7.012 5.188 8.77l184.93 101.543c1.5.824 3.156 1.234 4.812 1.234s3.313-.41 4.813-1.234l184.93-101.543a10.004 10.004 0 0 0 5.187-8.77v-102.57l55.883-30.684a10 10 0 0 0 2.257-15.836zm-199.074 90.133-164.152-90.136 164.152-90.14 164.152 90.14zm-62.832-240.366 46.332 46.335-166.668 91.52-46.336-46.337zm-120.328 162.609 166.668 91.519-46.34 46.34-166.672-91.52zm358.09 184.796-164.93 90.563v-102.223c0-5.523-4.477-10-10-10s-10 4.477-10 10v102.223l-164.93-90.563v-85.672l109.047 59.88a10 10 0 0 0 11.883-1.696l54-54.001 54 54a9.984 9.984 0 0 0 7.074 2.93c1.64 0 3.297-.407 4.809-1.235l109.047-59.879zm-112.094-46.937-46.34-46.344 166.668-91.516 46.344 46.336zm0 0"/><path d="m404.8 68.176c2.63 0 5.2-1.07 7.071-2.934a10.07 10.07 0 0 0 2.93-7.066c0-2.633-1.07-5.211-2.93-7.07a10.063 10.063 0 0 0 -7.07-2.93c-2.64 0-5.211 1.066-7.07 2.93a10.023 10.023 0 0 0 -2.93 7.07 10.02 10.02 0 0 0 2.93 7.066 10.067 10.067 0 0 0 7.07 2.934zm-148.8 246.75c-2.629 0-5.21 1.066-7.07 2.93a10.087 10.087 0 0 0 -2.93 7.07c0 2.636 1.07 5.207 2.93 7.078 1.86 1.86 4.441 2.922 7.07 2.922s5.21-1.063 7.07-2.922a10.105 10.105 0 0 0 2.93-7.078c0-2.633-1.07-5.203-2.93-7.07a10.063 10.063 0 0 0 -7.07-2.93zm0 0"/></svg>