<svg width="52" height="54" viewBox="0 0 52 54" fill="none" xmlns="http://www.w3.org/2000/svg">
<path d="M26 2.32031C11.729 2.32031 0.160156 13.8892 0.160156 28.1602C0.160156 33.031 1.50868 37.5865 3.85156 41.4753H3.95703V31.9806C3.95703 31.4571 4.38281 31.0313 4.90625 31.0313H24.3389C24.5984 31.0309 24.854 31.0957 25.0821 31.2196C25.3101 31.3435 25.5035 31.5227 25.6444 31.7407C25.7236 31.8624 25.8565 31.9352 26 31.9352C26.1435 31.9352 26.2764 31.8625 26.3556 31.7407C26.4965 31.5227 26.6899 31.3435 26.9179 31.2196C27.146 31.0957 27.4016 31.0309 27.6611 31.0313H47.0938C47.6172 31.0313 48.043 31.4571 48.043 31.9806V41.4753H48.1484C50.4913 37.5865 51.8398 33.031 51.8398 28.1602C51.8398 13.8892 40.271 2.32031 26 2.32031Z" fill="#05E39C"/>
<path d="M20.8746 24.1524C20.8746 23.5127 20.3542 22.9922 19.7145 22.9922H13.2383V23.9193C13.2383 25.6667 14.6548 27.0834 16.4023 27.0834H20.8746V24.1524ZM42.5059 8.28125V19.9336C42.5059 21.6201 41.1337 22.9922 39.4473 22.9922H28.0252C27.7153 22.9922 27.424 23.113 27.2049 23.3321L23.4536 27.0834H43.2969C45.0444 27.0834 46.4609 25.6667 46.4609 23.9193V12.3797C45.2967 10.8728 43.9704 9.4984 42.5059 8.28125Z" fill="#0ED290"/>
<path d="M39.4473 0H12.5527C10.8052 0 9.38867 1.41655 9.38867 3.16406V19.9336C9.38867 21.6811 10.8052 23.0977 12.5527 23.0977H19.7145C20.297 23.0977 20.7692 23.5698 20.7692 24.1523V27.8798C20.7692 28.6315 21.678 29.008 22.2096 28.4765L27.2794 23.4066C27.4772 23.2088 27.7455 23.0977 28.0252 23.0977H39.4473C41.1948 23.0977 42.6113 21.6811 42.6113 19.9336V3.16406C42.6113 1.41655 41.1948 0 39.4473 0Z" fill="#8379C1"/>
<path d="M47.0938 30.9258H27.6611C27.077 30.9258 26.5633 31.2272 26.2672 31.6832C26.2385 31.7281 26.199 31.765 26.1523 31.7906C26.1057 31.8162 26.0533 31.8297 26 31.8297C25.9467 31.8297 25.8944 31.8162 25.8477 31.7906C25.801 31.765 25.7615 31.7281 25.7328 31.6832C25.4367 31.2273 24.923 30.9258 24.3389 30.9258H4.90625C4.32375 30.9258 3.85156 31.398 3.85156 31.9805V41.4752C4.5117 42.5703 5.252 43.6151 6.06641 44.6009H6.17188V33.6909C6.17188 33.4582 6.36109 33.269 6.59375 33.269H45.4062C45.6389 33.269 45.8281 33.4582 45.8281 33.6909V44.6008H45.9336C46.748 43.6149 47.4883 42.5702 48.1484 41.4751V31.9804C48.1484 31.398 47.6763 30.9258 47.0938 30.9258Z" fill="#FE5694"/>
<path d="M6.06641 33.691C6.06641 33.5511 6.12197 33.417 6.22086 33.3181C6.31976 33.2192 6.45389 33.1636 6.59375 33.1636H8.70312V31.9805C8.70312 31.398 9.17531 30.9258 9.75781 30.9258H4.90625C4.32375 30.9258 3.85156 31.398 3.85156 31.9805V41.4752C4.51163 42.5706 5.25194 43.6155 6.06641 44.6015V33.691Z" fill="#FD3581"/>
<path d="M15.3477 19.9336V3.16406C15.3477 1.41666 16.7642 0 18.5117 0H12.5527C10.8052 0 9.38867 1.41666 9.38867 3.16406V19.9336C9.38867 21.681 10.8052 23.0977 12.5527 23.0977H18.5117C16.7642 23.0977 15.3477 21.681 15.3477 19.9336Z" fill="#6E61B6"/>
<path d="M28.6048 6.4278C28.5009 6.42778 28.398 6.44823 28.302 6.48798C28.2061 6.52773 28.1189 6.58599 28.0454 6.65945C27.9719 6.7329 27.9137 6.82011 27.8739 6.91609C27.8342 7.01206 27.8137 7.11493 27.8137 7.21881V13.2576L24.0794 6.82193C23.9921 6.67141 23.8576 6.55386 23.6968 6.48751C23.5359 6.42115 23.3577 6.40969 23.1896 6.45489C23.0216 6.5001 22.8732 6.59944 22.7673 6.73755C22.6615 6.87565 22.6041 7.04481 22.6041 7.21881V16.197C22.6041 16.634 22.9582 16.9881 23.3951 16.9881C23.8321 16.9881 24.1861 16.634 24.1861 16.197V10.1581L27.921 16.5937C27.9904 16.7136 28.0901 16.8132 28.2101 16.8824C28.33 16.9516 28.4661 16.988 28.6047 16.9881C29.0416 16.9881 29.3957 16.634 29.3957 16.197V7.21881C29.3957 7.11493 29.3753 7.01207 29.3355 6.91609C29.2958 6.82012 29.2375 6.73291 29.1641 6.65945C29.0906 6.586 29.0034 6.52773 28.9075 6.48798C28.8115 6.44823 28.7086 6.42778 28.6048 6.4278ZM20.6626 12.499C21.0996 12.499 21.4537 12.1449 21.4537 11.708C21.4537 11.271 21.0996 10.917 20.6626 10.917H16.2441V8.00983H20.6626C21.0996 8.00983 21.4537 7.65577 21.4537 7.21881C21.4537 6.78185 21.0996 6.4278 20.6626 6.4278H15.4531C15.3492 6.42778 15.2464 6.44823 15.1504 6.48798C15.0544 6.52773 14.9672 6.58599 14.8938 6.65945C14.8203 6.7329 14.762 6.82011 14.7223 6.91609C14.6825 7.01206 14.6621 7.11493 14.6621 7.21881V16.197C14.6621 16.634 15.0162 16.9881 15.4531 16.9881H20.6626C21.0996 16.9881 21.4537 16.634 21.4537 16.197C21.4537 15.7601 21.0996 15.406 20.6626 15.406H16.2441V12.499H20.6626ZM34.816 16.9881H33.0683C31.6777 16.9881 30.5464 15.8567 30.5464 14.4662V8.94966C30.5464 7.55905 31.6778 6.4278 33.0683 6.4278H36.5469C36.9838 6.4278 37.3379 6.78185 37.3379 7.21881C37.3379 7.65577 36.9838 8.00983 36.5469 8.00983H33.0683C32.55 8.00983 32.1285 8.43139 32.1285 8.94966V14.4662C32.1285 14.9845 32.55 15.406 33.0683 15.406H34.816C35.3343 15.406 35.7559 14.9845 35.7559 14.4662V12.1536H34.3369C33.8999 12.1536 33.5459 11.7995 33.5459 11.3626C33.5459 10.9256 33.8999 10.5716 34.3369 10.5716H36.5469C36.9838 10.5716 37.3379 10.9256 37.3379 11.3626V14.4662C37.3379 15.8568 36.2065 16.9881 34.816 16.9881Z" fill="white"/>
<path d="M45.4062 33.1636H6.59375C6.45389 33.1636 6.31976 33.2191 6.22086 33.318C6.12197 33.4169 6.06641 33.5511 6.06641 33.6909V44.6033C10.8059 50.3423 17.9757 54 26 54C34.0243 54 41.1941 50.3423 45.9336 44.6035V33.6909C45.9336 33.5511 45.878 33.4169 45.7791 33.318C45.6802 33.2191 45.5461 33.1636 45.4062 33.1636Z" fill="#F2FBFF"/>
<path d="M6.06641 33.6909V44.6033C10.8059 50.3423 17.9757 54 26 54V33.1636H6.59375C6.45389 33.1636 6.31976 33.2191 6.22086 33.318C6.12197 33.4169 6.06641 33.5511 6.06641 33.6909Z" fill="#C8EFFE"/>
<path d="M8.59766 33.6909C8.59766 33.5511 8.65322 33.4169 8.75211 33.318C8.85101 33.2191 8.98514 33.1636 9.125 33.1636H6.59375C6.45389 33.1636 6.31976 33.2191 6.22086 33.318C6.12197 33.4169 6.06641 33.5511 6.06641 33.6909V44.6033C6.84655 45.5471 7.69241 46.4345 8.59766 47.2589V33.6909ZM29.8496 37.7884H41.6621C42.0991 37.7884 42.4531 37.4343 42.4531 36.9974C42.4531 36.5604 42.0991 36.2063 41.6621 36.2063H29.8496C29.4127 36.2063 29.0586 36.5604 29.0586 36.9974C29.0586 37.4343 29.4127 37.7884 29.8496 37.7884ZM41.6621 39.6868H39.1836C38.7466 39.6868 38.3926 40.0409 38.3926 40.4778C38.3926 40.9148 38.7466 41.2688 39.1836 41.2688H41.6621C42.0991 41.2688 42.4531 40.9148 42.4531 40.4778C42.4531 40.0409 42.0991 39.6868 41.6621 39.6868ZM29.8496 41.2688H36.6523C37.0893 41.2688 37.4434 40.9148 37.4434 40.4778C37.4434 40.0409 37.0893 39.6868 36.6523 39.6868H29.8496C29.4127 39.6868 29.0586 40.0409 29.0586 40.4778C29.0586 40.9148 29.4127 41.2688 29.8496 41.2688ZM41.6621 43.1673H29.8496C29.4127 43.1673 29.0586 43.5213 29.0586 43.9583C29.0586 44.3953 29.4127 44.7493 29.8496 44.7493H41.6621C42.0991 44.7493 42.4531 44.3953 42.4531 43.9583C42.4531 43.5213 42.0991 43.1673 41.6621 43.1673ZM36.5996 46.6478H29.8496C29.4127 46.6478 29.0586 47.0018 29.0586 47.4388C29.0586 47.8757 29.4127 48.2298 29.8496 48.2298H36.5996C37.0366 48.2298 37.3906 47.8757 37.3906 47.4388C37.3906 47.0018 37.0366 46.6478 36.5996 46.6478ZM10.3379 37.7884H12.1836C12.6206 37.7884 12.9746 37.4343 12.9746 36.9974C12.9746 36.5604 12.6206 36.2063 12.1836 36.2063H10.3379C9.90093 36.2063 9.54688 36.5604 9.54688 36.9974C9.54688 37.4343 9.90093 37.7884 10.3379 37.7884ZM14.5039 37.7884H22.1504C22.5873 37.7884 22.9414 37.4343 22.9414 36.9974C22.9414 36.5604 22.5873 36.2063 22.1504 36.2063H14.5039C14.0669 36.2063 13.7129 36.5604 13.7129 36.9974C13.7129 37.4343 14.0669 37.7884 14.5039 37.7884ZM22.1504 39.6868H10.3379C9.90093 39.6868 9.54688 40.0409 9.54688 40.4778C9.54688 40.9148 9.90093 41.2688 10.3379 41.2688H22.1504C22.5873 41.2688 22.9414 40.9148 22.9414 40.4778C22.9414 40.0409 22.5873 39.6868 22.1504 39.6868ZM22.1504 43.1673H10.3379C9.90093 43.1673 9.54688 43.5213 9.54688 43.9583C9.54688 44.3953 9.90093 44.7493 10.3379 44.7493H22.1504C22.5873 44.7493 22.9414 44.3953 22.9414 43.9583C22.9414 43.5213 22.5873 43.1673 22.1504 43.1673ZM22.1504 46.6478H15.4004C14.9634 46.6478 14.6094 47.0018 14.6094 47.4388C14.6094 47.8757 14.9634 48.2298 15.4004 48.2298H22.1504C22.5873 48.2298 22.9414 47.8757 22.9414 47.4388C22.9414 47.0018 22.5873 46.6478 22.1504 46.6478Z" fill="#99E6FC"/>
</svg>
