<svg fill="none" height="112" viewBox="0 0 133 112" width="133" xmlns="http://www.w3.org/2000/svg"
    xmlns:xlink="http://www.w3.org/1999/xlink">
    <filter id="a" color-interpolation-filters="sRGB" filterUnits="userSpaceOnUse" height="112"
        width="133" x="0" y="0">
        <feFlood flood-opacity="0" result="BackgroundImageFix" />
        <feColorMatrix in="SourceAlpha" result="hardAlpha" type="matrix"
            values="0 0 0 0 0 0 0 0 0 0 0 0 0 0 0 0 0 0 127 0" />
        <feOffset dy="4" />
        <feGaussianBlur stdDeviation="2" />
        <feComposite in2="hardAlpha" operator="out" />
        <feColorMatrix type="matrix" values="0 0 0 0 0 0 0 0 0 0 0 0 0 0 0 0 0 0 0.25 0" />
        <feBlend in2="BackgroundImageFix" mode="normal" result="effect1_dropShadow_271_5298" />
        <feBlend in="SourceGraphic" in2="effect1_dropShadow_271_5298" mode="normal"
            result="shape" />
    </filter>
    <g filter="url(#a)">
        <path
            d="m17.587 73.0888c-18.039498-28.9889-19.38891-57.2303 3.6892-70.61977 7.9933-4.63785 17.0382-2.127395 26.1807 2.46589l.6857.34847c.4574.23475.9147.47416 1.3721.71756l.6864.36975.6864.37441.6864.38039.6857.38571.6857.3897.6857.39303.685.39702 1.141.669 1.1383.67504 1.1362.6789 3.9533 2.3775 1.1204.6703 1.1169.6624.4746.2793.9443.5526c3.7724 2.1906 7.4485 4.1544 10.9541 5.5031 2.2724.8718 4.9953 1.6505 7.9781 2.4113l1.0042.2521 1.5372.379 1.5729.3798 4.3206 1.0301 1.1011.2653 1.6596.4077 1.1114.2779 1.1107.284 1.1108.2906 1.1094.298.6309.1735.628.1756.628.1795.625.1816.623.1855.62.1876.618.1915.613.1948.612.1982c.203.0665.405.1344.606.2029l.604.2048.299.1044.595.2121c.694.2494 1.377.5061 2.047.7734l.573.2308c5.597 2.293 10.304 5.253 12.875 9.3854 9.365 15.0494 10.839 37.2019-20.512 55.3915-31.3512 18.189-66.9694 6.869-85.0083-22.1199z"
            fill="#f4f2f7" />
        <path
            d="m66.7344 91.3316c-22.8113 0-41.3047-17.8797-41.3047-39.9364s18.4934-39.9364 41.3047-39.9364c22.8106 0 41.3036 17.8797 41.3036 39.9364s-18.493 39.9364-41.3036 39.9364z"
            fill="#fb5656" />
        <path
            d="m61.4237 51.3945-8.6164-8.3314c-1.4664-1.4178-1.4664-3.7168 0-5.1346 1.4663-1.4185 3.8439-1.4185 5.3096 0l8.6177 8.3314 8.6308-8.346c1.4664-1.4172 3.8433-1.4172 5.3096 0 1.467 1.4178 1.467 3.7168 0 5.1346l-8.6308 8.346 8.6074 8.3227c1.4664 1.4172 1.4664 3.7168 0 5.134-1.467 1.4178-3.8439 1.4178-5.3109 0l-8.6061-8.3221-8.6116 8.3254c-1.4663 1.4178-3.8432 1.4178-5.3102 0-1.4657-1.4178-1.4657-3.7168 0-5.134z"
            fill="#fff" />
    </g>
</svg>