<svg xmlns="http://www.w3.org/2000/svg" version="1.1" xmlns:xlink="http://www.w3.org/1999/xlink" xmlns:svgjs="http://svgjs.com/svgjs" width="512" height="512" x="0" y="0" viewBox="0 0 512 512" style="enable-background:new 0 0 512 512" xml:space="preserve" class=""><g><path d="M316 271v241h120c24.814 0 46-20.186 46-45V271H316zM30 271v196c0 24.814 20.186 45 45 45h121V271H30z" fill="#33a7d5" data-original="#000000" class=""></path><path d="M467 120h-61.383C415.135 107.426 421 91.948 421 75c0-41.353-33.647-75-75-75-52.343 0-67.498 37.705-90 94.803C233.498 37.705 218.343 0 166 0c-41.353 0-75 33.647-75 75 0 16.948 5.865 32.426 15.383 45H45c-24.814 0-45 20.186-45 45v31c0 24.814 20.186 45 45 45h151V120h-30c-24.814 0-45-20.186-45-45s20.186-45 45-45c30.747 0 39.492 18.442 62.476 76.758 1.602 4.072 3.6 8.903 5.327 13.242H226v392h60V120h-7.802c1.727-4.34 3.724-9.17 5.327-13.242C306.508 48.442 315.253 30 346 30c24.814 0 45 20.186 45 45s-20.186 45-45 45h-30v121h151c24.814 0 45-20.186 45-45v-31c0-24.814-20.186-45-45-45z" fill="#33a7d5" data-original="#000000" class=""></path></g></svg>