<svg width="26" height="34" viewBox="0 0 26 34" fill="none" xmlns="http://www.w3.org/2000/svg">
<path d="M5.26586 14.3279C9.26773 10.3504 10.0672 4.48176 10.0672 1.19971C15.4447 5.13817 18.4473 13.6442 18.7674 17.1997C21.0721 17.1997 22.5508 14.3279 23.5111 12.6869C28.3125 29.0971 18.5685 32.3792 12.8069 33.1997C2.24379 31.5587 -2.09511 21.6442 5.26586 14.3279Z" fill="#D24940"/>
<path fill-rule="evenodd" clip-rule="evenodd" d="M9.70542 0.486408C9.97421 0.350097 10.2968 0.376416 10.5399 0.554494C13.3783 2.63327 15.5444 5.87587 17.0358 8.99875C18.3209 11.6898 19.1421 14.3711 19.4539 16.2758C19.9967 16.0786 20.5182 15.6527 21.0317 15.0434C21.6481 14.3117 22.1513 13.4404 22.5974 12.668C22.6734 12.5364 22.7477 12.4077 22.8206 12.283C22.9819 12.0074 23.2918 11.8541 23.6088 11.8931C23.9258 11.9321 24.1892 12.1559 24.2789 12.4624C26.7232 20.8163 25.5235 26.0567 22.7269 29.3111C19.9748 32.5137 15.8502 33.5746 12.9197 33.9919C12.8415 34.003 12.7621 34.0025 12.6841 33.9904C7.18237 33.1357 3.18701 30.1025 1.57539 26.1974C-0.0480065 22.2637 0.820377 17.6187 4.70195 13.7607C8.47618 10.0094 9.26724 4.40895 9.26724 1.19991C9.26724 0.898525 9.43662 0.622719 9.70542 0.486408ZM19.5601 17.0835C19.4614 17.1129 19.3609 17.1371 19.2586 17.1557C19.0992 17.1846 18.9355 17.1999 18.7675 17.1999C18.4634 13.8226 15.7391 5.97889 10.8582 1.82557C10.6005 1.60633 10.3369 1.39738 10.0672 1.19991C10.0672 1.50843 10.0602 1.83982 10.0441 2.19034C9.88864 5.5686 8.89159 10.7245 5.26591 14.3281C-2.09507 21.6443 2.24383 31.5589 12.8069 33.1999C18.44 32.3977 27.8796 29.2426 23.811 13.7663C23.7182 13.413 23.6183 13.0533 23.5111 12.6871C23.4423 12.8046 23.3709 12.9285 23.2967 13.0571C23.1878 13.2459 23.0729 13.445 22.9518 13.6497C22.1405 15.0202 21.0456 16.6411 19.5601 17.0835Z" fill="#60050F"/>
<path d="M5.26586 14.3279C9.26774 10.3504 10.0672 4.48176 10.0672 1.19971C10.8567 1.77796 11.5951 2.45466 12.2812 3.19971C12.7625 7.99971 9.39995 13.7597 6.59995 15.9997C4.59995 17.5997 2.79995 19.5997 2.79995 22.7997C2.79995 28.5693 8.6089 32.2395 11.982 33.0524C12.2525 33.1071 12.5275 33.1563 12.8069 33.1997C12.5543 33.1729 12.2775 33.1236 11.982 33.0524C2.02249 31.0361 -1.90046 21.4507 5.26586 14.3279Z" fill="#E95D54"/>
<path fill-rule="evenodd" clip-rule="evenodd" d="M1.61927 21.7071C1.2728 27.089 5.58524 32.078 12.8069 33.1999C18.5685 32.3794 28.3125 29.0973 23.5111 12.6871C23.4423 12.8046 23.3708 12.9284 23.2966 13.0571C23.2494 13.139 23.201 13.2229 23.1515 13.3083C26.8038 27.8474 17.8086 30.835 12.4204 31.5999C5.9759 30.6018 1.93089 26.4242 1.61927 21.7071ZM18.9472 17.194C18.8878 17.1979 18.8279 17.1999 18.7674 17.1999C18.4868 14.083 16.1447 7.16167 11.9484 2.84814C15.7311 7.27655 17.7373 14.4918 18 17.3999C18.3185 17.3999 18.6359 17.3261 18.9472 17.194Z" fill="#AB3028"/>
<path d="M12.8001 33.2001C1.80005 31.8001 7.40001 17.4001 13.2 12.6001C12.2 19.8001 17.7475 19.3654 18.4 26.0001C18.8 30.0668 17.2 32.8001 12.8001 33.2001Z" fill="#FF784E"/>
<path d="M12.8001 33.2C4.4483 31.5111 8.0483 21.3778 11.8445 18C11.8446 23.9111 16.4001 23.0667 16.4001 28.1333C16.4001 31.5111 14.8001 33 12.8001 33.2Z" fill="#FFB45C"/>
<path d="M12.8415 33.1997C17.397 32.3108 14.8001 27.3997 12.6 25.1997C12.8001 28.5997 11.0002 28.3997 10.8001 30.5997C10.6673 32.0603 11.8751 33.0516 12.8415 33.1997Z" fill="#F5992D"/>
<path d="M12.8 33.1998C15.1999 32.7998 13.9999 30.1998 12.7999 28.7998C12.5999 30.3998 11.7103 30.5598 11.6052 31.7698C11.5354 32.5732 12.2923 33.1183 12.8 33.1998Z" fill="#E27F0A"/>
<path d="M12.5455 33.1451C4.5226 31.3028 8.08746 21.3429 11.8445 18C11.8445 19.382 12.0936 20.3947 12.4751 21.2C11.7168 21.9333 10.0801 24.32 9.60011 28C9.15195 31.4359 11.2831 32.8145 12.5455 33.1451C12.6291 33.1643 12.714 33.1826 12.8001 33.2C12.7204 33.1867 12.6351 33.1685 12.5455 33.1451Z" fill="#FFC46A"/>
<path fill-rule="evenodd" clip-rule="evenodd" d="M23.2353 14.6766C23.414 14.8066 23.4535 15.0567 23.3236 15.2354C23.0418 15.6229 22.5337 16.2235 21.9091 16.7911C21.2892 17.3545 20.5238 17.9139 19.7266 18.1796C19.517 18.2495 19.2904 18.1362 19.2206 17.9266C19.1507 17.717 19.264 17.4905 19.4736 17.4207C20.1163 17.2064 20.7842 16.7324 21.371 16.1991C21.9531 15.6701 22.425 15.1107 22.6766 14.7649C22.8065 14.5862 23.0567 14.5467 23.2353 14.6766Z" fill="#FF766D"/>
<path fill-rule="evenodd" clip-rule="evenodd" d="M23.2352 14.6766C23.4139 14.8066 23.4534 15.0567 23.3234 15.2354C23.0356 15.6312 22.5112 16.25 21.8674 16.8288C21.7031 16.9764 21.4502 16.963 21.3025 16.7987C21.1548 16.6344 21.1682 16.3815 21.3325 16.2338C21.932 15.6949 22.4193 15.1185 22.6765 14.7649C22.8064 14.5862 23.0566 14.5467 23.2352 14.6766Z" fill="#FFD2CF"/>
<path fill-rule="evenodd" clip-rule="evenodd" d="M10.8249 2.8006C11.0454 2.81438 11.2129 3.00429 11.1991 3.22477C10.9965 6.46683 9.98442 10.3538 8.11993 12.8398C7.98738 13.0165 7.73666 13.0524 7.55993 12.9198C7.38319 12.7873 7.34738 12.5365 7.47993 12.3598C9.21543 10.0458 10.2033 6.3328 10.4007 3.17487C10.4145 2.95438 10.6044 2.78682 10.8249 2.8006Z" fill="#FF766D"/>
<path fill-rule="evenodd" clip-rule="evenodd" d="M10.8251 2.8006C11.0456 2.81438 11.2131 3.00429 11.1993 3.22477C11.1259 4.40004 10.9467 5.65292 10.662 6.88958C10.6124 7.10486 10.3977 7.23919 10.1824 7.18962C9.96712 7.14004 9.83279 6.92534 9.88236 6.71006C10.1574 5.51568 10.3302 4.30615 10.4009 3.17487C10.4147 2.95438 10.6046 2.78682 10.8251 2.8006Z" fill="#FFD2CF"/>
<path fill-rule="evenodd" clip-rule="evenodd" d="M11.456 19.6928C11.6257 19.8342 11.6486 20.0865 11.5072 20.2562C10.554 21.4001 9.391 23.7239 9.19854 26.0333C9.1802 26.2535 8.98686 26.4171 8.76671 26.3987C8.54656 26.3804 8.38296 26.187 8.40131 25.9669C8.60885 23.4763 9.84588 21.0001 10.8926 19.744C11.0341 19.5743 11.2863 19.5514 11.456 19.6928Z" fill="#FFDEC0"/>
<path d="M19.6 21.1998C19.6 21.4207 19.421 21.5998 19.2 21.5998C18.9791 21.5998 18.8 21.4207 18.8 21.1998C18.8 20.9789 18.9791 20.7998 19.2 20.7998C19.421 20.7998 19.6 20.9789 19.6 21.1998Z" fill="#F44F44"/>
<path d="M18.4 22.1995C18.4 22.31 18.3105 22.3995 18.2 22.3995C18.0895 22.3995 18 22.31 18 22.1995C18 22.0891 18.0895 21.9995 18.2 21.9995C18.3105 21.9995 18.4 22.0891 18.4 22.1995Z" fill="#F44F44"/>
<path d="M20.4 20.1995C20.4 20.31 20.3105 20.3995 20.2 20.3995C20.0895 20.3995 20 20.31 20 20.1995C20 20.0891 20.0895 19.9995 20.2 19.9995C20.3105 19.9995 20.4 20.0891 20.4 20.1995Z" fill="#F44F44"/>
<path d="M20.7999 21.7996C20.7999 21.9101 20.7104 21.9996 20.5999 21.9996C20.4894 21.9996 20.3999 21.9101 20.3999 21.7996C20.3999 21.6892 20.4894 21.5996 20.5999 21.5996C20.7104 21.5996 20.7999 21.6892 20.7999 21.7996Z" fill="#F44F44"/>
<path d="M19.6 22.9998C19.6 23.1103 19.5104 23.1998 19.4 23.1998C19.2895 23.1998 19.2 23.1103 19.2 22.9998C19.2 22.8893 19.2895 22.7998 19.4 22.7998C19.5104 22.7998 19.6 22.8893 19.6 22.9998Z" fill="#F44F44"/>
<path d="M19.2 24.9998C19.2 25.1103 19.1105 25.1998 19 25.1998C18.8896 25.1998 18.8 25.1103 18.8 24.9998C18.8 24.8893 18.8896 24.7998 19 24.7998C19.1105 24.7998 19.2 24.8893 19.2 24.9998Z" fill="#F44F44"/>
<path d="M17.2 18.5999C17.2 18.7104 17.1105 18.7999 17 18.7999C16.8896 18.7999 16.8 18.7104 16.8 18.5999C16.8 18.4894 16.8896 18.3999 17 18.3999C17.1105 18.3999 17.2 18.4894 17.2 18.5999Z" fill="#F44F44"/>
<path d="M16.7999 15.3997C16.7999 15.5102 16.7104 15.5997 16.5999 15.5997C16.4894 15.5997 16.3999 15.5102 16.3999 15.3997C16.3999 15.2893 16.4894 15.1997 16.5999 15.1997C16.7104 15.1997 16.7999 15.2893 16.7999 15.3997Z" fill="#F44F44"/>
<path d="M16.7999 16.9998C16.7999 17.1103 16.7104 17.1998 16.5999 17.1998C16.4894 17.1998 16.3999 17.1103 16.3999 16.9998C16.3999 16.8893 16.4894 16.7998 16.5999 16.7998C16.7104 16.7998 16.7999 16.8893 16.7999 16.9998Z" fill="#F44F44"/>
<path d="M16.0001 18.5999C16.0001 18.7104 15.9106 18.7999 15.8001 18.7999C15.6896 18.7999 15.6001 18.7104 15.6001 18.5999C15.6001 18.4894 15.6896 18.3999 15.8001 18.3999C15.9106 18.3999 16.0001 18.4894 16.0001 18.5999Z" fill="#F44F44"/>
<path d="M6.7999 20.9998C6.7999 21.1103 6.71036 21.1998 6.5999 21.1998C6.48945 21.1998 6.3999 21.1103 6.3999 20.9998C6.3999 20.8893 6.48945 20.7998 6.5999 20.7998C6.71036 20.7998 6.7999 20.8893 6.7999 20.9998Z" fill="#F44F44"/>
<path d="M6.0001 18.9998C6.0001 19.1103 5.91055 19.1998 5.8001 19.1998C5.68964 19.1998 5.6001 19.1103 5.6001 18.9998C5.6001 18.8893 5.68964 18.7998 5.8001 18.7998C5.91055 18.7998 6.0001 18.8893 6.0001 18.9998Z" fill="#F44F44"/>
<path d="M8.4 17.7996C8.4 17.9101 8.31046 17.9996 8.2 17.9996C8.08954 17.9996 8 17.9101 8 17.7996C8 17.6892 8.08954 17.5996 8.2 17.5996C8.31046 17.5996 8.4 17.6892 8.4 17.7996Z" fill="#F44F44"/>
<path d="M6.7999 17.7996C6.7999 17.9101 6.71036 17.9996 6.5999 17.9996C6.48945 17.9996 6.3999 17.9101 6.3999 17.7996C6.3999 17.6892 6.48945 17.5996 6.5999 17.5996C6.71036 17.5996 6.7999 17.6892 6.7999 17.7996Z" fill="#F44F44"/>
<path d="M8.7999 16.1995C8.7999 16.31 8.71036 16.3995 8.5999 16.3995C8.48945 16.3995 8.3999 16.31 8.3999 16.1995C8.3999 16.0891 8.48945 15.9995 8.5999 15.9995C8.71036 15.9995 8.7999 16.0891 8.7999 16.1995Z" fill="#F44F44"/>
<path d="M6.4 22.1995C6.4 22.31 6.31046 22.3995 6.2 22.3995C6.08954 22.3995 6 22.31 6 22.1995C6 22.0891 6.08954 21.9995 6.2 21.9995C6.31046 21.9995 6.4 22.0891 6.4 22.1995Z" fill="#F44F44"/>
<path d="M5.20005 21.7996C5.20005 21.9101 5.11051 21.9996 5.00005 21.9996C4.88959 21.9996 4.80005 21.9101 4.80005 21.7996C4.80005 21.6892 4.88959 21.5996 5.00005 21.5996C5.11051 21.5996 5.20005 21.6892 5.20005 21.7996Z" fill="#F44F44"/>
<path d="M4.4 23.3997C4.4 23.5102 4.31046 23.5997 4.2 23.5997C4.08954 23.5997 4 23.5102 4 23.3997C4 23.2893 4.08954 23.1997 4.2 23.1997C4.31046 23.1997 4.4 23.2893 4.4 23.3997Z" fill="#F44F44"/>
<path d="M5.59995 24.1995C5.59995 24.31 5.51041 24.3995 5.39995 24.3995C5.28949 24.3995 5.19995 24.31 5.19995 24.1995C5.19995 24.0891 5.28949 23.9995 5.39995 23.9995C5.51041 23.9995 5.59995 24.0891 5.59995 24.1995Z" fill="#F44F44"/>
<path d="M5.59995 25.7996C5.59995 25.9101 5.51041 25.9996 5.39995 25.9996C5.28949 25.9996 5.19995 25.9101 5.19995 25.7996C5.19995 25.6892 5.28949 25.5996 5.39995 25.5996C5.51041 25.5996 5.59995 25.6892 5.59995 25.7996Z" fill="#F44F44"/>
<path d="M14.4 14.9998C14.4 15.1103 14.3105 15.1998 14.2 15.1998C14.0895 15.1998 14 15.1103 14 14.9998C14 14.8893 14.0895 14.7998 14.2 14.7998C14.3105 14.7998 14.4 14.8893 14.4 14.9998Z" fill="#F44F44"/>
<path d="M15.6 15.7996C15.6 15.9101 15.5104 15.9996 15.4 15.9996C15.2895 15.9996 15.2 15.9101 15.2 15.7996C15.2 15.6892 15.2895 15.5996 15.4 15.5996C15.5104 15.5996 15.6 15.6892 15.6 15.7996Z" fill="#F44F44"/>
<path d="M14.7999 13.3997C14.7999 13.5102 14.7104 13.5997 14.5999 13.5997C14.4894 13.5997 14.3999 13.5102 14.3999 13.3997C14.3999 13.2893 14.4894 13.1997 14.5999 13.1997C14.7104 13.1997 14.7999 13.2893 14.7999 13.3997Z" fill="#F44F44"/>
<path d="M17.6 20.3995C17.6 20.6204 17.421 20.7995 17.2 20.7995C16.9791 20.7995 16.8 20.6204 16.8 20.3995C16.8 20.1786 16.9791 19.9995 17.2 19.9995C17.421 19.9995 17.6 20.1786 17.6 20.3995Z" fill="#F44F44"/>
<path d="M5.1999 20.3995C5.1999 20.6204 5.02082 20.7995 4.7999 20.7995C4.57899 20.7995 4.3999 20.6204 4.3999 20.3995C4.3999 20.1786 4.57899 19.9995 4.7999 19.9995C5.02082 19.9995 5.1999 20.1786 5.1999 20.3995Z" fill="#F44F44"/>
<path d="M15.6 17.1998C15.6 17.4207 15.421 17.5998 15.2 17.5998C14.9791 17.5998 14.8 17.4207 14.8 17.1998C14.8 16.9789 14.9791 16.7998 15.2 16.7998C15.421 16.7998 15.6 16.9789 15.6 17.1998Z" fill="#F44F44"/>
<path d="M7.60005 19.1998C7.60005 19.4207 7.42096 19.5998 7.20005 19.5998C6.97913 19.5998 6.80005 19.4207 6.80005 19.1998C6.80005 18.9789 6.97913 18.7998 7.20005 18.7998C7.42096 18.7998 7.60005 18.9789 7.60005 19.1998Z" fill="#F44F44"/>
<path d="M5.99995 23.1998C5.99995 23.4207 5.82087 23.5998 5.59995 23.5998C5.37904 23.5998 5.19995 23.4207 5.19995 23.1998C5.19995 22.9789 5.37904 22.7998 5.59995 22.7998C5.82087 22.7998 5.99995 22.9789 5.99995 23.1998Z" fill="#F44F44"/>
<path d="M19.2 19.3998C19.2 19.7312 18.9314 19.9998 18.6 19.9998C18.2686 19.9998 18 19.7312 18 19.3998C18 19.0684 18.2686 18.7998 18.6 18.7998C18.9314 18.7998 19.2 19.0684 19.2 19.3998Z" fill="#F44F44"/>
</svg>
