<svg width="34" height="34" viewBox="0 0 34 34" fill="none" xmlns="http://www.w3.org/2000/svg">
    <path d="m27.055 7.433-6.679 8.576a.687.687 0 0 0 .424 1.1l4.737.83c.629.11.782.94.234 1.267l-15.837 9.43c-.56.333-1.228-.23-.993-.839l3.376-8.76a.688.688 0 0 0-.523-.925l-5.256-.92a.687.687 0 0 1-.5-.975l5.757-11.973a.687.687 0 0 1 .738-.38l14.098 2.47c.51.089.742.69.424 1.099z" fill="#CE7CFF"/>
    <path fill-rule="evenodd" clip-rule="evenodd" d="m27.598 7.855-6.68 8.576 4.738.83c1.256.22 1.562 1.883.466 2.536l-15.836 9.429c-1.122.668-2.456-.457-1.986-1.676l3.376-8.76-5.256-.921a1.375 1.375 0 0 1-1.002-1.95l5.757-11.973c.267-.555.87-.865 1.477-.759l14.098 2.47a1.375 1.375 0 0 1 .848 2.198zm-7.222 8.154 6.68-8.576a.688.688 0 0 0-.425-1.1L12.533 3.865a.688.688 0 0 0-.738.379L6.037 16.217a.688.688 0 0 0 .501.975l5.257.92c.426.075.678.52.523.925l-3.377 8.76c-.234.61.433 1.172.994.838l15.836-9.429c.548-.326.395-1.158-.233-1.268l-4.738-.83a.687.687 0 0 1-.424-1.1z" fill="#170460"/>
    <path d="M11.795 4.244a.688.688 0 0 1 .738-.38l5.615.984-4.368 9.281-6.186-1.149 4.2-8.736z" fill="#D999FF"/>
    <path fill-rule="evenodd" clip-rule="evenodd" d="M13.07 18.902a.344.344 0 0 1 .19.448l-3.48 8.615a.344.344 0 1 1-.638-.258l3.48-8.615a.344.344 0 0 1 .448-.19z" fill="#E7BEFF"/>
    <path d="m25.77 19.206-15.835 9.43L22.528 18.06l-.348-.699 3.358.576c.628.11.78.942.233 1.268zM27.055 7.433l-6.679 8.576a.687.687 0 0 0 .418 1.098l-3.427-.615 6.531-10.638 2.733.479c.51.09.742.69.424 1.1z" fill="#A143DA"/>
    <path fill-rule="evenodd" clip-rule="evenodd" d="M10.38 29.16a.688.688 0 0 1-.094.066c-1.122.668-2.456-.457-1.986-1.676l3.376-8.76-5.256-.92a1.375 1.375 0 0 1-1.002-1.951l5.757-11.973c.267-.555.87-.865 1.477-.758L23.02 5.003a1.375 1.375 0 0 1 .935 2.074l-5.476 8.919 3.252.591c1.143.208 1.53 1.65.643 2.402L10.38 29.159zm11.228-11.896a.687.687 0 0 1 .322 1.2L9.935 28.635c-.561.334-1.228-.228-.994-.838l3.376-8.76a.688.688 0 0 0-.523-.925l-5.256-.92a.687.687 0 0 1-.5-.975l5.757-11.973a.688.688 0 0 1 .738-.38L22.902 5.68a.687.687 0 0 1 .467 1.037l-6.002 9.775 4.241.771z" fill="#170460"/>
    <path d="m17.367 16.492 6.002-9.775a.687.687 0 0 0-.467-1.036l-1.238-.217-5.5 10.685 1.203.343z" fill="#C25DFF"/>
    <path fill-rule="evenodd" clip-rule="evenodd" d="M12.361 4.495c.17.083.242.289.16.46l-5.5 11.344a.344.344 0 0 1-.62-.3l5.5-11.344a.344.344 0 0 1 .46-.16z" fill="#E7BEFF"/>
    <path fill-rule="evenodd" clip-rule="evenodd" d="M8.408 12.649c.17.083.242.288.16.46l-1.548 3.19a.344.344 0 1 1-.618-.3l1.547-3.19a.344.344 0 0 1 .459-.16z" fill="#FCE8FF"/>
    <path d="M23.016 11.48c-.07.153-.23.231-.36.172-.13-.058-.18-.23-.11-.385.07-.154.231-.231.361-.173.13.059.179.231.11.385zM22.054 13.283c-.07.154-.231.231-.361.173-.13-.059-.179-.231-.11-.385.07-.155.232-.232.362-.173.13.058.178.23.109.385zM22.249 12.22c-.095.21-.316.316-.493.236-.177-.08-.244-.316-.149-.526.095-.21.316-.316.493-.236.177.08.244.315.149.525zM24.316 10.115c-.07.154-.231.232-.36.173-.13-.058-.18-.23-.11-.385.07-.154.231-.232.36-.173.13.059.18.23.11.385zM23.425 10.347c-.05.11-.166.165-.259.123-.092-.042-.127-.165-.078-.275.05-.11.166-.166.259-.124.092.042.127.165.078.276zM23.761 11.174c-.05.11-.165.165-.258.123-.093-.041-.128-.165-.078-.275.05-.11.165-.166.258-.124.093.042.128.165.078.276zM22.71 12.592c-.05.11-.165.165-.258.123-.093-.041-.128-.165-.078-.275.05-.11.165-.166.258-.124.093.042.128.165.078.276zM21.056 13.761c-.05.11-.166.166-.258.124-.093-.041-.128-.165-.078-.275.05-.11.165-.166.258-.124.093.042.128.165.078.275zM22.71 10.498c-.05.11-.165.166-.258.124-.093-.042-.128-.165-.078-.275.05-.11.165-.166.258-.124.093.042.128.165.078.275zM23.761 8.78c-.05.11-.165.165-.258.123-.093-.041-.128-.165-.078-.275.05-.11.165-.166.258-.124.093.042.128.165.078.276zM25.093 8.994c-.05.11-.165.166-.258.124-.093-.042-.128-.165-.078-.275.05-.11.165-.166.258-.124.093.042.128.165.078.275z" fill="#7F2CB0"/>
    <path fill-rule="evenodd" clip-rule="evenodd" d="M21.513 17.757a.344.344 0 0 1-.029.485l-6.595 5.866a.344.344 0 0 1-.457-.514l6.595-5.866a.344.344 0 0 1 .486.029zM20.788 5.55c.169.086.237.293.152.462l-4.684 9.303a.344.344 0 1 1-.614-.31l4.684-9.302a.344.344 0 0 1 .462-.153z" fill="#BA5FF0"/>
    <path d="M18.962 18.065c-.05.183-.22.296-.38.251-.161-.044-.25-.228-.2-.41.051-.184.222-.296.382-.252.16.044.249.228.198.411zM17.898 19.356c-.035.124-.15.2-.26.17-.109-.03-.17-.155-.135-.28.034-.124.15-.2.26-.17.108.03.169.155.134.28zM16.534 19.995c-.034.125-.15.201-.26.171-.108-.03-.169-.155-.134-.28.034-.124.15-.2.26-.17.108.03.169.155.134.28zM17.898 18.05c-.035.125-.15.202-.26.172-.109-.03-.17-.155-.135-.28.034-.124.15-.2.26-.17.108.03.169.154.134.279zM20.175 17.8c-.035.124-.15.2-.26.17-.108-.03-.169-.155-.135-.28.035-.124.15-.2.26-.17.109.03.17.155.135.28zM19.192 18.735c-.024.088-.105.141-.182.12-.076-.02-.118-.108-.094-.196.024-.087.105-.14.181-.12.077.022.119.11.095.196zM17.162 20.454c-.024.087-.106.141-.182.12-.076-.021-.119-.109-.095-.196.024-.087.106-.14.182-.12.076.021.119.11.095.196zM17.484 17.267c-.024.087-.105.14-.181.12-.077-.021-.12-.11-.095-.196.024-.088.105-.141.182-.12.076.02.118.109.094.196zM19.468 17.504c-.024.087-.105.14-.181.12-.077-.022-.119-.11-.095-.197.024-.087.105-.14.182-.12.076.022.118.11.094.197zM18.61 19.008c-.023.087-.104.14-.18.12-.077-.021-.12-.109-.095-.196.024-.087.105-.141.181-.12.077.021.119.109.095.196zM17.162 18.259c-.024.087-.106.14-.182.12-.076-.021-.119-.109-.095-.196.024-.087.106-.141.182-.12.076.021.119.109.095.196zM17.397 18.812c-.024.087-.105.14-.181.12-.077-.022-.119-.11-.095-.197.024-.087.105-.14.182-.12.076.022.118.11.094.197zM15.993 21.347c-.024.087-.106.14-.182.12-.076-.021-.118-.11-.095-.196.025-.088.106-.141.182-.12.076.02.119.109.095.196z" fill="#DA9BFF"/>
</svg>
