<svg width="34" height="34" viewBox="0 0 34 34" fill="none" xmlns="http://www.w3.org/2000/svg">
    <path d="M7.823 9.866V24.99l6.187 6.187h5.5l6.188-6.187V9.866L19.51 3.678h-5.5L7.823 9.866z" fill="#65C1E9"/>
    <path fill-rule="evenodd" clip-rule="evenodd" d="M7.336 9.38a.688.688 0 0 0-.201.486V24.99c0 .182.072.357.201.486l6.188 6.187a.687.687 0 0 0 .486.202h5.5a.687.687 0 0 0 .486-.202l6.188-6.187a.687.687 0 0 0 .201-.486V9.866a.687.687 0 0 0-.201-.486l-6.188-6.188a.687.687 0 0 0-.486-.201h-5.5a.687.687 0 0 0-.486.201L7.336 9.38zm6.674-5.702L7.823 9.866V24.99l6.187 6.187h5.5l6.188-6.187V9.866L19.51 3.678h-5.5z" fill="#052360"/>
    <path d="M7.823 24.99V9.867l5.156 1.719v11.687l-5.156 1.719z" fill="#54B5EC"/>
    <path d="M14.01 3.678 7.823 9.866l5.156 1.719 3.781-4.47 2.75-3.437h-5.5z" fill="#C1E9FF"/>
    <path d="m20.541 23.272-3.781 4.469-2.75 3.437h5.5l6.188-6.187V9.866L19.51 3.678l-2.75 3.438 3.781 4.469v11.687z" fill="#2D88F3"/>
    <path d="M25.698 9.866V24.99l-5.157-1.719V11.585l5.157-1.72z" fill="#4E5CDE"/>
    <path d="M25.01 13.303a.687.687 0 1 1-1.375 0 .687.687 0 0 1 1.375 0zM23.979 16.225a.516.516 0 1 1-1.031 0 .516.516 0 0 1 1.03 0zM25.01 15.366a.344.344 0 1 1-.687 0 .344.344 0 0 1 .687 0zM23.291 14.335a.344.344 0 1 1-.687 0 .344.344 0 0 1 .687 0zM25.01 11.24a.344.344 0 1 1-.687 0 .344.344 0 0 1 .687 0zM25.01 19.49a.344.344 0 1 1-.687 0 .344.344 0 0 1 .687 0zM25.01 17.772a.344.344 0 1 1-.687 0 .344.344 0 0 1 .687 0z" fill="#6473FC"/>
    <path d="M12.979 11.585v11.687l3.781 4.469 3.781-4.453V11.584L16.76 7.117l-3.781 4.469z" fill="#38ACFF"/>
    <path d="M12.979 23.272V11.585l3.781-4.47 3.781 4.47-7.562 11.687z" fill="#83CBFF"/>
    <path fill-rule="evenodd" clip-rule="evenodd" d="M16.978 7.88c.147.121.168.338.048.485L14.01 12.05v7.096a.344.344 0 0 1-.688 0v-7.219c0-.08.028-.156.078-.217l3.094-3.782a.344.344 0 0 1 .484-.048z" fill="#C2E6FF"/>
    <path fill-rule="evenodd" clip-rule="evenodd" d="M8.51 10.553c.19 0 .344.154.344.344v13.062a.344.344 0 0 1-.688 0V10.897c0-.19.154-.344.344-.344z" fill="#74CCFE"/>
    <path fill-rule="evenodd" clip-rule="evenodd" d="M14.597 4.123a.344.344 0 0 1 0 .486L9.44 9.765a.344.344 0 0 1-.487-.486l5.157-5.156a.344.344 0 0 1 .486 0z" fill="#E2FBFF"/>
    <path d="M23.635 25.85a.516.516 0 1 1-1.031 0 .516.516 0 0 1 1.031 0zM20.198 29.288a.516.516 0 1 1-1.032 0 .516.516 0 0 1 1.032 0zM21.573 27.913a.516.516 0 1 1-1.032 0 .516.516 0 0 1 1.032 0zM19.854 27.053a.344.344 0 1 1-.688 0 .344.344 0 0 1 .688 0zM22.26 27.053a.344.344 0 1 1-.687 0 .344.344 0 0 1 .687 0zM21.573 25.678a.687.687 0 1 1-1.375 0 .687.687 0 0 1 1.375 0z" fill="#1B73DA"/>
</svg>
