<svg width="83" height="103" viewBox="0 0 83 103" fill="none" xmlns="http://www.w3.org/2000/svg">
<path d="M63.4434 17.0258C63.1379 17.0258 62.8392 16.9352 62.5852 16.7655C62.3312 16.5957 62.1332 16.3545 62.0163 16.0722C61.8994 15.79 61.8688 15.4794 61.9283 15.1798C61.9879 14.8801 62.135 14.6049 62.351 14.3888L67.1614 9.57843C67.4526 9.29605 67.8432 9.13951 68.2488 9.14262C68.6544 9.14573 69.0425 9.30824 69.3294 9.59505C69.6162 9.88186 69.7787 10.27 69.7819 10.6756C69.785 11.0812 69.6285 11.4718 69.3462 11.763L64.5358 16.5734C64.3925 16.7171 64.2222 16.831 64.0347 16.9086C63.8473 16.9863 63.6463 17.0261 63.4434 17.0258ZM10.6712 69.798C10.3657 69.798 10.067 69.7074 9.81301 69.5377C9.55899 69.3679 9.361 69.1267 9.24408 68.8444C9.12716 68.5622 9.09655 68.2516 9.15612 67.952C9.2157 67.6523 9.36279 67.3771 9.57879 67.161L14.3882 62.3514C14.6779 62.0617 15.0708 61.8989 15.4805 61.8989C15.8902 61.8989 16.2832 62.0616 16.5729 62.3513C16.8626 62.641 17.0254 63.0339 17.0254 63.4436C17.0254 63.8534 16.8627 64.2463 16.573 64.536L11.7636 69.3456C11.6203 69.4893 11.45 69.6032 11.2625 69.6808C11.0751 69.7585 10.8741 69.7983 10.6712 69.798Z" fill="#456B93"/>
<path d="M40.5056 80.5562V96.2202H33.3994V81.2299L40.5056 80.5562Z" fill="#CE8A6B"/>
<path d="M58.5805 102.16V102.4H15.3245V102.16C15.3245 97.7422 18.9065 94.1602 23.3245 94.1602H50.5805C54.9985 94.1602 58.5805 97.7422 58.5805 102.16Z" fill="#456B93"/>
<path d="M33.8625 94.1602C31.5885 94.1602 29.5285 95.0842 28.0365 96.5742C26.5465 98.0642 25.6225 100.124 25.6225 102.4H15.3245V102.16C15.3245 97.7422 18.9065 94.1602 23.3245 94.1602H33.8625Z" fill="#3B4F66"/>
<path d="M69.2266 34.6134C69.2266 39.3026 68.2902 43.777 66.593 47.8584H66.5906C61.3826 60.3918 49.0096 69.2268 34.6134 69.2268C15.5278 69.2268 0 53.699 0 34.6134C0 32.3454 0.22 30.1292 0.6374 27.9822C3.7404 12.0566 17.7958 0 34.6134 0C39.7054 0 44.5478 1.1068 48.906 3.0908C60.881 8.541 69.2266 20.6222 69.2266 34.6134Z" fill="#64B9FC"/>
<path d="M40.7874 68.6734C38.7501 69.0423 36.6838 69.2275 34.6134 69.2268C15.5278 69.2268 0 53.699 0 34.6134C0 32.3454 0.22 30.1292 0.6374 27.9822C3.7404 12.0566 17.7958 0 34.6134 0C36.7184 0 38.7838 0.1902 40.79 0.551C26.7988 3.0834 15.7058 14.053 12.9906 27.9824C12.566 30.1672 12.3525 32.3879 12.3532 34.6136C12.353 51.5916 24.6394 65.7532 40.7874 68.6734Z" fill="#31A7FB"/>
<path d="M69.2266 34.6136C69.2266 39.3028 68.2902 43.7772 66.593 47.8586H57.605C54.8452 47.5992 53.3382 46.0896 53.0788 43.3324C53.0788 40.8322 51.053 38.8062 48.5526 38.8062H42.3834C38.7812 38.8062 35.8586 35.8834 35.8586 32.2812V22.1862C36.2342 18.211 38.4082 16.0368 42.3834 15.6612C45.9856 15.6612 48.9058 12.741 48.9058 9.13882V3.09082C60.881 8.54122 69.2266 20.6224 69.2266 34.6136ZM34.6134 56.066V69.227C15.5278 69.227 0 53.6992 0 34.6136C0 32.3456 0.22 30.1294 0.6374 27.9824H9.9838C14.5198 27.9824 18.1936 31.6562 18.1936 36.1898V39.6486C18.1936 44.1846 21.8698 47.8584 26.4034 47.8584C30.8826 47.8586 34.6134 51.5892 34.6134 56.066Z" fill="#76FCA3"/>
<path d="M34.6134 66.9466V69.227C15.5278 69.227 0 53.6992 0 34.6136C0 32.3456 0.22 30.1294 0.6374 27.9824H9.9838C11.0066 27.9824 11.9874 28.1702 12.8916 28.5136C12.5327 30.5271 12.3525 32.5684 12.353 34.6136C12.353 49.3508 21.608 61.9634 34.6134 66.9466Z" fill="#5EDE8B"/>
<path d="M34.6131 82.9252C23.3861 82.9252 12.4419 78.9726 3.79632 71.7954C2.30832 70.5602 2.10352 68.3526 3.33872 66.8646C4.57392 65.3766 6.78172 65.172 8.26952 66.407C15.6609 72.5428 25.0165 75.922 34.6131 75.922C57.3907 75.922 75.9219 57.391 75.9219 34.6134C75.9219 25.022 72.5459 15.6702 66.4159 8.28061C65.1813 6.79221 65.3869 4.58461 66.8753 3.35001C68.3639 2.11541 70.5713 2.32121 71.8059 3.80941C78.9763 12.453 82.9253 23.3928 82.9253 34.6136C82.9251 61.2526 61.2525 82.9252 34.6131 82.9252Z" fill="#E29E7A"/>
</svg>
