<svg width="30" height="30" viewBox="0 0 30 30" fill="none" xmlns="http://www.w3.org/2000/svg">
<g filter="url(#filter0_d_1188_10645)">
<path fill-rule="evenodd" clip-rule="evenodd" d="M13.4062 8.01134L10.0642 5.86836C9.4512 5.47531 8.63485 5.76736 8.40509 6.4619L7.75363 8.43118C7.49109 9.2248 8.1492 10.0194 8.97107 9.90106L12.7659 9.35481C12.7557 9.44264 12.7505 9.53198 12.7505 9.62254C12.7505 10.89 13.7702 11.9175 15.0281 11.9175C16.286 11.9175 17.3057 10.89 17.3057 9.62254C17.3057 9.53482 17.3008 9.44824 17.2913 9.36308L21.0287 9.90106C21.8506 10.0194 22.5087 9.2248 22.2461 8.43118L21.5947 6.4619C21.3649 5.76736 20.5486 5.47531 19.9356 5.86836L16.6281 7.9892C16.2168 7.5801 15.6517 7.32758 15.0281 7.32758C14.3934 7.32758 13.8192 7.58923 13.4062 8.01134Z" fill="url(#paint0_linear_1188_10645)"/>
<path d="M6.86597 13.0428C6.86597 12.4213 7.36598 11.9175 7.98278 11.9175H22.017C22.6338 11.9175 23.1338 12.4213 23.1338 13.0428V23.0683C23.1338 23.6898 22.6338 24.1937 22.017 24.1937H7.98278C7.36598 24.1937 6.86597 23.6898 6.86597 23.0683V13.0428Z" fill="url(#paint1_linear_1188_10645)"/>
<path d="M5.65063 10.054C5.65063 9.43254 6.15065 8.92871 6.76745 8.92871H23.2325C23.8493 8.92871 24.3493 9.43254 24.3493 10.054V13.0891C24.3493 13.7106 23.8493 14.2144 23.2325 14.2144H6.76744C6.15065 14.2144 5.65063 13.7106 5.65063 13.0891V10.054Z" fill="url(#paint2_radial_1188_10645)"/>
<path d="M12.3237 8.92871H17.6762V14.2144H12.3237V8.92871Z" fill="#FDC24F"/>
<path d="M12.6941 14.2144H17.3057V24.1938H12.6941V14.2144Z" fill="url(#paint3_linear_1188_10645)"/>
</g>
<defs>
<filter id="filter0_d_1188_10645" x="0.150635" y="0.191895" width="29.6987" height="29.502" filterUnits="userSpaceOnUse" color-interpolation-filters="sRGB">
<feFlood flood-opacity="0" result="BackgroundImageFix"/>
<feColorMatrix in="SourceAlpha" type="matrix" values="0 0 0 0 0 0 0 0 0 0 0 0 0 0 0 0 0 0 127 0" result="hardAlpha"/>
<feOffset/>
<feGaussianBlur stdDeviation="2.75"/>
<feColorMatrix type="matrix" values="0 0 0 0 1 0 0 0 0 0.528167 0 0 0 0 0.379167 0 0 0 0.29 0"/>
<feBlend mode="normal" in2="BackgroundImageFix" result="effect1_dropShadow_1188_10645"/>
<feBlend mode="normal" in="SourceGraphic" in2="effect1_dropShadow_1188_10645" result="shape"/>
</filter>
<linearGradient id="paint0_linear_1188_10645" x1="14.9999" y1="5.69189" x2="14.9999" y2="9.55654" gradientUnits="userSpaceOnUse">
<stop stop-color="#FFB81E"/>
<stop offset="1" stop-color="#FED546"/>
</linearGradient>
<linearGradient id="paint1_linear_1188_10645" x1="14.9999" y1="11.9175" x2="14.9999" y2="24.1937" gradientUnits="userSpaceOnUse">
<stop offset="0.104167" stop-color="#FFA88C"/>
<stop offset="1" stop-color="#E45F35"/>
</linearGradient>
<radialGradient id="paint2_radial_1188_10645" cx="0" cy="0" r="1" gradientUnits="userSpaceOnUse" gradientTransform="translate(8.7123 11.0865) rotate(61.073) scale(10.8742 10.1478)">
<stop stop-color="#F59172"/>
<stop offset="0.46875" stop-color="#E45F35"/>
</radialGradient>
<linearGradient id="paint3_linear_1188_10645" x1="14.9999" y1="14.2144" x2="14.9999" y2="24.1938" gradientUnits="userSpaceOnUse">
<stop stop-color="#FFB81E" stop-opacity="0.66"/>
<stop offset="0.608277" stop-color="#FFB81E"/>
</linearGradient>
</defs>
</svg>
