<svg enable-background="new 0 0 512 512" height="512" viewBox="0 0 512 512" width="512" xmlns="http://www.w3.org/2000/svg"><path d="m43.654 185.385c-1.715 30.192 45.087 20.459 61.352-7.995l34.159-61.026c7.24-25.083-36.202-21.721-61.543 0 0 0-30.979 25.817-33.968 69.021zm424.738 0c1.715 30.192-45.087 20.459-61.352-7.995l-34.159-61.026c-7.24-25.083 36.202-21.721 61.543 0 0 0 30.979 25.817 33.968 69.021z" fill="#df6d2b"/><path d="m428.901 467.565c-10.281-40.112-34.154-74.762-66.415-98.78-45.508-29.832-107.048-37.456-160.05-23.395-76.074 29.904-100.208 136.097-32.663 166.61h55.197l31.025-16.722 31.035 16.722h107.406c23.242 0 40.236-21.928 34.465-44.435z" fill="#4c3e4f"/><path d="m159.109 424.48c6.554-35.014 23.258-63.856 43.327-79.091-18.54 4.918-36.697 12.658-52.911 23.468-32.209 24.007-56.051 58.637-66.322 98.707-5.772 22.508 11.222 44.436 34.464 44.436h52.106c-12.364-21.478-17.029-53.516-10.664-87.52z" fill="#3c2f3f"/><path d="m149.529 368.847-.005.01 2.834 33.068c1.655 19.26 15.825 35.106 34.775 38.891a13.42 13.42 0 0 1 9.625 7.709l28.212 63.475 31.025-16.722 31.035 16.722 28.211-63.475a13.422 13.422 0 0 1 9.625-7.709c18.949-3.786 33.12-19.632 34.775-38.891l2.844-33.14c-55.313-38.332-155.72-40.383-212.956.062z" fill="#594c5e"/><path d="m480.97 217.212c0 25.299-20.452 47.1-48.056 46.525-40.04 5.185-51.842-85.951-11.802-91.136 29.93-8.95 59.858 13.594 59.858 44.611z" fill="#ffcbbe"/><path d="m90.981 172.632c35.926 4.65 24.135 95.745-11.792 91.095-25.897.996-48.159-19.867-48.159-46.514 0-31.357 30.308-53.524 59.951-44.581z" fill="#f9bbaf"/><path d="m273.418 430.308 13.612 81.692h-62.06l13.612-81.692c3.325-22.26 32.675-22.906 34.836 0z" fill="#5a6cd9"/><path d="m294.674 392.595c1.676 23.224-16.586 41.829-38.674 41.829-22.868 0-40.48-19.604-38.664-41.85.009-31.732 77.347-31.711 77.338.021z" fill="#727beb"/><path d="m434.424 240.485c0 86.616-61.657 140.867-143.66 152.7-226.692-24.406-204.934-302.693-19.394-314.089 48.769 1.81 93.649 15.101 112.805 37.267 17.429 17.987 30.844 39.485 39.347 62.458l-3.316 12.791 8.202 3.007c3.828 14.636 6.016 30.382 6.016 45.866z" fill="#ffddcf"/><path d="m290.764 393.185c-11.243 1.624-22.859 2.451-34.764 2.451-98.376 0-178.424-56.423-178.424-155.152 0-15.619 1.816-31.608 5.602-46.079l10.765-1.156-5.597-14.182c8.657-23.397 22.371-45.048 39.479-62.704 34.288-27.876 91.157-39.202 143.546-37.267-73.148 25.682-110.44 114.579-94.591 192.388a163.276 163.276 0 0 0 3.91 15.495c14.294 47.31 49.586 88.591 110.074 106.206z" fill="#ffcbbe"/><path d="m133.775 38.788c-28.043 0-28.043 77.576 0 77.576h300.649v-77.576z" fill="#4c3e4f"/><path d="m77.576 38.788v77.576h56.199v-77.576z" fill="#3c2f3f"/><path d="m480.97 27.152c0-14.998-12.154-27.152-27.152-27.152h-338.713c-34.474 0-30.36 15.401-30.36 27.152 0 11.759 1.126 27.152 30.355 27.152h338.718c14.998-.001 27.152-12.168 27.152-27.152z" fill="#594c5e"/><path d="m100.731 27.152c0-11.75 5.82-21.969 14.374-27.152h-56.923c-14.998 0-27.152 12.167-27.152 27.152 0 14.998 12.154 27.152 27.152 27.152h56.918c-8.55-5.181-14.369-15.394-14.369-27.152z" fill="#4c3e4f"/><circle cx="333.576" cy="224.97" fill="#f0edff" r="54.303"/><circle cx="178.424" cy="224.97" fill="#f0edff" r="54.303"/><path d="m180.697 239.403a7.499 7.499 0 0 1 -7.5-7.5v-12.049c0-4.143 3.357-7.5 7.5-7.5s7.5 3.357 7.5 7.5v12.049c0 4.143-3.357 7.5-7.5 7.5zm150.606 0a7.499 7.499 0 0 1 -7.5-7.5v-12.049c0-4.143 3.357-7.5 7.5-7.5s7.5 3.357 7.5 7.5v12.049a7.5 7.5 0 0 1 -7.5 7.5z" fill="#25383f"/><path d="m428.372 194.038a175.39 175.39 0 0 0 -5.059-15.787c-.064.056-.131.105-.194.163l-34.289 32.06c-6.824-25.761-30.329-44.807-58.206-44.807-28.657 0-52.686 20.129-58.731 46.987-5.128-2.377-10.753-3.635-16.572-3.635s-11.444 1.258-16.572 3.635c-6.045-26.858-30.074-46.987-58.731-46.987-27.882 0-51.39 19.052-58.21 44.819l-32.931-30.744a7.807 7.807 0 0 0 -.486-.41 177.22 177.22 0 0 0 -4.952 15.854l36.465 34.043c1.745 31.648 28.037 56.862 60.114 56.862 32.045 0 58.316-25.165 60.107-56.769a24.253 24.253 0 0 1 15.196-5.303 24.258 24.258 0 0 1 15.196 5.302c1.791 31.605 28.062 56.77 60.108 56.77 32.078 0 58.371-25.215 60.114-56.865zm-248.354 77.053c-24.93 0-45.212-20.282-45.212-45.212s20.282-45.212 45.212-45.212c24.929 0 45.21 20.28 45.212 45.209v.007c-.002 24.927-20.284 45.208-45.212 45.208zm150.606 0c-24.93 0-45.212-20.281-45.213-45.21v-.003c.001-24.929 20.283-45.211 45.213-45.211s45.212 20.282 45.212 45.212-20.282 45.212-45.212 45.212z" fill="#4c3e4f"/><path d="m256 314.596a30.34 30.34 0 0 1 -22.874-10.418 7.76 7.76 0 0 1 11.697-10.194c5.911 6.784 16.427 6.802 22.354 0a7.758 7.758 0 0 1 11.696 10.194 30.338 30.338 0 0 1 -22.873 10.418z" fill="#25383f"/></svg>