<svg width="32" height="31" viewBox="0 0 32 31" fill="none" xmlns="http://www.w3.org/2000/svg">
<path d="M2.0874 11.3361L8.96921 9.95542C9.41162 9.86665 9.79599 9.5952 10.0276 9.20795L12.8139 4.54937L14.5908 1.57853C15.2118 0.540229 16.716 0.540231 17.337 1.57853L21.9002 9.20795C22.1318 9.5952 22.5162 9.86665 22.9586 9.95542L29.8404 11.3361C31.0918 11.5872 31.5599 13.1305 30.6588 14.0345L24.9668 19.7445C24.59 20.1225 24.4265 20.6635 24.5309 21.1869L25.8237 27.6717C26.0842 28.978 24.7278 30.0119 23.5373 29.4147L16.6813 25.9759C16.2298 25.7494 15.698 25.7494 15.2466 25.9759L8.39055 29.4147C7.19999 30.0119 5.84365 28.9779 6.10407 27.6717L7.39693 21.1869C7.50128 20.6635 7.33777 20.1225 6.96097 19.7445L1.26899 14.0345C0.36792 13.1305 0.83602 11.5872 2.0874 11.3361Z" fill="#35CB83"/>
<path fill-rule="evenodd" clip-rule="evenodd" d="M1.92993 10.552L8.81174 9.17124C9.03295 9.12686 9.22513 8.99114 9.34094 8.79751L13.9041 1.16809C14.8356 -0.389366 17.092 -0.389359 18.0235 1.16809L22.5867 8.79751C22.7025 8.99114 22.8947 9.12686 23.1159 9.17124L29.9977 10.552C31.8748 10.9286 32.5769 13.2436 31.2253 14.5994L25.5333 20.3095C25.3449 20.4985 25.2632 20.769 25.3153 21.0307L26.6082 27.5155C26.9988 29.4748 24.9643 31.0258 23.1785 30.13L16.3225 26.6911C16.0968 26.5779 15.8308 26.5779 15.6051 26.6911L8.74913 30.13C6.9633 31.0258 4.92879 29.4748 5.31941 27.5155L6.61227 21.0307C6.66445 20.769 6.58269 20.4985 6.39429 20.3095L0.702306 14.5994C-0.649292 13.2436 0.0528583 10.9286 1.92993 10.552ZM8.96911 9.95561L2.08731 11.3363C0.835922 11.5874 0.367822 13.1307 1.26889 14.0347L6.96087 19.7447C7.33767 20.1227 7.50118 20.6637 7.39683 21.1871L6.10397 27.6719C5.84356 28.9781 7.19989 30.0121 8.39045 29.4149L15.2465 25.976C15.6979 25.7496 16.2297 25.7496 16.6812 25.976L23.5372 29.4149C24.7277 30.0121 26.0841 28.9781 25.8237 27.6719L24.5308 21.1871C24.4264 20.6637 24.5899 20.1227 24.9667 19.7447L30.6587 14.0347C31.5598 13.1307 31.0917 11.5874 29.8403 11.3363L22.9585 9.95561C22.5161 9.86685 22.1317 9.5954 21.9001 9.20815L17.3369 1.57873C16.7159 0.540426 15.2117 0.540424 14.5907 1.57872L10.0275 9.20815C9.79589 9.5954 9.41152 9.86685 8.96911 9.95561Z" fill="#024525"/>
<path fill-rule="evenodd" clip-rule="evenodd" d="M14.5801 15.3463C14.7659 15.4658 14.8198 15.7132 14.7003 15.8991L11.1003 21.4991C10.9808 21.6849 10.7333 21.7387 10.5475 21.6192C10.3617 21.4998 10.3079 21.2523 10.4273 21.0665L14.0273 15.4665C14.1468 15.2806 14.3943 15.2268 14.5801 15.3463Z" fill="#3FDE92"/>
<path d="M30.6588 14.0349L25.8097 18.8994C25.3097 19.401 24.5395 19.5142 23.9163 19.1777L15.9639 14.8831L22.335 9.68311C22.5189 9.81629 22.7311 9.91025 22.9586 9.9559L29.8404 11.3366C31.0918 11.5877 31.5599 13.131 30.6588 14.0349Z" fill="#4DE49C"/>
<path fill-rule="evenodd" clip-rule="evenodd" d="M25.9606 12.8333C25.988 13.0525 25.8325 13.2525 25.6133 13.2799L19.2133 14.0799C18.9941 14.1073 18.7942 13.9518 18.7668 13.7326C18.7394 13.5134 18.8949 13.3134 19.1141 13.286L25.5141 12.486C25.7333 12.4586 25.9332 12.6141 25.9606 12.8333Z" fill="#66FDB5"/>
<path d="M15.2464 25.976L8.39037 29.4149C7.80999 29.706 7.19022 29.6095 6.73755 29.2828L15.9637 14.8828L31.1266 12.8828C31.1341 13.2893 30.9877 13.7046 30.6587 14.0347L24.9667 19.7447C24.5899 20.1227 24.4264 20.6637 24.5307 21.1871L25.8236 27.6719C26.084 28.9781 24.7277 30.0121 23.5371 29.4149L16.6811 25.976C16.2297 25.7496 15.6978 25.7496 15.2464 25.976Z" fill="#34AD73"/>
<path d="M24.5309 21.1871L25.8238 27.6719C25.9572 28.3414 25.666 28.9393 25.1901 29.2828L15.9639 14.8828L24.9669 19.7447C24.5901 20.1227 24.4266 20.6637 24.5309 21.1871Z" fill="#14845B"/>
<path d="M2.08719 11.3366L8.96899 9.9559C9.41141 9.86714 9.79577 9.59569 10.0274 9.20844L14.5906 1.57902C14.9011 1.05988 15.4323 0.800307 15.9637 0.800293V14.8831L0.858643 12.4831C1.00908 11.9347 1.44499 11.4655 2.08719 11.3366Z" fill="#4FF8A7"/>
<path fill-rule="evenodd" clip-rule="evenodd" d="M15.1716 2.88289C15.3925 2.88722 15.568 3.06978 15.5637 3.29066L15.3637 13.4907C15.3615 13.6042 15.3111 13.7114 15.2252 13.7856C15.1393 13.8598 15.0259 13.8939 14.9133 13.8796L3.91326 12.4796C3.69412 12.4517 3.53907 12.2515 3.56696 12.0323C3.59486 11.8132 3.79512 11.6581 4.01427 11.686L14.5726 13.0298L14.7638 3.27497C14.7682 3.0541 14.9507 2.87856 15.1716 2.88289Z" fill="#92FFCB"/>
<path fill-rule="evenodd" clip-rule="evenodd" d="M11.9671 13.1015C11.995 12.8823 12.1953 12.7273 12.4144 12.7552L15.0144 13.0861C15.2336 13.114 15.3886 13.3143 15.3607 13.5334C15.3328 13.7526 15.1326 13.9076 14.9134 13.8797L12.3134 13.5488C12.0943 13.5209 11.9392 13.3206 11.9671 13.1015Z" fill="#F0FFFD"/>
<path d="M16.3638 17.8832C16.3638 18.2146 16.0952 18.4832 15.7638 18.4832C15.4324 18.4832 15.1638 18.2146 15.1638 17.8832C15.1638 17.5518 15.4324 17.2832 15.7638 17.2832C16.0952 17.2832 16.3638 17.5518 16.3638 17.8832Z" fill="#168866"/>
<path d="M17.5638 19.4832C17.5638 19.5937 17.4743 19.6832 17.3638 19.6832C17.2534 19.6832 17.1638 19.5937 17.1638 19.4832C17.1638 19.3727 17.2534 19.2832 17.3638 19.2832C17.4743 19.2832 17.5638 19.3727 17.5638 19.4832Z" fill="#168866"/>
<path d="M14.7638 21.0828C14.7638 21.1933 14.6742 21.2828 14.5638 21.2828C14.4533 21.2828 14.3638 21.1933 14.3638 21.0828C14.3638 20.9724 14.4533 20.8828 14.5638 20.8828C14.6742 20.8828 14.7638 20.9724 14.7638 21.0828Z" fill="#168866"/>
<path d="M17.1637 20.6829C17.1637 20.7934 17.0741 20.8829 16.9637 20.8829C16.8532 20.8829 16.7637 20.7934 16.7637 20.6829C16.7637 20.5725 16.8532 20.4829 16.9637 20.4829C17.0741 20.4829 17.1637 20.5725 17.1637 20.6829Z" fill="#168866"/>
<path d="M19.9637 22.283C19.9637 22.3935 19.8742 22.483 19.7637 22.483C19.6533 22.483 19.5637 22.3935 19.5637 22.283C19.5637 22.1726 19.6533 22.083 19.7637 22.083C19.8742 22.083 19.9637 22.1726 19.9637 22.283Z" fill="#168866"/>
<path d="M17.1637 17.8831C17.1637 17.9936 17.0741 18.0831 16.9637 18.0831C16.8532 18.0831 16.7637 17.9936 16.7637 17.8831C16.7637 17.7726 16.8532 17.6831 16.9637 17.6831C17.0741 17.6831 17.1637 17.7726 17.1637 17.8831Z" fill="#168866"/>
<path d="M15.9637 16.283C15.9637 16.3935 15.8742 16.483 15.7637 16.483C15.6533 16.483 15.5637 16.3935 15.5637 16.283C15.5637 16.1726 15.6533 16.083 15.7637 16.083C15.8742 16.083 15.9637 16.1726 15.9637 16.283Z" fill="#168866"/>
<path d="M17.9637 21.8831C17.9637 21.9936 17.8742 22.0831 17.7637 22.0831C17.6533 22.0831 17.5637 21.9936 17.5637 21.8831C17.5637 21.7726 17.6533 21.6831 17.7637 21.6831C17.8742 21.6831 17.9637 21.7726 17.9637 21.8831Z" fill="#168866"/>
<path d="M16.7639 19.2828C16.7639 19.5037 16.5848 19.6828 16.3639 19.6828C16.143 19.6828 15.9639 19.5037 15.9639 19.2828C15.9639 19.0619 16.143 18.8828 16.3639 18.8828C16.5848 18.8828 16.7639 19.0619 16.7639 19.2828Z" fill="#168866"/>
<path d="M16.3637 20.8829C16.3637 21.1038 16.1846 21.2829 15.9637 21.2829C15.7428 21.2829 15.5637 21.1038 15.5637 20.8829C15.5637 20.662 15.7428 20.4829 15.9637 20.4829C16.1846 20.4829 16.3637 20.662 16.3637 20.8829Z" fill="#168866"/>
<path d="M18.7639 20.8829C18.7639 21.1038 18.5848 21.2829 18.3639 21.2829C18.143 21.2829 17.9639 21.1038 17.9639 20.8829C17.9639 20.662 18.143 20.4829 18.3639 20.4829C18.5848 20.4829 18.7639 20.662 18.7639 20.8829Z" fill="#168866"/>
<path d="M15.1638 19.6832C15.1638 19.9041 14.9847 20.0832 14.7638 20.0832C14.5429 20.0832 14.3638 19.9041 14.3638 19.6832C14.3638 19.4623 14.5429 19.2832 14.7638 19.2832C14.9847 19.2832 15.1638 19.4623 15.1638 19.6832Z" fill="#168866"/>
</svg>
