<svg fill="none" height="43" viewBox="0 0 43 43" width="43" xmlns="http://www.w3.org/2000/svg" xmlns:xlink="http://www.w3.org/1999/xlink"><filter id="a" color-interpolation-filters="sRGB" filterUnits="userSpaceOnUse" height="41.724" width="41.724" x=".699512" y=".699023"><feFlood flood-opacity="0" result="BackgroundImageFix"/><feColorMatrix in="SourceAlpha" result="hardAlpha" type="matrix" values="0 0 0 0 0 0 0 0 0 0 0 0 0 0 0 0 0 0 127 0"/><feOffset/><feGaussianBlur stdDeviation="2.4"/><feColorMatrix type="matrix" values="0 0 0 0 1 0 0 0 0 0.780392 0 0 0 0 0 0 0 0 0.3 0"/><feBlend in2="BackgroundImageFix" mode="normal" result="effect1_dropShadow_1780_12821"/><feBlend in="SourceGraphic" in2="effect1_dropShadow_1780_12821" mode="normal" result="shape"/></filter><filter id="b" color-interpolation-filters="sRGB" filterUnits="userSpaceOnUse" height="31.912" width="31.9105" x="7.69609" y="7.69365"><feFlood flood-opacity="0" result="BackgroundImageFix"/><feBlend in="SourceGraphic" in2="BackgroundImageFix" mode="normal" result="shape"/><feGaussianBlur result="effect1_foregroundBlur_1780_12821" stdDeviation="2.4"/></filter><filter id="c" color-interpolation-filters="sRGB" filterUnits="userSpaceOnUse" height="31.911" width="31.9125" x="2.89287" y="2.89287"><feFlood flood-opacity="0" result="BackgroundImageFix"/><feBlend in="SourceGraphic" in2="BackgroundImageFix" mode="normal" result="shape"/><feGaussianBlur result="effect1_foregroundBlur_1780_12821" stdDeviation="2.4"/></filter><linearGradient id="d" gradientUnits="userSpaceOnUse" x1="11.4623" x2="31.2887" y1="9.05091" y2="33.2751"><stop offset="0" stop-color="#f0b466"/><stop offset="1" stop-color="#5f29b8"/></linearGradient><linearGradient id="e" gradientUnits="userSpaceOnUse" x1="15.0568" x2="29.4292" y1="13.5377" y2="32.1281"><stop offset="0" stop-color="#b793f1" stop-opacity=".59"/><stop offset=".938927" stop-color="#b793f1"/></linearGradient><g filter="url(#a)"><circle cx="21.5616" cy="21.5612" fill="url(#d)" r="16.0621"/><circle cx="21.6245" cy="21.624" fill="url(#e)" r="13.875"/><g filter="url(#b)" opacity=".32"><path clip-rule="evenodd" d="m21.078 33.8842c7.0728 0 12.8065-5.7336 12.8065-12.8065 0-3.3024-1.25-6.3129-3.3027-8.584 2.5944 2.3436 4.2247 5.7343 4.2247 9.5058 0 7.0728-5.7337 12.8065-12.8065 12.8065-3.7705 0-7.1603-1.6294-9.5039-4.2225 2.2709 2.0515 5.2805 3.3007 8.5819 3.3007z" fill="#b793f1" fill-rule="evenodd"/></g><g filter="url(#c)" opacity=".61"><path clip-rule="evenodd" d="m30.0052 11.9175c-2.2711-2.05239-5.2814-3.3022-8.5835-3.3022-7.0729 0-12.80656 5.7337-12.80656 12.8065 0 3.3014 1.24919 6.311 3.30066 8.5819-2.59332-2.3436-4.22293-5.7336-4.22293-9.5043 0-7.0729 5.73363-12.80653 12.80653-12.80653 3.7715 0 7.1622 1.63031 9.5058 4.22463z" fill="#b793f1" fill-rule="evenodd"/></g><g fill="#fff"><rect height="12.4796" rx="2.16404" width="4.32808" x="19.835" y="11.2588"/><rect height="12.4796" rx="2.16404" transform="matrix(0 -1 1 0 -5.5498 45.0488)" width="4.32808" x="19.7495" y="25.2993"/></g></g></svg>