<svg fill="none" height="41" viewBox="0 0 41 41" width="41" xmlns="http://www.w3.org/2000/svg" xmlns:xlink="http://www.w3.org/1999/xlink"><filter id="a" color-interpolation-filters="sRGB" filterUnits="userSpaceOnUse" height="41.7174" width="41.7169" x="-.358209" y="-.356256"><feFlood flood-opacity="0" result="BackgroundImageFix"/><feColorMatrix in="SourceAlpha" result="hardAlpha" type="matrix" values="0 0 0 0 0 0 0 0 0 0 0 0 0 0 0 0 0 0 127 0"/><feOffset/><feGaussianBlur stdDeviation="2.66201"/><feColorMatrix type="matrix" values="0 0 0 0 1 0 0 0 0 0.780392 0 0 0 0 0 0 0 0 0.3 0"/><feBlend in2="BackgroundImageFix" mode="normal" result="effect1_dropShadow_1781_12787"/><feBlend in="SourceGraphic" in2="effect1_dropShadow_1781_12787" mode="normal" result="shape"/></filter><radialGradient id="b" cx="0" cy="0" gradientTransform="matrix(-14.86387035 -24.33373508 25.32332273 -15.46834403 27.2506 31.8412)" gradientUnits="userSpaceOnUse" r="1"><stop offset="0" stop-color="#ff9d41"/><stop offset="1" stop-color="#ffd75c"/></radialGradient><radialGradient id="c" cx="0" cy="0" gradientTransform="matrix(11.02811774 18.22035026 -15.54836757 9.41086345 14.904 12.5421)" gradientUnits="userSpaceOnUse" r="1"><stop offset="0" stop-color="#ffefa5"/><stop offset="1" stop-color="#ffe25e" stop-opacity="0"/></radialGradient><linearGradient id="d" gradientUnits="userSpaceOnUse" x1="21.0228" x2="21.0228" y1="19.0032" y2="27.1286"><stop offset="0" stop-color="#ff3e12"/><stop offset="1" stop-color="#ff7d16" stop-opacity=".9"/></linearGradient><mask id="e" height="41" maskUnits="userSpaceOnUse" width="41" x="0" y="0"><path d="m.149902.150391h40.7v40.7h-40.7z" fill="#fff"/></mask><g mask="url(#e)"><g filter="url(#a)"><path d="m36.0348 20.5022c0 8.5795-6.9551 15.5345-15.5345 15.5345-8.5795 0-15.53448-6.955-15.53448-15.5345 0-8.5794 6.95498-15.53443 15.53448-15.53443 8.5794 0 15.5345 6.95503 15.5345 15.53443z" fill="url(#b)"/><path d="m36.0348 20.5022c0 8.5795-6.9551 15.5345-15.5345 15.5345-8.5795 0-15.53448-6.955-15.53448-15.5345 0-8.5794 6.95498-15.53443 15.53448-15.53443 8.5794 0 15.5345 6.95503 15.5345 15.53443z" fill="url(#c)"/><ellipse cx="14.6405" cy="13.0561" fill="#7f2f17" rx="1.97989" ry="2.23974"/><ellipse cx="26.3622" cy="13.0561" fill="#7f2f17" rx="1.97989" ry="2.23974"/><path d="m27.6007 18.9121c.735 0 1.3412.5998 1.221 1.325-.618 3.7303-3.7943 7.1057-8.3207 7.1057-4.6015 0-7.8077-2.7906-8.3494-7.1025-.0916-.7294.5146-1.3282 1.2497-1.3282z" fill="url(#d)"/></g></g></svg>