<svg width="53" height="48" viewBox="0 0 53 48" fill="none" xmlns="http://www.w3.org/2000/svg">
<path d="M46.8702 2.96653C50.2046 3.13325 52.6993 6.09082 52.3015 9.40561L49.6566 31.446C49.3093 34.341 46.8534 36.5197 43.9377 36.5197H10.6574C7.80223 36.5197 5.37798 34.4282 4.95956 31.6039L1.40184 7.58932C0.869286 3.99457 3.75784 0.810917 7.38729 0.992389L46.8702 2.96653Z" fill="#D9802E" stroke="#8F3400" stroke-width="1.28" stroke-linejoin="round"/>
<path d="M29.3479 36.8914C29.1743 36.9658 29.0425 37.1131 28.9876 37.2937C28.9327 37.4744 28.9605 37.6701 29.0634 37.8285L33.1992 44.1912C33.4918 44.811 33.9411 45.5247 34.5081 46.0498C35.0814 46.5806 35.8994 47.0216 36.8309 46.7305C36.8497 46.7247 36.8681 46.7179 36.8863 46.7104L38.5838 46.0026C39.2103 45.8019 39.6984 45.4828 40.0646 44.9668C40.4162 44.4711 40.6199 43.8411 40.7843 43.0984L42.7038 34.743C42.7432 34.5714 42.7102 34.3912 42.6125 34.2447L41.3325 32.3247C41.1614 32.068 40.8315 31.9699 40.5479 32.0914L29.3479 36.8914Z" fill="#D9802E" stroke="#8F3400" stroke-width="1.28" stroke-linejoin="round"/>
<mask id="path-3-outside-1_1385_7456" maskUnits="userSpaceOnUse" x="25.8397" y="32.2173" width="17" height="16" fill="black">
<rect fill="white" x="25.8397" y="32.2173" width="17" height="16"/>
<path fill-rule="evenodd" clip-rule="evenodd" d="M27.8397 34.599L34.4767 45.2181C34.8271 45.7788 35.4416 46.1194 36.1028 46.1194C36.9827 46.1194 37.7497 45.5205 37.9631 44.6669L40.5755 34.2173C39.9753 34.4636 39.319 34.599 38.6332 34.599H27.8397Z"/>
</mask>
<path fill-rule="evenodd" clip-rule="evenodd" d="M27.8397 34.599L34.4767 45.2181C34.8271 45.7788 35.4416 46.1194 36.1028 46.1194C36.9827 46.1194 37.7497 45.5205 37.9631 44.6669L40.5755 34.2173C39.9753 34.4636 39.319 34.599 38.6332 34.599H27.8397Z" fill="#D79F11"/>
<path d="M27.8397 34.599V33.319C27.3744 33.319 26.9457 33.5715 26.7201 33.9785C26.4946 34.3854 26.5076 34.8828 26.7543 35.2774L27.8397 34.599ZM34.4767 45.2181L33.3913 45.8965L34.4767 45.2181ZM37.9631 44.6669L36.7213 44.3565V44.3565L37.9631 44.6669ZM40.5755 34.2173L41.8173 34.5277C41.9344 34.0594 41.778 33.5651 41.4129 33.2492C41.0479 32.9334 40.5362 32.8499 40.0896 33.0331L40.5755 34.2173ZM26.7543 35.2774L33.3913 45.8965L35.5621 44.5397L28.9251 33.9206L26.7543 35.2774ZM33.3913 45.8965C33.9756 46.8314 35.0003 47.3994 36.1028 47.3994V44.8394C35.883 44.8394 35.6786 44.7262 35.5621 44.5397L33.3913 45.8965ZM36.1028 47.3994C37.57 47.3994 38.849 46.4008 39.2049 44.9774L36.7213 44.3565C36.6504 44.6403 36.3953 44.8394 36.1028 44.8394V47.3994ZM39.2049 44.9774L41.8173 34.5277L39.3337 33.9068L36.7213 44.3565L39.2049 44.9774ZM40.0896 33.0331C39.6408 33.2173 39.1494 33.319 38.6332 33.319V35.879C39.4887 35.879 40.3098 35.7099 41.0615 35.4015L40.0896 33.0331ZM38.6332 33.319H27.8397V35.879H38.6332V33.319Z" fill="#8F3400" mask="url(#path-3-outside-1_1385_7456)"/>
<path d="M35.36 44.8395L29.92 35.5596" stroke="#FFD232" stroke-width="1.28" stroke-linecap="round" stroke-linejoin="round"/>
<path d="M47.2368 2.85653C47.23 2.85602 47.2231 2.85561 47.2163 2.85532L7.50971 1.15701C3.84442 0.888642 0.867353 4.07628 1.38735 7.71623L4.97848 32.8541C5.14875 34.046 6.07544 34.9795 7.25953 35.1698C7.54028 35.2149 7.82815 35.2394 8.12056 35.2394H41.1932C44.1908 35.2394 46.6864 32.9406 46.9336 29.955L49.9843 6.53123C49.9857 6.52072 49.9868 6.51018 49.9876 6.49961C50.0117 6.19892 50.0122 5.90138 49.9906 5.6089C49.8821 4.14224 48.7003 2.96629 47.2368 2.85653Z" fill="#FFD232" stroke="#8F3400" stroke-width="1.28" stroke-linejoin="round"/>
<path fill-rule="evenodd" clip-rule="evenodd" d="M5.70984 33.1635C5.96183 33.8797 6.58928 34.414 7.36112 34.5381C7.60997 34.5781 7.86386 34.5995 8.12059 34.5995H41.1933C43.8627 34.5995 46.0841 32.5487 46.297 29.8878L49.3497 6.44873C49.3711 6.18085 49.3716 5.91615 49.3523 5.65626C49.2859 4.75802 48.7036 3.9961 47.9037 3.66504C47.9955 3.88736 48.0539 4.12655 48.0723 4.37627C48.0915 4.63616 48.0911 4.90085 48.0697 5.16873L45.017 28.6078C44.8041 31.2687 42.5826 33.3195 39.9133 33.3195H6.84059C6.58386 33.3195 6.32997 33.2981 6.08112 33.2581C5.95303 33.2375 5.82892 33.2056 5.70984 33.1635Z" fill="#D79F11"/>
<path d="M2.02091 7.62572C1.55825 4.38711 4.21005 1.55132 7.47238 1.796L27.3307 2.64537C24.2352 16.7619 10.3648 20.2268 3.81648 20.1946L2.02091 7.62572Z" fill="#FFDB5B"/>
<path d="M16.48 2.9733L7.82868 2.61284C4.99038 2.39336 2.68327 4.93714 3.08579 7.84225L3.86688 13.4796" stroke="#FFEBA6" stroke-width="1.28" stroke-linecap="round" stroke-linejoin="round"/>
<path d="M3.08579 7.84225C2.68327 4.93714 4.99038 2.39336 7.82868 2.61284" stroke="#F3FCFF" stroke-width="1.28" stroke-linecap="round" stroke-linejoin="round"/>
<ellipse cx="38.56" cy="29.1592" rx="0.96" ry="0.959998" fill="#EFAF09"/>
<ellipse cx="42.4" cy="29.1592" rx="0.96" ry="0.959998" fill="#EFAF09"/>
<ellipse cx="34.08" cy="30.439" rx="0.96" ry="0.959998" fill="#EFAF09"/>
<ellipse cx="39.84" cy="20.1993" rx="0.96" ry="0.959998" fill="#EFAF09"/>
<ellipse cx="42.72" cy="26.2792" rx="0.64" ry="0.639998" fill="#EFAF09"/>
<ellipse cx="38.24" cy="25.639" rx="0.64" ry="0.639998" fill="#EFAF09"/>
<ellipse cx="42.08" cy="23.079" rx="0.64" ry="0.639998" fill="#EFAF09"/>
<ellipse cx="35.68" cy="26.9193" rx="0.64" ry="0.639998" fill="#EFAF09"/>
<ellipse cx="30.56" cy="29.4794" rx="0.64" ry="0.639998" fill="#EFAF09"/>
<ellipse cx="26.4" cy="31.0793" rx="0.32" ry="0.319999" fill="#EFAF09"/>
<ellipse cx="28.96" cy="31.0793" rx="0.32" ry="0.319999" fill="#EFAF09"/>
<ellipse cx="31.52" cy="31.7189" rx="0.32" ry="0.319999" fill="#EFAF09"/>
<ellipse cx="36" cy="29.1594" rx="0.32" ry="0.319999" fill="#EFAF09"/>
<ellipse cx="37.28" cy="31.7189" rx="0.32" ry="0.319999" fill="#EFAF09"/>
<ellipse cx="40.48" cy="31.0793" rx="0.32" ry="0.319999" fill="#EFAF09"/>
<ellipse cx="41.12" cy="27.2389" rx="0.32" ry="0.319999" fill="#EFAF09"/>
<ellipse cx="43.68" cy="24.0392" rx="0.32" ry="0.319999" fill="#EFAF09"/>
<ellipse cx="41.76" cy="18.279" rx="0.32" ry="0.319999" fill="#EFAF09"/>
<ellipse cx="40.48" cy="24.6794" rx="0.32" ry="0.319999" fill="#EFAF09"/>
<ellipse cx="37.28" cy="24.0392" rx="0.32" ry="0.319999" fill="#EFAF09"/>
<ellipse cx="39.2" cy="22.759" rx="0.32" ry="0.319999" fill="#EFAF09"/>
<ellipse cx="41.76" cy="20.839" rx="0.32" ry="0.319999" fill="#EFAF09"/>
<ellipse cx="39.2" cy="16.9992" rx="0.32" ry="0.319999" fill="#EFAF09"/>
<ellipse cx="32.8" cy="27.8791" rx="0.32" ry="0.319999" fill="#EFAF09"/>
<path d="M12.64 21.1596C14.7608 21.1596 16.48 19.4404 16.48 17.3196C16.48 15.1989 14.7608 13.4796 12.64 13.4796C10.5192 13.4796 8.8 15.1989 8.8 17.3196C8.8 19.4404 10.5192 21.1596 12.64 21.1596Z" fill="#FFE6A5" stroke="#8F3400" stroke-width="1.28" stroke-linejoin="round"/>
<path fill-rule="evenodd" clip-rule="evenodd" d="M15.6428 16.211C15.1116 15.6403 14.3539 15.2833 13.5127 15.2833C11.9061 15.2833 10.6036 16.5857 10.6036 18.1923C10.6036 19.0335 10.9606 19.7912 11.5313 20.3224C10.3105 19.8714 9.44 18.6972 9.44 17.3196C9.44 15.5523 10.8727 14.1196 12.64 14.1196C14.0176 14.1196 15.1918 14.9901 15.6428 16.211Z" fill="#EA9F2F"/>
<path d="M14.6984 17.5283C14.3552 18.8092 13.0743 19.579 11.8375 19.2476" stroke="#FFF7E3" stroke-width="1.28" stroke-linecap="round" stroke-linejoin="round"/>
<path d="M25.44 22.4393C28.2677 22.4393 30.56 20.147 30.56 17.3193C30.56 14.4917 28.2677 12.1994 25.44 12.1994C22.6123 12.1994 20.32 14.4917 20.32 17.3193C20.32 20.147 22.6123 22.4393 25.44 22.4393Z" fill="#FFE6A5" stroke="#8F3400" stroke-width="1.28" stroke-linejoin="round"/>
<path fill-rule="evenodd" clip-rule="evenodd" d="M29.6438 15.7673C28.9002 14.9682 27.8394 14.4685 26.6618 14.4685C24.4125 14.4685 22.5891 16.2919 22.5891 18.5412C22.5891 19.7187 23.0889 20.7796 23.8879 21.5232C22.1786 20.8919 20.96 19.2479 20.96 17.3193C20.96 14.8451 22.9658 12.8394 25.44 12.8394C27.3686 12.8394 29.0125 14.058 29.6438 15.7673Z" fill="#EA9F2F"/>
<path d="M28.3218 17.6118C27.8412 19.4051 26.048 20.4828 24.3165 20.0188" stroke="#FFF7E3" stroke-width="1.28" stroke-linecap="round" stroke-linejoin="round"/>
<path d="M37.6 21.7998C39.7208 21.7998 41.44 20.0805 41.44 17.9598C41.44 15.839 39.7208 14.1198 37.6 14.1198C35.4792 14.1198 33.76 15.839 33.76 17.9598C33.76 20.0805 35.4792 21.7998 37.6 21.7998Z" fill="#FFE6A5" stroke="#8F3400" stroke-width="1.28" stroke-linejoin="round"/>
<path fill-rule="evenodd" clip-rule="evenodd" d="M40.6028 16.8511C40.0716 16.2804 39.3139 15.9234 38.4727 15.9234C36.8661 15.9234 35.5636 17.2258 35.5636 18.8325C35.5636 19.6736 35.9206 20.4314 36.4913 20.9625C35.2705 20.5116 34.4 19.3373 34.4 17.9598C34.4 16.1925 35.8327 14.7598 37.6 14.7598C38.9776 14.7598 40.1518 15.6302 40.6028 16.8511Z" fill="#EA9F2F"/>
<path d="M39.6584 18.1684C39.3152 19.4494 38.0343 20.2191 36.7975 19.8877" stroke="#FFF7E3" stroke-width="1.28" stroke-linecap="round" stroke-linejoin="round"/>
</svg>
