<svg width="53" height="48" viewBox="0 0 53 48" fill="none" xmlns="http://www.w3.org/2000/svg">
<path d="M46.3102 2.96653C49.6446 3.13325 52.1393 6.09082 51.7415 9.40561L49.0966 31.446C48.7492 34.341 46.2934 36.5197 43.3777 36.5197H10.0974C7.24222 36.5197 4.81797 34.4282 4.39954 31.6039L0.841827 7.58932C0.309273 3.99457 3.19783 0.810917 6.82727 0.992389L46.3102 2.96653Z" fill="#906ED8" stroke="#3B2D74" stroke-width="1.28" stroke-linejoin="round"/>
<path d="M28.7879 36.8909C28.6143 36.9653 28.4825 37.1126 28.4276 37.2933C28.3727 37.474 28.4005 37.6696 28.5034 37.828L32.6392 44.1907C32.9317 44.8105 33.3811 45.5243 33.9481 46.0493C34.5214 46.5801 35.3394 47.0211 36.2709 46.73C36.2897 46.7242 36.3081 46.7174 36.3263 46.7099L38.0238 46.0021C38.6503 45.8014 39.1384 45.4823 39.5045 44.9663C39.8562 44.4706 40.0599 43.8406 40.2243 43.098L42.1438 34.7425C42.1832 34.5709 42.1502 34.3907 42.0525 34.2442L40.7725 32.3242C40.6014 32.0675 40.2715 31.9694 39.9879 32.0909L28.7879 36.8909Z" fill="#906ED8" stroke="#3B2D74" stroke-width="1.28" stroke-linejoin="round"/>
<mask id="path-3-outside-1_1385_7515" maskUnits="userSpaceOnUse" x="25.2798" y="32.2173" width="17" height="16" fill="black">
<rect fill="white" x="25.2798" y="32.2173" width="17" height="16"/>
<path fill-rule="evenodd" clip-rule="evenodd" d="M27.2798 34.5989L33.9167 45.2179C34.2671 45.7785 34.8816 46.1191 35.5428 46.1191C36.4227 46.1191 37.1897 45.5203 37.4031 44.6666L40.0154 34.2173C39.4152 34.4636 38.759 34.5989 38.0732 34.5989H27.2798Z"/>
</mask>
<path fill-rule="evenodd" clip-rule="evenodd" d="M27.2798 34.5989L33.9167 45.2179C34.2671 45.7785 34.8816 46.1191 35.5428 46.1191C36.4227 46.1191 37.1897 45.5203 37.4031 44.6666L40.0154 34.2173C39.4152 34.4636 38.759 34.5989 38.0732 34.5989H27.2798Z" fill="#0D9CC9"/>
<path d="M27.2798 34.5989V33.3189C26.8145 33.3189 26.3859 33.5715 26.1603 33.9784C25.9347 34.3854 25.9478 34.8828 26.1944 35.2773L27.2798 34.5989ZM33.9167 45.2179L32.8312 45.8963L33.9167 45.2179ZM37.4031 44.6666L36.1613 44.3562V44.3562L37.4031 44.6666ZM40.0154 34.2173L41.2572 34.5277C41.3743 34.0594 41.2179 33.5651 40.8529 33.2492C40.4878 32.9334 39.9761 32.8499 39.5295 33.0331L40.0154 34.2173ZM26.1944 35.2773L32.8312 45.8963L35.0021 44.5395L28.3653 33.9205L26.1944 35.2773ZM32.8312 45.8963C33.4156 46.8312 34.4403 47.3991 35.5428 47.3991V44.8391C35.3229 44.8391 35.1186 44.7259 35.0021 44.5395L32.8312 45.8963ZM35.5428 47.3991C37.01 47.3991 38.289 46.4005 38.6449 44.9771L36.1613 44.3562C36.0904 44.64 35.8353 44.8391 35.5428 44.8391V47.3991ZM38.6449 44.9771L41.2572 34.5277L38.7737 33.9068L36.1613 44.3562L38.6449 44.9771ZM39.5295 33.0331C39.0807 33.2173 38.5894 33.3189 38.0732 33.3189V35.8789C38.9286 35.8789 39.7497 35.7099 40.5014 35.4015L39.5295 33.0331ZM38.0732 33.3189H27.2798V35.8789H38.0732V33.3189Z" fill="#3B2D74" mask="url(#path-3-outside-1_1385_7515)"/>
<path d="M34.8 44.8391L29.36 35.5591" stroke="#52D5FF" stroke-width="1.28" stroke-linecap="round" stroke-linejoin="round"/>
<path d="M46.6768 2.85653C46.67 2.85602 46.6631 2.85561 46.6563 2.85532L6.9497 1.15701C3.28441 0.888642 0.30734 4.07628 0.827334 7.71623L4.41847 32.8541C4.58873 34.046 5.51542 34.9795 6.69952 35.1698C6.98027 35.2149 7.26814 35.2394 7.56055 35.2394H40.6332C43.6308 35.2394 46.1263 32.9406 46.3736 29.955L49.4243 6.53123C49.4257 6.52072 49.4268 6.51018 49.4276 6.49961C49.4517 6.19892 49.4522 5.90138 49.4305 5.6089C49.322 4.14224 48.1403 2.96629 46.6768 2.85653Z" fill="#52D5FF" stroke="#3B2D74" stroke-width="1.28" stroke-linejoin="round"/>
<path fill-rule="evenodd" clip-rule="evenodd" d="M5.14984 33.1635C5.40184 33.8797 6.02928 34.414 6.80113 34.5381C7.04998 34.5781 7.30387 34.5995 7.56059 34.5995H40.6333C43.3027 34.5995 45.5241 32.5487 45.737 29.8878L48.7897 6.44873C48.8111 6.18085 48.8116 5.91615 48.7923 5.65626C48.7259 4.75802 48.1436 3.9961 47.3437 3.66504C47.4355 3.88736 47.4939 4.12654 47.5123 4.37627C47.5316 4.63615 47.5311 4.90085 47.5097 5.16873L44.457 28.6078C44.2441 31.2687 42.0227 33.3195 39.3533 33.3195H6.28059C6.02387 33.3195 5.76998 33.2981 5.52112 33.2581C5.39304 33.2375 5.26892 33.2056 5.14984 33.1635Z" fill="#0D9CC9"/>
<path d="M1.4609 7.62572C0.998242 4.38711 3.65004 1.55132 6.91237 1.796L26.7706 2.64537C23.6752 16.7619 9.80474 20.2268 3.25647 20.1946L1.4609 7.62572Z" fill="#87E2FF"/>
<path d="M15.92 2.9733L7.26867 2.61284C4.43037 2.39336 2.12325 4.93714 2.52578 7.84225L3.30687 13.4796" stroke="#C5F1FF" stroke-width="1.28" stroke-linecap="round" stroke-linejoin="round"/>
<path d="M2.52578 7.84225C2.12325 4.93714 4.43037 2.39336 7.26867 2.61284" stroke="#F3FCFF" stroke-width="1.28" stroke-linecap="round" stroke-linejoin="round"/>
<ellipse cx="38" cy="29.1592" rx="0.96" ry="0.959998" fill="#21B7E7"/>
<ellipse cx="41.84" cy="29.1592" rx="0.96" ry="0.959998" fill="#21B7E7"/>
<ellipse cx="33.52" cy="30.439" rx="0.96" ry="0.959998" fill="#21B7E7"/>
<ellipse cx="39.28" cy="20.1993" rx="0.96" ry="0.959998" fill="#21B7E7"/>
<ellipse cx="42.16" cy="26.2792" rx="0.64" ry="0.639998" fill="#21B7E7"/>
<ellipse cx="37.68" cy="25.639" rx="0.64" ry="0.639998" fill="#21B7E7"/>
<ellipse cx="41.52" cy="23.079" rx="0.64" ry="0.639998" fill="#21B7E7"/>
<ellipse cx="35.12" cy="26.9193" rx="0.64" ry="0.639998" fill="#21B7E7"/>
<ellipse cx="30" cy="29.4794" rx="0.64" ry="0.639998" fill="#21B7E7"/>
<ellipse cx="25.84" cy="31.0793" rx="0.32" ry="0.319999" fill="#21B7E7"/>
<ellipse cx="28.4" cy="31.0793" rx="0.32" ry="0.319999" fill="#21B7E7"/>
<ellipse cx="30.96" cy="31.7189" rx="0.32" ry="0.319999" fill="#21B7E7"/>
<ellipse cx="35.44" cy="29.1594" rx="0.32" ry="0.319999" fill="#21B7E7"/>
<ellipse cx="36.72" cy="31.7189" rx="0.32" ry="0.319999" fill="#21B7E7"/>
<ellipse cx="39.92" cy="31.0793" rx="0.32" ry="0.319999" fill="#21B7E7"/>
<ellipse cx="40.56" cy="27.2389" rx="0.32" ry="0.319999" fill="#21B7E7"/>
<ellipse cx="43.12" cy="24.0392" rx="0.32" ry="0.319999" fill="#21B7E7"/>
<ellipse cx="41.2" cy="18.279" rx="0.32" ry="0.319999" fill="#21B7E7"/>
<ellipse cx="39.92" cy="24.6794" rx="0.32" ry="0.319999" fill="#21B7E7"/>
<ellipse cx="36.72" cy="24.0392" rx="0.32" ry="0.319999" fill="#21B7E7"/>
<ellipse cx="38.64" cy="22.759" rx="0.32" ry="0.319999" fill="#21B7E7"/>
<ellipse cx="41.2" cy="20.839" rx="0.32" ry="0.319999" fill="#21B7E7"/>
<ellipse cx="38.64" cy="16.9992" rx="0.32" ry="0.319999" fill="#21B7E7"/>
<ellipse cx="32.24" cy="27.8791" rx="0.32" ry="0.319999" fill="#21B7E7"/>
<path d="M12.08 21.1596C14.2008 21.1596 15.92 19.4404 15.92 17.3196C15.92 15.1989 14.2008 13.4796 12.08 13.4796C9.95924 13.4796 8.24001 15.1989 8.24001 17.3196C8.24001 19.4404 9.95924 21.1596 12.08 21.1596Z" fill="#9CE7FF" stroke="#3B2D74" stroke-width="1.28" stroke-linejoin="round"/>
<path fill-rule="evenodd" clip-rule="evenodd" d="M15.0828 16.211C14.5516 15.6402 13.7939 15.2833 12.9527 15.2833C11.3461 15.2833 10.0436 16.5857 10.0436 18.1923C10.0436 19.0335 10.4006 19.7912 10.9714 20.3224C9.75046 19.8714 8.88 18.6972 8.88 17.3196C8.88 15.5523 10.3127 14.1196 12.08 14.1196C13.4576 14.1196 14.6318 14.9901 15.0828 16.211Z" fill="#0D9CC9"/>
<path d="M14.1384 17.5283C13.7952 18.8092 12.5143 19.579 11.2775 19.2476" stroke="white" stroke-width="1.28" stroke-linecap="round" stroke-linejoin="round"/>
<path d="M24.88 22.4393C27.7077 22.4393 30 20.147 30 17.3193C30 14.4917 27.7077 12.1994 24.88 12.1994C22.0523 12.1994 19.76 14.4917 19.76 17.3193C19.76 20.147 22.0523 22.4393 24.88 22.4393Z" fill="#9CE7FF" stroke="#3B2D74" stroke-width="1.28" stroke-linejoin="round"/>
<path fill-rule="evenodd" clip-rule="evenodd" d="M29.0838 15.7673C28.3403 14.9682 27.2794 14.4685 26.1018 14.4685C23.8525 14.4685 22.0291 16.2919 22.0291 18.5412C22.0291 19.7187 22.5288 20.7796 23.3278 21.5232C21.6186 20.8919 20.4 19.2479 20.4 17.3193C20.4 14.8451 22.4058 12.8394 24.88 12.8394C26.8086 12.8394 28.4526 14.058 29.0838 15.7673Z" fill="#0D9CC9"/>
<path d="M27.7617 17.6118C27.2812 19.4051 25.488 20.4828 23.7565 20.0188" stroke="white" stroke-width="1.28" stroke-linecap="round" stroke-linejoin="round"/>
<path d="M37.04 21.7998C39.1608 21.7998 40.88 20.0805 40.88 17.9598C40.88 15.839 39.1608 14.1198 37.04 14.1198C34.9192 14.1198 33.2 15.839 33.2 17.9598C33.2 20.0805 34.9192 21.7998 37.04 21.7998Z" fill="#9CE7FF" stroke="#3B2D74" stroke-width="1.28" stroke-linejoin="round"/>
<path fill-rule="evenodd" clip-rule="evenodd" d="M40.0428 16.8511C39.5116 16.2804 38.7539 15.9234 37.9127 15.9234C36.3061 15.9234 35.0036 17.2258 35.0036 18.8325C35.0036 19.6736 35.3606 20.4314 35.9314 20.9625C34.7105 20.5116 33.84 19.3373 33.84 17.9598C33.84 16.1925 35.2727 14.7598 37.04 14.7598C38.4176 14.7598 39.5918 15.6302 40.0428 16.8511Z" fill="#0D9CC9"/>
<path d="M39.0984 18.1684C38.7552 19.4494 37.4743 20.2191 36.2375 19.8877" stroke="white" stroke-width="1.28" stroke-linecap="round" stroke-linejoin="round"/>
</svg>
