<svg width="53" height="48" viewBox="0 0 53 48" fill="none" xmlns="http://www.w3.org/2000/svg">
<path d="M46.7502 2.96653C50.0846 3.13325 52.5793 6.09082 52.1815 9.40561L49.5366 31.446C49.1892 34.341 46.7334 36.5197 43.8177 36.5197H10.5374C7.68222 36.5197 5.25797 34.4282 4.83955 31.6039L1.28183 7.58932C0.749279 3.99457 3.63783 0.810917 7.26728 0.992389L46.7502 2.96653Z" fill="#1E8D79" stroke="#3B2D74" stroke-width="1.28" stroke-linejoin="round"/>
<path d="M29.2279 36.8909C29.0543 36.9653 28.9224 37.1126 28.8676 37.2933C28.8127 37.474 28.8405 37.6696 28.9434 37.828L33.0792 44.1907C33.3717 44.8105 33.821 45.5243 34.3881 46.0493C34.9614 46.5801 35.7794 47.0211 36.7109 46.73C36.7296 46.7242 36.7481 46.7174 36.7663 46.7099L38.4637 46.0021C39.0902 45.8014 39.5784 45.4823 39.9445 44.9663C40.2962 44.4706 40.4998 43.8406 40.6643 43.098L42.5837 34.7425C42.6232 34.5709 42.5902 34.3907 42.4925 34.2442L41.2125 32.3242C41.0414 32.0675 40.7114 31.9694 40.4279 32.0909L29.2279 36.8909Z" fill="#1E8D79" stroke="#3B2D74" stroke-width="1.28" stroke-linejoin="round"/>
<mask id="path-3-outside-1_1385_7575" maskUnits="userSpaceOnUse" x="25.7198" y="32.2173" width="17" height="16" fill="black">
<rect fill="white" x="25.7198" y="32.2173" width="17" height="16"/>
<path fill-rule="evenodd" clip-rule="evenodd" d="M27.7198 34.5989L34.3567 45.2179C34.7071 45.7785 35.3216 46.1191 35.9828 46.1191C36.8627 46.1191 37.6297 45.5203 37.8431 44.6666L40.4554 34.2173C39.8552 34.4636 39.199 34.5989 38.5132 34.5989H27.7198Z"/>
</mask>
<path fill-rule="evenodd" clip-rule="evenodd" d="M27.7198 34.5989L34.3567 45.2179C34.7071 45.7785 35.3216 46.1191 35.9828 46.1191C36.8627 46.1191 37.6297 45.5203 37.8431 44.6666L40.4554 34.2173C39.8552 34.4636 39.199 34.5989 38.5132 34.5989H27.7198Z" fill="#A03FDC"/>
<path d="M27.7198 34.5989V33.3189C27.2545 33.3189 26.8258 33.5715 26.6003 33.9784C26.3747 34.3854 26.3878 34.8828 26.6344 35.2773L27.7198 34.5989ZM34.3567 45.2179L33.2712 45.8963V45.8963L34.3567 45.2179ZM37.8431 44.6666L36.6013 44.3562V44.3562L37.8431 44.6666ZM40.4554 34.2173L41.6972 34.5277C41.8143 34.0594 41.6579 33.5651 41.2929 33.2492C40.9278 32.9334 40.4161 32.8499 39.9695 33.0331L40.4554 34.2173ZM26.6344 35.2773L33.2712 45.8963L35.4421 44.5395L28.8053 33.9205L26.6344 35.2773ZM33.2712 45.8963C33.8555 46.8312 34.8803 47.3991 35.9828 47.3991V44.8391C35.7629 44.8391 35.5586 44.7259 35.4421 44.5395L33.2712 45.8963ZM35.9828 47.3991C37.45 47.3991 38.729 46.4005 39.0849 44.9771L36.6013 44.3562C36.5303 44.64 36.2753 44.8391 35.9828 44.8391V47.3991ZM39.0849 44.9771L41.6972 34.5277L39.2136 33.9068L36.6013 44.3562L39.0849 44.9771ZM39.9695 33.0331C39.5207 33.2173 39.0294 33.3189 38.5132 33.3189V35.8789C39.3686 35.8789 40.1897 35.7099 40.9413 35.4015L39.9695 33.0331ZM38.5132 33.3189H27.7198V35.8789H38.5132V33.3189Z" fill="#3B2D74" mask="url(#path-3-outside-1_1385_7575)"/>
<path d="M35.24 44.8391L29.8 35.5591" stroke="#C666FF" stroke-width="1.28" stroke-linecap="round" stroke-linejoin="round"/>
<path d="M47.1168 2.85653C47.11 2.85602 47.1031 2.85561 47.0963 2.85532L7.3897 1.15701C3.72441 0.888642 0.747343 4.07628 1.26734 7.71623L4.85847 32.8541C5.02874 34.046 5.95543 34.9795 7.13952 35.1698C7.42027 35.2149 7.70814 35.2394 8.00055 35.2394H41.0732C44.0708 35.2394 46.5663 32.9406 46.8136 29.955L49.8643 6.53123C49.8657 6.52072 49.8668 6.51018 49.8676 6.49961C49.8917 6.19892 49.8922 5.90138 49.8705 5.6089C49.762 4.14224 48.5803 2.96629 47.1168 2.85653Z" fill="#C666FF" stroke="#3B2D74" stroke-width="1.28" stroke-linejoin="round"/>
<path fill-rule="evenodd" clip-rule="evenodd" d="M5.58984 33.1635C5.84183 33.8797 6.46928 34.414 7.24112 34.5381C7.48997 34.5781 7.74386 34.5995 8.00059 34.5995H41.0733C43.7427 34.5995 45.9641 32.5487 46.177 29.8878L49.2297 6.44873C49.2511 6.18085 49.2516 5.91615 49.2323 5.65627C49.1659 4.75802 48.5836 3.9961 47.7837 3.66504C47.8755 3.88736 47.9338 4.12655 47.9523 4.37627C47.9715 4.63616 47.9711 4.90085 47.9497 5.16873L44.897 28.6078C44.6841 31.2687 42.4626 33.3195 39.7933 33.3195H6.72058C6.46386 33.3195 6.20997 33.2981 5.96111 33.2581C5.83303 33.2375 5.70892 33.2056 5.58984 33.1635Z" fill="#A03FDC"/>
<path d="M1.9009 7.62572C1.43824 4.38711 4.09004 1.55132 7.35237 1.796L27.2107 2.64537C24.1152 16.7619 10.2447 20.2268 3.69647 20.1946L1.9009 7.62572Z" fill="#D186FF"/>
<path d="M16.36 2.9733L7.70867 2.61284C4.87037 2.39336 2.56326 4.93714 2.96578 7.84225L3.74687 13.4796" stroke="#EDA5FF" stroke-width="1.28" stroke-linecap="round" stroke-linejoin="round"/>
<path d="M2.96578 7.84225C2.56326 4.93714 4.87037 2.39336 7.70867 2.61284" stroke="#F3FCFF" stroke-width="1.28" stroke-linecap="round" stroke-linejoin="round"/>
<ellipse cx="38.44" cy="29.1592" rx="0.96" ry="0.959998" fill="#A643E0"/>
<ellipse cx="42.28" cy="29.1592" rx="0.96" ry="0.959998" fill="#A643E0"/>
<ellipse cx="33.96" cy="30.439" rx="0.96" ry="0.959998" fill="#A643E0"/>
<ellipse cx="39.72" cy="20.1993" rx="0.96" ry="0.959998" fill="#A643E0"/>
<ellipse cx="42.6" cy="26.2792" rx="0.64" ry="0.639998" fill="#A643E0"/>
<ellipse cx="38.12" cy="25.639" rx="0.64" ry="0.639998" fill="#A643E0"/>
<ellipse cx="41.96" cy="23.079" rx="0.64" ry="0.639998" fill="#A643E0"/>
<ellipse cx="35.56" cy="26.9193" rx="0.64" ry="0.639998" fill="#A643E0"/>
<ellipse cx="30.44" cy="29.4794" rx="0.64" ry="0.639998" fill="#A643E0"/>
<ellipse cx="26.28" cy="31.0793" rx="0.32" ry="0.319999" fill="#A643E0"/>
<ellipse cx="28.84" cy="31.0793" rx="0.32" ry="0.319999" fill="#A643E0"/>
<ellipse cx="31.4" cy="31.7189" rx="0.32" ry="0.319999" fill="#A643E0"/>
<ellipse cx="35.88" cy="29.1594" rx="0.32" ry="0.319999" fill="#A643E0"/>
<ellipse cx="37.16" cy="31.7189" rx="0.32" ry="0.319999" fill="#A643E0"/>
<ellipse cx="40.36" cy="31.0793" rx="0.32" ry="0.319999" fill="#A643E0"/>
<ellipse cx="41" cy="27.2389" rx="0.32" ry="0.319999" fill="#A643E0"/>
<ellipse cx="43.56" cy="24.0392" rx="0.32" ry="0.319999" fill="#A643E0"/>
<ellipse cx="41.64" cy="18.279" rx="0.32" ry="0.319999" fill="#A643E0"/>
<ellipse cx="40.36" cy="24.6794" rx="0.32" ry="0.319999" fill="#A643E0"/>
<ellipse cx="37.16" cy="24.0392" rx="0.32" ry="0.319999" fill="#A643E0"/>
<ellipse cx="39.08" cy="22.759" rx="0.32" ry="0.319999" fill="#A643E0"/>
<ellipse cx="41.64" cy="20.839" rx="0.32" ry="0.319999" fill="#A643E0"/>
<ellipse cx="39.08" cy="16.9992" rx="0.32" ry="0.319999" fill="#A643E0"/>
<ellipse cx="32.68" cy="27.8791" rx="0.32" ry="0.319999" fill="#A643E0"/>
<path d="M12.52 21.1596C14.6408 21.1596 16.36 19.4404 16.36 17.3196C16.36 15.1989 14.6408 13.4796 12.52 13.4796C10.3992 13.4796 8.68 15.1989 8.68 17.3196C8.68 19.4404 10.3992 21.1596 12.52 21.1596Z" fill="#E8A7FF" stroke="#3B2D74" stroke-width="1.28" stroke-linejoin="round"/>
<path fill-rule="evenodd" clip-rule="evenodd" d="M15.5228 16.211C14.9916 15.6402 14.2339 15.2833 13.3927 15.2833C11.7861 15.2833 10.4836 16.5857 10.4836 18.1923C10.4836 19.0335 10.8406 19.7912 11.4114 20.3224C10.1905 19.8714 9.32 18.6972 9.32 17.3196C9.32 15.5523 10.7527 14.1196 12.52 14.1196C13.8976 14.1196 15.0718 14.9901 15.5228 16.211Z" fill="#9F3DD9"/>
<path d="M14.5784 17.5283C14.2352 18.8092 12.9543 19.579 11.7175 19.2476" stroke="#FFDDFC" stroke-width="1.28" stroke-linecap="round" stroke-linejoin="round"/>
<path d="M25.32 22.4393C28.1477 22.4393 30.44 20.147 30.44 17.3193C30.44 14.4917 28.1477 12.1994 25.32 12.1994C22.4923 12.1994 20.2 14.4917 20.2 17.3193C20.2 20.147 22.4923 22.4393 25.32 22.4393Z" fill="#E8A7FF" stroke="#3B2D74" stroke-width="1.28" stroke-linejoin="round"/>
<path fill-rule="evenodd" clip-rule="evenodd" d="M29.5238 15.7673C28.7803 14.9682 27.7194 14.4685 26.5418 14.4685C24.2925 14.4685 22.4691 16.2919 22.4691 18.5412C22.4691 19.7187 22.9688 20.7796 23.7678 21.5232C22.0586 20.8918 20.84 19.2479 20.84 17.3193C20.84 14.8451 22.8458 12.8394 25.32 12.8394C27.2486 12.8394 28.8926 14.058 29.5238 15.7673Z" fill="#9F3DD9"/>
<path d="M28.2017 17.6118C27.7212 19.4051 25.928 20.4828 24.1965 20.0188" stroke="#FFDDFC" stroke-width="1.28" stroke-linecap="round" stroke-linejoin="round"/>
<path d="M37.48 21.7998C39.6008 21.7998 41.32 20.0805 41.32 17.9598C41.32 15.839 39.6008 14.1198 37.48 14.1198C35.3592 14.1198 33.64 15.839 33.64 17.9598C33.64 20.0805 35.3592 21.7998 37.48 21.7998Z" fill="#E8A7FF" stroke="#3B2D74" stroke-width="1.28" stroke-linejoin="round"/>
<path fill-rule="evenodd" clip-rule="evenodd" d="M40.4828 16.8511C39.9516 16.2804 39.1939 15.9234 38.3527 15.9234C36.7461 15.9234 35.4436 17.2258 35.4436 18.8325C35.4436 19.6736 35.8006 20.4314 36.3713 20.9625C35.1505 20.5116 34.28 19.3373 34.28 17.9598C34.28 16.1925 35.7127 14.7598 37.48 14.7598C38.8576 14.7598 40.0318 15.6302 40.4828 16.8511Z" fill="#9F3DD9"/>
<path d="M39.5384 18.1684C39.1952 19.4494 37.9143 20.2191 36.6775 19.8877" stroke="#FFDDFC" stroke-width="1.28" stroke-linecap="round" stroke-linejoin="round"/>
</svg>
