<?xml version="1.0" encoding="UTF-8"?>
<svg xmlns="http://www.w3.org/2000/svg" xmlns:xlink="http://www.w3.org/1999/xlink" width="16px"
    height="16px" viewBox="0 0 16 16" version="1.1">
    <g id="surface1">
        <path
            style="fill:none;stroke-width:1;stroke-linecap:butt;stroke-linejoin:miter;stroke:rgb(100%,100%,100%);stroke-opacity:1;stroke-miterlimit:4;"
            d="M 11.620117 1664.880615 L 206.774414 1670.184082 L 517.174805 1670.184082 L 558.083984 1586.144531 L 513.036133 1512.711914 L 383.463867 1506.592529 L 235.267578 1513.935791 L 89.299805 1518.831299 L 1.432617 1454.781738 L 1.432617 1368.702393 L 65.741211 1316.891602 L 186.240234 1316.891602 L 315.97168 1321.787109 L 431.376953 1352.384033 L 444.748047 1438.05542 L 558.083984 1467.020508 L 635.604492 1409.498291 L 635.604492 1270.792236 L 528.476562 1099.041504 L 571.295898 1005.210938 L 611.09082 930.554443 L 651.044922 848.146729 L 543.757812 774.306152 L 421.189453 800.007568 L 375.186523 882.823242 L 457.004883 962.783203 L 473.71875 1060.693359 L 381.87207 1129.638428 L 225.557617 1145.140869 L 67.810547 1132.9021 L 21.807617 1060.693359 L 181.146484 1042.335205 L 345.101562 1041.111328 L 357.358398 984.405029 L 150.583984 924.435059 L 52.529297 967.270752 L 11.142578 887.71875 L 124.478516 849.370605 L 115.246094 788.176758 L 1.432617 751.460449 L 139.759766 728.614746 L 291.458008 757.579834 L 366.59082 714.744141 L 210.276367 684.147217 L 72.426758 660.893555 L 35.65625 591.948486 L 181.146484 616.426025 L 326.15918 654.77417 L 469.102539 687.00293 L 608.543945 671.908447 L 507.464844 576.854004 L 342.077148 558.49585 L 159.657227 547.888916 L 23.399414 504.645264 L 182.738281 485.063232 L 334.436523 492.406494 L 487.567383 495.670166 L 634.649414 475.680176 L 651.044922 394.496338 L 504.44043 385.113281 L 348.125977 416.118164 L 266.944336 376.138184 L 403.361328 343.909424 L 556.492188 321.063721 L 651.044922 245.999268 L 603.927734 159.919922 L 398.745117 103.621582 L 302.123047 150.944824 L 259.303711 222.745605 L 236.381836 297.810059 L 190.378906 378.993896 L 98.532227 438.963867 L 1.432617 394.496338 L 1.432617 319.431885 L 11.142578 239.879883 L 1.432617 170.934814 L 1.432617 17.542236 L 119.862305 0.815918 L 260.895508 14.686523 L 380.280273 34.676514 L 512.081055 33.044678 "
            transform="matrix(0.0245399,0,0,0.0095751,0,0)" />
    </g>
</svg>
