<svg viewBox="0 0 500 500" xmlns="http://www.w3.org/2000/svg"
    xmlns:xlink="http://www.w3.org/1999/xlink">
    <linearGradient id="a" gradientTransform="matrix(1 0 0 -1 -563.92 483.65)"
        gradientUnits="userSpaceOnUse" x1="783.14" x2="1063.14" y1="223.06" y2="390.89">
        <stop offset="0" stop-color="#e4f2ff" stop-opacity="0" />
        <stop offset=".11" stop-color="#dfedfe" stop-opacity=".14" />
        <stop offset=".36" stop-color="#d3e2fd" stop-opacity=".44" />
        <stop offset=".58" stop-color="#c9d9fc" stop-opacity=".68" />
        <stop offset=".77" stop-color="#c3d3fb" stop-opacity=".85" />
        <stop offset=".91" stop-color="#bfcffa" stop-opacity=".96" />
        <stop offset="1" stop-color="#bdcefa" />
    </linearGradient>
    <linearGradient id="b" gradientTransform="matrix(1 0 0 -1 -563.92 483.65)"
        gradientUnits="userSpaceOnUse" x1="1121.25" x2="690.49" y1="412.79" y2="190.06">
        <stop offset="0" stop-color="#fff" />
        <stop offset=".12" stop-color="#f5f7fe" stop-opacity=".84" />
        <stop offset=".37" stop-color="#e1e9fd" stop-opacity=".55" />
        <stop offset=".59" stop-color="#d2ddfc" stop-opacity=".31" />
        <stop offset=".77" stop-color="#c6d5fb" stop-opacity=".14" />
        <stop offset=".91" stop-color="#c0d0fa" stop-opacity=".04" />
        <stop offset="1" stop-color="#bdcefa" stop-opacity="0" />
    </linearGradient>
    <linearGradient id="c" x1="1101.95" x2="671.18" xlink:href="#b" y1="450.12" y2="227.39" />
    <linearGradient id="d" x1="1103.01" x2="672.25" xlink:href="#b" y1="448.06" y2="225.33" />
    <linearGradient id="e" x1="1136.8" x2="706.03" xlink:href="#b" y1="382.71" y2="159.99" />
    <linearGradient id="f" x1="1139.06" x2="708.28" xlink:href="#b" y1="378.35" y2="155.62" />
    <linearGradient id="g" x1="1142.1" x2="711.32" xlink:href="#b" y1="372.47" y2="149.74" />
    <linearGradient id="h" x1="1145.14" x2="714.37" xlink:href="#b" y1="366.59" y2="143.86" />
    <linearGradient id="i" gradientTransform="matrix(1 0 0 -1 -563.92 483.65)"
        gradientUnits="userSpaceOnUse" x1="804.72" x2="662.25" y1="448.01" y2="87.6">
        <stop offset="0" stop-color="#c3e0fe" />
        <stop offset=".06" stop-color="#c1ddfc" />
        <stop offset=".65" stop-color="#abc3ee" />
        <stop offset="1" stop-color="#a3b9e8" />
    </linearGradient>
    <linearGradient id="j" gradientTransform="matrix(1 0 0 -1 -563.92 483.65)"
        gradientUnits="userSpaceOnUse" x1="768.32" x2="632.9" y1="499.68" y2="128.69">
        <stop offset="0" stop-color="#bedaff" />
        <stop offset="1" stop-color="#fff" stop-opacity="0" />
    </linearGradient>
    <linearGradient id="k" gradientTransform="matrix(1 0 0 -1 -563.92 483.65)"
        gradientUnits="userSpaceOnUse" x1="806.96" x2="581.12" y1="462.24" y2="-135.95">
        <stop offset="0" stop-color="#e4f2ff" />
        <stop offset=".06" stop-color="#e1efff" />
        <stop offset=".65" stop-color="#c7d7fb" />
        <stop offset="1" stop-color="#bdcefa" />
    </linearGradient>
    <linearGradient id="l" gradientTransform="matrix(1 0 0 -1 -563.92 483.65)"
        gradientUnits="userSpaceOnUse" x1="735.02" x2="735.02" y1="439.09" y2="144.93">
        <stop offset="0" stop-color="#a9bdea" />
        <stop offset="1" stop-color="#fff" stop-opacity="0" />
    </linearGradient>
    <linearGradient id="m" gradientTransform="matrix(1 0 0 -1 -563.92 483.65)"
        gradientUnits="userSpaceOnUse" x1="684.64" x2="803.71" y1="220.51" y2="133.13">
        <stop offset="0" stop-color="#00e9ff" />
        <stop offset=".18" stop-color="#01d1ff" />
        <stop offset=".55" stop-color="#02a6ff" />
        <stop offset=".83" stop-color="#038cff" />
        <stop offset="1" stop-color="#0382ff" />
    </linearGradient>
    <linearGradient id="n" x1="759.07" x2="709.2" xlink:href="#b" y1="353.63" y2="305.21" />
    <linearGradient id="o" x1="757.26" x2="707.4" xlink:href="#b" y1="355.49" y2="307.07" />
    <linearGradient id="p" x1="754.88" x2="705.02" xlink:href="#b" y1="357.93" y2="309.52" />
    <linearGradient id="q" gradientTransform="matrix(1 0 0 -1 0 500)" x1="234.23" x2="220.07"
        xlink:href="#k" y1="382.09" y2="358.05" />
    <linearGradient id="r" x1="790.39" x2="763.54" xlink:href="#b" y1="314.67" y2="246.84" />
    <linearGradient id="s" x1="838.92" x2="733.48" xlink:href="#k" y1="219.47" y2="124.82" />
    <linearGradient id="t" gradientTransform="matrix(1 0 0 -1 -563.92 483.65)"
        gradientUnits="userSpaceOnUse" x1="772.56" x2="772.56" y1="100.8" y2="261.44">
        <stop offset=".07" stop-color="#55d1ff" />
        <stop offset=".16" stop-color="#4fc3ee" stop-opacity=".93" />
        <stop offset=".35" stop-color="#41a0c2" stop-opacity=".76" />
        <stop offset=".6" stop-color="#29677b" stop-opacity=".48" />
        <stop offset=".92" stop-color="#0a191a" stop-opacity=".1" />
        <stop offset="1" stop-color="#010400" stop-opacity="0" />
    </linearGradient>
    <linearGradient id="u" x1="852.95" x2="792.99" xlink:href="#k" y1="227.42" y2="186.53" />
    <linearGradient id="v" x1="800.45" x2="800.45" xlink:href="#t" y1="195.49" y2="215.14" />
    <linearGradient id="w" x1="869.21" x2="809.26" xlink:href="#k" y1="203.57" y2="162.68" />
    <linearGradient id="x" x1="817.32" x2="817.32" xlink:href="#t" y1="171.99" y2="191.65" />
    <linearGradient id="y" x1="885.5" x2="825.54" xlink:href="#k" y1="179.68" y2="138.79" />
    <linearGradient id="z" x1="834.16" x2="834.16" xlink:href="#t" y1="148.5" y2="168.15" />
    <linearGradient id="A" x1="901.77" x2="841.81" xlink:href="#k" y1="155.82" y2="114.94" />
    <linearGradient id="B" x1="851.04" x2="851.04" xlink:href="#t" y1="124.99" y2="144.65" />
    <linearGradient id="C" x1="918.11" x2="858.14" xlink:href="#k" y1="131.86" y2="90.98" />
    <linearGradient id="D" x1="867.91" x2="867.91" xlink:href="#t" y1="101.49" y2="121.15" />
    <linearGradient id="E" gradientTransform="matrix(1 0 0 -1 -563.92 483.65)"
        gradientUnits="userSpaceOnUse" x1="819.49" x2="696.17" y1="103.99" y2="102.26">
        <stop offset="0" stop-color="#fff" />
        <stop offset=".58" stop-color="#dae4fc" />
        <stop offset="1" stop-color="#bdcefa" />
    </linearGradient>
    <linearGradient id="F" x1="819.5" x2="696.18" xlink:href="#E" y1="102.96" y2="101.23" />
    <linearGradient id="G" x1="819.54" x2="696.22" xlink:href="#E" y1="100.23" y2="98.5" />
    <linearGradient id="H" x1="819.58" x2="696.26" xlink:href="#E" y1="97.46" y2="95.73" />
    <linearGradient id="I" x1="819.71" x2="696.39" xlink:href="#E" y1="88.04" y2="86.31" />
    <linearGradient id="J" x1="819.3" x2="695.98" xlink:href="#E" y1="117.41" y2="115.68" />
    <linearGradient id="K" x1="819.68" x2="696.37" xlink:href="#E" y1="89.91" y2="88.19" />
    <linearGradient id="L" x1="802.54" x2="700.34" xlink:href="#E" y1="83.28" y2="83.28" />
    <linearGradient id="M" x1="804.19" x2="699.15" xlink:href="#E" y1="81.07" y2="79.72" />
    <linearGradient id="N" x1="801.96" x2="700.12" xlink:href="#E" y1="75.2" y2="77.66" />
    <linearGradient id="O" x1="802.43" x2="699.6" xlink:href="#E" y1="73.6" y2="73.6" />
    <linearGradient id="P" x1="801.14" x2="699.27" xlink:href="#E" y1="70.36" y2="70.36" />
    <linearGradient id="Q" x1="801.57" x2="701.15" xlink:href="#E" y1="67.13" y2="67.13" />
    <linearGradient id="R" x1="1009.63" x2="915.87" xlink:href="#E" y1="184.93" y2="182.38" />
    <linearGradient id="S" x1="1009.7" x2="915.94" xlink:href="#E" y1="182.43" y2="179.88" />
    <linearGradient id="T" x1="1009.77" x2="916" xlink:href="#E" y1="179.84" y2="177.29" />
    <linearGradient id="U" x1="1010.03" x2="916.27" xlink:href="#E" y1="170.09" y2="167.54" />
    <linearGradient id="V" x1="1009.44" x2="915.66" xlink:href="#E" y1="192.1" y2="189.56" />
    <linearGradient id="W" x1="1009.96" x2="916.2" xlink:href="#E" y1="172.8" y2="170.25" />
    <linearGradient id="X" x1="1014.11" x2="884.53" xlink:href="#E" y1="169.69" y2="160.46" />
    <linearGradient id="Y" x1="1014.34" x2="884.77" xlink:href="#E" y1="166.5" y2="157.27" />
    <linearGradient id="Z" x1="1014.57" x2="885" xlink:href="#E" y1="163.25" y2="154.03" />
    <linearGradient id="aa" x1="878.16" x2="818.55" xlink:href="#a" y1="23.2" y2="19.24" />
    <linearGradient id="ab" x1="811.23" x2="851.89" xlink:href="#m" y1="35.14" y2="35.14" />
    <linearGradient id="ac" gradientTransform="matrix(1 0 0 -1 -563.92 483.65)"
        gradientUnits="userSpaceOnUse" x1="831.56" x2="831.56" y1="161.98" y2="-36.29">
        <stop offset="0" stop-color="#fff" stop-opacity="0" />
        <stop offset="1" stop-color="#00e9ff" />
    </linearGradient>
    <linearGradient id="ad" gradientTransform="matrix(1 0 0 -1 -563.92 483.65)"
        gradientUnits="userSpaceOnUse" x1="614.68" x2="643.06" y1="125.51" y2="344.23">
        <stop offset="0" stop-color="#0382ff" stop-opacity="0" />
        <stop offset=".16" stop-color="#218bff" stop-opacity=".17" />
        <stop offset=".74" stop-color="#8bacfe" stop-opacity=".76" />
        <stop offset="1" stop-color="#b6b9fe" />
    </linearGradient>
    <linearGradient id="ae" x1="636.31" x2="526.23" xlink:href="#b" y1="229.05" y2="123.94" />
    <linearGradient id="af" x1="637.65" x2="527.56" xlink:href="#b" y1="227.67" y2="122.55" />
    <linearGradient id="ag" gradientTransform="matrix(1 0 0 -1 0 500)" x1="163.89" x2="141.58"
        xlink:href="#E" y1="263.73" y2="236.55" />
    <linearGradient id="ah" gradientTransform="matrix(1 0 0 -1 0 500)" x1="293.02" x2="290.16"
        xlink:href="#b" y1="261.62" y2="250.39" />
    <linearGradient id="ai" gradientTransform="matrix(1 0 0 -1 0 500)" x1="292.02" x2="289.15"
        xlink:href="#b" y1="261.87" y2="250.65" />
    <linearGradient id="aj" gradientTransform="matrix(1 0 0 -1 0 500)" x1="291.52" x2="288.66"
        xlink:href="#b" y1="262" y2="250.78" />
    <linearGradient id="ak" gradientTransform="matrix(1 0 0 -1 0 500)" x1="290.89" x2="288.02"
        xlink:href="#b" y1="262.16" y2="250.94" />
    <linearGradient id="al" gradientTransform="matrix(1 0 0 -1 0 500)" x1="289.54" x2="286.68"
        xlink:href="#b" y1="262.51" y2="251.28" />
    <linearGradient id="am" gradientTransform="matrix(1 0 0 -1 -563.92 483.65)"
        gradientUnits="userSpaceOnUse" x1="833.54" x2="850.61" y1="226.58" y2="226.58">
        <stop offset=".07" stop-color="#8347e2" />
        <stop offset=".27" stop-color="#773bd1" />
        <stop offset=".68" stop-color="#591ca6" />
        <stop offset="1" stop-color="#3d007e" />
    </linearGradient>
    <path
        d="m325.9 236.92-4.21 2.44c-2.19 1.26-2.19 3.32 0 4.55l4.21 2.43a8.75 8.75 0 0 0 8 0l4.21-2.43c2.19-1.27 2.19-3.33 0-4.55l-4.21-2.44a8.81 8.81 0 0 0 -8 0z"
        fill="#bedaff" />
    <path
        d="m323.76 279.62c2.2 1.28 2.2 3.33 0 4.56l-3 1.71c-2.19 1.27-2.19 3.33 0 4.56l4.22 2.43a8.81 8.81 0 0 0 8 0l4.22-2.43c2.2-1.27 2.2-3.33 0-4.56l-3.2-1.89c-2.2-1.28-2.2-3.32 0-4.55l15.19-8.74a8.75 8.75 0 0 1 8 0l1 .59a8.79 8.79 0 0 0 8 0l4.21-2.44c2.2-1.27 2.2-3.32 0-4.55l-4.21-2.42a8.73 8.73 0 0 0 -8 0l-2.67 1.54a8.81 8.81 0 0 1 -8 0l-14.79-8.52a8.87 8.87 0 0 0 -8 0l-5.73 3.37a8.79 8.79 0 0 1 -8 0l-3.9-2.28a8.79 8.79 0 0 0 -8 0l-4.21 2.44c-2.2 1.26-2.2 3.32 0 4.55l3.91 2.27c2.2 1.27 2.2 3.33 0 4.56l-6.1 3.51c-2.19 1.27-2.19 3.32 0 4.55l9 5.2a8.81 8.81 0 0 0 8 0l6.1-3.52a8.82 8.82 0 0 1 8 .06z"
        fill="#bedaff" />
    <path
        d="m63.38 438.71 4.55-2.66c2.4-1.39 2.4-3.63 0-5l-4.55-2.66a9.58 9.58 0 0 0 -8.69 0l-4.61 2.61c-2.4 1.39-2.4 3.63 0 5l4.61 2.66a9.64 9.64 0 0 0 8.69.05z"
        fill="#bedaff" />
    <path
        d="m65.72 392c-2.41-1.39-2.41-3.63 0-5l3.28-1.88c2.4-1.39 2.4-3.63 0-5l-4.55-2.66a9.62 9.62 0 0 0 -8.71 0l-4.55 2.66c-2.4 1.39-2.4 3.63 0 5l3.53 2c2.4 1.39 2.4 3.63 0 5l-16.57 9.57a9.58 9.58 0 0 1 -8.69 0l-1.14-.65a9.58 9.58 0 0 0 -8.69 0l-4.63 2.72c-2.4 1.37-2.4 3.63 0 5l4.56 2.67a9.7 9.7 0 0 0 8.69 0l2.92-1.7a9.6 9.6 0 0 1 8.7 0l16.13 9.32a9.58 9.58 0 0 0 8.69 0l6.31-3.64a9.58 9.58 0 0 1 8.69 0l4.31 2.47a9.58 9.58 0 0 0 8.69 0l4.61-2.65c2.4-1.39 2.4-3.65 0-5l-4.3-2.5c-2.4-1.39-2.4-3.63 0-5l6.66-3.85c2.41-1.39 2.41-3.64 0-5l-9.83-5.68a9.58 9.58 0 0 0 -8.69 0l-6.65 3.8a9.61 9.61 0 0 1 -8.78 0z"
        fill="#bedaff" />
    <path
        d="m77 173a18.81 18.81 0 0 0 -8.51 14.79c0 5.43 3.81 7.64 8.51 4.92a18.85 18.85 0 0 0 8.51-14.79c.04-5.48-3.75-7.68-8.51-4.92zm0 16.28c-3.09 1.79-5.59.34-5.59-3.22a12.38 12.38 0 0 1 5.59-9.73c3.08-1.78 5.58-.33 5.58 3.23a12.34 12.34 0 0 1 -5.58 9.68z"
        fill="#00e9ff" />
    <path
        d="m73.46 209.6a10.25 10.25 0 0 1 -4.65 8.06c-2.57 1.49-4.65.28-4.65-2.69a10.28 10.28 0 0 1 4.65-8.07c2.57-1.48 4.65-.27 4.65 2.7z"
        fill="#3a55ca" />
    <path
        d="m78.35 154.67a10.27 10.27 0 0 1 -4.66 8.06c-2.57 1.49-4.65.29-4.65-2.68a10.26 10.26 0 0 1 4.65-8.05c2.52-1.5 4.66-.3 4.66 2.67z"
        fill="#3a55ca" />
    <path d="m49 203.09 6.64-11.5 6.63 3.83-6.64 11.5z" fill="#0382ff" />
    <path
        d="m58.3 171.21-3.88 2.27v-4.48c0-.83-.58-1.14-1.3-.75a2.87 2.87 0 0 0 -1.29 2.28v4.47l-3.83 2.28a2.86 2.86 0 0 0 -1.29 2.28c0 .82.58 1.14 1.29.74l3.83-2.3v4.49c0 .83.58 1.13 1.29.75a2.84 2.84 0 0 0 1.3-2.28v-4.46l3.88-2.28a2.85 2.85 0 0 0 1.28-2.22c0-.87-.58-1.21-1.28-.79z"
        fill="#c3e0fe" />
    <path
        d="m271.48 92.77a18.88 18.88 0 0 0 -8.53 14.8c0 5.42 3.83 7.63 8.53 4.91a18.84 18.84 0 0 0 8.52-14.79c0-5.44-3.82-7.64-8.52-4.92zm0 16.29c-3.1 1.78-5.6.34-5.6-3.23a12.33 12.33 0 0 1 5.6-9.69c3.08-1.77 5.58-.33 5.58 3.23a12.37 12.37 0 0 1 -5.58 9.72z"
        fill="#bedaff" />
    <path
        d="m265.25 124a10.22 10.22 0 0 1 -4.66 8.07c-2.57 1.49-4.66.29-4.66-2.68a10.25 10.25 0 0 1 4.66-8.07c2.57-1.51 4.66-.32 4.66 2.68z"
        fill="#00e9ff" />
    <path
        d="m272.18 73.93a10.28 10.28 0 0 1 -4.65 8.07c-2.57 1.48-4.65.27-4.65-2.7a10.23 10.23 0 0 1 4.65-8c2.57-1.55 4.65-.3 4.65 2.63z"
        fill="#3a55ca" />
    <path d="m240.79 117.48 6.64-11.5 6.63 3.83-6.64 11.5z" fill="#0382ff" />
    <path
        d="m256.55 85.31-3.88 2.28v-4.49c0-.82-.58-1.14-1.3-.75a2.91 2.91 0 0 0 -1.28 2.28v4.48l-3.88 2.28a2.81 2.81 0 0 0 -1.3 2.27c0 .83.58 1.14 1.3.75l3.88-2.27v4.48c0 .82.58 1.14 1.28.74a2.84 2.84 0 0 0 1.3-2.28v-4.48l3.88-2.28a2.82 2.82 0 0 0 1.28-2.27c0-.85-.58-1.15-1.28-.74z"
        fill="#c3e0fe" />
    <path
        d="m464.73 277.34-147-84.88a17.55 17.55 0 0 1 -8.73-15.19v-135a17.54 17.54 0 0 1 26.27-15.17l147 84.87a17.57 17.57 0 0 1 8.78 15.19v135a17.56 17.56 0 0 1 -26.34 15.19z"
        fill="url(#a)" />
    <path
        d="m473.47 273.82a11.49 11.49 0 0 1 -5.8-1.58l-147-84.87a11.69 11.69 0 0 1 -5.82-10.1v-135a11.71 11.71 0 0 1 11.64-11.71 11.39 11.39 0 0 1 5.8 1.58l147 84.9a11.65 11.65 0 0 1 5.83 10.09v135a11.71 11.71 0 0 1 -11.69 11.67zm-146.94-242.1a10.55 10.55 0 0 0 -10.53 10.53v135a10.56 10.56 0 0 0 5.26 9.11l147 84.87a10.26 10.26 0 0 0 5.23 1.43 10.55 10.55 0 0 0 10.51-10.51v-135a10.52 10.52 0 0 0 -5.26-9.1l-147-84.88a10.36 10.36 0 0 0 -5.21-1.45z"
        fill="url(#b)" />
    <path
        d="m466.46 146.88-126.94-73.29c-2.88-1.64-5.15-6.08-5.15-9.85s2.27-5.53 5.15-3.9l126.94 73.29c2.84 1.64 5.16 6.07 5.16 9.85s-2.32 5.53-5.16 3.9z"
        fill="url(#c)" />
    <path
        d="m381.66 168.26-40.27-23.26c-2.85-1.64-5.17-6.07-5.17-9.85v-44.67c0-3.78 2.28-5.55 5.17-3.91l40.27 23.26c2.83 1.64 5.15 6.08 5.15 9.85v44.67c0 3.77-2.32 5.53-5.15 3.91z"
        fill="url(#d)" />
    <path
        d="m457.35 211.94-40.28-23.2c-2.83-1.64-5.16-6.06-5.16-9.85v-44.77c0-3.77 2.28-5.53 5.16-3.89l40.28 23.25c2.83 1.64 5.15 6.08 5.15 9.85v44.76c0 3.74-2.32 5.49-5.15 3.85z"
        fill="url(#e)" />
    <path
        d="m464.68 235.85-130.62-75.42a3.49 3.49 0 0 1 -1.47-2.8c0-1.08.65-1.58 1.47-1.14l130.62 75.51a3.5 3.5 0 0 1 1.45 2.8c0 1.02-.64 1.52-1.45 1.05z"
        fill="url(#f)" />
    <path
        d="m464.68 243.36-130.62-75.47a3.52 3.52 0 0 1 -1.47-2.8c0-1.14.65-1.59 1.47-1.14l130.62 75.41a3.46 3.46 0 0 1 1.45 2.79c0 1.12-.64 1.62-1.45 1.21z"
        fill="url(#g)" />
    <path
        d="m464.68 250.76-130.62-75.41a3.52 3.52 0 0 1 -1.47-2.81c0-1.08.65-1.57 1.47-1.14l130.62 75.41a3.5 3.5 0 0 1 1.45 2.81c0 1.1-.64 1.6-1.45 1.14z"
        fill="url(#h)" />
    <path
        d="m105.2 380.85v-258.3c0-7.14 4.33-15.44 9.69-18.53l110.69-63.91c5.35-3.08 9.69.2 9.69 7.34v258.3c0 7.13-4.34 15.43-9.69 18.52l-110.69 63.91c-5.36 3.1-9.69-.2-9.69-7.33z"
        fill="url(#i)" />
    <path d="m232 39.68-.21-.11z" fill="#a9bdea" />
    <path
        d="m107.84 388.18c-1.63-1.38-2.64-3.9-2.64-7.33v-258.3c0-7.14 4.33-15.44 9.69-18.53l110.69-63.91c2.34-1.34 4.48-1.48 6.16-.6l-5.91-3.41c-1.76-1.39-4.21-1.47-6.93.1l-110.69 63.9c-5.34 3.1-9.69 11.38-9.69 18.53v258.29c0 4.29 1.57 7.16 4 8.13z"
        fill="#a9bdea" />
    <path
        d="m224.64 39.81-110.64 63.9c-5.35 3.09-9.69 11.38-9.69 18.52v258.3a10 10 0 0 0 2.09 6.83l1.48.85c-1.63-1.37-2.64-3.9-2.64-7.33v-258.29c0-7.15 4.33-15.44 9.69-18.54l110.69-63.9a6.93 6.93 0 0 1 5-1 6.45 6.45 0 0 0 -5.9.7zm7.11-.29.21.16z"
        fill="url(#j)" />
    <path
        d="m224.85 45.37-19.06 11.07-2.87 7.19a16.83 16.83 0 0 1 -6.62 8.17l-52.06 30.05c-2.71 1.57-5.23 1.38-6.62-.51l-2.87-3.88-19.09 11a13.64 13.64 0 0 0 -6.19 10.72v260.12c0 3.95 2.76 5.54 6.19 3.58l109.23-63.08a13.64 13.64 0 0 0 6.19-10.72v-260.08c0-3.94-2.81-5.54-6.23-3.62z"
        fill="url(#k)" />
    <path
        d="m187.15 71.73-33.83 19.54c-.6.34-1.14 0-1.14-.84a2.64 2.64 0 0 1 1.14-2.09l33.83-19.54c.6-.35 1.14 0 1.14.83a2.64 2.64 0 0 1 -1.14 2.1z"
        fill="#a3b9e8" />
    <path
        d="m102.42 190.44-.16-.09a2.72 2.72 0 0 1 -1.13-2.14v-23.69c0-.82.5-1.2 1.13-.85l.16.1a2.68 2.68 0 0 1 1.14 2.14v23.69c-.02.82-.56 1.19-1.14.84z"
        fill="#7b97c9" />
    <path
        d="m101.18 190.44-.16-.09a2.72 2.72 0 0 1 -1.13-2.14v-23.69c0-.82.5-1.2 1.13-.85l.16.1a2.68 2.68 0 0 1 1.14 2.14v23.69c-.02.82-.52 1.19-1.14.84z"
        fill="#90a9d6" />
    <path
        d="m211.39 43.81a1.14 1.14 0 0 1 0 2.28 4.24 4.24 0 0 1 -3.86 0 1.14 1.14 0 0 1 0-2.28 4.24 4.24 0 0 1 3.86 0z"
        fill="#90a9d6" />
    <path
        d="m211.39 43.81a4.24 4.24 0 0 0 -3.86 0 2 2 0 0 0 -.62.54l.24-.17a4.24 4.24 0 0 1 3.86 0c.8.46 1 1.13.62 1.69.8-.61.73-1.5-.24-2.06z"
        fill="#7b97c9" />
    <g fill="#fff" opacity=".32">
        <path d="m231 172v-86.66l-121.6 121.66v86.66z" />
        <path
            d="m109.4 181.49 121.6-121.61v-10.88c0-3.94-2.77-5.54-6.19-3.57l-9.77 5.68-12 11.95-.25.63a16.72 16.72 0 0 1 -6.62 8.17l-4.55 2.62-82.29 82.29z" />
        <path d="m231 241.24v-49.78l-121.6 121.62v49.78z" />
        <path d="m231 286.07v-11.4l-98.31 98.33 26.95-15.56z" />
    </g>
    <path
        d="m196.26 71.8-52 30.05c-2.71 1.57-5.24 1.38-6.63-.51l-2.86-3.88-19.1 11a12.77 12.77 0 0 0 -4.46 4.77 11.3 11.3 0 0 1 3.21-2.91l19.11-11 2.86 3.87c1.39 1.89 3.92 2.08 6.63.52l52.05-30a15.82 15.82 0 0 0 5.44-5.76 14.58 14.58 0 0 1 -4.25 3.85zm28.59-26.43-19.06 11.07-.63 1.45 18.45-10.65c3.41-2 6.19-.38 6.19 3.57v260.19a12.6 12.6 0 0 1 -1.73 5.95 13.51 13.51 0 0 0 3-7.82v-260.13c-.07-3.95-2.8-5.55-6.22-3.63z"
        fill="url(#l)" />
    <path
        d="m154.16 193.29-33.53 19.35c-2.34 1.35-4.25-.08-4.25-3.2s1.91-6.75 4.25-8.1l33.53-19.34c2.28-1.35 4.24.08 4.24 3.2s-1.91 6.71-4.24 8.09z"
        fill="#c3e0fe" />
    <path
        d="m166.16 202.07-45.52 26.28c-2.34 1.34-4.24-.09-4.24-3.21s1.9-6.74 4.24-8.1l45.52-26.28c2.34-1.35 4.23.09 4.23 3.21s-1.89 6.74-4.23 8.1z"
        fill="#c3e0fe" />
    <path
        d="m146.15 229.34-25.52 14.74c-2.34 1.35-4.25-.09-4.25-3.21s1.91-6.75 4.25-8.09l25.52-14.78c2.35-1.35 4.23.08 4.23 3.2s-1.88 6.75-4.23 8.1z"
        fill="#c3e0fe" />
    <path
        d="m219.24 307.73-96.14 55.52c-3.75 2.15-6.83-.16-6.83-5.15v-52.52c0-5 3.06-10.83 6.83-13l96.14-55.51c3.74-2.16 6.82.15 6.82 5.14v52.52c0 5-3.08 10.84-6.82 13z"
        fill="url(#m)" />
    <path
        d="m226.17 85.38v-4.74c0-4.12-2.89-5.79-6.45-3.73l-97 55.93a14.26 14.26 0 0 0 -6.46 11.16v4.79z"
        fill="#0382ff" />
    <path
        d="m127.71 136.09a5.75 5.75 0 0 1 -2.6 4.55c-1.43.83-2.6.16-2.6-1.5a5.79 5.79 0 0 1 2.6-4.55c1.44-.82 2.6-.15 2.6 1.5z"
        fill="#00e9ff" />
    <path
        d="m136.86 130.82a5.71 5.71 0 0 1 -2.61 4.56c-1.43.83-2.59.16-2.59-1.49a5.75 5.75 0 0 1 2.59-4.56c1.43-.84 2.61-.17 2.61 1.49z"
        fill="#00e9ff" />
    <path
        d="m146 125.54a5.7 5.7 0 0 1 -2.6 4.56c-1.44.83-2.6.14-2.6-1.51a5.74 5.74 0 0 1 2.6-4.55c1.43-.83 2.6-.16 2.6 1.5z"
        fill="#00e9ff" />
    <path d="m133.3 168.14 9 11.37c-7.25 9.44-16.85 13.15-22.25 8.58-2.27-1.91-3.58-5.12-3.77-9.17z"
        fill="#fff" />
    <path d="m133.3 168.14-17 10.82c-.29-6.1 2-13.5 6.27-19.88 4.06-6.16 9.43-10.7 14.53-12.28z"
        fill="#00e9ff" />
    <path
        d="m142.36 173.4 3.83-21.33c3.68-1.14 7-.68 9.37 1.34 5.88 5 4.76 18.09-2.49 29.06-.52.81-1.14 1.6-1.67 2.35z"
        fill="#0382ff" />
    <path d="m146.17 152.07-9-5.28-3.82 21.35 9.06 5.26z" fill="#2645b5" />
    <path d="m154.58 152.71-9-5.24a10 10 0 0 0 -8.46-.67l9.1 5.27a10 10 0 0 1 8.36.64z"
        fill="#3a55ca" />
    <path d="m142.35 179.53 9.1 5.29-9-11.38-9.1-5.27 9 11.38z" fill="#3a55ca" />
    <path d="m226.17 225.91-109 62.94v-2.43l109-63z" fill="#c3e0fe" />
    <path d="m226.17 194.93-109 62.95v-2.44l109-62.94z" fill="#c3e0fe" />
    <path
        d="m181 243.6-19.69 11.4c-1.59.92-2.88 0-2.88-2.19v-8.16a6.9 6.9 0 0 1 2.88-5.51l19.69-11.4c1.59-.92 2.89 0 2.89 2.18v8.16a7 7 0 0 1 -2.89 5.52z"
        fill="#bedaff" />
    <path
        d="m217.42 222.58-19.72 11.42c-1.6.92-2.89-.06-2.89-2.18v-8.16a6.9 6.9 0 0 1 2.89-5.52l19.72-11.38c1.59-.92 2.88.06 2.88 2.19v8.15a6.84 6.84 0 0 1 -2.88 5.48z"
        fill="#bedaff" />
    <path
        d="m132.57 282.94a1.76 1.76 0 0 0 2.05 0l19.72-11.38a6.82 6.82 0 0 0 2.89-5.51v-8.16a2.6 2.6 0 0 0 -.88-2.27l-9.64-6.89a1.77 1.77 0 0 0 -2.06 0l-19.72 11.38a7 7 0 0 0 -2.89 5.52v8.16a2.64 2.64 0 0 0 .89 2.27z"
        fill="#9cc0e8" />
    <path
        d="m154.34 271.52-19.72 11.38c-1.59.92-2.87-.06-2.87-2.18v-8.16a6.94 6.94 0 0 1 2.87-5.52l19.72-11.38c1.61-.92 2.89.06 2.89 2.19v8.15a6.78 6.78 0 0 1 -2.89 5.52z"
        fill="#bedaff" />
    <path
        d="m222.24 129-55.82 32.23c-2.1 1.21-3.78-.07-3.78-2.85v-14.38a9.05 9.05 0 0 1 3.78-7.23l55.82-32.22c2.1-1.21 3.79.07 3.79 2.86v14.41a9 9 0 0 1 -3.79 7.18z"
        fill="#c3e0fe" />
    <path
        d="m187.47 142.87-21.13 12.2c-.5.3-.91 0-.91-.68v-.06a2.2 2.2 0 0 1 .91-1.74l21.13-12.2c.5-.29.91 0 .91.69a2.21 2.21 0 0 1 -.91 1.79z"
        fill="url(#n)" />
    <path
        d="m193.42 134.66-27.08 15.63c-.5.3-.91 0-.91-.68v-.06a2.2 2.2 0 0 1 .91-1.74l27.08-15.63c.5-.3.91 0 .91.68v.06a2.2 2.2 0 0 1 -.91 1.74z"
        fill="url(#o)" />
    <path
        d="m193.42 129.88-27.08 15.62c-.5.3-.91 0-.91-.68a2.18 2.18 0 0 1 .91-1.74l27.08-15.64c.5-.29.91 0 .91.69v.05a2.21 2.21 0 0 1 -.91 1.7z"
        fill="url(#p)" />
    <path d="m234.12 132.3-13.82 8v-12.93l13.82-8z" fill="url(#q)" />
    <path d="m234.12 119.38-.09.05-13.6-8v-.1l-13.81 8v12.93l13.68 8v-12.89z" fill="#bdcefa" />
    <path
        d="m233.1 192.24-28 16.18c-2.51 1.44-4.55-.09-4.55-3.42v-30.72c0-3.35 2.05-7.25 4.55-8.69l28-16.23c2.51-1.46 4.55.09 4.55 3.41v30.73c0 3.39-2.1 7.28-4.55 8.74z"
        fill="#0382ff" />
    <path
        d="m200.46 205v-30.75c0-3.35 2-7.25 4.55-8.7l28.09-16.19a3 3 0 0 1 2.88-.3l-11.38-6.41a2.92 2.92 0 0 0 -2.95.25l-28 16.18c-2.51 1.44-4.55 5.35-4.55 8.69v30.72c0 1.9.66 3.22 1.69 3.75l11.38 6.42c-1.08-.57-1.71-1.84-1.71-3.66z"
        fill="#3a55ca" />
    <path
        d="m221.56 177.92a14.93 14.93 0 0 0 4.21-9.63c0-4.29-3-6-6.74-3.89a14.93 14.93 0 0 0 -6.73 11.67c0 3.26 1.74 5.05 4.2 4.78-5.69 4.63-10.11 12.86-10.37 20l25.87-14.94c-.29-6.79-4.65-10-10.4-8z"
        fill="url(#r)" />
    <path
        d="m265.42 226.44-39.45 22a7.65 7.65 0 0 1 -6.82-.29l-23-13.27c-2-1.13-2.27-2.94-.5-4l39.46-22a7.67 7.67 0 0 1 6.83.28l23 13.27c2 1.17 2.27 3 .46 4z"
        fill="#fff" />
    <path
        d="m266.57 332.52v-107.52a2.18 2.18 0 0 1 -1.13 1.4l-39.45 22a6.49 6.49 0 0 1 -3.18.67v108.1a6.25 6.25 0 0 0 3.18-.67l39.45-22a1.91 1.91 0 0 0 1.13-2z"
        fill="url(#s)" />
    <path
        d="m219.14 248.16-23-13.27a3 3 0 0 1 -1.64-1.93v107.48c-.18.87.38 1.82 1.64 2.55l23 13.27a7.92 7.92 0 0 0 3.66 1v-108.14a7.92 7.92 0 0 1 -3.66-.96z"
        fill="url(#t)" />
    <path
        d="m219.14 248.16-23-13.27a3 3 0 0 1 -1.64-1.93v107.48c-.18.87.38 1.82 1.64 2.55l23 13.27a7.92 7.92 0 0 0 3.66 1v-108.14a7.92 7.92 0 0 1 -3.66-.96z"
        fill="#bdcefa" />
    <path
        d="m288.4 257.22-39.4 22.66a7.71 7.71 0 0 1 -6.83-.29l-13.17-7.78c-2-1.14-2.28-2.95-.5-4l39.3-22.54a7.67 7.67 0 0 1 6.83.28l13.26 7.72c2.03 1.16 2.25 2.94.51 3.95z"
        fill="#fff" />
    <path
        d="m289.54 259.69v-3.81a2.19 2.19 0 0 1 -1.14 1.4l-39.4 22.65a6.31 6.31 0 0 1 -3.19.67v4.49a6.53 6.53 0 0 0 3.19-.67l39.45-22.66a1.92 1.92 0 0 0 1.09-2.07z"
        fill="url(#u)" />
    <path
        d="m242.1 279.59-13.1-7.78a3.05 3.05 0 0 1 -1.64-1.94v3.86c-.18.87.37 1.83 1.64 2.56l13.12 7.83a7.92 7.92 0 0 0 3.66 1v-4.49a8 8 0 0 1 -3.68-1.04z"
        fill="url(#v)" />
    <path
        d="m242.1 279.59-13.1-7.78a3.05 3.05 0 0 1 -1.64-1.94v3.86c-.18.87.37 1.83 1.64 2.56l13.12 7.83a7.92 7.92 0 0 0 3.66 1v-4.49a8 8 0 0 1 -3.68-1.04z"
        fill="#bdcefa" />
    <path
        d="m305.26 280.72-39.45 22.65a7.67 7.67 0 0 1 -6.83-.28l-13.12-7.83c-2-1.14-2.27-2.95-.5-4l39.31-22.54a7.65 7.65 0 0 1 6.82.28l13.29 7.73c2 1.16 2.28 2.93.48 4z"
        fill="#fff" />
    <path
        d="m306.4 283.19v-3.87a2.16 2.16 0 0 1 -1.14 1.4l-39.45 22.65a6.29 6.29 0 0 1 -3.19.67v4.49a6.51 6.51 0 0 0 3.19-.67l39.45-22.66a1.91 1.91 0 0 0 1.14-2z"
        fill="url(#w)" />
    <path
        d="m259 303.09-13.12-7.83a3.05 3.05 0 0 1 -1.64-1.94v3.86c-.18.88.38 1.83 1.64 2.56l13.12 7.83a8 8 0 0 0 3.66 1v-4.57a7.94 7.94 0 0 1 -3.66-.91z"
        fill="url(#x)" />
    <path
        d="m259 303.09-13.12-7.83a3.05 3.05 0 0 1 -1.64-1.94v3.86c-.18.88.38 1.83 1.64 2.56l13.12 7.83a8 8 0 0 0 3.66 1v-4.57a7.94 7.94 0 0 1 -3.66-.91z"
        fill="#bdcefa" />
    <path
        d="m322.12 304.21-39.45 22.66a7.65 7.65 0 0 1 -6.82-.29l-13.17-7.82c-2-1.14-2.27-2.95-.5-4l39.33-22.51a7.68 7.68 0 0 1 6.82.28l13.29 7.68c2.03 1.18 2.25 2.99.5 4z"
        fill="#fff" />
    <path
        d="m323.26 306.68v-3.87a2.16 2.16 0 0 1 -1.14 1.4l-39.45 22.66a6.25 6.25 0 0 1 -3.18.67v4.46a6.25 6.25 0 0 0 3.18-.67l39.45-22.65a1.93 1.93 0 0 0 1.14-2z"
        fill="url(#y)" />
    <path
        d="m275.82 326.58-13.14-7.82a3.08 3.08 0 0 1 -1.64-1.94v3.92c-.18.87.38 1.83 1.64 2.56l13.12 7.83a8.08 8.08 0 0 0 3.67.95v-4.52a7.9 7.9 0 0 1 -3.65-.98z"
        fill="url(#z)" />
    <path
        d="m275.82 326.58-13.14-7.82a3.08 3.08 0 0 1 -1.64-1.94v3.92c-.18.87.38 1.83 1.64 2.56l13.12 7.83a8.08 8.08 0 0 0 3.67.95v-4.52a7.9 7.9 0 0 1 -3.65-.98z"
        fill="#bdcefa" />
    <path
        d="m339 327.71-39.45 22.61a7.71 7.71 0 0 1 -6.83-.28l-13.12-7.83c-2-1.14-2.28-2.95-.5-3.95l39.3-22.54a7.64 7.64 0 0 1 6.83.27l13.27 7.73c2 1.2 2.24 3 .5 4z"
        fill="#fff" />
    <path
        d="m340.13 330.18v-3.87a2.17 2.17 0 0 1 -1.14 1.4l-39.45 22.61a6.31 6.31 0 0 1 -3.19.67v4.49a6.43 6.43 0 0 0 3.19-.68l39.46-22.65a1.93 1.93 0 0 0 1.13-1.97z"
        fill="url(#A)" />
    <path
        d="m292.69 350.08-13.12-7.83a3 3 0 0 1 -1.64-1.93v3.86c-.18.87.37 1.83 1.64 2.56l13.12 7.83a8 8 0 0 0 3.66.95v-4.52a7.92 7.92 0 0 1 -3.66-.92z"
        fill="url(#B)" />
    <path
        d="m292.69 350.08-13.12-7.83a3 3 0 0 1 -1.64-1.93v3.86c-.18.87.37 1.83 1.64 2.56l13.12 7.83a8 8 0 0 0 3.66.95v-4.52a7.92 7.92 0 0 1 -3.66-.92z"
        fill="#bdcefa" />
    <path
        d="m355.85 351.21-39.45 22.65a7.67 7.67 0 0 1 -6.83-.28l-13.12-7.83c-2-1.14-2.27-2.95-.5-3.95l39.31-22.54a7.59 7.59 0 0 1 6.82.29l13.27 7.71c2 1.16 2.24 2.94.5 3.95z"
        fill="#fff" />
    <path
        d="m357 353.73v-3.86a2.16 2.16 0 0 1 -1.14 1.4l-39.46 22.65a6.29 6.29 0 0 1 -3.19.67v4.49a6.18 6.18 0 0 0 3.19-.68l39.45-22.65a1.93 1.93 0 0 0 1.14-2z"
        fill="url(#C)" />
    <path
        d="m309.55 373.58-13.12-7.83a3.06 3.06 0 0 1 -1.64-1.93v3.87c-.18.86.38 1.82 1.64 2.54l13.12 7.83a8 8 0 0 0 3.66 1v-4.48a8 8 0 0 1 -3.66-1z"
        fill="url(#D)" />
    <path
        d="m309.55 373.58-13.12-7.83a3.06 3.06 0 0 1 -1.64-1.93v3.87c-.18.86.38 1.82 1.64 2.54l13.12 7.83a8 8 0 0 0 3.66 1v-4.48a8 8 0 0 1 -3.66-1z"
        fill="#bdcefa" />
    <path
        d="m222.2 233.36c0 .94 1.37 2.27 3.55 3.53 2.9 1.67 3.92 3.79 7.49 1.73 1-.6 1.46-1.07 1.48-1.48v-2.22c.11-1-2.37-1.69-4.46-2.88-2.9-1.67-6-2.58-7.5-1.73a1 1 0 0 0 -.56.82z" />
    <path
        d="m225.75 234.64c-2.89-1.67-4.48-3.47-3-4.33s4.56.06 7.5 1.73 6.56 2.27 3 4.32-4.59 0-7.49-1.72z"
        fill="#2d0d60" />
    <path
        d="m230.24 227.82c0 .94 1.38 2.27 3.55 3.52 2.9 1.68 3.93 3.79 7.5 1.72 1-.58 1.46-1.06 1.48-1.47v-2.21c.1-1-2.38-1.69-4.46-2.88-2.9-1.68-6-2.59-7.5-1.73a1 1 0 0 0 -.57.82z" />
    <path
        d="m233.79 229.1c-2.89-1.67-4.47-3.47-3-4.33s4.55 0 7.5 1.73 6.56 2.27 3 4.32-4.6-.06-7.5-1.72z"
        fill="#2d0d60" />
    <path
        d="m227.05 161.37a2.38 2.38 0 0 1 3.28.73l9.88 15.72a2.37 2.37 0 1 1 -4 2.52l-9.92-15.7a2.37 2.37 0 0 1 .78-3.27z"
        fill="#fcc4b7" />
    <path d="m233.53 178.56 3.19 5.07a3.67 3.67 0 0 0 6.21-3.92l-3.19-5.07s-4-1.5-6.21 3.92z"
        fill="#0382ff" />
    <path
        d="m234.62 233.9a1.62 1.62 0 0 0 .17-.72v-24.82c0-1.57-1.62-2.86-3.6-2.86s-3.6 1.29-3.6 2.86v27a.89.89 0 0 0 .65.86c1.38.38 4.64 1 6.38-2.36z"
        fill="#293677" />
    <path
        d="m242.69 228.08a1.48 1.48 0 0 0 .15-.72l-.55-24.82c0-1.57-1.67-2.82-3.65-2.77s-3.57 1.36-3.54 2.93l.59 27a.92.92 0 0 0 .66.86c1.39.38 4.71.91 6.34-2.46z"
        fill="#3a55ca" />
    <path
        d="m228.78 212.82a.63.63 0 0 0 .3.1c1.59.13 7.31-1.14 13-7.56a2.93 2.93 0 0 0 .77-1.86v-18.3a3 3 0 0 0 -1.28-2.78l-4.3-2.52a3 3 0 0 0 -3.07.29l-5.86 3.41a9.52 9.52 0 0 0 -4.31 7.45v18.4a1 1 0 0 0 .42.89z"
        fill="#bedaff" />
    <path
        d="m230.45 184.71a1.47 1.47 0 0 0 .88 1.26 4.77 4.77 0 0 0 4.29 0 1.54 1.54 0 0 0 .89-1.26v-3.93a1.51 1.51 0 0 0 -.89-1.25 4.7 4.7 0 0 0 -4.29 0 1.45 1.45 0 0 0 -.88 1.25z"
        fill="#dd936f" />
    <circle cx="233.47" cy="174.36" fill="#fcc4b7" r="8.35" />
    <path
        d="m208.86 173a2.38 2.38 0 0 1 3.35-.25l13.41 12.16a2.37 2.37 0 0 1 -3.09 3.6l-13.42-12.15a2.4 2.4 0 0 1 -.25-3.36z"
        fill="#fcc4b7" />
    <path d="m219.44 187.6 4.55 3.91a3.67 3.67 0 1 0 4.79-5.57l-4.55-3.94s-4.23-.24-4.79 5.57z"
        fill="#0382ff" />
    <path
        d="m238.18 182c-2.64 1.54-4.65.37-5.36-.75-1.81-2.79-2.1-.92-3.17-2.27-1.41-2.28-1.14-5.47-3.05-6.92-2.8-2.1-2-6.26 5.27-8.11 9.82-2.51 13.65 9.86 7.56 17a3.93 3.93 0 0 1 -1.25 1z"
        fill="#b25e02" fill-rule="evenodd" />
    <path
        d="m230.56 179.34c-.71.7-1.49.49-1.74-.46a3.4 3.4 0 0 1 .81-3 1 1 0 0 1 1.33-.25 1 1 0 0 1 .41.72 3.43 3.43 0 0 1 -.81 2.99z"
        fill="#fcc4b7" />
    <path
        d="m236.92 386.05-45.12 26.05a8 8 0 0 1 -7.14-.3l-47.27-27.31c-2.11-1.22-2.28-3.07-.51-4.13l45.12-26.05a8 8 0 0 1 7.16.3l47.26 27.31c2.1 1.22 2.38 3.07.51 4.13z"
        fill="#fefefe" />
    <path
        d="m236.92 386.05-45.12 26.05a8 8 0 0 1 -7.14-.3l-47.27-27.31a2.9 2.9 0 0 1 -1.74-2.38v1.79a2.89 2.89 0 0 0 1.74 2.41l47.27 27.31a8 8 0 0 0 7.14.31l45.12-26.06a2.1 2.1 0 0 0 1.23-1.74v-1.79a2.13 2.13 0 0 1 -1.23 1.71z"
        fill="#bdcefa" />
    <path
        d="m175.45 380-18.2 10.51a2.71 2.71 0 0 1 -2.45-.11l-12-6.9c-.72-.42-.8-1.05-.17-1.41l18.2-10.51a2.69 2.69 0 0 1 2.44.11l12 6.9c.73.42.81 1.05.18 1.41z"
        fill="url(#E)" />
    <path
        d="m206.36 370.22-42.17 24.34a2.48 2.48 0 0 1 -2.28-.09c-.67-.39-.74-1-.16-1.31l42.17-24.35a2.54 2.54 0 0 1 2.28.1c.73.39.73 1 .16 1.31z"
        fill="url(#F)" />
    <path
        d="m211 372.89-42.17 24.35a2.51 2.51 0 0 1 -2.28-.1c-.67-.38-.75-1-.17-1.3l42.18-24.35a2.51 2.51 0 0 1 2.28.09c.64.36.73.98.16 1.31z"
        fill="url(#G)" />
    <path
        d="m215.62 375.56-42.17 24.35a2.51 2.51 0 0 1 -2.28-.09c-.67-.39-.75-1-.17-1.31l42.2-24.29a2.52 2.52 0 0 1 2.27.09c.66.33.73.92.15 1.25z"
        fill="url(#H)" />
    <path
        d="m196.42 392-18.34 10.59a2.48 2.48 0 0 1 -2.28-.09c-.67-.38-.75-1-.17-1.31l18.37-10.6a2.49 2.49 0 0 1 2.27.09c.67.39.73.98.15 1.32z"
        fill="url(#I)" />
    <path
        d="m199.28 366.25-18.21 10.5a2.67 2.67 0 0 1 -2.43-.1l-12-7c-.72-.42-.8-1-.17-1.41l18.2-10.5a2.78 2.78 0 0 1 2.45.1l12 6.92c.7.46.77 1.08.15 1.48z"
        fill="url(#J)" />
    <path
        d="m231.3 384.71-42 24.26a2.76 2.76 0 0 1 -2.44-.11l-5.69-3.31c-.73-.42-.81-1-.18-1.41l42-24.23a2.67 2.67 0 0 1 2.43.09l5.69 3.31c.77.41.88 1 .22 1.4z"
        fill="url(#K)" />
    <path
        d="m236.92 389.28-45.12 26.05a8 8 0 0 1 -7.14-.3l-47.27-27.31a2.87 2.87 0 0 1 -1.74-2.38v1.79a2.88 2.88 0 0 0 1.74 2.41l47.27 27.31a7.92 7.92 0 0 0 7.14.3l45.12-26a2.13 2.13 0 0 0 1.23-1.75v-1.79a2.12 2.12 0 0 1 -1.23 1.72z"
        fill="#bdcefa" />
    <path
        d="m236.92 387.87-45.12 26.06a8 8 0 0 1 -7.14-.31l-47.27-27.31a3.65 3.65 0 0 1 -1.57-1.61c-.46 1 .08 2.17 1.57 3l47.27 27.3a8 8 0 0 0 7.14.3l45.12-26.05a1.93 1.93 0 0 0 1.07-2.51 2.4 2.4 0 0 1 -1.07 1.13z"
        fill="url(#L)" />
    <path
        d="m236.92 392.51-45.12 26.08a8 8 0 0 1 -7.14-.29l-47.27-27.3a2.9 2.9 0 0 1 -1.74-2.38v1.79a2.91 2.91 0 0 0 1.74 2.41l47.27 27.31a8 8 0 0 0 7.14.29l45.12-26a2.13 2.13 0 0 0 1.23-1.75v-1.79a2.1 2.1 0 0 1 -1.23 1.68z"
        fill="#bdcefa" />
    <path
        d="m236.92 391.09-45.12 26.05a8 8 0 0 1 -7.14-.3l-47.27-27.31a3.65 3.65 0 0 1 -1.57-1.61c-.46 1 .08 2.17 1.57 3l47.27 27.31a8 8 0 0 0 7.14.3l45.12-26.05a1.93 1.93 0 0 0 1.08-2.48 2.4 2.4 0 0 1 -1.07 1.11z"
        fill="url(#M)" />
    <path
        d="m236.92 395.75-45.12 26a8 8 0 0 1 -7.14-.29l-47.27-27.31a2.9 2.9 0 0 1 -1.74-2.38v1.78a2.91 2.91 0 0 0 1.74 2.42l47.27 27.31a8 8 0 0 0 7.14.29l45.12-26a2.13 2.13 0 0 0 1.23-1.76v-1.81a2.14 2.14 0 0 1 -1.23 1.75z"
        fill="#bdcefa" />
    <path
        d="m236.92 394.32-45.12 26.05a7.92 7.92 0 0 1 -7.14-.3l-47.27-27.31a3.67 3.67 0 0 1 -1.57-1.62c-.46 1 .08 2.17 1.57 3l47.27 27.31a7.92 7.92 0 0 0 7.14.3l45.12-26a1.92 1.92 0 0 0 1.07-2.51 2.35 2.35 0 0 1 -1.07 1.11z"
        fill="url(#N)" />
    <path
        d="m236.92 399-45.12 26a8 8 0 0 1 -7.14-.29l-47.27-27.31a2.9 2.9 0 0 1 -1.74-2.38v1.79a2.91 2.91 0 0 0 1.74 2.41l47.27 27.31a8 8 0 0 0 7.14.3l45.12-26.05a2.11 2.11 0 0 0 1.23-1.74v-1.79a2.14 2.14 0 0 1 -1.23 1.75z"
        fill="#bdcefa" />
    <path
        d="m236.92 397.55-45.12 26.05a7.92 7.92 0 0 1 -7.14-.3l-47.27-27.3a3.67 3.67 0 0 1 -1.57-1.62c-.46 1 .08 2.17 1.57 3l47.27 27.31a8 8 0 0 0 7.14.29l45.12-26a1.94 1.94 0 0 0 1.07-2.52 2.38 2.38 0 0 1 -1.07 1.09z"
        fill="url(#O)" />
    <path
        d="m236.92 402.21-45.12 26a8 8 0 0 1 -7.14-.29l-47.27-27.31a2.92 2.92 0 0 1 -1.74-2.38v1.78a2.92 2.92 0 0 0 1.74 2.42l47.27 27.31a8 8 0 0 0 7.14.29l45.12-26a2.11 2.11 0 0 0 1.23-1.74v-1.79a2.13 2.13 0 0 1 -1.23 1.71z"
        fill="#bdcefa" />
    <path
        d="m236.92 400.79-45.12 26a8 8 0 0 1 -7.14-.29l-47.27-27.31a3.67 3.67 0 0 1 -1.57-1.62c-.46 1 .08 2.17 1.57 3l47.27 27.43a8 8 0 0 0 7.14.29l45.12-26a1.94 1.94 0 0 0 1.07-2.54 2.42 2.42 0 0 1 -1.07 1.12z"
        fill="url(#P)" />
    <path
        d="m236.92 405.44-45.12 26.05a8 8 0 0 1 -7.14-.3l-47.27-27.31a2.9 2.9 0 0 1 -1.74-2.39v1.79a2.89 2.89 0 0 0 1.74 2.41l47.27 27.31a8 8 0 0 0 7.14.3l45.12-26.09a2.12 2.12 0 0 0 1.23-1.74v-1.78a2.15 2.15 0 0 1 -1.23 1.75z"
        fill="#bdcefa" />
    <path
        d="m236.92 404-45.12 26a8 8 0 0 1 -7.14-.29l-47.27-27.31a3.62 3.62 0 0 1 -1.57-1.62c-.46 1 .08 2.18 1.57 3l47.27 27.31a8 8 0 0 0 7.14.3l45.12-26.05a1.94 1.94 0 0 0 1.08-2.44 2.37 2.37 0 0 1 -1.08 1.1z"
        fill="url(#Q)" />
    <path
        d="m345.75 304.36 45.11 26.05a8 8 0 0 0 7.16-.3l47.26-27.31c2.1-1.21 2.34-3.07.51-4.13l-45.12-26a7.93 7.93 0 0 0 -7.13.32l-47.26 27.3c-2.13 1.2-2.35 3.05-.53 4.11z"
        fill="#fff" />
    <path
        d="m345.75 304.36 45.11 26.05a8 8 0 0 0 7.16-.3l47.26-27.31a2.89 2.89 0 0 0 1.74-2.37v1.78a2.87 2.87 0 0 1 -1.74 2.41l-47.28 27.31a8 8 0 0 1 -7.16.31l-45.11-26.07a2.11 2.11 0 0 1 -1.23-1.74v-1.79a2.14 2.14 0 0 0 1.23 1.72z"
        fill="#bdcefa" />
    <path
        d="m376.31 288.53 42.17 24.34a2.51 2.51 0 0 0 2.28-.09c.66-.38.74-1 .15-1.31l-42.16-24.35a2.57 2.57 0 0 0 -2.28.09c-.67.4-.74 1-.16 1.32z"
        fill="url(#R)" />
    <path
        d="m371.68 291.15 42.17 24.35a2.52 2.52 0 0 0 2.27-.09c.68-.39.74-1 .16-1.31l-42.17-24.35a2.55 2.55 0 0 0 -2.27.09c-.67.44-.74 1.03-.16 1.31z"
        fill="url(#S)" />
    <path
        d="m367.05 293.87 42.17 24.35a2.49 2.49 0 0 0 2.27-.09c.67-.39.74-1 .16-1.31l-42.17-24.35a2.55 2.55 0 0 0 -2.27.09c-.67.44-.74.98-.16 1.31z"
        fill="url(#T)" />
    <path
        d="m386.24 310.3 18.36 10.6a2.49 2.49 0 0 0 2.27-.1c.67-.38.74-1 .16-1.3l-18.34-10.6a2.54 2.54 0 0 0 -2.28.09c-.68.37-.75 1.01-.17 1.31z"
        fill="url(#U)" />
    <path
        d="m383.39 284.53 42 24.29a2.67 2.67 0 0 0 2.43-.1l12-6.91c.73-.42.8-1 .19-1.41l-42-24.29a2.69 2.69 0 0 0 -2.44.1l-12 7c-.73.33-.81.95-.18 1.32z"
        fill="url(#V)" />
    <path
        d="m351.44 303 42 24.26a2.73 2.73 0 0 0 2.43-.1l5.69-3.31c.72-.43.8-1.05.17-1.42l-42-24.26a2.81 2.81 0 0 0 -2.45.11l-5.68 3.31c-.77.41-.85 1.07-.16 1.41z"
        fill="url(#W)" />
    <path
        d="m345.75 307.59 45.11 26.05a8 8 0 0 0 7.16-.3l47.26-27.34a2.87 2.87 0 0 0 1.74-2.36v1.78a2.89 2.89 0 0 1 -1.74 2.42l-47.28 27.34a8 8 0 0 1 -7.16.29l-45.11-26.06a2.13 2.13 0 0 1 -1.23-1.75v-1.78a2.12 2.12 0 0 0 1.23 1.71z"
        fill="#bdcefa" />
    <path
        d="m345.75 306.17 45.11 26.06a8 8 0 0 0 7.16-.31l47.26-27.31a3.6 3.6 0 0 0 1.57-1.61c.45 1-.08 2.17-1.57 3l-47.28 27.33a8 8 0 0 1 -7.16.3l-45.11-26a1.93 1.93 0 0 1 -1.08-2.51 2.47 2.47 0 0 0 1.07 1.1z"
        fill="url(#X)" />
    <path
        d="m345.75 310.83 45.11 26a8 8 0 0 0 7.16-.29l47.26-27.31a2.92 2.92 0 0 0 1.74-2.38v1.78a2.89 2.89 0 0 1 -1.74 2.42l-47.28 27.35a8 8 0 0 1 -7.16.29l-45.11-26a2.16 2.16 0 0 1 -1.23-1.76v-1.78a2.14 2.14 0 0 0 1.23 1.72z"
        fill="#bdcefa" />
    <path
        d="m345.75 309.36 45.11 26a8 8 0 0 0 7.16-.29l47.26-27.31a3.62 3.62 0 0 0 1.57-1.62c.45 1-.08 2.16-1.57 3l-47.28 27.38a8 8 0 0 1 -7.16.29l-45.11-26a1.94 1.94 0 0 1 -1.08-2.52 2.54 2.54 0 0 0 1.07 1.06z"
        fill="url(#Y)" />
    <path
        d="m345.75 314.06 45.11 26a8 8 0 0 0 7.16-.3l47.26-27.3a2.92 2.92 0 0 0 1.72-2.36v1.78a2.89 2.89 0 0 1 -1.74 2.42l-47.26 27.3a8 8 0 0 1 -7.16.31l-45.11-26a2.13 2.13 0 0 1 -1.23-1.74v-1.79a2.14 2.14 0 0 0 1.23 1.72z"
        fill="#bdcefa" />
    <path
        d="m345.75 312.63 45.11 26.05a8 8 0 0 0 7.16-.3l47.26-27.3a3.47 3.47 0 0 0 1.57-1.62c.45 1-.08 2.17-1.57 3l-47.28 27.35a8 8 0 0 1 -7.16.29l-45.11-26a1.94 1.94 0 0 1 -1.08-2.52 2.42 2.42 0 0 0 1.07 1.1z"
        fill="url(#Z)" />
    <ellipse cx="267.63" cy="453.22" fill="#fff" rx="23.42" ry="13.52" />
    <path
        d="m284.2 462.79c-9.1 5.28-24 5.28-33.12 0-4.56-2.62-6.83-6.05-6.83-9.48v8.34c0 3.48 2.27 7 6.83 9.64 9.1 5.28 24 5.28 33.12 0 4.61-2.66 6.88-6.16 6.83-9.64v-8.34c-.03 3.43-2.3 6.86-6.83 9.48z"
        fill="url(#aa)" />
    <path
        d="m253.26 449.5c8-4.55 20.81-4.55 28.75 0a11.65 11.65 0 0 1 5.57 6c1.27-3.72-.58-7.72-5.57-10.6-8-4.55-20.81-4.55-28.75 0-5 2.88-6.83 6.83-5.56 10.6a11.63 11.63 0 0 1 5.56-6z"
        fill="url(#ab)" />
    <path
        d="m282 449.5c-8-4.55-20.82-4.55-28.76 0a11.69 11.69 0 0 0 -5.56 6 11.67 11.67 0 0 0 5.56 6c8 4.55 20.81 4.55 28.76 0a11.71 11.71 0 0 0 5.56-6 11.73 11.73 0 0 0 -5.56-6z"
        fill="#00e9ff" />
    <path
        d="m265.9 365.47h-2.66v-2.63a.89.89 0 0 0 -1.78 0v2.66h-2.66a.88.88 0 0 0 -.88.89.89.89 0 0 0 .88.89h2.66v2.72a.89.89 0 0 0 1.78 0v-2.67h2.66a.89.89 0 0 0 0-1.78z"
        fill="#00e9ff" />
    <path
        d="m280.47 387.4h-2.67v-2.66a.87.87 0 0 0 -.89-.88.88.88 0 0 0 -.88.88v2.66h-2.66a.89.89 0 0 0 0 1.78h2.63v2.66a.89.89 0 1 0 1.77 0v-2.66h2.67a.89.89 0 0 0 0-1.78z"
        fill="#00e9ff" />
    <path
        d="m263.35 415.58h-2.66v-2.68a.89.89 0 0 0 -1.77 0v2.67h-2.67a.87.87 0 0 0 -.88.88.87.87 0 0 0 .87.88h2.68v2.67a.89.89 0 1 0 1.77 0v-2.66h2.66a.87.87 0 0 0 .89-.86.89.89 0 0 0 -.89-.89z"
        fill="#00e9ff" />
    <path
        d="m275.41 436.52h-2.66v-2.67a.89.89 0 1 0 -1.77 0v2.67h-2.61a.87.87 0 0 0 -.88.88.88.88 0 0 0 .88.89h2.63v2.71a.89.89 0 0 0 1.78 0v-2.66h2.66a.89.89 0 1 0 0-1.77z"
        fill="#00e9ff" />
    <g fill="#0382ff">
        <circle cx="271.86" cy="375.24" r="1.89" />
        <path d="m280.69 405.79a1.89 1.89 0 1 1 -1.88-1.89 1.89 1.89 0 0 1 1.88 1.89z" />
        <path d="m266.52 426.64a1.89 1.89 0 1 1 -1.89-1.89 1.89 1.89 0 0 1 1.89 1.89z" />
        <path d="m272.92 412a1.89 1.89 0 1 1 -1.89-1.89 1.9 1.9 0 0 1 1.89 1.89z" />
        <path d="m258.4 405.79a1.89 1.89 0 1 1 -1.89-1.89 1.89 1.89 0 0 1 1.89 1.89z" />
        <path d="m265.62 388.72a1.89 1.89 0 1 1 -1.89-1.88 1.89 1.89 0 0 1 1.89 1.88z" />
        <path d="m278.81 361.34a1.89 1.89 0 1 1 -1.89-1.89 1.9 1.9 0 0 1 1.89 1.89z" />
        <path d="m259.8 355.61a1.89 1.89 0 1 1 -1.89-1.89 1.89 1.89 0 0 1 1.89 1.89z" />
    </g>
    <path d="m251.87 381.62 4.75-4.75 4.75 4.75-4.75 4.74z" fill="#3a55ca" />
    <path d="m266.25 349.47 4.75-4.75 4.75 4.75-4.75 4.74z" fill="#3a55ca" />
    <path d="m274.05 420.32 4.75-4.74 4.75 4.74-4.75 4.75z" fill="#3a55ca" />
    <path d="m260.86 399.66 4.75-4.75 4.75 4.75-4.75 4.75z" fill="#3a55ca" />
    <path
        d="m247.34 452.73c-.21 3.16 1.74 6.36 5.92 8.77 8 4.55 20.81 4.55 28.75 0 4.18-2.41 6.14-5.61 5.92-8.77v-143.54c.22-3.17-1.74-6.36-5.92-8.78-8-4.55-20.81-4.55-28.75 0-4.18 2.42-6.13 5.61-5.92 8.78z"
        fill="url(#ac)" />
    <path
        d="m103.82 226.67-83.06 48c-6.51 3.76-11.83 13-11.83 20.48v10c0 7.51 5.32 10.58 11.83 6.83l61.84-35.7-3.79 19.42 21.41-29.7 3.6-2.09c6.51-3.76 11.83-13 11.83-20.48v-10c0-7.46-5.32-10.57-11.83-6.78z"
        fill="url(#ad)" />
    <path
        d="m102.68 242.94-80.78 46.65c-.85.49-1.53 0-1.53-1.14a3.61 3.61 0 0 1 1.53-2.91l80.78-46.65c.85-.49 1.53 0 1.53 1.14a3.6 3.6 0 0 1 -1.53 2.91z"
        fill="url(#ae)" />
    <path
        d="m61.28 277.37-39.61 22.88c-.73.43-1.32 0-1.32-1v-.53a3.15 3.15 0 0 1 1.32-2.53l39.61-22.89c.73-.42 1.32 0 1.32 1v.53a3.22 3.22 0 0 1 -1.32 2.54z"
        fill="url(#af)" />
    <path
        d="m151.07 279.26c0 .3.21.56.61.82.12.07 0-1.64.39-1.35.11.08 5.59 4.34 8.65 3.56a.65.65 0 0 0 .45-.66v-.72c0-.77-1.14-2-2.87-3.66-1.92-1.89-3.15-3.06-6-1.4-.83.47-1.14.84-1.14 1.13z" />
    <path
        d="m158.3 277.28c2.34 2.28 3.61 3.61 2.42 4.3s-3.6-.35-6.06-2.21c-2.15-1.62-5.29-1.82-2.4-3.49s4.12-.49 6.04 1.4z"
        fill="#484968" />
    <path
        d="m156 276-.15-17.92a2.08 2.08 0 0 0 -1.35-1.94l-1.4-.55-5.89 3.91 2.88 1.47a27.57 27.57 0 0 0 .87 9.61s1 2 .8 6.72c0 0 3.14 1 4.24-1.3z"
        fill="#f1ac85" />
    <path
        d="m142.46 283.54c0 .31.21.57.62.82.11.08 0-1.63.37-1.34.12.08 5.6 4.34 8.65 3.56a.67.67 0 0 0 .47-.66v-.69c0-.78-1.14-2-2.87-3.67-1.93-1.88-3.16-3.05-6-1.39-.82.48-1.14.83-1.14 1.14z" />
    <path
        d="m149.7 281.56c2.28 2.27 3.61 3.62 2.4 4.31s-3.58-.35-6-2.21c-2.15-1.62-5.29-1.82-2.41-3.49s4.07-.49 6.01 1.39z"
        fill="#484968" />
    <path
        d="m147.36 280.48-.17-21-6.94 2.28 1.19 3.41a25.07 25.07 0 0 0 .88 9.2s1 2 .78 6.72c0 0 2.55 1.44 4.26-.61z"
        fill="#f1ac85" />
    <path d="m141.14 238.13s7.74-7 3-19.53l-3.62 13z" fill="#943bbb" />
    <path
        d="m150.3 255.25a2.27 2.27 0 0 1 -2.83-1.53l-6.19-21.12a2.27 2.27 0 1 1 4.36-1.29l6.2 21.15a2.27 2.27 0 0 1 -1.54 2.79z"
        fill="#f1ac85" />
    <path d="m144 249.64 10.5 6.48s-3.65-.9-13 9.1l-10.33-6z" fill="#8800bf" />
    <path
        d="m132.46 260.11a.8.8 0 0 0 .3.09c1.52.11 7-1.07 12.52-7.25a2.9 2.9 0 0 0 .74-1.77v-17.5a2.93 2.93 0 0 0 -1.23-2.68l-4.17-2.43a2.86 2.86 0 0 0 -2.93.26l-5.61 3.24a9.09 9.09 0 0 0 -4.13 7.15v17.61a.89.89 0 0 0 .39.85z"
        fill="#ffffeb" />
    <path
        d="m133.09 233.2a1.46 1.46 0 0 0 .84 1.21 4.58 4.58 0 0 0 4.11 0 1.46 1.46 0 0 0 .85-1.21v-3.81a1.41 1.41 0 0 0 -.85-1.21 4.58 4.58 0 0 0 -4.11 0 1.43 1.43 0 0 0 -.84 1.21z"
        fill="#dd936f" />
    <circle cx="135.99" cy="223.29" fill="#f1ac85" r="7.99" />
    <path
        d="m138.36 238.13s-5.94-6.56-1.82-18.69l7.39 2.55s2.55-6.31-5.81-8.13c0 0-5.59-1.21-7.52 3.41 0 0-4.5.36-2.8 9.58 0 0 .25 8.73 10.56 11.28z"
        fill="#943bbb" />
    <path d="m157.8 255.15-15.05 8.67-11.55-6.3 15.41-8.82z" fill="#bdcefa" />
    <path d="m157.8 255.15 2.37-15.1-16.72 9.65-.7 14.12z" fill="url(#ag)" />
    <path
        d="m145.73 255.79a2.29 2.29 0 0 1 -3.21-.26l-14.21-16.64a2.27 2.27 0 0 1 .25-3.21 2.27 2.27 0 0 1 3.21.26l14.23 16.64a2.27 2.27 0 0 1 -.25 3.21z"
        fill="#f1ac85" />
    <path
        d="m263.09 270.41c-.27.12-.37.45-.4.91 0 .13 1.37-.79 1.32-.32 0 .14-1 6.83 1.14 9a.62.62 0 0 0 .77.07l.58-.32c.69-.34 1.14-1.88 1.73-4.18.68-2.52 1.09-4.12-1.7-5.77-.8-.46-1.25-.58-1.52-.43z"
        fill="#010400" />
    <path
        d="m268.21 275.57c-.81 3.06-1.33 4.78-2.48 4.1s-1.42-3.21-1-6.17c.34-2.58-1-5.33 1.79-3.7s2.36 3.25 1.69 5.77z"
        fill="#484968" />
    <path
        d="m286.16 256.05-5.69 2.09-2.28 2.64a24.68 24.68 0 0 0 -7.35 5.12s-1.23 1.8-5.29 3.88c0 0 0 2.85 2.54 3.3l16.21-9.37a4.18 4.18 0 0 0 2-3.12 18.16 18.16 0 0 0 -.18-4.54z"
        fill="#e28c66" />
    <path
        d="m274.14 284.84c0 .29.2.54.6.79.12.07 0-1.58.37-1.31.11.08 5.43 4.21 8.39 3.42a.63.63 0 0 0 .44-.64v-.66c0-.76-1.07-1.9-2.78-3.56s-3.06-3-5.86-1.34c-.8.45-1.14.8-1.14 1.13z"
        fill="#2d0d60" />
    <path
        d="m281.16 282.91c2.28 2.21 3.51 3.51 2.34 4.18s-3.49-.34-5.87-2.14c-2.08-1.57-5.13-1.76-2.27-3.41s3.93-.45 5.8 1.37z"
        fill="#484968" />
    <path
        d="m278.89 281.87-.16-20.3-5.52 1.78v3.71a24.42 24.42 0 0 0 .85 8.92s1 2 .76 6.52c-.05-.05 2.43 1.35 4.07-.63z"
        fill="#f1ac85" />
    <path
        d="m294 253.34a2.19 2.19 0 0 1 -2.91-1.12l-8.74-19.34a2.28 2.28 0 0 1 1.14-2.93 2.21 2.21 0 0 1 2.9 1.11l8.74 19.35a2.2 2.2 0 0 1 -1.11 2.91z"
        fill="#e28c66" />
    <path d="m294.79 251.14-13.67-7.89v-11l13.67 7.9z" fill="#bdcefa" />
    <path d="m291.42 248.17v-8.37l.3.17v8.36z" fill="url(#ah)" />
    <path d="m290.76 245.31v-5.9l.3.17v5.9z" fill="url(#ai)" />
    <path d="m290.1 246.76v-7.76l.3.17v7.71z" fill="url(#aj)" />
    <path d="m289.44 247v-8.37l.3.17v8.38z" fill="url(#ak)" />
    <path d="m288.78 241.34v-3.07l.29.17v3.07z" fill="url(#al)" />
    <path d="m269.62 256.75v7.52s8.81 3 17.07-7.52v-7.27z" fill="url(#am)" />
    <path
        d="m273.62 259.09a.78.78 0 0 0 .27.09c1.48.11 6.83-1 12.1-7a2.79 2.79 0 0 0 .71-1.73v-17a2.79 2.79 0 0 0 -1.14-2.59l-4-2.28a2.77 2.77 0 0 0 -2.84.26l-5.5 3.14a8.82 8.82 0 0 0 -4 6.92v17.1a.86.86 0 0 0 .38.82z"
        fill="#b6b9fe" />
    <path
        d="m275.2 233a1.39 1.39 0 0 0 .83 1.14 4.37 4.37 0 0 0 4 0 1.36 1.36 0 0 0 .82-1.14v-3.7a1.36 1.36 0 0 0 -.82-1.14 4.37 4.37 0 0 0 -4 0 1.39 1.39 0 0 0 -.83 1.14z"
        fill="#dd936f" />
    <path
        d="m260.13 257.29a2.28 2.28 0 0 1 -1-3l9.61-19a2.2 2.2 0 0 1 3.94 2l-9.6 19a2.22 2.22 0 0 1 -2.95 1z"
        fill="#f9ab83" />
    <path
        d="m285.13 221.27 2.78 10.8a1.26 1.26 0 0 1 -.88 1.54 1.28 1.28 0 0 1 -.82-.06l-6.4-2.71a1.23 1.23 0 0 1 -.75-1.4l2.09-10.62a1.26 1.26 0 0 1 2.28-.42l1.52 2.49a1.46 1.46 0 0 1 .18.38z"
        fill="#2d0d60" />
    <path
        d="m275.38 227.74c0 .93-.65 1.31-1.44.84a3.18 3.18 0 0 1 -1.45-2.52c0-.92.65-1.29 1.45-.83a3.2 3.2 0 0 1 1.44 2.51z"
        fill="#f9ab83" />
    <circle cx="277.93" cy="223.33" fill="#f9ab83" r="7.75" />
    <path
        d="m270.4 224.37s6.55 3.58 9.74-5.76a5.38 5.38 0 0 0 6 3.07 7.59 7.59 0 0 0 -6.34-7.32s-11.25-1.13-9.4 10.01z"
        fill="#2d0d60" />
    <path
        d="m274.06 224.68 2.79 10.8a1.26 1.26 0 0 1 -.91 1.53 1.22 1.22 0 0 1 -.8-.06l-6.46-2.69a1.27 1.27 0 0 1 -.75-1.41l2.1-10.63a1.26 1.26 0 0 1 1.53-.93 1.28 1.28 0 0 1 .75.52l1.52 2.49a1.14 1.14 0 0 1 .23.38z"
        fill="#2d0d60" />
    <path
        d="m318.61 390.67a2.13 2.13 0 0 0 2.82-1.05l6.83-15.18a2.13 2.13 0 1 0 -3.88-1.75l-6.83 15.17a2.13 2.13 0 0 0 1.05 2.82z"
        fill="#fcc4b7" />
    <path d="m322.28 374.58 2.28-4.89a3.3 3.3 0 1 1 6 2.73l-2.28 4.89s-3.36 1.82-6-2.73z"
        fill="#bdcefa" />
    <path
        d="m332.33 390.75a1.43 1.43 0 0 1 .15.64v7.25a3.32 3.32 0 0 1 -6.46.09v-9.2a.83.83 0 0 1 .56-.78 4.55 4.55 0 0 1 5.75 2z"
        fill="#2d2d4f" />
    <path
        d="m347.46 405.12c.86.38.29 2.61.32 4.77 0 3-.59 5.84-1.91 6.63a.87.87 0 0 1 -.89.09l-1.33-.74c-.78-.37-1.31-2.14-2-4.76-.8-2.91-1.28-4.74 1.91-6.65.91-.54 1.43-.67 1.73-.51z"
        fill="#010400" />
    <path
        d="m341.63 411.11c.95 3.49 1.57 5.46 2.89 4.66s1.6-3.68 1.14-7.08c-.43-3 1.13-6.13-2.1-4.23s-2.73 3.74-1.93 6.65z"
        fill="#1c1c38" />
    <path
        d="m341 408.35a1.39 1.39 0 0 1 -.63-.18l-13.13-7.28a3.32 3.32 0 0 1 3.14-5.65l14.79 8.22a.84.84 0 0 1 .41.89 4.55 4.55 0 0 1 -4.58 4z"
        fill="#2d2d4f" />
    <path
        d="m339 419.19c.09.93-2.14 1.51-4 2.59-2.6 1.5-5.4 2.28-6.74 1.55a.88.88 0 0 1 -.5-.73v-1.54c0-.86 1.24-2.17 3.18-4.07 2.15-2.09 3.52-3.41 6.74-1.55.91.53 1.29.92 1.29 1.26z"
        fill="#010400" />
    <path
        d="m331 417c-2.59 2.53-4 4-2.68 4.79s4-.39 6.74-2.46c2.4-1.81 5.89-2 2.68-3.88s-4.64-.55-6.74 1.55z"
        fill="#1c1c38" />
    <path
        d="m333 415.18a1.17 1.17 0 0 1 -.16-.64v-22.32a3.32 3.32 0 0 1 6.46 0v24.23a.82.82 0 0 1 -.57.78 4.55 4.55 0 0 1 -5.73-2.05z"
        fill="#46466c" />
    <path
        d="m338.28 396.22a.62.62 0 0 1 -.27.09c-1.43.12-6.57-1-11.7-6.82a2.68 2.68 0 0 1 -.7-1.68v-16.38a2.67 2.67 0 0 1 1.13-2.5l3.86-2.28a2.69 2.69 0 0 1 2.76.25l5.26 3a8.57 8.57 0 0 1 3.87 6.7v16.51a.84.84 0 0 1 -.37.8z"
        fill="#fff" />
    <path
        d="m336.78 371a1.33 1.33 0 0 1 -.8 1.14 4.2 4.2 0 0 1 -3.84 0 1.33 1.33 0 0 1 -.8-1.14v-3.59a1.33 1.33 0 0 1 .8-1.14 4.26 4.26 0 0 1 3.84 0 1.31 1.31 0 0 1 .8 1.14z"
        fill="#e5a89c" />
    <path
        d="m351.31 394.48a2.15 2.15 0 0 0 .95-2.87l-7.53-14.87a2.12 2.12 0 0 0 -2.84-.94 2.15 2.15 0 0 0 -.95 2.87l7.51 14.86a2.16 2.16 0 0 0 2.87.94z"
        fill="#fcc4b7" />
    <path d="m341.08 381.54-2.43-4.8a3.3 3.3 0 0 1 5.89-3l2.42 4.79s-.69 3.77-5.88 3z"
        fill="#bdcefa" />
    <path d="m326.49 361.7a7.5 7.5 0 1 0 7.5-7.5 7.5 7.5 0 0 0 -7.5 7.5z" fill="#fcc4b7" />
    <path
        d="m340.24 352.82c6.42 2.2 3.23 11.57-1.43 14.94-2.28-1.25.48-3.48-2.62-1.92-.62-3 .77-2.1-.07-5.89-3.27 1.7-9.6-.36-10.58-3.5 1.14-.51 2.27-3.73 5-4.91 3.38-1.54 7.76-.84 9.7 1.28z"
        fill="#e58800" fill-rule="evenodd" />
    <path
        d="m336.5 365.91c0 .89.62 1.25 1.4.81a3.13 3.13 0 0 0 1.39-2.44c0-.88-.62-1.25-1.39-.81a3.11 3.11 0 0 0 -1.4 2.44z"
        fill="#fcc4b7" />
    <path d="m0 0h500v500h-500z" fill="none" />
</svg>