<svg height="195" viewBox="0 0 155 195" width="155" xmlns="http://www.w3.org/2000/svg"><g fill="#2ea6d6"><path d="m.5 77.3c0-24.7 0-49.3-.1-73.9 0-2.5.4-3.3 3.2-3.3q74.1.1 148.2 0c2.2 0 2.9.5 2.9 2.8q-.1 74.3 0 148.5c0 2.4-.6 3.1-3.1 3.1-21.7-.1-43.5 0-65.2-.1-1.9 0-2.9.2-3.1 2.6-1 11.8-2.3 23.5-3.5 35.3-.1.7.3 1.8-.5 2.1-.7.2-1.3-.7-1.8-1.2-14.2-12.4-28.4-24.7-42.6-37.2-1.4-1.2-2.8-1.6-4.6-1.6-8.3.1-16.7.1-25.1.1-4.7 0-4.7 0-4.7-4.9q0-36.2 0-72.3zm65.3 83.2c.8-7.2 1.5-13.8 2-20.5.2-2 1-2.7 3.2-2.7 21.3.1 42.6.1 63.9.1 1.8 0 2.8-.1 2.8-2.4-.1-38.5-.1-77.1 0-115.7 0-1.5-.4-2-2-2q-58.1 0-116.2 0c-1.8 0-2.1.5-2.1 2.1q.1 57.8 0 115.5c0 2.1.7 2.6 2.6 2.5 5.8-.1 11.5 0 17.3 0 1.2 0 2.3.1 3.2 1 3.1 2.8 6.3 5.5 9.4 8.2 5.2 4.5 10.3 9 15.9 13.9z" fill-rule="evenodd"/><path d="m101.4 64.8c-1.9 2.7-3.7 5.2-5.5 7.9q-8.6 13.2-17.2 26.4c-.9 1.5-1.6 1.5-2.6 0-7.2-11-14.3-22-21.5-32.9-.3-.5-.7-.7-1.3-.7 0 17.1-.1 34.3.1 51.4 0 2.5-.8 2.9-3 2.9-4.5-.2-9.1-.2-13.7 0-1.6 0-1.9-.5-1.9-2q0-40.9 0-81.8c0-1.4.3-1.8 1.8-1.8q8.5.1 17 0c1.3 0 1.9.5 2.5 1.5q9.6 15.6 19.3 31c2.1 3.4 2.2 3.4 4.2.1q9.7-15.5 19.3-31c.7-1 1.3-1.6 2.6-1.6q8.5.1 17 0c1.5 0 1.8.5 1.8 1.8q-.1 40.9 0 81.8c0 1.5-.4 2-2 2-4.7-.2-9.4-.2-14.2 0-2.2.1-2.4-.8-2.3-2.6 0-17.4 0-34.7 0-52.1q-.2-.1-.4-.3z"/></g></svg>