<svg width="46" height="54" viewBox="0 0 46 54" fill="none" xmlns="http://www.w3.org/2000/svg">
<path d="M24.3303 51.6033H20.8056C20.5438 51.6033 20.2928 51.4993 20.1077 51.3142C19.9226 51.1292 19.8186 50.8781 19.8186 50.6163V33.8384H25.3172V50.6165C25.3173 51.1614 24.8754 51.6033 24.3303 51.6033Z" fill="#EE8700"/>
<path d="M19.8186 33.8384H25.3172V41.7765H19.8186V33.8384Z" fill="#CC7400"/>
<path d="M16.7005 0.960609L8.93752 52.7047C8.83521 53.3866 9.3633 54 10.053 54H12.9044C13.4628 54 13.9371 53.5916 14.0198 53.0394L21.7829 1.29526C21.8851 0.613301 21.357 6.22523e-09 20.6673 6.22523e-09H17.8159C17.2576 6.22523e-09 16.7833 0.408375 16.7005 0.960609ZM28.1842 6.22523e-09H25.3328C24.6432 6.22523e-09 24.1151 0.613301 24.2174 1.29526L31.9804 53.0394C32.0205 53.3065 32.1552 53.5504 32.3599 53.7267C32.5646 53.903 32.8257 54 33.0959 54H35.9472C36.6369 54 37.165 53.3867 37.0627 52.7047L29.2996 0.960609C29.2596 0.693435 29.125 0.449513 28.9203 0.273218C28.7155 0.0969238 28.4544 -2.83656e-05 28.1842 6.22523e-09Z" fill="#FF9811"/>
<path d="M30.2906 41.7765H35.4232L33.8936 31.5815H28.7611L30.2906 41.7765ZM10.5769 41.7765H15.7094L17.239 31.5815H12.1064L10.5769 41.7765Z" fill="#EE8700"/>
<path d="M42.2444 36.4014H3.75569C1.88689 36.4014 0.371826 34.8865 0.371826 33.0175V8.2364C0.371826 6.3676 1.88678 4.85254 3.75569 4.85254H42.2443C44.1131 4.85254 45.6282 6.36749 45.6282 8.2364V33.0178C45.6282 34.8865 44.1132 36.4014 42.2444 36.4014Z" fill="#FFC477"/>
<path d="M14.1863 11.8596C16.4037 8.9512 19.0732 6.60494 22.0023 4.85205H3.75569C1.88689 4.85205 0.371826 6.367 0.371826 8.23591V33.0172C0.371826 34.886 1.88689 36.401 3.75569 36.401H9.76044C7.19323 28.486 8.5543 19.247 14.1863 11.8596Z" fill="#FFB655"/>
<path d="M3.7557 33.5811C3.60615 33.5809 3.46278 33.5215 3.35704 33.4157C3.2513 33.31 3.19182 33.1666 3.19165 33.0171V8.23592C3.19182 8.08638 3.2513 7.94301 3.35704 7.83727C3.46278 7.73152 3.60615 7.67204 3.7557 7.67188H42.2443C42.3938 7.67204 42.5372 7.73152 42.643 7.83727C42.7487 7.94301 42.8082 8.08638 42.8083 8.23592V33.0172C42.8082 33.1667 42.7487 33.3101 42.643 33.4158C42.5372 33.5216 42.3938 33.5811 42.2443 33.5812H3.7557V33.5811Z" fill="#4E901E"/>
<path d="M14.1863 11.8595C15.3493 10.333 16.6657 8.9298 18.115 7.67188H3.7557C3.60615 7.67204 3.46278 7.73152 3.35704 7.83727C3.2513 7.94301 3.19182 8.08638 3.19165 8.23592V33.0172C3.19182 33.1667 3.2513 33.3101 3.35704 33.4158C3.46278 33.5216 3.60615 33.5811 3.7557 33.5812H9.02196C7.5686 26.3549 9.2116 18.3848 14.1863 11.8595Z" fill="#47821C"/>
<path d="M31.6946 37.6931H14.3056C13.6827 37.6931 13.1777 37.1881 13.1777 36.5652V32.3813C13.1777 31.7584 13.6827 31.2534 14.3056 31.2534H31.6947C32.3176 31.2534 32.8226 31.7584 32.8226 32.3813V36.5652C32.8226 37.1881 32.3176 37.6931 31.6946 37.6931Z" fill="#FFB655"/>
<path d="M18.115 36.5652V32.3813C18.115 31.7584 18.62 31.2534 19.2429 31.2534H14.3054C13.6825 31.2534 13.1775 31.7584 13.1775 32.3813V36.5652C13.1775 37.1881 13.6825 37.6931 14.3054 37.6931H19.2429C18.62 37.6931 18.115 37.1881 18.115 36.5652Z" fill="#FFA733"/>
<path d="M13.4292 19.9755H10.6811C10.521 19.9755 10.3644 19.9283 10.2309 19.8398C10.0974 19.7513 9.99292 19.6254 9.93055 19.4779C9.86818 19.3304 9.85065 19.1678 9.88017 19.0103C9.90969 18.8529 9.98493 18.7077 10.0965 18.5928L11.2705 17.3842L11.2788 17.3759C11.8256 16.8244 12.2501 16.0331 12.1187 15.8092C12.0769 15.738 12.0505 15.7312 12.0293 15.7257C11.853 15.6804 11.4926 15.8124 11.3107 15.9211C10.9275 16.1572 10.4276 16.036 10.1917 15.6527C9.95581 15.2695 10.0776 14.7662 10.461 14.5302C10.6301 14.4261 11.5195 13.9186 12.4227 14.144C12.8895 14.2605 13.2707 14.5512 13.5249 14.9848C14.2787 16.2709 13.0882 17.8041 12.6031 18.3457H13.4292C13.5362 18.3457 13.6422 18.3667 13.7411 18.4077C13.8399 18.4486 13.9298 18.5086 14.0054 18.5843C14.0811 18.66 14.1411 18.7498 14.1821 18.8487C14.223 18.9476 14.2441 19.0535 14.2441 19.1605C14.2441 19.2676 14.223 19.3735 14.1821 19.4724C14.1412 19.5713 14.0811 19.6611 14.0055 19.7368C13.9298 19.8125 13.84 19.8725 13.7411 19.9135C13.6422 19.9544 13.5362 19.9755 13.4292 19.9755Z" fill="white"/>
<path d="M10.0966 18.5927C9.98497 18.7076 9.9097 18.8528 9.88017 19.0102C9.85065 19.1676 9.86818 19.3303 9.93057 19.4778C9.95198 19.5285 9.97972 19.5749 10.01 19.6192C10.1912 19.0984 10.3881 18.5831 10.6004 18.0741L10.0966 18.5927ZM12.4229 14.144C11.5197 13.9186 10.6302 14.4261 10.4612 14.5302C10.078 14.7662 9.9562 15.2694 10.1919 15.6527C10.4276 16.0359 10.9276 16.1572 11.3108 15.9211C11.4058 15.8643 11.5492 15.8019 11.6899 15.7611C11.9718 15.2291 12.2709 14.7064 12.5866 14.1938C12.5329 14.1745 12.4782 14.1579 12.4229 14.144Z" fill="#DCF4CA"/>
<path d="M23.9687 19.9755H21.2206C21.0604 19.9755 20.9038 19.9283 20.7703 19.8398C20.6368 19.7513 20.5324 19.6254 20.47 19.4779C20.4076 19.3304 20.3901 19.1678 20.4196 19.0103C20.4491 18.8529 20.5244 18.7077 20.6359 18.5928L21.8099 17.3842L21.8183 17.3759C22.365 16.8244 22.7895 16.0331 22.6581 15.8092C22.6163 15.738 22.59 15.7312 22.5688 15.7257C22.3924 15.6804 22.032 15.8124 21.8501 15.9211C21.4669 16.1572 20.967 16.036 20.7312 15.6527C20.4953 15.2695 20.6171 14.7662 21.0004 14.5302C21.1695 14.4261 22.0589 13.9186 22.9622 14.144C23.429 14.2605 23.8101 14.5512 24.0643 14.9848C24.8181 16.2709 23.6277 17.8041 23.1425 18.3457H23.9687C24.0757 18.3457 24.1816 18.3667 24.2805 18.4077C24.3794 18.4486 24.4692 18.5086 24.5449 18.5843C24.6205 18.66 24.6806 18.7498 24.7215 18.8487C24.7625 18.9476 24.7835 19.0535 24.7835 19.1605C24.7835 19.2675 24.7625 19.3735 24.7215 19.4724C24.6806 19.5713 24.6205 19.6611 24.5449 19.7368C24.4692 19.8125 24.3794 19.8725 24.2805 19.9135C24.1816 19.9544 24.0757 19.9755 23.9687 19.9755ZM18.6832 16.9876H18.1399V16.4443C18.1399 16.3373 18.1189 16.2313 18.0779 16.1324C18.037 16.0336 17.977 15.9437 17.9013 15.8681C17.8256 15.7924 17.7358 15.7324 17.6369 15.6914C17.5381 15.6505 17.4321 15.6294 17.3251 15.6294C17.2181 15.6294 17.1121 15.6505 17.0132 15.6914C16.9144 15.7324 16.8245 15.7924 16.7489 15.8681C16.6732 15.9437 16.6132 16.0336 16.5722 16.1324C16.5313 16.2313 16.5102 16.3373 16.5102 16.4443V16.9876H15.967C15.8599 16.9875 15.754 17.0086 15.6551 17.0496C15.5562 17.0905 15.4664 17.1505 15.3907 17.2262C15.3151 17.3019 15.255 17.3917 15.2141 17.4906C15.1732 17.5894 15.1521 17.6954 15.1521 17.8024C15.1521 17.9094 15.1732 18.0154 15.2141 18.1143C15.255 18.2131 15.3151 18.303 15.3907 18.3786C15.4664 18.4543 15.5562 18.5143 15.6551 18.5553C15.754 18.5962 15.8599 18.6173 15.967 18.6173H16.5102V19.1605C16.5102 19.2675 16.5313 19.3735 16.5722 19.4724C16.6132 19.5712 16.6732 19.6611 16.7489 19.7367C16.8245 19.8124 16.9144 19.8724 17.0132 19.9134C17.1121 19.9543 17.2181 19.9754 17.3251 19.9754C17.4321 19.9754 17.5381 19.9543 17.6369 19.9134C17.7358 19.8724 17.8256 19.8124 17.9013 19.7367C17.977 19.6611 18.037 19.5712 18.0779 19.4724C18.1189 19.3735 18.1399 19.2675 18.1399 19.1605V18.6173H18.6832C18.7902 18.6173 18.8962 18.5962 18.995 18.5553C19.0939 18.5143 19.1837 18.4543 19.2594 18.3786C19.3351 18.303 19.3951 18.2131 19.436 18.1143C19.477 18.0154 19.4981 17.9094 19.498 17.8024C19.4981 17.6954 19.477 17.5894 19.436 17.4906C19.3951 17.3917 19.3351 17.3019 19.2594 17.2262C19.1837 17.1505 19.0939 17.0905 18.995 17.0496C18.8962 17.0086 18.7902 16.9875 18.6832 16.9876ZM29.2763 16.8956H27.1922C26.7421 16.8956 26.3773 16.5308 26.3773 16.0807C26.3773 15.6307 26.7421 15.2659 27.1922 15.2659H29.2763C29.7264 15.2659 30.0911 15.6307 30.0911 16.0807C30.0911 16.5308 29.7264 16.8956 29.2763 16.8956ZM29.2763 19.5032H27.1922C27.0852 19.5032 26.9792 19.4821 26.8804 19.4412C26.7815 19.4003 26.6917 19.3402 26.616 19.2646C26.5403 19.1889 26.4803 19.0991 26.4393 19.0002C26.3984 18.9013 26.3773 18.7954 26.3773 18.6883C26.3773 18.5813 26.3984 18.4754 26.4393 18.3765C26.4803 18.2776 26.5403 18.1878 26.616 18.1121C26.6917 18.0365 26.7815 17.9764 26.8804 17.9355C26.9792 17.8945 27.0852 17.8735 27.1922 17.8735H29.2763C29.3833 17.8735 29.4892 17.8945 29.5881 17.9355C29.687 17.9764 29.7768 18.0365 29.8525 18.1121C29.9281 18.1878 29.9882 18.2776 30.0291 18.3765C30.0701 18.4754 30.0911 18.5813 30.0911 18.6883C30.0911 18.7954 30.0701 18.9013 30.0291 19.0002C29.9882 19.0991 29.9281 19.1889 29.8525 19.2646C29.7768 19.3402 29.687 19.4003 29.5881 19.4412C29.4892 19.4821 29.3833 19.5032 29.2763 19.5032ZM35.3189 16.4986H35.1782V15.5584C35.1782 15.1083 34.8135 14.7435 34.3633 14.7435C33.9132 14.7435 33.5485 15.1083 33.5485 15.5584V16.4986H33.0373V14.9231C33.0373 14.8161 33.0162 14.7101 32.9753 14.6113C32.9343 14.5124 32.8743 14.4226 32.7986 14.3469C32.723 14.2712 32.6331 14.2112 32.5343 14.1703C32.4354 14.1293 32.3294 14.1082 32.2224 14.1083C32.1154 14.1082 32.0094 14.1293 31.9106 14.1703C31.8117 14.2112 31.7219 14.2712 31.6462 14.3469C31.5705 14.4226 31.5105 14.5124 31.4696 14.6113C31.4286 14.7101 31.4076 14.8161 31.4076 14.9231V17.3135C31.4076 17.4205 31.4286 17.5264 31.4696 17.6253C31.5105 17.7242 31.5705 17.814 31.6462 17.8897C31.7219 17.9653 31.8117 18.0254 31.9106 18.0663C32.0094 18.1073 32.1154 18.1283 32.2224 18.1283H33.5485V19.1605C33.5485 19.6106 33.9132 19.9754 34.3633 19.9754C34.8135 19.9754 35.1782 19.6106 35.1782 19.1605V18.1283H35.3189C35.4259 18.1283 35.5319 18.1073 35.6307 18.0663C35.7296 18.0254 35.8194 17.9653 35.8951 17.8897C35.9708 17.814 36.0308 17.7242 36.0717 17.6253C36.1127 17.5264 36.1337 17.4205 36.1337 17.3135C36.1337 17.2064 36.1127 17.1005 36.0717 17.0016C36.0308 16.9027 35.9708 16.8129 35.8951 16.7372C35.8194 16.6616 35.7296 16.6015 35.6307 16.5606C35.5319 16.5197 35.4259 16.4986 35.3189 16.4986Z" fill="white"/>
</svg>
