<svg width="20" height="28" viewBox="0 0 20 28" fill="none" xmlns="http://www.w3.org/2000/svg">
<path d="M8.89525 20.5968L4.45462 19.061L3.47486 19.1608L1.35743 25.2445C1.28995 25.4383 1.44696 25.6364 1.65105 25.615L4.61916 25.3042C4.66011 25.2999 4.7015 25.3047 4.74038 25.3183C4.77926 25.3318 4.81469 25.3537 4.84413 25.3825L6.97781 27.4691C7.12449 27.6125 7.3706 27.5547 7.43802 27.3609L9.56934 21.2375L8.89525 20.5968Z" fill="#98DB7C"/>
<path d="M9.56933 21.2375L10 20.0002L3.90429 17.9272L3.47491 19.1609C5.20586 20.396 7.30172 21.1521 9.56933 21.2375Z" fill="#82D361"/>
<path d="M11.1047 20.5968L15.5454 19.061L16.5251 19.1608L18.6426 25.2445C18.71 25.4383 18.5531 25.6364 18.349 25.615L15.3809 25.3042C15.3399 25.2999 15.2986 25.3047 15.2597 25.3183C15.2208 25.3318 15.1854 25.3537 15.156 25.3825L13.0223 27.4691C12.8756 27.6125 12.6295 27.5547 12.5621 27.3609L10.4308 21.2375L11.1047 20.5968Z" fill="#98DB7C"/>
<path d="M10.4307 21.2375L10 20.0002L16.0957 17.9272L16.5251 19.1609C14.7941 20.396 12.6983 21.1521 10.4307 21.2375Z" fill="#82D361"/>
<path d="M10 19.34C0.0124937 19.34 0.00420716 9.66295 0.0124933 9.49599C0.275014 4.20732 4.64618 0 10 0C15.3503 0 19.7192 4.20173 19.987 9.48539C19.9957 9.65585 19.987 19.34 10 19.34Z" fill="#E0E0E0"/>
<path d="M10 18.9921C4.64617 18.9921 0.275165 14.7848 0.0125907 9.49609C0.00422844 9.66396 3.01963e-05 9.83202 0 10.0001C0 15.5229 4.47716 20.0001 10 20.0001C15.5228 20.0001 20 15.5229 20 10.0001C20 9.83104 19.9957 9.66305 19.9874 9.49609C19.7248 14.7848 15.3538 18.9921 10 18.9921Z" fill="#CECECE"/>
<path d="M10 17.2518C2.12212 17.2518 2.12744 9.66258 2.13799 9.49589C2.39793 5.37993 5.8185 2.12207 10 2.12207C14.1815 2.12207 17.6021 5.37993 17.862 9.49589C17.8726 9.66258 17.862 17.2518 10 17.2518Z" fill="#9E9E9E"/>
<path d="M9.99998 16.8699C5.81854 16.8699 2.39856 13.6119 2.13862 9.49609C2.1278 9.66388 2.1223 9.83196 2.1221 10.0001C2.1221 14.3509 5.64915 17.878 9.99998 17.878C14.3508 17.878 17.8779 14.3509 17.8779 10.0001C17.8779 9.83071 17.8719 9.66279 17.8613 9.49609C17.6014 13.6119 14.1814 16.8699 9.99998 16.8699Z" fill="#898989"/>
<path d="M12.2677 14.6795H7.7522C7.20525 14.6795 6.78293 13.7274 6.82409 13.5098C6.93897 12.9019 7.20925 12.3341 7.60864 11.8617L10.7858 8.10666C11.0831 7.7553 10.9505 7.37672 10.9027 7.269C10.8447 7.13809 10.6641 6.83199 10.2436 6.81779C10.2311 6.81735 10.2186 6.81714 10.2061 6.81714C9.6154 6.81714 9.13486 7.29774 9.13486 7.88847C9.13486 8.43541 8.69144 8.87883 8.1445 8.87883C7.59756 8.87883 7.15414 8.43547 7.15414 7.88847C7.15414 6.20563 8.52324 4.83643 10.2061 4.83643C10.2409 4.83643 10.2756 4.83702 10.3101 4.8382C11.3631 4.87371 12.2838 5.49754 12.7133 6.46611C13.1493 7.44915 12.9901 8.56799 12.2979 9.38606L9.1207 13.1411C9.10903 13.1549 9.09757 13.1689 9.08638 13.1831H12.2678C12.6304 13.1831 12.9476 13.3781 13.1201 13.6689C13.2077 13.8166 12.8147 14.6795 12.2677 14.6795Z" fill="#E0E0E0"/>
<path d="M12.2677 14.1555H7.7522C7.32659 14.1555 6.96474 13.8866 6.82469 13.5098C6.7831 13.7285 6.76206 13.9506 6.76184 14.1733C6.76184 14.7202 7.20526 15.1636 7.7522 15.1636H12.2677C12.8147 15.1636 13.2581 14.7202 13.2581 14.1733C13.2581 13.989 13.2068 13.817 13.1192 13.6692C12.9466 13.96 12.6304 14.1555 12.2677 14.1555Z" fill="#CECECE"/>
</svg>
