<svg width="20" height="28" viewBox="0 0 20 28" fill="none" xmlns="http://www.w3.org/2000/svg">
<path d="M4.56708 19.1074L3.47492 19.1607L1.35743 25.2443C1.28995 25.4381 1.44696 25.6363 1.65105 25.6148L4.61916 25.3041C4.66011 25.2998 4.7015 25.3046 4.74038 25.3181C4.77926 25.3316 4.81469 25.3536 4.84413 25.3824L6.97781 27.4689C7.12449 27.6123 7.3706 27.5545 7.43802 27.3608L9.56934 21.2373L8.94088 20.6274L4.56708 19.1074Z" fill="#FF4755"/>
<path d="M9.56933 21.2375L10 20.0002L3.90429 17.9272L3.47491 19.1609C5.20586 20.396 7.30172 21.1521 9.56933 21.2375Z" fill="#FC2B3A"/>
<path d="M15.4329 19.1074L16.5251 19.1607L18.6426 25.2443C18.71 25.4381 18.553 25.6363 18.3489 25.6148L15.3808 25.3041C15.3399 25.2998 15.2985 25.3046 15.2596 25.3181C15.2208 25.3316 15.1853 25.3536 15.1559 25.3824L13.0222 27.4689C12.8756 27.6123 12.6294 27.5545 12.562 27.3608L10.4307 21.2373L11.0592 20.6274L15.4329 19.1074Z" fill="#FF4755"/>
<path d="M10.4307 21.2375L10 20.0002L16.0957 17.9272L16.5251 19.1609C14.7941 20.396 12.6983 21.1521 10.4307 21.2375Z" fill="#FC2B3A"/>
<path d="M10 19.3765C7.50084e-06 19.3765 0.00420478 9.66289 0.0124909 9.49593C0.275012 4.20732 4.64618 0 10 0C15.3538 0 19.725 4.20732 19.9875 9.49598C19.9958 9.66294 20 19.3765 10 19.3765Z" fill="#FFE27A"/>
<path d="M10 18.9921C4.64617 18.9921 0.275165 14.7848 0.0125907 9.49609C0.00422844 9.66396 3.01963e-05 9.83202 0 10.0001C0 15.5229 4.47716 20.0001 10 20.0001C15.5228 20.0001 20 15.5229 20 10.0001C20 9.83104 19.9957 9.66305 19.9874 9.49609C19.7248 14.7848 15.3538 18.9921 10 18.9921Z" fill="#F9CF58"/>
<path d="M10 17.2246C2.13799 17.2246 2.12745 9.49363 2.13799 9.32694C2.39793 5.21098 5.8185 1.95312 10 1.95312C14.1815 1.95312 17.6021 5.21098 17.862 9.32694C17.8726 9.49358 17.862 17.2246 10 17.2246Z" fill="#FFBA57"/>
<path d="M10 16.87C5.81855 16.87 2.39857 13.612 2.13863 9.49609C2.12782 9.66388 2.12231 9.83196 2.12212 10.0001C2.12212 14.3509 5.64917 17.878 10 17.878C14.3508 17.878 17.8779 14.3509 17.8779 10.0001C17.8779 9.83071 17.8719 9.66279 17.8614 9.49609C17.6014 13.612 14.1814 16.87 10 16.87Z" fill="#FFAC3E"/>
<path d="M10.4493 14.6795C9.90235 14.6795 9.45893 14.2362 9.45893 13.6892V8.139C9.45893 8.139 8.86636 8.73328 8.15736 8.37671C7.60455 8.09869 7.60455 7.38313 7.60455 7.38313L8.82558 5.32203C8.91323 5.17408 9.03789 5.0515 9.18729 4.96635C9.33669 4.88121 9.50569 4.83643 9.67765 4.83643H10.4493C10.9962 4.83643 11.4396 5.27979 11.4396 5.82678V13.6892C11.4396 14.2362 10.9962 14.6795 10.4493 14.6795Z" fill="#FFE27A"/>
<path d="M9.32284 7.36073C9.06 7.80447 8.50111 7.99688 8.03499 7.776C7.85523 7.69154 7.7051 7.55484 7.60422 7.38376C7.32921 7.84896 7.4781 8.44745 7.93599 8.7302C8.40819 9.02183 9.03918 8.84771 9.32198 8.37018L9.45897 8.13887V7.39791C9.45897 7.32355 9.36078 7.2967 9.32284 7.36073ZM10.4493 14.1556C9.90234 14.1556 9.45892 13.7123 9.45892 13.1653V14.1733C9.45892 14.7203 9.90234 15.1637 10.4493 15.1637C10.9962 15.1637 11.4396 14.7203 11.4396 14.1733V13.1653C11.4396 13.7123 10.9962 14.1556 10.4493 14.1556Z" fill="#F9CF58"/>
</svg>
