<svg width="20" height="28" viewBox="0 0 20 28" fill="none" xmlns="http://www.w3.org/2000/svg">
<path d="M8.8149 20.5439L4.68548 19.1674L3.47495 19.1606L1.35751 25.2444C1.29004 25.4381 1.44704 25.6363 1.65113 25.6149L4.61925 25.3041C4.66019 25.2998 4.70158 25.3046 4.74046 25.3181C4.77935 25.3317 4.81477 25.3536 4.84421 25.3824L6.9779 27.469C7.12457 27.6124 7.37068 27.5546 7.4381 27.3608L9.56942 21.2373L8.8149 20.5439Z" fill="#0083FD"/>
<path d="M9.56941 21.237L10.0001 19.9997L3.90437 17.9268L3.47499 19.1604C5.20594 20.3955 7.3018 21.1516 9.56941 21.237Z" fill="#0072FC"/>
<path d="M11.1852 20.5439L15.3146 19.1674L16.5251 19.1606L18.6426 25.2444C18.7101 25.4382 18.5531 25.6363 18.349 25.6149L15.3809 25.3041C15.3399 25.2999 15.2985 25.3046 15.2597 25.3182C15.2208 25.3317 15.1854 25.3536 15.156 25.3824L13.0223 27.469C12.8756 27.6125 12.6295 27.5546 12.5621 27.3609L10.4307 21.2373L11.1852 20.5439Z" fill="#0083FD"/>
<path d="M10.4306 21.237L9.99997 19.9997L16.0957 17.9268L16.5251 19.1604C14.7941 20.3955 12.6982 21.1516 10.4306 21.237Z" fill="#0072FC"/>
<path d="M10.0001 19.161C0.0126081 19.161 0.0043216 9.66313 0.0126078 9.49617C0.275129 4.2074 4.6463 0 10.0001 0C15.354 0 19.7251 4.2074 19.9876 9.49617C19.9959 9.66313 19.9876 19.161 10.0001 19.161Z" fill="#FF9838"/>
<path d="M10 18.9917C4.64617 18.9917 0.275165 14.7843 0.0125907 9.49561C0.00422844 9.66348 3.01963e-05 9.83154 0 9.99962C0 15.5226 4.47716 19.9998 10 19.9998C15.5228 19.9998 20 15.5226 20 9.99962C20 9.83061 19.9957 9.66257 19.9874 9.49561C19.7248 14.7843 15.3538 18.9917 10 18.9917Z" fill="#FF8709"/>
<path d="M17.8779 10.0006C17.8779 13.374 14.3508 17.3943 10 17.3943C5.64918 17.3943 2.12212 13.1528 2.12212 10.0006C2.12212 9.83125 2.12745 9.66321 2.138 9.49652C2.39788 5.38048 5.81851 2.12256 10 2.12256C14.1815 2.12256 17.6021 5.38048 17.862 9.49652C17.8726 9.66321 17.8779 9.83125 17.8779 10.0006Z" fill="#CE7430"/>
<path d="M10 16.8696C5.81858 16.8696 2.3986 13.6115 2.13867 9.49561C2.12785 9.66339 2.12234 9.83148 2.12215 9.99962C2.12215 14.3505 5.6492 17.8776 10 17.8776C14.3509 17.8776 17.8779 14.3505 17.8779 9.99962C17.8779 9.83023 17.8719 9.6623 17.8614 9.49561C17.6015 13.6115 14.1815 16.8696 10 16.8696Z" fill="#BC672E"/>
<path d="M10.01 14.6796C8.31331 14.6796 7.23374 13.51 7.02594 12.1223C7.00705 11.9961 7.00108 11.7252 7.00108 11.7252C7.14555 11.3571 7.50401 11.0964 7.92332 11.0964C8.47026 11.0964 8.91368 11.5398 8.91368 12.0868C8.91368 12.6913 9.40547 13.1831 10.01 13.1831C10.6145 13.1831 11.1063 12.6913 11.1063 12.0868C11.1066 11.9112 11.0643 11.7382 10.9833 11.5824C10.9833 11.5824 10.9089 10.6485 10.063 10.6485C9.21451 10.6485 9.15769 9.49554 9.15769 9.49554C9.33024 9.20471 9.64738 9.00977 10.01 9.00977C10.6145 9.00977 11.1064 8.51797 11.1064 7.91345C11.1064 7.30892 10.6145 6.81712 10.01 6.81712C9.40552 6.81712 8.91373 7.30892 8.91373 7.91345C8.91373 8.46045 8.47031 8.90382 7.92337 8.90382C7.37643 8.90382 6.93301 8.46045 6.93301 7.91345C6.93301 6.2168 8.31336 4.83643 10.01 4.83643C11.7067 4.83643 13.087 6.2168 13.087 7.91345C13.087 8.71797 12.7768 9.45126 12.2695 10.0001C12.6686 10.432 12.9458 10.978 13.0458 11.5831C13.0458 11.5831 13.0489 11.9152 13.0201 12.0843C12.7746 13.5275 11.7067 14.6796 10.01 14.6796Z" fill="#FFAA5C"/>
<path d="M10.0097 9.98192C9.64706 9.98192 9.33084 9.78638 9.15834 9.49561C9.06743 9.64801 9.01942 9.82216 9.01941 9.99962C9.01941 10.5466 9.46277 10.99 10.0098 10.99C10.4325 10.99 10.7995 11.2309 10.9823 11.5824C11.0636 11.4268 11.1061 11.2539 11.1061 11.0783C11.1061 10.4737 10.6142 9.98192 10.0097 9.98192ZM10.0097 14.1553C8.53494 14.1553 7.29965 13.1122 7.00167 11.7251C6.95623 11.8401 6.93283 11.9627 6.93269 12.0864C6.93269 13.7831 8.31304 15.1634 10.0097 15.1634C11.7064 15.1634 13.0867 13.7831 13.0867 12.0864C13.0867 11.9148 13.0718 11.7467 13.0447 11.5827C12.8032 13.0402 11.5346 14.1553 10.0097 14.1553Z" fill="#EA9957"/>
</svg>
