<svg width="39" height="39" viewBox="0 0 39 39" fill="none" xmlns="http://www.w3.org/2000/svg">
    <path d="M34.791 10.206a3.2 3.2 0 0 0-3.017-3.577L7.097 5.395A3.2 3.2 0 0 0 3.772 9.06l2.223 15.01a3.2 3.2 0 0 0 3.166 2.73h20.8a3.2 3.2 0 0 0 3.177-2.818l1.653-13.776z" fill="#1E8D79"/>
    <path fill-rule="evenodd" clip-rule="evenodd" d="M31.814 5.83 7.137 4.596A4 4 0 0 0 2.98 9.178l2.224 15.009A4 4 0 0 0 9.161 27.6h20.8a4 4 0 0 0 3.971-3.524l1.654-13.775a4 4 0 0 0-3.772-4.472zm-.04.8a3.2 3.2 0 0 1 3.017 3.577l-1.653 13.775a3.2 3.2 0 0 1-3.177 2.819h-20.8a3.2 3.2 0 0 1-3.166-2.731L3.772 9.06a3.2 3.2 0 0 1 3.325-3.665L31.774 6.63z" fill="#3B2D74"/>
    <path d="m21 27.8 7-3 .8 1.2-1.2 5.224c-.2.904-.455 1.318-1.123 1.527l-1.077.45c-.766.239-1.462-.673-1.8-1.4l-2.6-4z" fill="#1E8D79"/>
    <path fill-rule="evenodd" clip-rule="evenodd" d="M20.234 27.568a.8.8 0 0 1 .45-.503l7-3a.8.8 0 0 1 .982.291l.8 1.2a.8.8 0 0 1 .113.623L28.38 31.4c-.105.477-.246.935-.514 1.312-.284.401-.662.644-1.113.791l-1.045.436a.854.854 0 0 1-.07.026c-.78.244-1.438-.14-1.842-.514-.396-.366-.7-.848-.896-1.26l-2.57-3.954a.8.8 0 0 1-.096-.668zM23.6 31.8c.337.728 1.034 1.64 1.8 1.4l1.077-.45c.668-.208.923-.622 1.123-1.526L28.8 26l-.8-1.2-7 3 2.6 4z" fill="#3B2D74"/>
    <path fill-rule="evenodd" clip-rule="evenodd" d="m19.9 26 4.148 6.637a1.199 1.199 0 0 0 2.179-.345l1.633-6.53a3.19 3.19 0 0 1-1.214.238H19.9z" fill="#A03FDC"/>
    <path fill-rule="evenodd" clip-rule="evenodd" d="M19.2 25.612a.8.8 0 0 1 .7-.412h6.746c.322 0 .63-.064.91-.179a.8.8 0 0 1 1.08.934l-1.633 6.531a1.998 1.998 0 0 1-3.634.575l-4.148-6.637a.8.8 0 0 1-.021-.812zm7.027 6.68a1.199 1.199 0 0 1-2.18.345L19.9 26h6.746a3.233 3.233 0 0 0 1.213-.239l-1.632 6.531z" fill="#3B2D74"/>
    <path fill-rule="evenodd" clip-rule="evenodd" d="M20.998 26.255a.4.4 0 0 1 .547.143l3.4 5.8a.4.4 0 1 1-.69.404l-3.4-5.8a.4.4 0 0 1 .143-.547z" fill="#C666FF"/>
    <path d="M6.007 24.853 3.763 9.143A3.2 3.2 0 0 1 7.17 5.497L31.993 6.56a1.472 1.472 0 0 1 1.352 1.351c.012.162.012.328-.002.495l-1.908 14.65A3.2 3.2 0 0 1 28.245 26H7.576c-.16 0-.319-.014-.474-.039a1.311 1.311 0 0 1-1.094-1.109z" fill="#C666FF"/>
    <path fill-rule="evenodd" clip-rule="evenodd" d="M32.027 5.76a2.271 2.271 0 0 1 2.116 2.091 4.013 4.013 0 0 1-.006.658L32.23 23.14a4 4 0 0 1-3.985 3.66H7.576c-.206 0-.407-.017-.602-.048l.127-.79c.155.025.314.038.474.038h20.67a3.2 3.2 0 0 0 3.19-2.944l1.909-14.65c.013-.167.013-.333.001-.495a1.472 1.472 0 0 0-1.352-1.351L7.17 5.498a3.2 3.2 0 0 0-3.407 3.644l2.244 15.711c.082.57.525 1.018 1.094 1.109l-.127.79a2.112 2.112 0 0 1-1.759-1.786L2.971 9.255a4 4 0 0 1 4.245-4.556l24.811 1.062z" fill="#3B2D74"/>
    <path fill-rule="evenodd" clip-rule="evenodd" d="M6.069 25.103c.157.448.55.782 1.032.86.155.024.314.038.474.038h20.67a3.2 3.2 0 0 0 3.19-2.945l1.909-14.65c.013-.167.013-.333.001-.495a1.472 1.472 0 0 0-.905-1.244c.057.138.094.288.105.444.012.162.012.328-.002.495l-1.907 14.65a3.2 3.2 0 0 1-3.19 2.945H6.776c-.161 0-.32-.014-.475-.039a1.332 1.332 0 0 1-.232-.059z" fill="#A03FDC"/>
    <path d="M3.763 9.142A3.2 3.2 0 0 1 7.17 5.498l12.412.531C17.647 14.852 8.978 17.018 4.885 16.998L3.763 9.142z" fill="#D186FF"/>
    <path fill-rule="evenodd" clip-rule="evenodd" d="M7.416 5.61c-2.04-.154-3.668 1.672-3.384 3.722l.488 3.524a.4.4 0 0 0 .793-.11l-.488-3.524c-.219-1.578 1.033-2.93 2.537-2.814h.014l5.407.226a.4.4 0 0 0 .034-.8l-5.4-.224z" fill="#EDA5FF"/>
    <path fill-rule="evenodd" clip-rule="evenodd" d="M4.032 9.332C3.748 7.28 5.38 5.452 7.424 5.61a.4.4 0 1 1-.062.798C5.858 6.29 4.606 7.644 4.825 9.222a.4.4 0 0 1-.793.11z" fill="#F3FCFF"/>
    <path d="M27.2 22.601a.6.6 0 1 1-1.2 0 .6.6 0 0 1 1.2 0zM29.6 22.601a.6.6 0 1 1-1.2 0 .6.6 0 0 1 1.2 0zM24.4 23.4a.6.6 0 1 1-1.2 0 .6.6 0 0 1 1.2 0zM28 17a.6.6 0 1 1-1.2 0 .6.6 0 0 1 1.2 0zM29.6 20.8a.4.4 0 1 1-.8 0 .4.4 0 0 1 .8 0zM26.8 20.401a.4.4 0 1 1-.8 0 .4.4 0 0 1 .8 0zM29.2 18.8a.4.4 0 1 1-.8 0 .4.4 0 0 1 .8 0zM25.2 21.2a.4.4 0 1 1-.8 0 .4.4 0 0 1 .8 0zM22 22.8a.4.4 0 1 1-.8 0 .4.4 0 0 1 .8 0zM19.2 23.8a.2.2 0 1 1-.4 0 .2.2 0 0 1 .4 0zM20.8 23.8a.2.2 0 1 1-.4 0 .2.2 0 0 1 .4 0zM22.4 24.201a.2.2 0 1 1-.4 0 .2.2 0 0 1 .4 0zM25.2 22.6a.2.2 0 1 1-.4 0 .2.2 0 0 1 .4 0zM26 24.201a.2.2 0 1 1-.4 0 .2.2 0 0 1 .4 0zM28 23.8a.2.2 0 1 1-.4 0 .2.2 0 0 1 .4 0zM28.4 21.4a.2.2 0 1 1-.4 0 .2.2 0 0 1 .4 0zM30 19.4a.2.2 0 1 1-.4 0 .2.2 0 0 1 .4 0zM28.8 15.8a.2.2 0 1 1-.4 0 .2.2 0 0 1 .4 0zM28 19.8a.2.2 0 1 1-.4 0 .2.2 0 0 1 .4 0zM26 19.4a.2.2 0 1 1-.4 0 .2.2 0 0 1 .4 0zM27.2 18.6a.2.2 0 1 1-.4 0 .2.2 0 0 1 .4 0zM28.8 17.4a.2.2 0 1 1-.4 0 .2.2 0 0 1 .4 0zM27.2 15a.2.2 0 1 1-.4 0 .2.2 0 0 1 .4 0zM23.2 21.8a.2.2 0 1 1-.4 0 .2.2 0 0 1 .4 0z" fill="#A643E0"/>
    <path d="M12.4 15.2a2 2 0 1 1-4 0 2 2 0 0 1 4 0z" fill="#E8A7FF"/>
    <path fill-rule="evenodd" clip-rule="evenodd" d="M13.2 15.2a2.8 2.8 0 1 1-5.6 0 2.8 2.8 0 0 1 5.6 0zm-2.8 2a2 2 0 1 0 0-4 2 2 0 0 0 0 4z" fill="#3B2D74"/>
    <path fill-rule="evenodd" clip-rule="evenodd" d="M12.277 14.507a1.818 1.818 0 1 0-2.57 2.57 2 2 0 1 1 2.57-2.57z" fill="#9F3DD9"/>
    <path fill-rule="evenodd" clip-rule="evenodd" d="M10.002 16.02c.547.146 1.137-.192 1.298-.793a.4.4 0 0 1 .773.207c-.268 1.002-1.279 1.626-2.278 1.358a.4.4 0 1 1 .207-.773z" fill="#FFDDFC"/>
    <path d="M21.2 15.2a2.8 2.8 0 1 1-5.6 0 2.8 2.8 0 0 1 5.6 0z" fill="#E8A7FF"/>
    <path fill-rule="evenodd" clip-rule="evenodd" d="M22 15.2a3.6 3.6 0 1 1-7.2 0 3.6 3.6 0 0 1 7.2 0zM18.4 18a2.8 2.8 0 1 0 0-5.6 2.8 2.8 0 0 0 0 5.6z" fill="#3B2D74"/>
    <path fill-rule="evenodd" clip-rule="evenodd" d="M21.027 14.23a2.545 2.545 0 1 0-3.598 3.598 2.801 2.801 0 1 1 3.598-3.598z" fill="#9F3DD9"/>
    <path fill-rule="evenodd" clip-rule="evenodd" d="M17.801 16.502c.856.229 1.767-.302 2.014-1.222a.4.4 0 0 1 .772.207c-.354 1.321-1.684 2.138-2.993 1.787a.4.4 0 1 1 .207-.773z" fill="#FFDDFC"/>
    <path d="M28 15.6a2 2 0 1 1-4 0 2 2 0 0 1 4 0z" fill="#E8A7FF"/>
    <path fill-rule="evenodd" clip-rule="evenodd" d="M28.8 15.6a2.8 2.8 0 1 1-5.6 0 2.8 2.8 0 0 1 5.6 0zm-2.8 2a2 2 0 1 0 0-4 2 2 0 0 0 0 4z" fill="#3B2D74"/>
    <path fill-rule="evenodd" clip-rule="evenodd" d="M27.877 14.908a1.818 1.818 0 1 0-2.57 2.57 2 2 0 1 1 2.57-2.57z" fill="#9F3DD9"/>
    <path fill-rule="evenodd" clip-rule="evenodd" d="M25.602 16.42c.547.146 1.137-.192 1.298-.792a.4.4 0 1 1 .773.207c-.268 1.001-1.279 1.625-2.278 1.357a.4.4 0 1 1 .207-.772z" fill="#FFDDFC"/>
</svg>
