<svg viewBox="0 0 500 500" xmlns="http://www.w3.org/2000/svg">
    <path d="m416.78 398.49h33.12v.25h-33.12z" fill="#ebebeb" />
    <path d="m322.53 401.21h8.69v.25h-8.69z" fill="#ebebeb" />
    <path d="m396.59 389.21h19.19v.25h-19.19z" fill="#ebebeb" />
    <path d="m52.46 390.89h43.19v.25h-43.19z" fill="#ebebeb" />
    <path d="m104.56 390.89h6.33v.25h-6.33z" fill="#ebebeb" />
    <path d="m131.47 395.11h93.68v.25h-93.68z" fill="#ebebeb" />
    <path
        d="m237 337.8h-193.08a5.71 5.71 0 0 1 -5.71-5.71v-271.43a5.71 5.71 0 0 1 5.71-5.66h193.08a5.71 5.71 0 0 1 5.71 5.71v271.38a5.71 5.71 0 0 1 -5.71 5.71zm-193.08-282.6a5.47 5.47 0 0 0 -5.46 5.46v271.43a5.47 5.47 0 0 0 5.46 5.46h193.08a5.47 5.47 0 0 0 5.46-5.46v-271.43a5.47 5.47 0 0 0 -5.46-5.46z"
        fill="#ebebeb" />
    <path
        d="m453.31 337.8h-193.1a5.72 5.72 0 0 1 -5.71-5.71v-271.43a5.72 5.72 0 0 1 5.71-5.66h193.1a5.71 5.71 0 0 1 5.69 5.66v271.43a5.71 5.71 0 0 1 -5.69 5.71zm-193.1-282.6a5.47 5.47 0 0 0 -5.46 5.46v271.43a5.47 5.47 0 0 0 5.46 5.46h193.1a5.47 5.47 0 0 0 5.46-5.46v-271.43a5.47 5.47 0 0 0 -5.46-5.46z"
        fill="#ebebeb" />
    <path d="m0 382.4h500v.25h-500z" fill="#ebebeb" />
    <path d="m302.08 103.61h1.8v140.37h-1.8z" fill="#e0e0e0" />
    <path d="m414.13 103.61h1.8v140.37h-1.8z" fill="#e0e0e0" />
    <path d="m422.98 112.44h-127.95l-2.7-6.3h133.35z" fill="#ebebeb" />
    <path d="m422.98 121.09h-127.95l-2.7-6.3h133.35z" fill="#ebebeb" />
    <path d="m422.98 129.74h-127.95l-2.7-6.3h133.35z" fill="#ebebeb" />
    <path d="m422.98 138.38h-127.95l-2.7-6.29h133.35z" fill="#ebebeb" />
    <path d="m422.98 147.03h-127.95l-2.7-6.29h133.35z" fill="#ebebeb" />
    <path d="m422.98 155.68h-127.95l-2.7-6.3h133.35z" fill="#ebebeb" />
    <path d="m422.98 164.33h-127.95l-2.7-6.3h133.35z" fill="#ebebeb" />
    <path d="m422.98 172.98h-127.95l-2.7-6.3h133.35z" fill="#ebebeb" />
    <path d="m422.98 181.63h-127.95l-2.7-6.3h133.35z" fill="#ebebeb" />
    <path d="m422.98 190.28h-127.95l-2.7-6.3h133.35z" fill="#ebebeb" />
    <path d="m422.98 198.93h-127.95l-2.7-6.3h133.35z" fill="#ebebeb" />
    <path d="m422.98 207.58h-127.95l-2.7-6.3h133.35z" fill="#ebebeb" />
    <path d="m422.98 216.23h-127.95l-2.7-6.3h133.35z" fill="#ebebeb" />
    <path d="m422.98 224.88h-127.95l-2.7-6.3h133.35z" fill="#ebebeb" />
    <path d="m422.98 233.53h-127.95l-2.7-6.3h133.35z" fill="#ebebeb" />
    <path d="m422.98 242.18h-127.95l-2.7-6.3h133.35z" fill="#ebebeb" />
    <path d="m292.33 242.18h133.35v3.6h-133.35z" fill="#e0e0e0" />
    <path d="m287.68 98.25h142.65v8.4h-142.65z" fill="#e0e0e0" />
    <path
        d="m289.15 182.81a1.45 1.45 0 0 1 -1.46-1.45v-49a1.45 1.45 0 0 1 1.46-1.45 1.45 1.45 0 0 1 1.45 1.45v49a1.45 1.45 0 0 1 -1.45 1.45z"
        fill="#e0e0e0" />
    <path d="m288.62 104.96h1.05v29.1h-1.05z" fill="#e0e0e0" />
    <path
        d="m65.78 74.58h149.36a6.45 6.45 0 0 1 6.45 6.42v34.22a0 0 0 0 1 0 0h-162.25a0 0 0 0 1 0 0v-34.22a6.45 6.45 0 0 1 6.44-6.42z"
        fill="#f5f5f5" />
    <path
        d="m59.34 118h162.25a0 0 0 0 1 0 0v5.86a6.45 6.45 0 0 1 -6.45 6.45h-149.36a6.45 6.45 0 0 1 -6.45-6.45v-5.86a0 0 0 0 1 .01 0z"
        fill="#f0f0f0" />
    <rect fill="#e0e0e0" height="8.26" rx="2.3" width="19.38" x="65.69" y="101.59" />
    <rect fill="#e0e0e0" height="8.26" rx="2.3" width="9.21" x="205.81" y="101.59" />
    <path d="m217.57 121.62h-154.74l2.54-1.28h149.66z" fill="#e0e0e0" />
    <path d="m217.57 124.8h-154.74l2.54-1.28h149.66z" fill="#e0e0e0" />
    <path d="m217.57 127.98h-154.74l2.54-1.28h149.66z" fill="#e0e0e0" />
    <path
        d="m117.93 329.61h-48.93a5.3 5.3 0 0 1 -5.3-5.3 5.3 5.3 0 0 1 5.3-5.31h48.92a5.31 5.31 0 0 1 5.31 5.31 5.3 5.3 0 0 1 -5.3 5.3z"
        fill="#ebebeb" />
    <path
        d="m60.38 301-2.64-37.75a5.31 5.31 0 0 1 4.93-5.66 5.31 5.31 0 0 1 5.66 4.92l2.67 37.75a5.31 5.31 0 0 1 -4.92 5.67 5.32 5.32 0 0 1 -5.7-4.93z"
        fill="#ebebeb" />
    <path
        d="m90 332.56h-24.79a8.07 8.07 0 0 1 -8.07-8.06v-36.26a1.47 1.47 0 0 1 1.48-1.47 1.47 1.47 0 0 1 1.47 1.47v36.26a5.12 5.12 0 0 0 5.12 5.12h24.79z"
        fill="#e0e0e0" />
    <path
        d="m97.1 367.31v-33.76l2-.62a5.38 5.38 0 0 0 3.75-5.11h-18.73a5.38 5.38 0 0 0 3.75 5.11l2 .62v33.76l-15.55 7v2.95l19.17-6.71 19.18 6.71v-2.96z"
        fill="#e0e0e0" />
    <path d="m77.65 379.32a3.36 3.36 0 1 1 -3.35-3.32 3.35 3.35 0 0 1 3.35 3.32z" fill="#e0e0e0" />
    <path d="m116 379.32a3.36 3.36 0 1 1 -3.36-3.36 3.35 3.35 0 0 1 3.36 3.36z" fill="#e0e0e0" />
    <path
        d="m232.47 329.61h48.92a5.3 5.3 0 0 0 5.31-5.3 5.31 5.31 0 0 0 -5.31-5.31h-48.92a5.31 5.31 0 0 0 -5.31 5.31 5.3 5.3 0 0 0 5.31 5.3z"
        fill="#ebebeb" />
    <path
        d="m290 301 2.64-37.75a5.31 5.31 0 0 0 -4.92-5.66 5.31 5.31 0 0 0 -5.67 4.92l-2.64 37.75a5.32 5.32 0 0 0 4.93 5.67 5.31 5.31 0 0 0 5.66-4.93z"
        fill="#ebebeb" />
    <path
        d="m260.4 332.56h24.79a8.06 8.06 0 0 0 8.07-8.06v-36.26a1.47 1.47 0 0 0 -1.47-1.47 1.47 1.47 0 0 0 -1.48 1.47v36.26a5.12 5.12 0 0 1 -5.12 5.12h-24.79z"
        fill="#e0e0e0" />
    <path
        d="m253.31 367.31v-33.76l-2-.62a5.37 5.37 0 0 1 -3.74-5.11h18.7a5.37 5.37 0 0 1 -3.74 5.11l-2 .62v33.76l15.56 7v2.95l-19.18-6.71-19.18 6.71v-2.96z"
        fill="#e0e0e0" />
    <path d="m272.75 379.32a3.36 3.36 0 1 0 3.36-3.36 3.36 3.36 0 0 0 -3.36 3.36z" fill="#e0e0e0" />
    <path d="m234.4 379.32a3.36 3.36 0 1 0 3.35-3.36 3.35 3.35 0 0 0 -3.35 3.36z" fill="#e0e0e0" />
    <path d="m116.54 293.33h119v12.55h-119z" fill="#ebebeb" />
    <path d="m92.3 289.59h167.92v7.48h-167.92z" fill="#f5f5f5" />
    <path d="m244.61 383.78h7.59l-13.13-86.7h-8.89z" fill="#e6e6e6" />
    <path d="m122.33 297.08h-8.9l-13.12 86.7h7.58z" fill="#e6e6e6" />
    <ellipse cx="245.18" cy="412.39" fill="#f5f5f5" rx="193.89" ry="11.32" />
    <path d="m154.44 298.52h196.3v10.41h-196.3z" fill="#263238" />
    <path d="m154.44 298.52h196.3v10.41h-196.3z" fill="#263238" />
    <path d="m154.44 305.77h196.3v3.16h-196.3z" />
    <path d="m310.54 369.68h-115.91l2.43-10.72h111.05z" fill="#263238" />
    <path d="m303.25 358.96 2.43 10.72h4.86l-2.43-10.72z" />
    <path d="m197.06 358.96-2.43 10.72h4.87l2.43-10.72z" />
    <path
        d="m186.4 409c-1.55 0-2.67-1.92-2.23-3.84l21.83-96.23h4.86l-22.2 97.9a2.5 2.5 0 0 1 -2.26 2.17z"
        fill="#263238" />
    <path d="m204.79 314.14h4.87l1.18-5.21h-4.87z" />
    <path
        d="m318.77 409c1.56 0 2.68-1.92 2.24-3.84l-21.81-96.23h-4.86l22.19 97.9a2.51 2.51 0 0 0 2.24 2.17z"
        fill="#263238" />
    <path d="m299.2 308.93h-4.86l1.18 5.21h4.86z" />
    <path d="m162.73 168.57h179.72v135.68h-179.72z" fill="#ed7d31" />
    <path d="m162.73 168.57h179.72v135.68h-179.72z" fill="#fff" opacity=".7" />
    <path d="m292 257.91a11.86 11.86 0 0 1 -11.86 11.86v-11.86z" fill="#fff" opacity=".7" />
    <g fill="#263238">
        <path
            d="m213.37 212.15v-1.22h-24.3v1.22h11.55v36.45h-11.55v1.21h11.55v36.45h-11.55v1.22h24.3v-1.22h-11.54v-36.45h11.54v-1.21h-11.54v-36.45z" />
        <path
            d="m212.81 226.12h6.43a0 0 0 0 1 0 0v8.5a0 0 0 0 1 0 0h-6.43a2.88 2.88 0 0 1 -2.88-2.88v-2.74a2.88 2.88 0 0 1 2.88-2.88z"
            transform="matrix(-1 0 0 -1 429.18 460.74)" />
        <path
            d="m212.81 263.78h6.43a0 0 0 0 1 0 0v8.51a0 0 0 0 1 0 0h-6.43a2.88 2.88 0 0 1 -2.88-2.88v-2.74a2.88 2.88 0 0 1 2.88-2.89z"
            transform="matrix(-1 0 0 -1 429.18 536.07)" />
        <path
            d="m186.08 263.78h6.43a0 0 0 0 1 0 0v8.51a0 0 0 0 1 0 0h-6.43a2.88 2.88 0 0 1 -2.88-2.88v-2.74a2.88 2.88 0 0 1 2.88-2.89z" />
        <path
            d="m186.08 226.12h6.43a0 0 0 0 1 0 0v8.5a0 0 0 0 1 0 0h-6.43a2.88 2.88 0 0 1 -2.88-2.88v-2.74a2.88 2.88 0 0 1 2.88-2.88z" />
        <path
            d="m190.13 182.58h6.43a0 0 0 0 1 0 0v8.51a0 0 0 0 1 0 0h-6.43a2.88 2.88 0 0 1 -2.88-2.88v-2.74a2.88 2.88 0 0 1 2.88-2.89z" />
        <path
            d="m305.43 273.71h6.43a0 0 0 0 1 0 0v8.51a0 0 0 0 1 0 0h-6.43a2.88 2.88 0 0 1 -2.88-2.88v-2.74a2.88 2.88 0 0 1 2.88-2.89z"
            transform="matrix(0 -1 1 0 29.25 585.17)" />
        <path
            d="m261.43 212.15v-1.22h-24.3v1.22h11.55v36.45h-11.55v1.21h11.55v36.45h-11.55v1.22h24.3v-1.22h-11.54v-36.45h11.54v-1.21h-11.54v-36.45z" />
        <path
            d="m260.87 226.12h6.43a0 0 0 0 1 0 0v8.5a0 0 0 0 1 0 0h-6.43a2.88 2.88 0 0 1 -2.88-2.88v-2.74a2.88 2.88 0 0 1 2.88-2.88z"
            transform="matrix(-1 0 0 -1 525.3 460.74)" />
        <path
            d="m294.25 223.69h6.43a0 0 0 0 1 0 0v8.5a0 0 0 0 1 0 0h-6.43a2.88 2.88 0 0 1 -2.88-2.88v-2.74a2.88 2.88 0 0 1 2.88-2.88z" />
        <path
            d="m294.25 203.52h6.43a0 0 0 0 1 0 0v8.48a0 0 0 0 1 0 0h-6.43a2.88 2.88 0 0 1 -2.88-2.88v-2.72a2.88 2.88 0 0 1 2.88-2.88z" />
        <path
            d="m312.61 223.69h6.39a0 0 0 0 1 0 0v8.5a0 0 0 0 1 0 0h-6.43a2.88 2.88 0 0 1 -2.88-2.88v-2.74a2.88 2.88 0 0 1 2.92-2.88z"
            transform="matrix(-1 0 0 -1 628.78 455.88)" />
        <path
            d="m303.94 237.86h6.43a0 0 0 0 1 0 0v8.51a0 0 0 0 1 0 0h-6.43a2.88 2.88 0 0 1 -2.88-2.88v-2.74a2.88 2.88 0 0 1 2.88-2.89z"
            transform="matrix(0 -1 1 0 63.6 547.83)" />
        <path
            d="m312.61 203.52h6.39a0 0 0 0 1 0 0v8.48a0 0 0 0 1 0 0h-6.43a2.88 2.88 0 0 1 -2.88-2.88v-2.72a2.88 2.88 0 0 1 2.92-2.88z"
            transform="matrix(-1 0 0 -1 628.78 415.54)" />
        <path
            d="m260.87 263.78h6.43a0 0 0 0 1 0 0v8.51a0 0 0 0 1 0 0h-6.43a2.88 2.88 0 0 1 -2.88-2.88v-2.74a2.88 2.88 0 0 1 2.88-2.89z"
            transform="matrix(-1 0 0 -1 525.3 536.07)" />
        <path
            d="m234.14 263.78h6.43a0 0 0 0 1 0 0v8.51a0 0 0 0 1 0 0h-6.43a2.88 2.88 0 0 1 -2.88-2.88v-2.74a2.88 2.88 0 0 1 2.88-2.89z" />
        <path
            d="m234.14 226.12h6.43a0 0 0 0 1 0 0v8.5a0 0 0 0 1 0 0h-6.43a2.88 2.88 0 0 1 -2.88-2.88v-2.74a2.88 2.88 0 0 1 2.88-2.88z" />
    </g>
    <path d="m225.23 176.06a11.85 11.85 0 0 1 -11.86 11.85v-11.85z" fill="#fff" opacity=".7" />
    <path d="m225.23 176.06a11.85 11.85 0 0 0 11.86 11.85v-11.85z" fill="#fff" opacity=".7" />
    <path d="m291.37 174.47h28.35v3.17h-28.35z" fill="#ed7d31"
        transform="matrix(-1 0 0 -1 611.08 352.12)" />
    <path d="m278.56 197.59a11.86 11.86 0 0 1 -11.86-11.86h11.86z" fill="#fff" opacity=".7" />
    <path d="m278.56 197.59a11.86 11.86 0 0 0 -11.86 11.85h11.86z" fill="#fff" opacity=".7" />
    <path d="m199.81 226.12h20.25v8.51h-20.25z" fill="#ed7d31"
        transform="matrix(0 1 -1 0 440.3 20.44)" />
    <path d="m199.81 263.78h20.25v8.51h-20.25z" fill="#ed7d31"
        transform="matrix(0 1 -1 0 477.97 58.11)" />
    <path d="m182.39 263.78h20.25v8.51h-20.25z" fill="#ed7d31"
        transform="matrix(0 -1 1 0 -75.52 460.55)" />
    <path d="m182.39 226.12h20.25v8.51h-20.25z" fill="#ed7d31"
        transform="matrix(0 -1 1 0 -37.86 422.89)" />
    <path d="m192.31 176.71v16.6h-11.74v8.51h20.25v-25.11z" fill="#ed7d31" />
    <path d="m247.87 226.12h20.25v8.51h-20.25z" fill="#ed7d31"
        transform="matrix(0 1 -1 0 488.36 -27.62)" />
    <path d="m247.87 263.78h20.25v8.51h-20.25z" fill="#ed7d31"
        transform="matrix(0 1 -1 0 526.03 10.05)" />
    <path d="m230.45 263.78h20.25v8.5h-20.25z" fill="#ed7d31"
        transform="matrix(0 -1 1 0 -27.46 508.61)" />
    <path d="m230.45 226.12h20.25v8.5h-20.25z" fill="#ed7d31"
        transform="matrix(0 -1 1 0 10.2 470.95)" />
    <path d="m290.5 269.05v20.25h8.51v-11.75h16.4v11.75h8.51v-20.25z" fill="#ed7d31" />
    <path d="m282.16 208.27h47.11v17.36h-47.11z" fill="#ed7d31"
        transform="matrix(0 -1 1 0 88.77 522.66)" />
    <g fill="#fff" opacity=".3">
        <path d="m199.81 226.12h20.25v8.51h-20.25z" transform="matrix(0 1 -1 0 440.3 20.44)" />
        <path d="m199.81 263.78h20.25v8.51h-20.25z" transform="matrix(0 1 -1 0 477.97 58.11)" />
        <path d="m182.39 263.78h20.25v8.51h-20.25z" transform="matrix(0 -1 1 0 -75.52 460.55)" />
        <path d="m182.39 226.12h20.25v8.51h-20.25z" transform="matrix(0 -1 1 0 -37.86 422.89)" />
        <path d="m192.31 176.71v16.6h-11.74v8.51h20.25v-25.11z" />
        <path d="m247.87 226.12h20.25v8.51h-20.25z" transform="matrix(0 1 -1 0 488.36 -27.62)" />
        <path d="m247.87 263.78h20.25v8.51h-20.25z" transform="matrix(0 1 -1 0 526.03 10.05)" />
        <path d="m230.45 263.78h20.25v8.5h-20.25z" transform="matrix(0 -1 1 0 -27.46 508.61)" />
        <path d="m230.45 226.12h20.25v8.5h-20.25z" transform="matrix(0 -1 1 0 10.2 470.95)" />
        <path d="m290.5 269.05v20.25h8.51v-11.75h16.4v11.75h8.51v-20.25z" />
        <path d="m282.16 208.27h47.11v17.36h-47.11z" transform="matrix(0 -1 1 0 88.77 522.66)" />
    </g>
    <path d="m212.97 172.48h24.57v3.98h-24.57z" fill="#263238" />
    <path d="m278.15 185.33h3.98v24.57h-3.98z" fill="#263238" />
    <path d="m279.71 255.92h12.69v3.98h-12.69z" fill="#263238" />
    <path
        d="m173.68 173.26v126.91h157.14v-126.91zm154.71 83.44h-47v-81h47zm-152.28-81h102.82v122.04h-102.82zm105.25 122.04v-38.61h47v38.61z"
        fill="#263238" />
    <path d="m317.42 190.42 3.13-8.8a12.93 12.93 0 1 1 5.65 5.68z" fill="#ed7d31" />
    <path d="m317.42 190.42 3.13-8.8a12.93 12.93 0 1 1 5.65 5.68z" opacity=".2" />
    <path
        d="m330.68 175a3.84 3.84 0 0 1 -1.06-3c0-1.91.73-3.46 2.41-3.46s2.42 1.55 2.42 3.46a3.84 3.84 0 0 1 -1.07 3c3 .32 5.32 1.77 5.32 4.66h-13.34c0-2.88 2.29-4.33 5.32-4.66z"
        fill="#fff" />
    <path d="m217.36 215.06 3.13-8.8a13 13 0 1 1 5.65 5.68z" fill="#ed7d31" />
    <path d="m217.36 215.06 3.13-8.8a13 13 0 1 1 5.65 5.68z" opacity=".2" />
    <path
        d="m230.62 199.66a3.84 3.84 0 0 1 -1.07-3c0-1.92.74-3.47 2.42-3.47s2.41 1.55 2.41 3.47a3.84 3.84 0 0 1 -1.06 3c3 .31 5.32 1.76 5.32 4.65h-13.34c0-2.89 2.28-4.31 5.32-4.65z"
        fill="#fff" />
    <path d="m286.55 273.69-3.12-8.8a12.93 12.93 0 1 0 -11.54 7.1 12.89 12.89 0 0 0 5.88-1.42z"
        fill="#263238" />
    <path d="m286.55 273.69-3.12-8.8a12.93 12.93 0 1 0 -11.54 7.1 12.89 12.89 0 0 0 5.88-1.42z"
        fill="#fff" opacity=".5" />
    <path
        d="m273.29 258.28a3.84 3.84 0 0 0 1.07-3c0-1.91-.73-3.47-2.42-3.47s-2.41 1.56-2.41 3.47a3.84 3.84 0 0 0 1.06 3c-3 .32-5.31 1.76-5.31 4.65h13.33c0-2.93-2.28-4.33-5.32-4.65z"
        fill="#fff" />
    <path
        d="m391.07 199.23h-29.82a5.68 5.68 0 0 0 -5.68 5.68v.41l-4.83 3.29 4.83 3.29v.42a5.68 5.68 0 0 0 5.68 5.68h29.82a5.68 5.68 0 0 0 5.68-5.68v-7.41a5.68 5.68 0 0 0 -5.68-5.68z"
        fill="#ed7d31" />
    <path
        d="m384.19 205.25h-7.75a1.3 1.3 0 0 1 -1.3-1.29 1.3 1.3 0 0 1 1.3-1.3h7.75a1.3 1.3 0 0 1 1.29 1.3 1.29 1.29 0 0 1 -1.29 1.29z"
        fill="#263238" />
    <path
        d="m389.17 209.65h-12.73a1.3 1.3 0 0 1 -1.3-1.3 1.3 1.3 0 0 1 1.3-1.3h12.73a1.3 1.3 0 0 1 1.3 1.3 1.3 1.3 0 0 1 -1.3 1.3z"
        fill="#263238" />
    <path
        d="m386.13 214h-9.69a1.3 1.3 0 0 1 -1.3-1.3 1.3 1.3 0 0 1 1.3-1.29h9.69a1.3 1.3 0 0 1 1.3 1.29 1.3 1.3 0 0 1 -1.3 1.3z"
        fill="#263238" />
    <g fill="#fff" opacity=".8">
        <path d="m363.27 213a1.66 1.66 0 0 0 3.21 0 28.64 28.64 0 0 0 -3.21 0z" />
        <path
            d="m369.75 211.93c-.4-1.53-1-3.78-1.09-4.8a4.06 4.06 0 0 0 -3.12-3.72s0 0 0-.07a.68.68 0 0 0 -1.36 0 .25.25 0 0 0 0 .07 4.07 4.07 0 0 0 -3.13 3.72 47.23 47.23 0 0 1 -1.09 4.8.73.73 0 0 0 .83.91 29.43 29.43 0 0 1 8.1 0 .73.73 0 0 0 .86-.91z" />
    </g>
    <path
        d="m130.51 101.59h-44a8.38 8.38 0 0 0 -8.4 8.41v10.94a8.38 8.38 0 0 0 8.38 8.38h21.18l5 7.4 5.05-7.4h12.75a8.38 8.38 0 0 0 8.38-8.38v-10.94a8.38 8.38 0 0 0 -8.34-8.41z"
        fill="#ed7d31" />
    <path d="m102.45 115.05a10.54 10.54 0 1 1 -10.54-10.54 10.54 10.54 0 0 1 10.54 10.54z"
        fill="#ed7d31" />
    <path d="m102.45 115.05a10.54 10.54 0 1 1 -10.54-10.54 10.54 10.54 0 0 1 10.54 10.54z"
        fill="#fff" opacity=".9" />
    <path d="m100.3 115.05a8.4 8.4 0 1 1 -8.39-8.4 8.39 8.39 0 0 1 8.39 8.4z" fill="#ed7d31" />
    <path d="m100.3 115.05a8.4 8.4 0 1 1 -8.39-8.4 8.39 8.39 0 0 1 8.39 8.4z" fill="#fff"
        opacity=".5" />
    <path d="m97.31 115.51h-5.87v-7.12h.93v6.19h4.94z" fill="#263238" />
    <path
        d="m120.35 110.48h-11.45a1.92 1.92 0 0 1 -1.91-1.91 1.92 1.92 0 0 1 1.91-1.92h11.45a1.92 1.92 0 0 1 1.91 1.92 1.92 1.92 0 0 1 -1.91 1.91z"
        fill="#263238" />
    <path
        d="m127.7 117h-18.8a1.91 1.91 0 0 1 -1.91-1.91 1.91 1.91 0 0 1 1.91-1.91h18.8a1.91 1.91 0 0 1 1.92 1.91 1.91 1.91 0 0 1 -1.92 1.91z"
        fill="#263238" />
    <path
        d="m123.21 123.45h-14.31a1.92 1.92 0 0 1 -1.91-1.92 1.92 1.92 0 0 1 1.91-1.91h14.31a1.91 1.91 0 0 1 1.91 1.91 1.91 1.91 0 0 1 -1.91 1.92z"
        fill="#263238" />
    <path
        d="m99.7 177s-7.14-1.12-6.08-9c0 0-2.23.8-2.67-2.42s2-6.62 2-6.62-.92-7 5.07-8.35c3.88-.87 3.71.84 3.71.84s1.6-6.94 9.7-5.35c4 .77 3.22 3.1 3.22 3.1s3.45-1.41 6.41 2.44c2.25 2.94-1.31 3-1.31 3s6.5 8.32 1.07 9.65-10.62-9.4-10.62-9.4l-7.4 6.33s-3.1 6.5-3 6.78-.1 9-.1 9z"
        fill="#263238" />
    <path d="m142.67 391.29-13.28-1.04-.4 15.75 11.1.89z" fill="#b55b52" />
    <path d="m142.66 391.3-13.28-1.05-.22 8.82 12.06.96z" opacity=".2" />
    <path
        d="m127.21 333.52c-6.93-19.44-18.57-39.15-12.68-59.32l36.84-5s3 44.18 4.1 62.81c1.19 19.37-12.53 65.42-12.53 65.42l-15.19-1.29s-1.13-40.75-.54-62.62z"
        fill="#263238" />
    <path d="m126.54 331.67c-4.17-11.23-9.65-22.56-12.21-34 11.96-17.08 14.29 14.24 12.21 34z"
        opacity=".4" />
    <path d="m97.2 393.43-13.33.13-.59 15.72 11.14-.09z" fill="#b55b52" />
    <path d="m97.2 393.43-13.34.13-.33 8.81 12.11-.11z" opacity=".2" />
    <path
        d="m82.7 332.2c-1.08-20.18-2.54-50.37 4.22-59.65l41.52-.93s-11.54 44.19-15.85 62.81c-4.48 19.36-15.46 65.12-15.46 65.12h-14.42s-5.43-44.31-.01-67.35z"
        fill="#263238" />
    <path
        d="m185 191.63a4.8 4.8 0 0 0 -6.77.05l-.45.46c-.6.6-1.28 1.38-1.92 2.07s-1.3 1.42-1.94 2.11c-1.3 1.38-2.59 2.72-3.89 3.93a38.9 38.9 0 0 1 -3.85 3.25c-.35.25-.69.48-1 .7a36.2 36.2 0 0 1 -3.61-.59 35.09 35.09 0 0 1 -4.86-1.53 38.88 38.88 0 0 1 -4.65-2.23c-.76-.42-1.49-.88-2.2-1.33-.35-.22-.69-.46-1-.68l-.46-.31-.19-.14h-.08s0 0 0 0 0 0 0 .06a9.5 9.5 0 0 0 -12.66 14.17l.62.55.47.39.89.71c.59.45 1.18.87 1.77 1.27a41.14 41.14 0 0 0 3.63 2.19 43 43 0 0 0 7.77 3.23c1.35.41 2.73.75 4.12 1s2.8.46 4.22.6a40 40 0 0 0 8.54-.1l1.06-.12a6.23 6.23 0 0 0 2.7-1 27.59 27.59 0 0 0 6.16-5.57 40.12 40.12 0 0 0 4.07-6 49.11 49.11 0 0 0 2.87-6.18c.4-1 .75-2.1 1.09-3.17s.58-2.1.86-3.34a4.81 4.81 0 0 0 -1.31-4.45z"
        fill="#b65b52" />
    <path
        d="m183.75 198.21-3.88-4.06c-2.29-5.44 5.2-7.18 5.2-7.18l4.68-3.4a3 3 0 0 1 3.81.6l2.73 2.82a3.11 3.11 0 0 1 .25 4.32l-3.9 3.55a6.08 6.08 0 0 1 -2.58 1.51z"
        fill="#b55b52" />
    <path
        d="m131 189.5c9-.53 22.2 9.83 22.2 9.83 1.25 3.45-1.82 16.27-7.33 21.87 0 0-6.33 1.51-11.87-5.17-6-7.27-12.56-25.98-3-26.53z"
        fill="#ed7d31" />
    <path
        d="m129.19 189.21a167.34 167.34 0 0 0 -37 .59 12.49 12.49 0 0 0 -10.4 14.88c5.76 29 1.45 61.39 5.18 67.87 0 0 41.09.72 65-.93 6.56-31.48-6.34-50.76-12.82-75.35-1.15-4.2-5.64-6.61-9.96-7.06z"
        fill="#ed7d31" />
    <path
        d="m123.36 191.34a7.87 7.87 0 0 0 -3.74-3.53 7.27 7.27 0 0 1 -.13-4.88l-18.25-5.81c1.47 6 2.63 10.8.39 13.73 3.58 2.19 10.16 6.13 17.33 5.92s5.57-2.9 4.4-5.43z"
        fill="#b55b52" />
    <path d="m119.35 183.5-13.7-.81c4.28 4.58 10.77 6.3 13.74 4.44a7.27 7.27 0 0 1 -.04-3.63z"
        opacity=".2" />
    <path d="m119.39 196.75-3-2.46-4 2s2.61 2.38 7 .46z" fill="#ed7d31" />
    <path d="m119.39 196.75-3-2.46-4 2s2.61 2.38 7 .46z" opacity=".3" />
    <path
        d="m97.68 167.88c2.18 7.86 3.84 13.15 9.51 15.68 11.27 5 16.31-.31 16.71-8.6.35-7.46-3.27-19.06-12.32-20.74s-16.08 5.78-13.9 13.66z"
        fill="#b55b52" />
    <path
        d="m124.76 163.27c-.74-.68-2.36-.71-3.63-.5a5.54 5.54 0 0 0 -3.09 1.32l-2.51.4a5.7 5.7 0 0 0 -3.35-.3c-1.27.2-2.8.73-3.3 1.61a3.13 3.13 0 0 0 .1 2.28 4.73 4.73 0 0 0 1.91 2.65 4.7 4.7 0 0 0 2.35.1 4.76 4.76 0 0 0 2.2-.82 4.69 4.69 0 0 0 1-3.12 4.2 4.2 0 0 0 -.26-1.64l1.49-.24a4.32 4.32 0 0 0 .27 1.65 4.72 4.72 0 0 0 1.91 2.65 3.78 3.78 0 0 0 5.54-3.84 3.16 3.16 0 0 0 -.63-2.2zm-8.89 3.61a4.24 4.24 0 0 1 -.8 2.7 5.48 5.48 0 0 1 -4 .63 4.26 4.26 0 0 1 -1.6-2.31 2.58 2.58 0 0 1 -.13-1.82 4.39 4.39 0 0 1 2.89-1.33 4.34 4.34 0 0 1 3.16.37.78.78 0 0 1 .16.22 3.33 3.33 0 0 1 .32 1.54zm8.94-1.42a4.25 4.25 0 0 1 -.79 2.69 5.41 5.41 0 0 1 -4 .63 4.21 4.21 0 0 1 -1.59-2.31 3.24 3.24 0 0 1 -.22-1.55.75.75 0 0 1 .07-.25 4.37 4.37 0 0 1 2.89-1.34 4.43 4.43 0 0 1 3.17.37 2.55 2.55 0 0 1 .47 1.76z"
        fill="#ed7d31" />
    <path d="m113 166.84c.13.7.61 1.2 1.07 1.11s.72-.73.59-1.43-.61-1.19-1.07-1.1-.73.72-.59 1.42z"
        fill="#263238" />
    <path
        d="m120.26 165.68c.13.7.61 1.19 1.06 1.1s.73-.73.59-1.43-.6-1.19-1.06-1.1-.72.75-.59 1.43z"
        fill="#263238" />
    <path
        d="m118 166.68 1.05 5.89a6.53 6.53 0 0 0 2.08-.29.78.78 0 0 0 .18-1.37 13.9 13.9 0 0 1 -3.31-4.23z"
        fill="#a02724" />
    <path
        d="m108.9 165.54a.39.39 0 0 1 -.21 0 .42.42 0 0 1 -.19-.56 4.21 4.21 0 0 1 3-2.35.41.41 0 0 1 .46.36.42.42 0 0 1 -.36.47 3.35 3.35 0 0 0 -2.38 1.89.42.42 0 0 1 -.32.19z"
        fill="#263238" />
    <path
        d="m122.69 163.25a.41.41 0 0 1 -.37-.13 3.29 3.29 0 0 0 -2.81-1.09.42.42 0 0 1 -.48-.34.43.43 0 0 1 .34-.48 4.13 4.13 0 0 1 3.56 1.34.41.41 0 0 1 0 .59.39.39 0 0 1 -.24.11z"
        fill="#263238" />
    <path d="m119.39 196.75 3.35-3 4.26 1.25s-3.21 3.67-7.61 1.75z" fill="#ed7d31" />
    <path d="m119.39 196.75 3.35-3 4.26 1.25s-3.21 3.67-7.61 1.75z" opacity=".3" />
    <path
        d="m178.43 192.9c-1.28-4.65 2-7.53 3.76-10.54.31-.51 1.87-.23 1.95.84a4.94 4.94 0 0 1 -.94 3.76c.94 1.18 2.34 5.31-1 8a6.09 6.09 0 0 1 -3.77-2.06z"
        fill="#b55b52" />
    <path d="m122.4 174.74s-3-.24-11.3 1c1.34 2.34 3.44 4.1 7.66 3.43a3.89 3.89 0 0 0 3.64-4.43z"
        fill="#263238" />
    <path
        d="m116.51 177.5a7.87 7.87 0 0 1 4.79.51 4.46 4.46 0 0 1 -2.53 1.14 7.7 7.7 0 0 1 -4.78-.51 4.49 4.49 0 0 1 2.52-1.14z"
        fill="#a02724" />
    <path
        d="m122 174.73a1.72 1.72 0 0 1 -1.11 1.42 43.74 43.74 0 0 1 -7.4.47 2.32 2.32 0 0 1 -2-.94 68.45 68.45 0 0 1 10.51-.95z"
        fill="#fff" />
    <path
        d="m102.83 174.73a3.86 3.86 0 0 0 2.82-5c-1-4.16-1.35-5.5-1.35-5.5l7.7-7.23s-.92 3.55.81 3.32 2.12-3.32 2.12-3.32 2.9 3.45 4.69 2.61-1.66-3.83-1.66-3.83-.71-5.1-8.66-3.33-20.36 11.58-9.13 23.19z"
        fill="#263238" />
    <path
        d="m96.06 177.08a8.26 8.26 0 0 0 5.77 2.63c2.92.08 3.69-2.71 2.3-5.1-1.24-2.14-4.26-4.77-6.91-3.7s-2.97 4.19-1.16 6.17z"
        fill="#b55b52" />
    <path
        d="m127.77 227.82a160.7 160.7 0 0 0 -6.39-26.43.8.8 0 0 0 .17-.33l.08-.39 5.43-3.89v-1.76l-2.86-1.62-1.77 2.88a.64.64 0 0 0 -.78-.33 9.39 9.39 0 0 1 -4.66.22.59.59 0 0 0 -.61.26l-2.38-1.56-2.51 3 5.89 2.85.1.37a.86.86 0 0 0 .51.54v.33a2.72 2.72 0 0 0 0 .57c.39 3.16 3.84 32.68 1.69 62.84l5.71 2.65 5.07-2.65s-.03-21.08-2.69-37.55z"
        fill="#ed7d31" />
    <path
        d="m127.77 227.82a160.7 160.7 0 0 0 -6.39-26.43.8.8 0 0 0 .17-.33l.08-.39 5.43-3.89v-1.76l-2.86-1.62-1.77 2.88a.64.64 0 0 0 -.78-.33 9.39 9.39 0 0 1 -4.66.22.59.59 0 0 0 -.61.26l-2.38-1.56-2.51 3 5.89 2.85.1.37a.86.86 0 0 0 .51.54v.33a2.72 2.72 0 0 0 0 .57c.39 3.16 3.84 32.68 1.69 62.84l5.71 2.65 5.07-2.65s-.03-21.08-2.69-37.55z"
        opacity=".5" />
    <path d="m140.97 229.54h-22.4l-11.4 27.43.7.61h22.41l11.4-27.43z" fill="#263238" />
    <path d="m140.97 229.54h-22.4l-11.4 27.43.7.61h22.41l11.4-27.43z" fill="#fff" opacity=".4" />
    <path d="m130.28 257.58h-22.41l11.4-27.43h22.41z" fill="#263238" />
    <path d="m135.17 229.14h-8.53l-1.31 3.15.29.25h8.54l1.31-3.15z" fill="#ed7d31" />
    <path d="m135.17 229.14h-8.53l-1.31 3.15.29.25h8.54l1.31-3.15z" opacity=".5" />
    <path d="m134.16 232.54 1.31-3.15h-8.54l-1.31 3.15z" fill="#ed7d31" />
    <path d="m134.16 232.54 1.31-3.15h-8.54l-1.31 3.15z" fill="#fff" opacity=".2" />
    <path
        d="m101.26 246.75-.54 5.59c1.54 5.69 8.52 2.44 8.52 2.44l4-.21a3 3 0 0 0 2.63-2.82l.41-3.9a3.11 3.11 0 0 0 -2.47-3.56l-3.46-.39a6.16 6.16 0 0 0 -3 .41z"
        fill="#b55b52" />
    <path
        d="m103 246.42-.39-.08-3.73-.82c-1.27-.28-2.52-.59-3.76-.91a64.76 64.76 0 0 1 -7-2.19 25.34 25.34 0 0 1 -5.62-2.82 9.54 9.54 0 0 1 -1-.85 24.38 24.38 0 0 1 1-4.8 32.67 32.67 0 0 1 1.25-3.44c.47-1.17 1-2.35 1.6-3.53 1.19-2.36 2.53-4.75 4-7.09.72-1.18 1.5-2.34 2.26-3.49l1.17-1.7 1.07-1.53.36-.51a9.49 9.49 0 0 0 -15.21-11.37l-1 1.14-.81 1c-.52.7-1 1.4-1.51 2.1-1 1.4-1.9 2.85-2.79 4.32a73.82 73.82 0 0 0 -4.78 9.29 53.71 53.71 0 0 0 -3.34 10.52 34.5 34.5 0 0 0 -.41 12.34l.09.6a6.87 6.87 0 0 0 .69 2.11 18.23 18.23 0 0 0 4.63 5.67 23.94 23.94 0 0 0 5.23 3.26 29.2 29.2 0 0 0 5 1.75 43.73 43.73 0 0 0 4.8.95 55.87 55.87 0 0 0 9.16.41c1.5-.05 3-.17 4.45-.32s2.88-.38 4.48-.69a4.76 4.76 0 0 0 .13-9.32z"
        fill="#b65b52" />
    <path
        d="m89 190.69c-8.5 3-16.51 17.43-16.51 17.43.4 5.24 8.69 17.1 14.6 19.66a29.16 29.16 0 0 0 8.81-13.31c2.64-9.04-2.58-22.47-6.9-23.78z"
        fill="#ed7d31" />
    <path
        d="m102.88 186.79s5.88 7.13 13.54 7.5c-4.46 2.11-5.21 7.12-5.21 7.12s-9.56-2.91-11.37-13.09a3.72 3.72 0 0 1 3.04-1.53z"
        fill="#fff" />
    <path
        d="m119.62 187.81s3 3.45 3.12 5.94c3.59 1 5.31 6.27 5.31 6.27s.66-7.52-5-11.57a6 6 0 0 0 -3.43-.64z"
        fill="#fff" />
    <path
        d="m104.87 412.5-.37-2a1.24 1.24 0 0 0 -.83-.95l-8.73-2.86a25.26 25.26 0 0 1 -11.94.31l-1.84 5.33a1.24 1.24 0 0 0 1.21 1.67h21.28a1.23 1.23 0 0 0 1.22-1.5z"
        fill="#263238" />
    <path
        d="m97.69 407.65a13.26 13.26 0 0 1 -2.86-.39.22.22 0 0 1 -.17-.2.29.29 0 0 1 .12-.25c.37-.24 3.63-2.34 4.91-1.82a.84.84 0 0 1 .52.71 1.51 1.51 0 0 1 -.43 1.38 3.19 3.19 0 0 1 -2.09.57zm-2.13-.76c1.91.39 3.34.33 3.89-.17a1 1 0 0 0 .26-.91.4.4 0 0 0 -.25-.35c-.69-.28-2.57.63-3.9 1.43z"
        fill="#ed7d31" />
    <path
        d="m94.89 407.27a.2.2 0 0 1 -.11 0 .22.22 0 0 1 -.12-.2c0-.14 0-3.26 1.21-4.31a1.35 1.35 0 0 1 1.11-.35.87.87 0 0 1 .85.76c.14 1.18-1.67 3.45-2.81 4.09a.22.22 0 0 1 -.13.01zm1.87-4.4a.83.83 0 0 0 -.57.22c-.71.63-1 2.42-1 3.45 1-.8 2.24-2.52 2.14-3.29 0-.15-.08-.33-.45-.37z"
        fill="#ed7d31" />
    <path
        d="m150.51 411.63-.19-2a1.3 1.3 0 0 0 -.77-1l-8.65-3.7a26 26 0 0 1 -12.19-.8l-2.35 5.29a1.28 1.28 0 0 0 1 1.78l21.73 1.9a1.26 1.26 0 0 0 1.42-1.47z"
        fill="#263238" />
    <path
        d="m143.62 406a13 13 0 0 1 -2.88-.65.22.22 0 0 1 -.16-.22.28.28 0 0 1 .15-.24c.4-.22 3.91-2.07 5.17-1.42a.86.86 0 0 1 .47.77 1.51 1.51 0 0 1 -.57 1.37 3.19 3.19 0 0 1 -2.18.39zm-2.11-1c1.92.57 3.39.64 4 .17a1 1 0 0 0 .35-.9.4.4 0 0 0 -.22-.38c-.64-.28-2.7.48-4.13 1.18z"
        fill="#ed7d31" />
    <path
        d="m140.8 405.39a.19.19 0 0 1 -.12 0 .21.21 0 0 1 -.1-.21c0-.14.32-3.32 1.63-4.29a1.39 1.39 0 0 1 1.16-.26.89.89 0 0 1 .8.85c0 1.23-2 3.37-3.24 3.93a.2.2 0 0 1 -.13-.02zm2.3-4.32a.84.84 0 0 0 -.6.18c-.78.58-1.19 2.38-1.34 3.43 1.1-.73 2.51-2.37 2.48-3.17 0-.16-.06-.34-.42-.42z"
        fill="#ed7d31" />
    <path
        d="m189 184.76s-.87-3.73-1.19-5.59c-.08-.49-.25-.8-.5-.89s-.9.22-.9.22l-.25-.33a1.53 1.53 0 0 1 1.31-.28 1.43 1.43 0 0 1 .75 1.21c.31 1.84 1.18 5.52 1.19 5.56z"
        fill="#263238" />
    <path d="m185.03 175.42h.68v3.44h-.68z" fill="#263238"
        transform="matrix(.9781476 -.20791169 .20791169 .9781476 -32.78 42.41)" />
    <path
        d="m189.17 188.1c1.38 6.51 1.87 11.91 1.1 12.08s-2.53-5-3.92-11.48-1.87-11.91-1.09-12.08 2.53 4.98 3.91 11.48z"
        fill="#ed7d31" />
    <path
        d="m189.17 188.1c1.38 6.51 1.87 11.91 1.1 12.08s-2.53-5-3.92-11.48-1.87-11.91-1.09-12.08 2.53 4.98 3.91 11.48z"
        opacity=".5" />
    <path d="m185.3 182.82 2.44-.52c-.09-.31-.17-.61-.26-.91l-2.31.49c.04.31.08.62.13.94z"
        fill="#fff" opacity=".5" />
    <path d="m425.2 220.69h4.05v4.05h-4.05z" fill="#263238"
        transform="matrix(-.98768834 -.15643447 .15643447 -.98768834 814.34 509.52)" />
    <path d="m425.2 220.69h4.05v4.05h-4.05z" fill="#fff" opacity=".5"
        transform="matrix(-.98768834 -.15643447 .15643447 -.98768834 814.34 509.52)" />
    <path d="m426.25 219.79h2.23v4.05h-2.23z" opacity=".3"
        transform="matrix(.15643447 -.98768834 .98768834 .15643447 141.42 609.21)" />
    <rect fill="#263238" height="3.95" rx="1.02"
        transform="matrix(-.98768834 -.15643447 .15643447 -.98768834 815.68 503.95)" width="7.08"
        x="424.13" y="217.9" />
    <rect fill="#fff" height="3.95" opacity=".5" rx="1.02"
        transform="matrix(-.98768834 -.15643447 .15643447 -.98768834 815.68 503.95)" width="7.08"
        x="424.13" y="217.9" />
    <path d="m415.63 222.67h3.65v3.65h-3.65z" fill="#263238"
        transform="matrix(-.9612617 .27563736 -.27563736 -.9612617 880.61 325.22)" />
    <path d="m415.63 222.67h3.65v3.65h-3.65z" fill="#fff" opacity=".5"
        transform="matrix(-.9612617 .27563736 -.27563736 -.9612617 880.61 325.22)" />
    <path d="m415.4 222.71h3.65v2.01h-3.65z" opacity=".3"
        transform="matrix(.9612617 -.27563736 .27563736 .9612617 -45.5 123.68)" />
    <rect fill="#263238" height="3.56" rx="1.02"
        transform="matrix(-.9612617 .27563736 -.27563736 -.9612617 878.53 320.56)" width="6.37"
        x="413.55" y="220.23" />
    <rect fill="#fff" height="3.56" opacity=".5" rx="1.02"
        transform="matrix(-.9612617 .27563736 -.27563736 -.9612617 878.53 320.56)" width="6.37"
        x="413.55" y="220.23" />
    <path d="m434.02 225.59h3.65v3.65h-3.65z" fill="#263238"
        transform="matrix(.82903757 .5591929 -.5591929 .82903757 201.68 -204.85)" />
    <path d="m434.02 225.59h3.65v3.65h-3.65z" fill="#fff" opacity=".5"
        transform="matrix(.82903757 .5591929 -.5591929 .82903757 201.68 -204.85)" />
    <path d="m435.3 224.91h2.01v3.65h-2.01z" opacity=".3"
        transform="matrix(.5591929 -.82903757 .82903757 .5591929 4.36 461.66)" />
    <rect fill="#263238" height="3.56" rx="1.02"
        transform="matrix(.82903757 .5591929 -.5591929 .82903757 200.73 -206.02)" width="6.37"
        x="434.1" y="223.49" />
    <rect fill="#fff" height="3.56" opacity=".5" rx="1.02"
        transform="matrix(.82903757 .5591929 -.5591929 .82903757 200.73 -206.02)" width="6.37"
        x="434.1" y="223.49" />
    <circle cx="424.62" cy="239.11" fill="#ed7d31" r="15.12"
        transform="matrix(.98929781 -.14591037 .14591037 .98929781 -30.35 64.54)" />
    <circle cx="424.62" cy="239.11" fill="#ed7d31" r="12.05"
        transform="matrix(.02059343 -.99978793 .99978793 .02059343 176.82 658.73)" />
    <circle cx="424.62" cy="239.11" fill="#fff" opacity=".5" r="12.05"
        transform="matrix(.02059343 -.99978793 .99978793 .02059343 176.82 658.73)" />
    <path
        d="m417.53 238.67 7.65 1.21 1.49-9.45a.67.67 0 0 0 -.55-.76.65.65 0 0 0 -.76.56l-1.29 8.12-6.33-1a.67.67 0 0 0 -.77.55.68.68 0 0 0 .56.77z"
        fill="#263238" />
    <path d="m430.38 253.1.83 3.28h2.29v-5.43l-3.12 1.87z" fill="#ed7d31" />
    <path d="m419.01 253.1-.83 3.28h-2.29v-5.43l3.12 1.87z" fill="#ed7d31" />
    <path d="m365.6 256.38h63.46v126.15h-63.46z" fill="#ed7d31" />
    <path d="m365.6 256.38h63.46v126.15h-63.46z" fill="#fff" opacity=".4" />
    <path d="m429.06 256.38h12.1v126.15h-12.1z" fill="#ed7d31" />
    <path d="m370.05 265.74h54.89v30.63h-54.89z" fill="#fff" opacity=".4" />
    <path
        d="m390.34 265.74.24 4.08c.08 1.35.83 2.38 1.74 2.38h10.35c.91 0 1.66-1 1.74-2.38l.24-4.08z"
        fill="#ed7d31" />
    <path d="m370.05 299.72h54.89v30.63h-54.89z" fill="#fff" opacity=".4" />
    <path
        d="m390.34 299.72.24 4.08c.08 1.35.83 2.38 1.74 2.38h10.35c.91 0 1.66-1 1.74-2.38l.24-4.08z"
        fill="#ed7d31" />
    <path d="m370.05 333.7h54.89v30.63h-54.89z" fill="#fff" opacity=".4" />
    <path
        d="m390.34 333.7.24 4.08c.08 1.35.83 2.38 1.74 2.38h10.35c.91 0 1.66-1 1.74-2.38l.24-4.08z"
        fill="#ed7d31" />
</svg>