<svg width="95" height="77" viewBox="0 0 95 77" fill="none" xmlns="http://www.w3.org/2000/svg">
    <path d="M44.798 76.468c-8.105-.337-15.588-2.186-22.374-5.526C9.8 64.727 1.53 53.567.16 41.79c-.25-2.153-.131-5.498-.125-7.43l.002-.718.203 1.864c1.587 14.577 18.478 26.86 39.117 29.204 2.68.304 4.74.416 7.65.416 2.252 0 3.524-.047 5.495-.205 8.742-.7 17.19-3.17 24.055-7.032 9.5-5.346 15.633-14.867 17.166-23.24.074-.4.252-1.1.255-1.178.013-.315.041.61.03 1.491-.087 7.396-1.82 16.707-6.53 23.049-7.654 10.306-20.847 17.08-35.634 18.297-2.018.166-5.179.238-7.045.16z" fill="#2A6680"/>
    <path d="M42.801 65.26c-7.005-.527-13.18-1.878-19.007-4.16-2.082-.814-6.361-2.955-8.105-4.054-4.645-2.928-8.832-6.872-11.367-10.708-6.285-9.513-5.652-20.474 1.712-29.651 5.6-6.98 15.099-12.466 25.888-14.95 2.322-.536 2.582-.588 4.251-.861 21.803-3.562 44.098 3.987 53.47 18.103 9.047 13.625 3.695 29.593-13.11 39.115-6.64 3.762-14.556 6.14-23.228 6.977-2.36.228-8.521.339-10.504.19zM10.806 29.703c1.306-.608 2.357-1.936 3.77-4.763.959-1.919 1.951-3.298 3.489-4.85 1.594-1.61 2.708-2.517 4.785-3.9a36.256 36.256 0 0 1 8.761-4.25c2.412-.78 4.064-1.085 6.813-1.258 3.3-.208 5.247-.791 6.501-1.947.643-.592.871-1.086.765-1.653-.361-1.923-5.285-2.705-10.796-1.712-9.086 1.636-19.169 7.31-23.67 13.322-.883 1.178-1.962 3.226-2.482 4.713-1.074 3.064-.966 5.6.27 6.354.53.323 1.013.308 1.794-.056z" fill="#64C7F1"/>
    <path d="M9.26 29.88a2.005 2.005 0 0 1-.446-.228c-.234-.18-.503-.654-.657-1.156-.117-.38-.132-.525-.133-1.27-.002-1.227.242-2.429.835-4.105 1.447-4.095 4.645-7.69 9.964-11.196 5.02-3.31 11.63-5.914 17.01-6.7 2.32-.34 4.85-.36 6.599-.054 2.088.365 3.271 1.132 3.28 2.126.01 1.118-1.416 2.244-3.634 2.867-1.131.317-1.67.504-3.612.577-1.74.066-2.945.23-4.609.627-4.5 1.073-9.536 3.461-13.43 6.544-.977.773-2.328 2.049-3.126 2.951-1.224 1.384-1.996 2.564-2.682 4.101-.682 1.527-1.395 2.549-2.13 3.403-.636.74-1.529 1.36-2.213 1.538-.405.106-.671.1-1.015-.024z" fill="#CDE5EF"/>
    <path d="M40.21 43.611a8.38 8.38 0 0 0 1.426-.45c.171-.073 1.214-.578 2.318-1.122 2.144-1.058 2.163-1.066 2.544-1.027.178.018.392.116 2.285 1.048 2.147 1.057 2.512 1.221 3.123 1.405a4.92 4.92 0 0 0 1.714.227c.476-.012.6-.026.865-.097a3.14 3.14 0 0 0 1.52-.892c.552-.593.778-1.338.713-2.348-.03-.478-.096-.758-.612-2.618-.255-.92-.464-1.726-.464-1.791 0-.18.109-.432.24-.556.063-.06.838-.712 1.721-1.448 2.022-1.685 2.309-1.977 2.657-2.71.32-.673.352-1.405.088-2.029-.342-.811-1.164-1.465-2.31-1.836-.544-.176-.773-.216-3.137-.541-1.978-.273-2.16-.303-2.332-.385a1.488 1.488 0 0 1-.298-.19c-.072-.065-.508-.765-1.23-1.978-.616-1.032-1.204-2-1.307-2.15-1.098-1.605-2.828-2.267-4.544-1.74-.864.266-1.749.97-2.317 1.845-.072.11-.627 1.03-1.233 2.045-.818 1.37-1.138 1.88-1.24 1.975-.252.237-.358.268-1.401.41-2.49.337-3.563.498-3.917.586-1.558.386-2.6 1.24-2.861 2.344-.067.282-.06.783.016 1.098.077.317.278.75.499 1.07.304.44.731.836 2.458 2.277 1.463 1.22 1.686 1.418 1.754 1.552.154.303.16.266-.374 2.194-.267.964-.514 1.905-.547 2.091-.08.443-.083 1.129-.009 1.477.122.571.329.984.684 1.365.454.487 1.06.806 1.787.94.368.069 1.285.047 1.72-.04zm-1.048-2.637a2.127 2.127 0 0 1-.021-.38c.004-.34-.006-.297.602-2.492.237-.854.446-1.65.465-1.77.137-.868-.294-2.016-1.013-2.695a119.58 119.58 0 0 0-1.757-1.48c-.884-.737-1.688-1.427-1.788-1.534-.213-.23-.352-.497-.295-.567.056-.067.336-.19.59-.259.126-.034 1.185-.194 2.355-.356 2.736-.378 2.727-.376 3.431-.724.51-.25.863-.506 1.222-.882.244-.256.339-.404 1.523-2.375 1.103-1.838 1.287-2.128 1.467-2.31.112-.113.251-.23.308-.26l.104-.052.167.114c.17.117.329.29.495.537.05.076.597.983 1.214 2.015.616 1.032 1.19 1.97 1.274 2.084.503.683 1.595 1.338 2.523 1.513.137.026 1.199.179 2.36.34 1.16.161 2.213.32 2.339.351.25.064.559.199.618.27.055.066-.08.322-.286.548-.091.099-.888.782-1.772 1.517-1.683 1.402-1.912 1.605-2.131 1.886-.533.683-.8 1.665-.654 2.412.027.135.258 1 .514 1.923.257.922.489 1.804.516 1.96.049.284.04.62-.02.715-.04.065-.425-.003-.796-.14-.165-.062-1.266-.588-2.446-1.169-1.18-.58-2.237-1.085-2.347-1.122a5.26 5.26 0 0 0-2-.218c-.858.075-1.116.162-2.477.836-3.298 1.63-3.634 1.782-4.072 1.831-.186.021-.187.021-.212-.067z" fill="#fff"/>
</svg>
