<svg width="95" height="77" viewBox="0 0 95 77" fill="none" xmlns="http://www.w3.org/2000/svg">
<path d="M44.7976 76.4683C36.6931 76.1309 29.21 74.2825 22.4245 70.942C9.80003 64.7268 1.52864 53.5668 0.158653 41.7898C-0.0917691 39.637 0.0277042 36.2923 0.0336323 34.3604L0.0358384 33.6415L0.238881 35.5064C1.82593 50.0828 18.7173 62.3665 39.3555 64.71C42.0356 65.0143 44.0965 65.1265 47.006 65.1265C49.2577 65.1265 50.5296 65.079 52.5006 64.9212C61.2434 64.2216 69.6918 61.7518 76.5563 57.8886C86.0559 52.5426 92.1892 43.0225 93.7224 34.6484C93.7955 34.2489 93.974 33.549 93.9772 33.4714C93.9901 33.1556 94.0182 34.0811 94.0078 34.9622C93.9203 42.358 92.1876 51.6695 87.4777 58.0109C79.8231 68.3171 66.6301 75.0912 51.8434 76.308C49.8248 76.4742 46.6645 76.546 44.7976 76.4683Z" fill="#2A6680"/>
<path d="M42.801 65.2607C35.7961 64.7332 29.6219 63.3819 23.7937 61.1007C21.7116 60.2857 17.4325 58.145 15.6888 57.046C11.0438 54.1183 6.85709 50.174 4.32225 46.3376C-1.96277 36.8253 -1.33005 25.8643 6.03387 16.6866C11.6345 9.70654 21.133 4.22106 31.9218 1.73617C34.2438 1.20135 34.5044 1.14864 36.1735 0.875987C57.9759 -2.68555 80.2712 4.86285 89.6437 18.9791C98.6901 32.6043 93.338 48.5715 76.5327 58.0937C69.8933 61.8556 61.9775 64.2334 53.3051 65.0708C50.9458 65.2987 44.784 65.41 42.801 65.2607ZM10.8061 29.7021C12.112 29.094 13.163 27.7662 14.5758 24.9393C15.535 23.0202 16.527 21.641 18.065 20.0886C19.6589 18.4797 20.7729 17.5716 22.8496 16.1881C25.5348 14.3993 28.6011 12.9123 31.6111 11.9392C34.0233 11.1594 35.6747 10.8545 38.4243 10.6811C41.7245 10.473 43.6709 9.88994 44.9254 8.73354C45.5676 8.14155 45.7961 7.64774 45.6899 7.0814C45.329 5.15753 40.4047 4.3764 34.8935 5.36878C25.8075 7.00485 15.725 12.6794 11.2235 18.6906C10.3408 19.8694 9.26247 21.9174 8.74159 23.4044C7.66826 26.4685 7.77609 29.0047 9.01172 29.7582C9.54125 30.081 10.0247 30.0659 10.8061 29.7021Z" fill="#64C7F1"/>
<path d="M9.26076 29.8801C9.10583 29.8244 8.9047 29.7215 8.81383 29.6516C8.5804 29.4718 8.31066 28.9971 8.15678 28.4952C8.04011 28.1147 8.02506 27.9708 8.02394 27.2248C8.02209 25.9982 8.26647 24.7969 8.8589 23.1206C10.3062 19.0251 13.5043 15.4315 18.823 11.924C23.8421 8.61411 30.4529 6.01002 35.8328 5.22364C38.1529 4.88451 40.6837 4.86398 42.4317 5.1701C44.5201 5.53584 45.7032 6.3027 45.7125 7.29668C45.7229 8.41478 44.2956 9.54059 42.0781 10.1633C40.947 10.4808 40.4079 10.6679 38.4659 10.7409C36.7257 10.8063 35.5213 10.97 33.8573 11.367C29.3568 12.4408 24.3209 14.829 20.4267 17.9115C19.4504 18.6843 18.099 19.96 17.3008 20.8625C16.077 22.2462 15.3052 23.4265 14.6189 24.9638C13.9373 26.4906 13.2243 27.5125 12.4895 28.3666C11.8534 29.106 10.9603 29.7266 10.2758 29.9049C9.87109 30.0103 9.60461 30.0038 9.26076 29.8801Z" fill="#CDE5EF"/>
</svg>
