<svg width="110" height="110" viewBox="0 0 110 110" fill="none" xmlns="http://www.w3.org/2000/svg">
<path d="M29.7909 22.917C28.5253 22.917 27.4993 23.943 27.4993 25.2087V84.792C27.4993 86.0576 28.5253 87.0837 29.7909 87.0837H43.5409C44.8066 87.0837 45.8326 86.0576 45.8326 84.792V25.2087C45.8326 23.943 44.8066 22.917 43.5409 22.917H29.7909Z" fill="#39B6EB"/>
<path d="M66.4576 22.917C65.192 22.917 64.1659 23.943 64.1659 25.2087V84.792C64.1659 86.0576 65.192 87.0837 66.4576 87.0837H80.2076C81.4733 87.0837 82.4993 86.0576 82.4993 84.792V25.2087C82.4993 23.943 81.4733 22.917 80.2076 22.917H66.4576Z" fill="#39B6EB"/>
</svg>
