<svg width="21" height="21" viewBox="0 0 21 21" fill="none" xmlns="http://www.w3.org/2000/svg">
<path d="M13.9231 10.8077C14.9111 10.0304 15.6322 8.96454 15.9861 7.75835C16.3401 6.55217 16.3093 5.26565 15.898 4.07778C15.4867 2.88992 14.7154 1.85978 13.6914 1.13067C12.6674 0.401571 11.4416 0.00976563 10.1846 0.00976562C8.92754 0.00976562 7.70174 0.401571 6.67774 1.13067C5.65374 1.85978 4.88245 2.88992 4.47118 4.07778C4.05991 5.26565 4.02911 6.55217 4.38306 7.75835C4.73701 8.96454 5.45811 10.0304 6.44604 10.8077C4.7532 11.4859 3.27613 12.6108 2.17231 14.0625C1.06849 15.5141 0.379295 17.2381 0.178197 19.0506C0.163641 19.1829 0.175292 19.3168 0.212485 19.4447C0.249677 19.5725 0.311684 19.6918 0.394964 19.7956C0.563155 20.0054 0.807787 20.1398 1.07504 20.1691C1.3423 20.1985 1.61029 20.1206 1.82006 19.9524C2.02982 19.7842 2.16418 19.5396 2.19358 19.2723C2.41486 17.3025 3.35413 15.4832 4.83194 14.1621C6.30975 12.841 8.2225 12.1107 10.2047 12.1107C12.187 12.1107 14.0997 12.841 15.5775 14.1621C17.0553 15.4832 17.9946 17.3025 18.2159 19.2723C18.2433 19.5199 18.3614 19.7486 18.5475 19.9142C18.7336 20.0798 18.9745 20.1707 19.2236 20.1691H19.3344C19.5986 20.1388 19.84 20.0052 20.0061 19.7976C20.1722 19.5899 20.2495 19.3251 20.2212 19.0607C20.0191 17.243 19.3262 15.5146 18.2167 14.0607C17.1073 12.6068 15.623 11.4823 13.9231 10.8077V10.8077ZM10.1846 10.0922C9.38737 10.0922 8.60806 9.85583 7.94521 9.41292C7.28235 8.97001 6.76572 8.34049 6.46064 7.60397C6.15556 6.86744 6.07573 6.05699 6.23126 5.27509C6.38679 4.4932 6.77068 3.77499 7.3344 3.21127C7.89811 2.64756 8.61633 2.26367 9.39822 2.10814C10.1801 1.95261 10.9906 2.03243 11.7271 2.33751C12.4636 2.64259 13.0931 3.15923 13.536 3.82208C13.979 4.48494 14.2154 5.26425 14.2154 6.06146C14.2154 7.13048 13.7907 8.15573 13.0348 8.91164C12.2789 9.66756 11.2536 10.0922 10.1846 10.0922Z" fill="#7F8589"/>
</svg>
