<svg width="20" height="27" viewBox="0 0 20 27" fill="none" xmlns="http://www.w3.org/2000/svg">
<path d="M15.5833 8.75V9.41667H16.25H17.5C18.5068 9.41667 19.3333 10.2432 19.3333 11.25V23.75C19.3333 24.7568 18.5068 25.5833 17.5 25.5833H2.5C1.49319 25.5833 0.666667 24.7568 0.666667 23.75V11.25C0.666667 10.2432 1.49319 9.41667 2.5 9.41667H3.75H4.41667V8.75V6.25C4.41667 3.16819 6.91819 0.666667 10 0.666667C13.0818 0.666667 15.5833 3.16819 15.5833 6.25V8.75ZM13.75 9.41667H14.4167V8.75V6.25C14.4167 3.80681 12.4432 1.83333 10 1.83333C7.55681 1.83333 5.58333 3.80681 5.58333 6.25V8.75V9.41667H6.25H13.75ZM17.5 24.4167H18.1667V23.75V11.25V10.5833H17.5H2.5H1.83333V11.25V23.75V24.4167H2.5H17.5ZM11.8333 17.5C11.8333 18.5068 11.0068 19.3333 10 19.3333C8.99319 19.3333 8.16667 18.5068 8.16667 17.5C8.16667 16.4932 8.99319 15.6667 10 15.6667C11.0068 15.6667 11.8333 16.4932 11.8333 17.5Z" fill="#7F8589" stroke="#7F8589" stroke-width="1.33333"/>
</svg>
