<svg xmlns="http://www.w3.org/2000/svg" version="1.1" xmlns:xlink="http://www.w3.org/1999/xlink" xmlns:svgjs="http://svgjs.com/svgjs" width="512" height="512" x="0" y="0" viewBox="0 0 512 512" style="enable-background:new 0 0 512 512" xml:space="preserve" class=""><g><path fill="#5766cb" d="M370.439 497.443 326.894 512H186.206l-47.153-14.513c2.72-28.711 6.346-39.983 8.571-54.704 1.298-8.458-4.721-15.947 2.624-20.346 7.51-4.502 15.247-8.499 22.952-12.043a292.177 292.177 0 0 1 19.738-8.2c25.744-9.663 48.625 6.882 58.463 5.11a28.51 28.51 0 0 1 10.24 0c9.838 1.772 32.719-14.773 58.463-5.11 13.928 5.213 28.701 11.857 42.691 20.243 7.345 4.399-2.847 11.888-1.549 20.346 2.226 14.72 6.463 25.949 9.193 54.66z" data-original="#5766cb"></path><path fill="#3d4fc3" d="M173.201 410.393c-5.676 4.759-9.529 12.774-10.539 21.819-1.834 16.751-4.893 46.78-7.067 79.788l-16.542-14.513c2.72-28.711 6.346-39.983 8.571-54.704 1.298-8.458-4.721-15.947 2.624-20.346 7.511-4.503 15.248-8.5 22.953-12.044z" data-original="#3d4fc3"></path><path fill="#ecf4ff" d="M214.87 463.094s7.111 12.88 18.601 26.685c6.461 7.763 14.306 5.832 23.05 12.053 8.743-6.221 16.587-4.288 23.048-12.05 11.491-13.806 18.603-26.688 18.603-26.688v-52.705H214.87z" data-original="#ecf4ff" class=""></path><path fill="#d57080" d="M279.566 489.779c-6.458 7.764-14.304 15.82-23.047 22.045-8.743-6.225-16.589-14.281-23.047-22.045l23.047-33.301z" data-original="#d57080"></path><path fill="#d57080" d="m214.87 427.573 41.653 40.044 41.654-40.044-41.65-30.784" data-original="#d57080"></path><path fill="#ecf4ff" d="m186.206 511.812-.045.188h-58.102c2.72-28.711 6.346-54.497 8.571-69.218 1.298-8.458 6.274-15.947 13.619-20.346a59.266 59.266 0 0 1 12.568 8.664c16.929 15.21 22.87 37.871 24.921 53.42 1.202 9.109.618 18.359-1.532 27.292z" data-original="#ecf4ff" class=""></path><path fill="#ddeafb" d="M162.817 431.1c-.062.371-.113.742-.154 1.113-1.834 16.751-4.893 46.78-7.067 79.788h-27.537c2.72-28.711 6.346-54.497 8.571-69.218 1.298-8.458 6.274-15.947 13.619-20.346a59.263 59.263 0 0 1 12.568 8.663z" data-original="#ddeafb" class=""></path><path fill="#ecf4ff" d="M384.996 512h-58.102l-.279-1.153c-1.898-7.802-2.493-15.875-1.6-23.855 2.094-18.715 9.84-50.179 37.781-64.555 7.345 4.399 12.321 11.888 13.619 20.346 2.225 14.72 5.851 40.506 8.581 69.217z" data-original="#ecf4ff" class=""></path><path fill="#ddeafb" d="m320.105 402.194-21.928 60.9-41.653-40.045-41.653 40.045-21.928-60.9c25.74-9.664 48.625-14.432 58.464-16.204a28.488 28.488 0 0 1 10.236 0c9.837 1.771 32.722 6.539 58.462 16.204z" data-original="#ddeafb" class=""></path><path fill="#9d6b6b" d="M412.055 228.507 365.3 281.83l-181.56-50.082-93.146 1.325S43.813 164.674 57.991 97.824C72.169 30.99 158.258 71.496 158.258 71.496S205.086 0 266.859 0c91.789 0 130.427 87.702 171.955 56.312 0 0 54.46 102.95-26.759 172.195z" data-original="#9d6b6b"></path><path fill="#8b5e5e" d="m183.74 231.748-52.991 27.882-40.156-26.556S43.812 164.675 57.99 97.825C72.169 30.99 158.258 71.496 158.258 71.496s-29.521 49.351 23.981 88.74c17.259 12.693 13.938 40.155 1.501 71.512z" data-original="#8b5e5e"></path><path fill="#ffddce" d="M288.147 338.616v52.812c0 17.461-14.159 31.62-31.62 31.62-17.471 0-31.63-14.159-31.63-31.62v-52.812z" data-original="#ffddce" class=""></path><path fill="#ffcbbe" d="M266.853 421.324a31.678 31.678 0 0 1-10.324 1.722c-17.471 0-31.63-14.159-31.63-31.62v-52.812h20.649v52.812c-.001 13.854 8.906 25.625 21.305 29.898zM124.413 294.64c-22.801 0-41.284-18.484-41.284-41.284 0-3.138.35-6.194 1.013-9.132 5.356-23.719 40.271-19.829 40.271 4.487h264.22c0-24.316 34.915-28.207 40.271-4.487a41.444 41.444 0 0 1 1.013 9.132c0 22.801-18.484 41.284-41.284 41.284" data-original="#ffcbbe"></path><path fill="#eaac9d" d="M124.42 271.779a7.718 7.718 0 0 1-6.317-3.269c-.08-.111-1.903-2.595-4.65-4.477-3.679-2.522-6.096-2.01-7.596-1.406a7.726 7.726 0 0 1-10.056-4.275 7.726 7.726 0 0 1 4.274-10.056c7.397-2.984 15.433-1.793 22.628 3.351 4.798 3.43 7.727 7.526 8.045 7.982a7.726 7.726 0 0 1-1.913 10.758 7.688 7.688 0 0 1-4.415 1.392zM388.627 271.805a7.715 7.715 0 0 1-4.429-1.398c-3.499-2.442-4.342-7.279-1.899-10.778.318-.456 3.247-4.553 8.045-7.982 7.196-5.144 15.231-6.335 22.628-3.351a7.726 7.726 0 0 1-5.782 14.331c-1.5-.605-3.917-1.116-7.596 1.406-2.795 1.917-4.634 4.456-4.653 4.481a7.678 7.678 0 0 1-6.314 3.291z" data-original="#eaac9d"></path><path fill="#ffcbbe" d="M224.896 338.616h63.25v48.653h-63.25z" data-original="#ffcbbe"></path><path fill="#ffddce" d="M388.633 200.215v74.019c0 53.183-43.108 96.292-96.292 96.292h-71.64c-53.183 0-96.292-43.108-96.292-96.292v-74.019c34.12 0 61.789-27.653 61.789-61.773 0 0 .495.463 1.469 1.309 10.346 8.925 75.568 60.464 200.966 60.464z" data-original="#ffddce" class=""></path><path fill="#ffcbbe" d="M283.959 370.525h-63.258c-53.183 0-96.292-43.108-96.292-96.292v-74.019c34.12 0 61.789-27.653 61.789-61.773 0 0 .495.463 1.469 1.309v134.482c0 53.185 43.109 96.293 96.292 96.293z" data-original="#ffcbbe"></path><g fill="#2b4d66"><path d="M194.576 209.512c-6.877 0-12.472 9.287-12.472 20.702s5.595 20.702 12.472 20.702c6.878 0 12.473-9.287 12.473-20.702s-5.595-20.702-12.473-20.702z" fill="#2b4d66" data-original="#2b4d66"></path><ellipse cx="318.471" cy="230.214" rx="12.472" ry="20.702" fill="#2b4d66" data-original="#2b4d66"></ellipse></g><g fill="#eaafa5"><ellipse cx="343.674" cy="271.754" rx="21.626" ry="13.15" fill="#eaafa5" data-original="#eaafa5"></ellipse><ellipse cx="169.373" cy="271.754" rx="21.626" ry="13.15" fill="#eaafa5" data-original="#eaafa5"></ellipse></g><path fill="#d57080" d="M256.524 316.037c-8.757 0-16.988-3.41-23.18-9.601a7.727 7.727 0 0 1 10.927-10.927 17.214 17.214 0 0 0 12.253 5.075c4.628 0 8.98-1.802 12.253-5.075a7.727 7.727 0 0 1 10.927 10.927c-6.192 6.191-14.424 9.601-23.18 9.601z" data-original="#d57080"></path></g></svg>