<svg width="76" height="63" viewBox="0 0 76 63" fill="none" xmlns="http://www.w3.org/2000/svg">
<path fill-rule="evenodd" clip-rule="evenodd" d="M35.3949 1.85653C36.1662 2.17634 36.8254 2.71768 37.2891 3.41211C37.7528 4.10653 38.0002 4.92286 38 5.75787V56.4245C37.9998 57.2595 37.7521 58.0756 37.2881 58.7698C36.8242 59.464 36.1648 60.005 35.3934 60.3245C34.622 60.644 33.7732 60.7276 32.9543 60.5648C32.1354 60.4019 31.3831 59.9999 30.7927 59.4096L15.1409 43.7579H4.22222C3.10242 43.7579 2.02848 43.313 1.23666 42.5212C0.44484 41.7294 0 40.6554 0 39.5356V22.6467C0 21.5269 0.44484 20.453 1.23666 19.6612C2.02848 18.8694 3.10242 18.4245 4.22222 18.4245H15.1409L30.7927 2.77276C31.3831 2.18193 32.1355 1.77951 32.9548 1.61642C33.774 1.45333 34.6232 1.53689 35.3949 1.85653Z" fill="#B793F1"/>
</svg>
