<svg width="76" height="63" viewBox="0 0 76 63" fill="none" xmlns="http://www.w3.org/2000/svg">
<path fill-rule="evenodd" clip-rule="evenodd" d="M35.3949 2.12055C36.1662 2.44036 36.8254 2.9817 37.2891 3.67612C37.7528 4.37054 38.0002 5.18687 38 6.02188V56.6885C37.9998 57.5235 37.7521 58.3396 37.2881 59.0338C36.8242 59.728 36.1648 60.269 35.3934 60.5885C34.622 60.908 33.7732 60.9916 32.9543 60.8288C32.1354 60.6659 31.3831 60.264 30.7927 59.6736L15.1409 44.0219H4.22222C3.10242 44.0219 2.02848 43.577 1.23666 42.7852C0.44484 41.9934 0 40.9195 0 39.7996V22.9108C0 21.791 0.44484 20.717 1.23666 19.9252C2.02848 19.1334 3.10242 18.6885 4.22222 18.6885H15.1409L30.7927 3.03677C31.3831 2.44594 32.1355 2.04353 32.9548 1.88043C33.774 1.71734 34.6232 1.8009 35.3949 2.12055ZM57.6629 1.49988C58.4547 0.708336 59.5284 0.263672 60.648 0.263672C61.7676 0.263672 62.8413 0.708336 63.6331 1.49988C67.5588 5.41677 70.6722 10.0705 72.7945 15.194C74.9168 20.3174 76.0061 25.8096 76 31.3552C76.0061 36.9008 74.9168 42.393 72.7945 47.5164C70.6722 52.6399 67.5588 57.2936 63.6331 61.2105C62.8368 61.9796 61.7702 62.4052 60.6632 62.3956C59.5561 62.386 58.4971 61.9419 57.7143 61.1591C56.9315 60.3763 56.4874 59.3173 56.4778 58.2102C56.4682 57.1032 56.8938 56.0366 57.6629 55.2403C60.8048 52.1077 63.2963 48.3847 64.9941 44.2855C66.6919 40.1864 67.5624 35.792 67.5555 31.3552C67.5626 26.9184 66.6922 22.5239 64.9944 18.4247C63.2967 14.3256 60.805 10.6026 57.6629 7.4701C56.8713 6.67832 56.4267 5.60457 56.4267 4.48499C56.4267 3.36541 56.8713 2.29166 57.6629 1.49988ZM45.7182 13.4403C46.1103 13.0478 46.576 12.7363 47.0886 12.5238C47.6011 12.3114 48.1506 12.202 48.7054 12.202C49.2603 12.202 49.8097 12.3114 50.3223 12.5238C50.8349 12.7363 51.3005 13.0478 51.6926 13.4403C54.0483 15.7905 55.9164 18.5831 57.1895 21.6575C58.4626 24.7319 59.1156 28.0276 59.1111 31.3552C59.1156 34.6828 58.4626 37.9785 57.1895 41.0529C55.9164 44.1273 54.0483 46.9199 51.6926 49.2701C50.9004 50.0624 49.8259 50.5074 48.7054 50.5074C47.585 50.5074 46.5105 50.0624 45.7182 49.2701C44.9259 48.4778 44.4809 47.4033 44.4809 46.2829C44.4809 45.1624 44.9259 44.0879 45.7182 43.2957C47.2894 41.7298 48.5355 39.8688 49.3847 37.8195C50.234 35.7703 50.6696 33.5734 50.6666 31.3552C50.6703 29.1369 50.235 26.9398 49.3857 24.8905C48.5364 22.8412 47.29 20.9802 45.7182 19.4148C44.9264 18.6223 44.4816 17.5478 44.4816 16.4275C44.4816 15.3073 44.9264 14.2328 45.7182 13.4403Z" fill="#B793F1"/>
</svg>
