<svg width="76" height="63" viewBox="0 0 76 63" fill="none" xmlns="http://www.w3.org/2000/svg">
<path fill-rule="evenodd" clip-rule="evenodd" d="M35.3949 1.98935C36.1662 2.30916 36.8254 2.85049 37.2891 3.54492C37.7528 4.23934 38.0002 5.05567 38 5.89068V56.5573C37.9998 57.3923 37.7521 58.2084 37.2881 58.9026C36.8242 59.5968 36.1648 60.1378 35.3934 60.4573C34.622 60.7768 33.7732 60.8604 32.9543 60.6976C32.1354 60.5347 31.3831 60.1327 30.7927 59.5424L15.1409 43.8907H4.22222C3.10242 43.8907 2.02848 43.4458 1.23666 42.654C0.44484 41.8622 0 40.7882 0 39.6684V22.7796C0 21.6598 0.44484 20.5858 1.23666 19.794C2.02848 19.0022 3.10242 18.5573 4.22222 18.5573H15.1409L30.7927 2.90557C31.3831 2.31474 32.1355 1.91233 32.9548 1.74923C33.774 1.58614 34.6232 1.6697 35.3949 1.98935ZM45.7182 13.3091C46.1103 12.9166 46.576 12.6051 47.0886 12.3926C47.6011 12.1802 48.1506 12.0708 48.7054 12.0708C49.2603 12.0708 49.8097 12.1802 50.3223 12.3926C50.8349 12.6051 51.3005 12.9166 51.6926 13.3091C54.0483 15.6593 55.9164 18.4519 57.1895 21.5263C58.4626 24.6007 59.1156 27.8964 59.1111 31.224C59.1156 34.5516 58.4626 37.8473 57.1895 40.9217C55.9164 43.9961 54.0483 46.7887 51.6926 49.1389C50.9004 49.9311 49.8259 50.3762 48.7054 50.3762C47.585 50.3762 46.5105 49.9311 45.7182 49.1389C44.9259 48.3466 44.4809 47.2721 44.4809 46.1517C44.4809 45.0312 44.9259 43.9567 45.7182 43.1644C47.2894 41.5986 48.5355 39.7376 49.3847 37.6883C50.234 35.6391 50.6696 33.4422 50.6666 31.224C50.6703 29.0057 50.235 26.8086 49.3857 24.7593C48.5364 22.71 47.29 20.849 45.7182 19.2836C44.9264 18.4911 44.4816 17.4166 44.4816 16.2963C44.4816 15.1761 44.9264 14.1016 45.7182 13.3091Z" fill="#B793F1"/>
</svg>
