<svg width="36" height="36" viewBox="0 0 36 36" fill="none" xmlns="http://www.w3.org/2000/svg">
<path d="M17.55 0C7.85013 0 0 7.84924 0 17.55C0 27.2497 7.84924 35.1 17.55 35.1C27.2499 35.1 35.1 27.2508 35.1 17.55C35.1 7.85013 27.2508 0 17.55 0ZM17.55 32.6512C9.22321 32.6512 2.44884 25.8769 2.44884 17.55C2.44884 9.22314 9.22321 2.44884 17.55 2.44884C25.8769 2.44884 32.6512 9.22314 32.6512 17.55C32.6512 25.8769 25.8769 32.6512 17.55 32.6512Z" fill="#E45F35"/>
<path d="M17.0305 22.2062C16.0602 22.2062 15.2748 23.0147 15.2748 23.9849C15.2748 24.9321 16.0371 25.7638 17.0305 25.7638C18.0239 25.7638 18.8092 24.9321 18.8092 23.9849C18.8092 23.0147 18.0007 22.2062 17.0305 22.2062ZM17.3308 8.73828C14.2121 8.73828 12.7798 10.5864 12.7798 11.8339C12.7798 12.7348 13.5422 13.1507 14.1659 13.1507C15.4134 13.1507 14.9052 11.3718 17.2615 11.3718C18.4165 11.3718 19.3406 11.8801 19.3406 12.9427C19.3406 14.1902 18.0469 14.9063 17.2846 15.5531C16.6146 16.1305 15.7368 17.0778 15.7368 19.0645C15.7368 20.2657 16.0602 20.6122 17.0073 20.6122C18.1392 20.6122 18.3703 20.104 18.3703 19.665C18.3703 18.4638 18.3934 17.7708 19.664 16.7774C20.2877 16.2923 22.2512 14.7214 22.2512 12.5499C22.2512 10.3785 20.2877 8.73828 17.3308 8.73828Z" fill="#E45F35"/>
</svg>
