<svg xmlns="http://www.w3.org/2000/svg" version="1.1" xmlns:xlink="http://www.w3.org/1999/xlink" xmlns:svgjs="http://svgjs.com/svgjs" width="512" height="512" x="0" y="0" viewBox="0 0 512 512" style="enable-background:new 0 0 512 512" xml:space="preserve" class=""><g><path d="m310.107 474.217-69.089-.002v-67.748H103.644v-29.961h165.993l37.784-37.784H103.644v-29.961h233.738l37.784-37.784H103.644v-29.961h301.483l39.128-39.128V18.892C444.255 8.475 435.78 0 425.363 0s-18.892 8.475-18.892 18.892c0 10.415 8.473 18.888 18.889 18.888h.003v29.961l-357.618.003V512h376.51V340.07zM103.644 173.272h169.223v29.961H103.644z" fill="#8c8c8c" data-original="#000000" class=""></path><path d="m18.888 37.784 361.421-.003a48.577 48.577 0 0 1-3.799-18.888A48.594 48.594 0 0 1 380.311.001H18.892C8.475 0 0 8.475 0 18.892 0 29.31 8.474 37.784 18.888 37.784zM512 222.127c0-5.047-1.965-9.791-5.533-13.36-7.367-7.366-19.353-7.366-26.72 0l-13.358 13.358 26.72 26.72 13.358-13.358a18.77 18.77 0 0 0 5.533-13.36zM312.016 429.938l-26.719-26.72-14.317 14.317v26.72l26.718.001zM306.418 382.032l138.7-138.7 26.716 26.715-138.7 138.7z" fill="#8c8c8c" data-original="#000000" class=""></path></g></svg>