<svg width="84" height="122" viewBox="0 0 84 122" fill="none" xmlns="http://www.w3.org/2000/svg">
<g clip-path="url(#clip0_670_4776)">
<path d="M5.52375 101.072C1.30021 99.5732 -0.600023 93.8406 1.82464 89.9123C2.43902 88.917 4.89683 86.7667 5.83242 86.4061C6.9227 85.9859 9.53693 86.0373 10.9334 86.5064C13.5113 87.3724 15.7363 90.8138 15.7422 93.9439C15.7522 99.2645 10.5863 102.868 5.52375 101.072ZM71.985 100.788C64.7304 97.2899 67.269 86.0841 75.3038 86.1379C80.5266 86.1728 84.2585 92.2722 82.0206 97.1158C80.2678 100.909 75.7024 102.58 71.985 100.788ZM37.6896 90.5401C29.1586 89.7818 22.7818 86.3012 19.4412 80.5798C18.3037 78.6317 18.3139 78.5874 20.234 77.1507C23.9554 74.366 24.5979 73.5716 24.5979 71.7554C24.5979 69.4615 22.6951 67.4836 20.4884 67.4836C19.8178 67.4836 19.5066 67.3779 19.5066 67.1503C19.5066 66.2586 23.4758 63.5995 24.807 63.5995C25.0718 63.5995 26.1207 63.9331 27.1377 64.3409C35.2767 67.6041 47.087 67.574 55.5089 64.2684C58.6889 63.0202 61.0354 63.4985 63.6233 65.9223C65.2312 67.4283 65.1954 67.6231 63.3281 67.5268C61.5932 67.4373 60.5504 67.9581 59.5814 69.3978C57.8832 71.921 58.7642 73.9259 62.8843 76.9142C65.0775 78.5049 65.0898 78.5437 63.9838 80.3668C59.591 87.6077 49.336 91.5753 37.6896 90.5401ZM43.7731 82.9454C46.8564 81.3293 47.4588 77.3031 44.9973 74.7626C40.789 70.4191 33.9505 75.4245 36.7165 80.8238C37.9837 83.2975 41.2358 84.2752 43.7731 82.9454ZM34.5379 57.6142C21.2782 56.3419 12.7682 52.4168 9.43074 46.034L8.75696 44.7454L9.28296 43.6574C10.1662 41.8304 10.3919 39.9911 10.3952 34.5902C10.3986 29.2285 10.1774 27.4428 9.27254 25.5262C8.6675 24.2446 8.8179 23.5826 10.467 20.2682C17.8731 5.38337 34.2955 -2.21867 50.2964 1.83096C60.0964 4.3112 67.8021 10.4568 72.721 19.7155C74.5299 23.1203 74.8685 24.3427 74.2796 25.3421C72.6154 28.1665 72.4731 40.28 74.0653 43.5881C74.6922 44.8904 74.6814 44.9755 73.6816 46.6234C70.0565 52.5988 61.5837 56.4509 49.6903 57.5308C47.2628 57.7512 36.5786 57.8101 34.5379 57.6142ZM58.6382 50.6522C72.8622 46.5001 72.711 26.4191 58.4278 22.7067C56.2918 22.1515 27.1254 22.1453 24.9518 22.6996C19.9846 23.9663 15.8135 28.1901 14.5139 33.2696C13.971 35.3914 14.1547 39.3361 14.8945 41.4415C16.6545 46.4509 21.3408 50.2508 26.6499 50.9735C29.713 51.3904 57.0499 51.1159 58.6382 50.6522ZM39.3237 44.5603C38.3121 44.1989 37.7742 43.8369 37.1495 43.0971C36.1474 41.9106 37.0942 41.3244 38.2511 42.4151C40.0751 44.1349 43.3605 44.1524 45.1129 42.4517C45.9295 41.6591 46.6598 41.6266 46.6598 42.3828C46.6598 44.1874 42.0825 45.5461 39.3237 44.5603Z" fill="#EBEAEA"/>
<path d="M5.68886 101.565C-0.068035 99.4709 -1.54046 92.6347 2.82418 88.2644C4.41228 86.6742 4.54854 86.4514 4.98348 84.7329C6.39893 79.1402 11.2957 72.3995 16.3549 69.0794C17.3549 68.4231 18.8432 67.164 19.6621 66.2814C22.3634 63.37 24.4357 62.73 27.2329 63.9434C34.7695 67.2128 47.1523 67.1628 55.7513 63.8282C56.818 63.4145 57.867 63.0211 58.0824 62.9539C59.5116 62.5082 63.7392 64.9708 65.2062 67.1035C65.7342 67.8711 66.6746 68.7979 67.4459 69.3107C72.2838 72.527 77.0543 79.228 78.4437 84.7589C78.9223 86.6644 79.0602 86.9266 79.9114 87.5506C84.6172 90.9999 83.9687 98.4458 78.738 101.024C70.8306 104.922 63.4578 95.1279 69.3499 88.553L70.1564 87.6531L69.7828 86.3682C69.0934 83.9974 66.2366 79.3787 65.4596 79.3787C65.2742 79.3787 64.6317 80.1177 64.032 81.021C59.4218 87.9648 51.169 91.3279 39.6499 90.9569C29.7232 90.6372 23.1736 87.4056 19.118 80.8265C18.6271 80.0302 18.0955 79.3787 17.9366 79.3787C17.1687 79.3787 14.2232 84.2383 13.6519 86.4479C13.3655 87.5552 13.3732 87.5835 14.2476 88.652C17.6618 92.824 16.4905 98.8522 11.8211 101.14C10.1163 101.975 7.34507 102.167 5.68886 101.565ZM11.115 100.973C18.7724 98.1046 16.3243 85.9893 8.11195 86.1115C6.09149 86.1416 5.44152 86.4061 3.72168 87.8979C2.00307 89.3887 1.45087 90.2517 0.941481 92.2426C-0.561126 98.1155 5.3052 103.15 11.115 100.973ZM78.4502 100.792C83.4243 98.3492 84.1666 91.9369 79.9198 88.0969C78.1727 86.5171 77.3109 86.1514 75.3037 86.138C68.8392 86.0947 65.2323 94.066 69.513 98.9355C71.6804 101.401 75.5666 102.208 78.4502 100.792ZM46.9597 90.2793C54.3606 89.3257 60.836 85.5554 63.9838 80.3669C65.0898 78.5438 65.0774 78.505 62.8842 76.9143C58.7642 73.926 57.8832 71.9211 59.5814 69.3979C60.5504 67.9582 61.5932 67.4374 63.328 67.5269C65.1953 67.6232 65.2312 67.4284 63.6232 65.9223C61.0354 63.4986 58.6889 63.0203 55.5089 64.2685C47.087 67.5741 35.2767 67.6042 27.1377 64.341C26.1206 63.9332 25.0718 63.5996 24.8069 63.5996C23.4758 63.5996 19.5066 66.2587 19.5066 67.1504C19.5066 67.378 19.8178 67.4836 20.4884 67.4836C22.695 67.4836 24.5978 69.4616 24.5978 71.7555C24.5978 73.5717 23.9554 74.3661 20.2339 77.1508C18.3139 78.5875 18.3036 78.6318 19.4411 80.5799C23.969 88.3346 34.1636 91.9279 46.9597 90.2793ZM39.1459 83.1188C35.7561 81.6469 35.0326 77.1137 37.7824 74.5757C42.3524 70.3577 49.0746 76.1212 45.5934 81.2728C44.2277 83.2937 41.408 84.101 39.1459 83.1188ZM43.1102 81.3455C46.0555 79.4011 44.7904 74.9157 41.2966 74.9157C38.6499 74.9157 37.0331 77.6622 38.2699 80.0571C39.1155 81.6944 41.5857 82.3519 43.1102 81.3455ZM35.3864 58.1104C21.8988 57.0579 13.1534 53.1711 9.18287 46.4646C8.40195 45.1455 8.02705 44.745 7.40641 44.5668C5.12017 43.9103 2.49675 39.9235 1.97788 36.3172C1.31586 31.7159 3.81318 26.2396 7.24528 24.7665C8.10232 24.3987 8.36138 24.135 8.60544 23.3823C9.83028 19.6049 13.3873 14.1111 16.8368 10.669C30.8636 -3.32729 53.4415 -3.0938 67.1541 11.1894C70.2678 14.4327 73.8537 20.1015 74.8071 23.2878C75.0698 24.1657 75.2791 24.3793 76.3945 24.9076C80.2188 26.7192 82.4868 32.7887 81.195 37.7547C80.4255 40.7129 77.9583 43.9686 75.9815 44.6344C75.3339 44.8525 74.9462 45.2587 74.2544 46.4441C70.7662 52.4212 63.6213 56.1085 52.4784 57.6822C50.0316 58.0277 38.1435 58.3255 35.3864 58.1104ZM49.6903 57.5309C61.5836 56.451 70.0565 52.5989 73.6816 46.6235C74.6814 44.9756 74.6921 44.8905 74.0653 43.5882C72.4731 40.2801 72.6153 28.1666 74.2796 25.3422C74.8685 24.3428 74.5299 23.1204 72.721 19.7156C67.8021 10.4569 60.0964 4.31132 50.2964 1.83107C34.2955 -2.21856 17.873 5.38348 10.4669 20.2684C8.81786 23.5827 8.66746 24.2447 9.2725 25.5263C10.1774 27.4429 10.3986 29.2286 10.3952 34.5903C10.3918 39.9912 10.1662 41.8305 9.28292 43.6575L8.75692 44.7455L9.4307 46.0341C12.7682 52.4169 21.2782 56.342 34.5378 57.6143C36.5786 57.8101 47.2627 57.7513 49.6903 57.5309ZM26.6499 50.9735C16.8102 49.6342 11.2955 39.1405 15.6891 30.1169C17.3029 26.8024 21.2464 23.6446 24.9518 22.6997C27.1254 22.1454 56.2918 22.1516 58.4278 22.7067C67.5624 25.081 71.9767 35.1379 67.5699 43.5349C65.8611 46.791 62.3899 49.5572 58.6382 50.6523C57.0499 51.116 29.713 51.3905 26.6499 50.9735ZM58.1656 48.9053C64.8137 47.1715 68.89 40.1203 67.138 33.385C66.0119 29.0561 61.9824 25.21 57.6183 24.2987C55.4586 23.8478 27.2531 23.9336 25.4781 24.3965C18.7152 26.1603 14.5421 33.0731 16.241 39.6979C17.3571 44.0497 20.947 47.7724 25.1081 48.8928C27.1074 49.4312 56.1073 49.4422 58.1656 48.9053ZM39.7719 45.1363C37.8664 44.6589 36.3636 43.2832 36.523 42.1621C36.635 41.374 37.5986 41.3314 38.3824 42.08C40.0556 43.678 43.5914 43.6458 45.0615 42.0192C46.188 40.7728 47.5319 41.8328 46.5933 43.2274C45.5071 44.8411 42.2415 45.755 39.7719 45.1363ZM44.0598 44.6159C45.1547 44.2875 46.6598 42.9948 46.6598 42.3829C46.6598 41.6267 45.9295 41.6593 45.1129 42.4518C43.3604 44.1526 40.0751 44.135 38.251 42.4152C37.0942 41.3245 36.1474 41.9107 37.1495 43.0973C38.5273 44.7288 41.5034 45.3829 44.0598 44.6159Z" fill="#C1B2B2"/>
<path d="M39.4592 81.3303C37.938 80.4016 37.3506 77.8466 38.35 76.5062C40.5296 73.5831 44.7202 74.8342 44.718 78.4074C44.7161 81.0887 41.7573 82.7333 39.4592 81.3303ZM30.6045 38.4599C29.5969 37.9124 29.4468 37.3955 29.4468 34.4726C29.4468 30.8157 29.8238 30.0991 31.7482 30.0991C33.308 30.0991 33.8107 31.1124 33.8107 34.2566C33.8107 37.2018 33.5439 38.0647 32.484 38.5483C31.6795 38.9153 31.4202 38.9031 30.6045 38.4599ZM51.1451 38.614C49.8746 38.0796 49.6905 37.5337 49.6905 34.3008C49.6905 30.8683 50.0825 30.0991 51.832 30.0991C53.5142 30.0991 54.1729 31.2944 54.1729 34.3473C54.1729 37.7086 52.9821 39.3867 51.1451 38.614Z" fill="#4ECDDD"/>
<path d="M7.26346 102.269C0.339549 101.457 -2.46204 93.0266 2.54783 88.0793C3.68014 86.9612 4.23475 86.2128 4.34702 85.6518C5.61654 79.3071 10.2323 72.7565 16.3467 68.622C17.3422 67.9489 18.7379 66.7696 19.4482 66.0013C20.8794 64.4535 22.1419 63.632 24.0501 63.0071C25.3099 62.5946 25.3312 62.5961 26.5957 63.1908C33.0735 66.2375 43.9153 66.8147 52.2138 64.5546C54.8492 63.8368 56.5515 63.0681 55.9685 62.859C55.7157 62.7683 56.4362 62.72 57.5696 62.7517C60.8953 62.8445 63.5345 64.1847 65.3268 66.691C65.8428 67.4124 66.894 68.444 67.6629 68.9833C73.0928 72.7919 77.2572 78.6235 78.7654 84.5306C79.249 86.4249 79.4062 86.7274 80.2568 87.3996C85.9717 91.9165 83.569 101.025 76.3643 102.157C68.8565 103.335 63.7816 93.852 69.018 88.4285C69.7551 87.665 69.7655 87.6227 69.4622 86.6079C68.7988 84.3881 66.0931 79.8885 65.4113 79.8712C65.2573 79.8676 64.8392 80.3632 64.4822 80.9732C60.6918 87.4494 51.9633 91.3675 41.3262 91.3675C30.5823 91.3675 23.2689 88.0657 19.0264 81.2996C18.5733 80.5768 18.158 79.9309 18.1036 79.8641C17.7505 79.4307 14.9222 83.8738 14.1844 86.0213L13.6969 87.44L14.5364 88.4658C17.4434 92.0181 17.1715 96.9859 13.9017 100.062C12.1988 101.664 9.5661 102.539 7.26346 102.269ZM11.8211 101.14C16.4905 98.8522 17.6619 92.824 14.2477 88.652C13.3732 87.5835 13.3656 87.5552 13.6519 86.4479C14.2233 84.2383 17.1688 79.3786 17.9367 79.3786C18.0955 79.3786 18.6272 80.0302 19.1181 80.8265C23.1736 87.4056 29.7233 90.6372 39.6499 90.9569C51.169 91.3279 59.4219 87.9648 64.0321 81.021C64.6318 80.1177 65.2742 79.3786 65.4597 79.3786C66.2366 79.3786 69.0935 83.9974 69.7829 86.3682L70.1565 87.6531L69.35 88.553C66.4803 91.7552 66.5811 96.6394 69.579 99.6411C73.6269 103.694 80.879 101.99 82.6795 96.5617C83.7537 93.3235 82.5816 89.5078 79.9115 87.5506C79.0603 86.9266 78.9224 86.6643 78.4437 84.7589C77.0544 79.228 72.2839 72.527 67.4459 69.3106C66.6747 68.7979 65.7342 67.8711 65.2062 67.1035C63.7393 64.9708 59.5116 62.5082 58.0825 62.9539C57.8671 63.0211 56.8181 63.4145 55.7513 63.8282C47.1523 67.1628 34.7695 67.2128 27.2329 63.9434C24.4358 62.7299 22.3634 63.3699 19.6621 66.2814C18.8432 67.164 17.355 68.4231 16.3549 69.0794C11.2958 72.3995 6.39898 79.1402 4.98353 84.7329C4.5486 86.4514 4.41233 86.6742 2.82423 88.2644C0.891003 90.2001 0.35394 91.4703 0.35394 94.1068C0.35394 99.945 6.52906 103.732 11.8211 101.14ZM37.3259 58.4646C22.7276 57.9031 12.0862 53.3413 8.63647 46.166C8.36268 45.5966 7.91384 45.2166 7.10148 44.8667C3.27535 43.2186 0.652675 37.1458 1.66742 32.2841C2.4106 28.7235 4.54436 25.5537 6.87335 24.5505C7.87057 24.121 8.12329 23.8795 8.36885 23.1217C8.53137 22.6202 9.15095 21.2267 9.74568 20.025C20.8088 -2.32746 50.426 -6.91381 67.5096 11.08C70.5369 14.2686 73.6371 19.1205 74.9268 22.6881C75.382 23.9472 75.5653 24.1833 76.2378 24.3769C78.4944 25.0265 81.2185 29.0188 81.824 32.5639C82.6764 37.5542 79.5887 44.1169 75.9592 45.029C75.5915 45.1214 75.13 45.614 74.7098 46.3625C69.7915 55.1234 57.1187 59.2258 37.3259 58.4646ZM52.4784 57.6821C63.6214 56.1085 70.7662 52.4212 74.2545 46.4441C74.9463 45.2587 75.3339 44.8525 75.9815 44.6344C77.9583 43.9685 80.4256 40.7129 81.1951 37.7547C82.4869 32.7887 80.2189 26.7192 76.3945 24.9076C75.2791 24.3793 75.0698 24.1657 74.8072 23.2878C73.8538 20.1015 70.2679 14.4327 67.1541 11.1894C53.4416 -3.09381 30.8637 -3.3273 16.8369 10.669C13.3873 14.1111 9.83033 19.6048 8.60549 23.3823C8.36144 24.135 8.10237 24.3987 7.24534 24.7665C3.81324 26.2396 1.31591 31.7159 1.97794 36.3172C2.4968 39.9235 5.12023 43.9102 7.40646 44.5668C8.0271 44.745 8.402 45.1455 9.18293 46.4646C13.1534 53.1711 21.8989 57.0579 35.3864 58.1104C38.1435 58.3255 50.0317 58.0276 52.4784 57.6821ZM25.1081 48.8928C20.9471 47.7724 17.3571 44.0497 16.2411 39.6979C14.5422 33.0731 18.7153 26.1603 25.4782 24.3965C27.2532 23.9336 55.4587 23.8478 57.6183 24.2987C61.9824 25.21 66.0119 29.0561 67.138 33.385C68.89 40.1203 64.8137 47.1715 58.1657 48.9053C56.1073 49.4421 27.1075 49.4312 25.1081 48.8928ZM44.9583 44.5935C46.3167 43.8935 47.2433 42.6324 46.8878 41.9673C46.5624 41.3585 45.6349 41.3848 45.0615 42.0192C43.5914 43.6458 40.0556 43.6779 38.3825 42.08C37.1285 40.8824 35.9054 41.8656 36.8512 43.3109C38.1517 45.2983 42.3127 45.9566 44.9583 44.5935ZM32.4839 38.5485C33.5438 38.065 33.8106 37.2021 33.8106 34.2569C33.8106 31.7453 33.7747 31.5505 33.1829 30.8462C32.2056 29.6833 30.4624 29.8078 29.8014 31.0877C29.381 31.9016 29.3001 36.8969 29.6952 37.6362C30.2137 38.6063 31.4621 39.0147 32.4839 38.5485ZM53.265 38.1763C54.5745 36.9947 54.4857 31.4128 53.1424 30.4706C52.3505 29.9153 51.1573 30.0076 50.3706 30.6852C49.6928 31.269 49.6904 31.2821 49.6904 34.3011C49.6904 36.9893 49.7451 37.3919 50.1752 37.8707C51.0929 38.892 52.3356 39.015 53.265 38.1763Z" fill="#24262B"/>
<path d="M33.3226 121.617C22.7502 120.734 15.395 118.345 15.395 115.795C15.395 110.617 40.0718 107.822 58.0644 110.963C70.8273 113.19 71.5214 117.843 59.4545 120.28C52.8494 121.614 40.7166 122.235 33.3226 121.617ZM35.3754 65.6591C31.6903 65.1204 25.4133 63.2941 25.4133 62.7798C25.4133 62.1643 40.3941 62.2122 48.3136 62.3712C57.2766 62.5513 57.9596 62.5556 54.7308 63.8008C49.3405 65.8797 41.3174 66.5276 35.3754 65.6591Z" fill="#010001"/>
</g>
<defs>
<clipPath id="clip0_670_4776">
<rect width="83.4372" height="121.857" fill="white"/>
</clipPath>
</defs>
</svg>
