<svg width="54" height="54" viewBox="0 0 54 54" fill="none" xmlns="http://www.w3.org/2000/svg">
<path d="M46.269 26.4648C45.2261 28.9827 45.1604 32.0953 46.2034 34.6132L47.1009 36.3712H8.36201C8.36201 36.3712 1.1496 32.3188 8.36201 25.1064L46.7664 24.3149L46.269 26.4648Z" fill="#F1F2F2"/>
<path d="M47.1009 36.3721H8.36216C8.36216 36.3721 1.14997 32.3194 8.36216 25.1072L46.7667 24.3154L46.2687 26.4658C46.0361 27.0313 45.853 27.6159 45.7216 28.2131H10.5693C9.20744 28.2131 8.10005 29.3205 8.10005 30.6812C8.10005 32.0431 9.20744 33.1505 10.5693 33.1505H45.7347C45.8526 33.6539 46.0088 34.1443 46.2032 34.6139L47.1009 36.3721Z" fill="#DEE1E1"/>
<path d="M46.5143 38.0164L11.1043 37.9606C6.86205 37.9606 3.21883 35.2544 3.21883 31.0121C3.21883 30.0751 3.05567 28.8465 3.36287 28.0163C4.44634 25.0876 7.26394 23 10.5693 23H46.8966C47.8535 23 48.6292 23.7757 48.6292 24.7326C48.6292 25.6895 47.8535 26.4652 46.8966 26.4652H19.4031L16.7181 27.0955L14.383 26.4652H10.5692C8.24071 26.4652 6.35313 28.3528 6.35313 30.6812C6.35313 33.0097 8.24071 34.8973 10.5692 34.8973H46.8965C47.8534 34.8973 48.6291 35.673 48.6291 36.6299C48.6291 36.6989 48.625 36.7669 48.6172 36.8339C48.5163 37.6947 47.4022 38.0164 46.5143 38.0164Z" fill="#B7E546"/>
<path d="M48.6167 36.8342C48.5709 37.2204 48.3966 37.58 48.122 37.8553C47.8075 38.1687 47.375 38.3631 46.8967 38.3631L28.9495 39.4387L10.5692 38.3631C6.32645 38.3631 2.88745 34.9241 2.88745 30.6813C2.88745 29.5751 3.12116 28.5234 3.54271 27.5732V29.1524C3.54271 33.3952 6.98171 36.8342 11.2245 36.8342H48.6167Z" fill="#ABD641"/>
<path d="M19.4029 31.5159V26.4648H15.8027L14.5244 26.5932L14.6012 31.2975C14.6012 31.333 14.6099 31.368 14.6265 31.3995C14.6431 31.4309 14.6671 31.4578 14.6965 31.4778C14.7259 31.4979 14.7597 31.5105 14.795 31.5145C14.8303 31.5185 14.8661 31.5138 14.8992 31.5008L15.8026 31.28L16.8132 30.8843C16.8644 30.8642 16.9213 30.8642 16.9725 30.8843L19.1049 31.7193C19.138 31.7323 19.1738 31.737 19.2091 31.733C19.2444 31.729 19.2783 31.7164 19.3076 31.6963C19.337 31.6763 19.361 31.6494 19.3776 31.6179C19.3942 31.5865 19.4029 31.5515 19.4029 31.5159Z" fill="#EF5227"/>
<path d="M15.8028 26.4658V31.2809L14.6812 31.7199C14.5381 31.7756 14.3831 31.6707 14.3831 31.5168V26.4658H15.8028Z" fill="#D83724"/>
<path d="M41.2896 18.589V21.0517L41.1804 22.1438C41.1804 22.5664 40.8375 22.9082 40.4159 22.9082L11.3105 22.799C10.8879 22.799 10.5461 22.4572 10.5461 22.0346L10.3276 18.589L25.2689 17.875L41.2896 18.589Z" fill="#FDCD08"/>
<path d="M50.2571 18.7619C50.0398 18.7619 49.8315 18.6756 49.6779 18.522C49.5243 18.3683 49.438 18.16 49.438 17.9428V9.44651C49.438 8.99417 49.8046 8.62744 50.2571 8.62744C50.7095 8.62744 51.0761 8.99417 51.0761 9.44651V17.9427C51.0761 18.0502 51.055 18.1568 51.0138 18.2562C50.9727 18.3555 50.9123 18.4458 50.8363 18.5219C50.7602 18.598 50.6699 18.6583 50.5705 18.6995C50.4711 18.7407 50.3646 18.7619 50.2571 18.7619Z" fill="#77777F"/>
<path d="M48.793 20.6451C48.1094 22.3303 47.4215 23.9931 46.7377 25.6784C46.329 26.6857 47.0631 27.7896 48.1418 27.7896L49.406 27.8988H52.4812C53.5599 27.8988 54.294 26.7949 53.8854 25.7875L52.4596 22.2729L51.5629 20.645L48.793 20.6451Z" fill="#FDCD08"/>
<path d="M49.894 22.8945C50.7926 22.9763 51.7351 22.7404 52.4597 22.2734L51.693 20.3574L50.4261 20.7362L50.4262 20.7358L48.7746 20.5154C48.566 21.0298 48.2628 21.7602 48.0542 22.2746L48.0543 22.2747L46.629 25.7879C46.2205 26.7959 46.9544 27.8989 48.0323 27.8989H49.7797C48.7018 27.8989 47.9679 26.7959 48.3763 25.7879C48.7314 24.9133 49.0861 24.0389 49.4409 23.1643C49.5144 22.9828 49.6991 22.8767 49.894 22.8945Z" fill="#FAAB18"/>
<path d="M52.7781 18.7261C52.7781 17.6101 52.0662 16.6618 51.0759 16.3187C50.8192 16.2296 50.446 16.388 50.1594 16.388C48.7671 16.388 47.9102 17.3208 47.9102 18.7262C47.9102 20.1316 48.9518 20.9748 50.3441 20.9748C50.6308 20.9748 50.8192 21.2225 51.0759 21.1336C52.0662 20.7903 52.7781 19.8421 52.7781 18.7261Z" fill="#FDCD08"/>
<path d="M51.0759 21.1338C50.8193 21.2234 50.543 21.2714 50.2569 21.2714C48.8645 21.2714 47.7363 20.1313 47.7363 18.7257C47.7363 17.3213 48.8645 16.1812 50.2569 16.1812C50.543 16.1812 50.8193 16.2292 51.0759 16.3188C50.0854 16.6617 49.3745 17.6107 49.3745 18.7257C49.3745 19.8419 50.0854 20.7909 51.0759 21.1338Z" fill="#FAAB18"/>
<path d="M50.4589 10.3224L43.2555 12.8161L41.2899 12.6145L27.3079 18.3369C26.3367 18.6731 25.2807 18.6731 24.3095 18.3369L10.3278 12.8376L8.36204 12.8162L1.15826 10.3224C0.335917 10.0377 0.335917 8.87476 1.15826 8.59016L24.5826 0.481145C25.3768 0.206155 26.2404 0.206155 27.0346 0.481145L50.4589 8.59016C51.2811 8.87476 51.2811 10.0377 50.4589 10.3224Z" fill="#868491"/>
<path d="M43.2556 12.0771V12.8164L27.3077 18.3369C26.3364 18.6733 25.2801 18.6733 24.3088 18.3369L8.36206 12.8164V12.0771C8.36206 10.5186 9.4749 9.18846 11.0093 8.91216C15.8844 8.03849 20.8633 7.59619 25.8083 7.59619C30.7533 7.59619 35.7332 8.03849 40.6083 8.91216C41.3509 9.04649 42.0248 9.43746 42.5075 10.0152C42.988 10.5885 43.2556 11.3224 43.2556 12.0771Z" fill="#77777F"/>
<path d="M41.2897 12.0771V18.5893H10.6554L10.5461 12.2955C10.5461 11.6905 10.9797 11.1728 11.5749 11.0658C11.8869 11.0099 11.9808 10.7374 12.2934 10.6851C16.7595 9.93795 21.2799 9.5623 25.8082 9.56201C30.645 9.56201 35.4819 9.9912 40.2609 10.8474C40.558 10.9009 40.8157 11.0571 40.9981 11.2755C41.1816 11.4939 41.2897 11.7746 41.2897 12.0771Z" fill="#868491"/>
<path d="M41.2896 21.0517V22.253C41.2896 22.6756 40.9467 23.0175 40.5251 23.0175H11.0921C10.8894 23.0175 10.6949 22.9369 10.5515 22.7935C10.4082 22.6502 10.3276 22.4557 10.3276 22.253V18.589L11.3105 17.875L12.2934 18.589V20.5056C12.2934 20.6505 12.3509 20.7893 12.4533 20.8917C12.5557 20.9942 12.6946 21.0517 12.8395 21.0517H41.2896Z" fill="#FAAB18"/>
<path d="M12.2934 10.6855V18.589H10.3276V12.0769C10.3276 11.4719 10.7612 10.9542 11.3564 10.8472C11.6687 10.7915 11.9811 10.7369 12.2934 10.6855Z" fill="#77777F"/>
<path d="M49.1547 49.9508C48.6382 48.7041 48.3725 47.3679 48.3725 46.0185C48.3725 44.669 48.6382 43.3328 49.1547 42.0862L49.487 40.6099H4.82996C4.82996 40.6099 -0.197062 46.075 5.1566 51.4286L49.7778 51.7632L49.1547 49.9508Z" fill="#F1F2F2"/>
<path d="M49.7777 51.7628L5.15696 51.4286C-0.197578 46.0752 4.83042 40.6104 4.83042 40.6104L49.7017 40.6932L49.1552 42.0858C48.9547 42.5691 48.7915 43.0671 48.6671 43.5754H7.68188C6.32004 43.5754 5.21265 44.6828 5.21265 46.0435C5.21265 47.4054 6.32004 48.5127 7.68188 48.5127H48.6802C48.8032 49.0031 48.962 49.4838 49.1552 49.951L49.7777 51.7628Z" fill="#DEE1E1"/>
<path d="M49.0254 53.3429L8.65044 53.2687C4.4082 53.2687 0.675858 50.8747 0.675858 46.6325C0.675858 45.2861 0.346592 43.4322 0.955106 42.3319C2.26398 39.9653 4.78563 38.3628 7.68142 38.3628H49.7841C50.741 38.3628 51.5168 39.1385 51.5168 40.0954C51.5168 41.0523 50.741 41.828 49.7841 41.828H39.3525L36.6267 42.4314L34.3324 41.828H7.68153C5.35308 41.828 3.4655 43.7156 3.4655 46.044C3.4655 48.3725 5.35308 50.2601 7.68153 50.2601H49.7841C50.741 50.2601 51.5168 51.0358 51.5168 51.9927C51.5168 52.0996 51.507 52.2041 51.4886 52.3057C51.3413 53.1132 49.8754 53.3429 49.0254 53.3429Z" fill="#EF5227"/>
<path d="M51.489 52.3055C51.4245 52.6593 51.2531 52.9738 51.0095 53.2174C50.8488 53.3785 50.6578 53.5064 50.4475 53.5935C50.2372 53.6807 50.0118 53.7254 49.7842 53.7252H7.68179C3.439 53.7252 0 50.2862 0 46.0434C0 44.5254 0.440114 43.11 1.2013 41.9175V44.6237C1.2013 48.8665 4.64031 52.3055 8.88309 52.3055H51.489Z" fill="#D83724"/>
<path d="M39.3526 46.9181V41.8262H35.9706L34.4705 41.9175L34.5508 46.6996C34.5508 46.7352 34.5595 46.7702 34.5761 46.8016C34.5928 46.8331 34.6168 46.86 34.6462 46.88C34.6755 46.9001 34.7093 46.9126 34.7447 46.9166C34.78 46.9206 34.8158 46.9159 34.8489 46.903L35.9705 46.5968L36.7629 46.2865C36.8141 46.2664 36.871 46.2664 36.9221 46.2865L39.0545 47.1215C39.0876 47.1345 39.1234 47.1392 39.1588 47.1352C39.1941 47.1311 39.2279 47.1186 39.2573 47.0985C39.2867 47.0785 39.3107 47.0515 39.3273 47.0201C39.3439 46.9887 39.3526 46.9536 39.3526 46.9181Z" fill="#FDCD08"/>
<path d="M35.9704 41.8257V46.597L34.6304 47.1212C34.4874 47.1769 34.3323 47.0721 34.3323 46.9181V41.8257H35.9704Z" fill="#FAAB18"/>
</svg>
