<svg width="18" height="18" viewBox="0 0 18 18" fill="none" xmlns="http://www.w3.org/2000/svg">
    <mask id="m8xuytgu2a" style="mask-type:alpha" maskUnits="userSpaceOnUse" x="0" y="0" width="18" height="18">
        <path fill="#fff" d="M.792.795h16.41v16.41H.792z"/>
    </mask>
    <g filter="url(#25x9r4j7sb)" mask="url(#m8xuytgu2a)">
        <path d="M15.26 9a6.263 6.263 0 1 1-12.526.001 6.263 6.263 0 0 1 12.527 0z" fill="url(#47q4w45e2c)"/>
        <path d="M15.26 9a6.263 6.263 0 1 1-12.526.001 6.263 6.263 0 0 1 12.527 0z" fill="url(#cd66dgywqd)"/>
        <ellipse cx="6.635" cy="5.999" rx=".798" ry=".903" fill="#7F2F17"/>
        <ellipse cx="11.361" cy="5.999" rx=".798" ry=".903" fill="#7F2F17"/>
        <path d="M11.86 8.36c.296 0 .54.242.492.534-.249 1.504-1.53 2.865-3.355 2.865-1.855 0-3.148-1.125-3.366-2.864-.037-.294.207-.535.504-.535h5.725z" fill="url(#9z7qhg4a0e)"/>
    </g>
    <defs>
        <radialGradient id="47q4w45e2c" cx="0" cy="0" r="1" gradientUnits="userSpaceOnUse" gradientTransform="matrix(-5.99313 -9.8114 10.21043 -6.23688 11.72 13.573)">
            <stop stop-color="#FF9D41"/>
            <stop offset="1" stop-color="#FFD75C"/>
        </radialGradient>
        <radialGradient id="cd66dgywqd" cx="0" cy="0" r="1" gradientUnits="userSpaceOnUse" gradientTransform="rotate(58.815 -1.767 8.875) scale(8.58734 7.32803)">
            <stop stop-color="#FFEFA5"/>
            <stop offset="1" stop-color="#FFE25E" stop-opacity="0"/>
        </radialGradient>
        <linearGradient id="9z7qhg4a0e" x1="9.208" y1="8.397" x2="9.208" y2="11.673" gradientUnits="userSpaceOnUse">
            <stop stop-color="#FF3E12"/>
            <stop offset="1" stop-color="#FF7D16" stop-opacity=".9"/>
        </linearGradient>
        <filter id="25x9r4j7sb" x=".587" y=".591" width="16.82" height="16.82" filterUnits="userSpaceOnUse" color-interpolation-filters="sRGB">
            <feFlood flood-opacity="0" result="BackgroundImageFix"/>
            <feColorMatrix in="SourceAlpha" values="0 0 0 0 0 0 0 0 0 0 0 0 0 0 0 0 0 0 127 0" result="hardAlpha"/>
            <feOffset/>
            <feGaussianBlur stdDeviation="1.073"/>
            <feColorMatrix values="0 0 0 0 1 0 0 0 0 0.780392 0 0 0 0 0 0 0 0 0.3 0"/>
            <feBlend in2="BackgroundImageFix" result="effect1_dropShadow_1385_8911"/>
            <feBlend in="SourceGraphic" in2="effect1_dropShadow_1385_8911" result="shape"/>
        </filter>
    </defs>
</svg>
