<svg width="95" height="77" viewBox="0 0 95 77" fill="none" xmlns="http://www.w3.org/2000/svg">
<path d="M44.7976 76.4683C36.6931 76.1309 29.21 74.2825 22.4245 70.942C9.80003 64.7268 1.52864 53.5668 0.158653 41.7898C-0.0917691 39.637 0.0277042 36.2923 0.0336323 34.3604L0.0358384 33.6415L0.238881 35.5064C1.82593 50.0828 18.7173 62.3665 39.3555 64.71C42.0356 65.0143 44.0965 65.1265 47.006 65.1265C49.2577 65.1265 50.5296 65.079 52.5006 64.9212C61.2434 64.2216 69.6918 61.7518 76.5563 57.8886C86.0559 52.5426 92.1892 43.0225 93.7224 34.6484C93.7955 34.2489 93.974 33.549 93.9772 33.4714C93.9901 33.1556 94.0182 34.0811 94.0078 34.9622C93.9203 42.358 92.1876 51.6695 87.4777 58.0109C79.8231 68.3171 66.6301 75.0912 51.8434 76.308C49.8248 76.4742 46.6645 76.546 44.7976 76.4683Z" fill="#82371E"/>
<path d="M42.8005 65.2607C35.7956 64.7332 29.6214 63.3819 23.7932 61.1007C21.7111 60.2857 17.432 58.145 15.6883 57.046C11.0433 54.1183 6.8566 50.174 4.32177 46.3376C-1.96326 36.8253 -1.33054 25.8643 6.03338 16.6866C11.634 9.70654 21.1326 4.22106 31.9213 1.73617C34.2434 1.20135 34.5039 1.14864 36.173 0.875987C57.9754 -2.68555 80.2707 4.86285 89.6432 18.9791C98.6897 32.6043 93.3375 48.5715 76.5322 58.0937C69.8929 61.8556 61.977 64.2334 53.3046 65.0708C50.9453 65.2987 44.7835 65.41 42.8005 65.2607ZM10.8056 29.7021C12.1115 29.094 13.1626 27.7662 14.5753 24.9393C15.5345 23.0202 16.5265 21.641 18.0645 20.0886C19.6584 18.4797 20.7724 17.5716 22.8491 16.1881C25.5343 14.3993 28.6006 12.9123 31.6107 11.9392C34.0228 11.1594 35.6742 10.8545 38.4239 10.6811C41.724 10.473 43.6704 9.88994 44.9249 8.73354C45.5672 8.14155 45.7957 7.64774 45.6894 7.0814C45.3285 5.15753 40.4042 4.3764 34.893 5.36878C25.807 7.00485 15.7245 12.6794 11.223 18.6906C10.3403 19.8694 9.26199 21.9174 8.7411 23.4044C7.66778 26.4685 7.7756 29.0047 9.01123 29.7582C9.54076 30.081 10.0242 30.0659 10.8056 29.7021Z" fill="#E45F35"/>
<path d="M9.26028 29.8811C9.10534 29.8254 8.90422 29.7225 8.81334 29.6525C8.57991 29.4728 8.31017 28.9981 8.15629 28.4962C8.03962 28.1156 8.02457 27.9717 8.02345 27.2257C8.0216 25.9992 8.26598 24.7979 8.85841 23.1215C10.3057 19.0261 13.5038 15.4324 18.8225 11.925C23.8416 8.61508 30.4524 6.011 35.8323 5.22461C38.1524 4.88548 40.6832 4.86495 42.4312 5.17108C44.5196 5.53681 45.7027 6.30367 45.712 7.29765C45.7224 8.41576 44.2951 9.54157 42.0776 10.1642C40.9466 10.4818 40.4074 10.6689 38.4654 10.7419C36.7252 10.8073 35.5208 10.9709 33.8569 11.368C29.3563 12.4418 24.3204 14.8299 20.4262 17.9124C19.4499 18.6852 18.0985 19.961 17.3003 20.8635C16.0765 22.2472 15.3047 23.4275 14.6184 24.9648C13.9369 26.4915 13.2238 27.5134 12.489 28.3676C11.8529 29.1069 10.9598 29.7276 10.2754 29.9059C9.87061 30.0113 9.60412 30.0048 9.26028 29.8811Z" fill="#EAA691"/>
</svg>
