<svg width="95" height="77" viewBox="0 0 95 77" fill="none" xmlns="http://www.w3.org/2000/svg">
    <path d="M44.798 76.468c-8.105-.337-15.588-2.186-22.374-5.526C9.8 64.727 1.53 53.567.16 41.79c-.25-2.153-.131-5.498-.125-7.43l.002-.718.203 1.864c1.587 14.577 18.478 26.86 39.117 29.204 2.68.304 4.74.416 7.65.416 2.252 0 3.524-.047 5.495-.205 8.742-.7 17.19-3.17 24.055-7.032 9.5-5.346 15.633-14.867 17.166-23.24.074-.4.252-1.1.255-1.178.013-.315.041.61.03 1.491-.087 7.396-1.82 16.707-6.53 23.049-7.654 10.306-20.847 17.08-35.634 18.297-2.018.166-5.179.238-7.045.16z" fill="#82371E"/>
    <path d="M42.8 65.26c-7.004-.527-13.179-1.878-19.007-4.16-2.082-.814-6.361-2.955-8.105-4.054-4.645-2.928-8.831-6.872-11.366-10.708-6.285-9.513-5.653-20.474 1.711-29.651 5.601-6.98 15.1-12.466 25.888-14.95 2.322-.536 2.583-.588 4.252-.861 21.802-3.562 44.098 3.987 53.47 18.103 9.047 13.625 3.695 29.593-13.11 39.115-6.64 3.762-14.556 6.14-23.228 6.977-2.36.228-8.522.339-10.505.19zM10.806 29.703c1.306-.608 2.357-1.936 3.77-4.763.958-1.919 1.95-3.298 3.488-4.85 1.594-1.61 2.708-2.517 4.785-3.9a36.255 36.255 0 0 1 8.762-4.25c2.412-.78 4.063-1.085 6.813-1.258 3.3-.208 5.246-.791 6.5-1.947.643-.592.872-1.086.765-1.653-.36-1.923-5.285-2.705-10.796-1.712-9.086 1.636-19.169 7.31-23.67 13.322-.883 1.178-1.961 3.226-2.482 4.713-1.073 3.064-.965 5.6.27 6.354.53.323 1.013.308 1.795-.056z" fill="#E45F35"/>
    <path d="M9.26 29.88a2.006 2.006 0 0 1-.447-.228c-.233-.18-.503-.654-.657-1.156-.116-.38-.131-.525-.133-1.27-.001-1.227.243-2.429.835-4.105 1.448-4.095 4.646-7.69 9.965-11.196 5.019-3.31 11.63-5.914 17.01-6.7 2.32-.34 4.85-.36 6.598-.054 2.089.365 3.272 1.132 3.281 2.126.01 1.118-1.417 2.244-3.634 2.867-1.131.317-1.67.504-3.613.577-1.74.066-2.944.23-4.608.627-4.5 1.073-9.537 3.461-13.43 6.544-.977.773-2.328 2.049-3.127 2.951-1.224 1.384-1.995 2.564-2.682 4.101-.681 1.527-1.394 2.549-2.129 3.403-.636.74-1.53 1.36-2.214 1.538-.404.106-.67.1-1.015-.024z" fill="#EAA691"/>
    <path d="M48.169 45.526c4.169-.265 8.007-1.917 10.676-4.595 1.9-1.906 3.061-4.11 3.479-6.6.115-.686.13-2.589.024-3.237-.375-2.316-1.42-4.46-3.039-6.24-2.53-2.78-6.24-4.576-10.354-5.013-.952-.1-2.881-.1-3.833 0-3.632.386-6.951 1.826-9.437 4.096-2.159 1.971-3.51 4.416-3.957 7.157-.103.637-.087 2.6.027 3.257.128.734.327 1.494.545 2.08 2.145 5.767 8.74 9.548 15.869 9.095zm-2.366-1.847c-2.804-.222-5.505-1.235-7.677-2.88-.603-.457-1.661-1.486-2.092-2.035-1.148-1.462-1.866-3.095-2.12-4.825-.115-.782-.076-2.35.077-3.092.888-4.297 4.675-7.77 9.709-8.902 2.081-.468 4.595-.468 6.677 0 4.838 1.088 8.521 4.322 9.596 8.425.266 1.016.345 2.556.184 3.616-.258 1.708-.975 3.327-2.114 4.779-.43.548-1.489 1.577-2.092 2.034-2.825 2.14-6.461 3.171-10.148 2.88zm-.117-6.558c.138-.068 1.157-.883 2.265-1.813 3.696-3.101 4.789-4.013 5.266-4.395 1.19-.954 1.34-1.142 1.34-1.67 0-.906-1.133-1.49-2.076-1.073-.148.065-1.05.782-2.272 1.805-1.115.933-2.491 2.083-3.059 2.554l-1.577 1.311c-.52.433-.552.45-.668.379-.108-.067-2.585-2.128-2.651-2.206-.116-.137-.583-.43-.8-.502-.692-.23-1.528.076-1.834.671-.12.232-.133.655-.028.898.1.232.199.321 2.528 2.27 1.492 1.247 2.121 1.741 2.314 1.817.361.143.905.123 1.252-.046z" fill="#fff"/>
</svg>
