<svg width="21" height="21" viewBox="0 0 21 21" fill="none" xmlns="http://www.w3.org/2000/svg">
<path d="M6.74105 0.0922852H4.24105C3.35699 0.0922852 2.50915 0.443475 1.88403 1.0686C1.2589 1.69372 0.907715 2.54156 0.907715 3.42562L0.907715 5.92562C0.907715 6.80967 1.2589 7.65752 1.88403 8.28264C2.50915 8.90776 3.35699 9.25895 4.24105 9.25895H6.74105C7.6251 9.25895 8.47295 8.90776 9.09807 8.28264C9.72319 7.65752 10.0744 6.80967 10.0744 5.92562V3.42562C10.0744 2.54156 9.72319 1.69372 9.09807 1.0686C8.47295 0.443475 7.6251 0.0922852 6.74105 0.0922852ZM8.40771 5.92562C8.40771 6.36765 8.23212 6.79157 7.91956 7.10413C7.607 7.41669 7.18308 7.59229 6.74105 7.59229H4.24105C3.79902 7.59229 3.3751 7.41669 3.06254 7.10413C2.74998 6.79157 2.57438 6.36765 2.57438 5.92562V3.42562C2.57438 2.98359 2.74998 2.55967 3.06254 2.24711C3.3751 1.93455 3.79902 1.75895 4.24105 1.75895H6.74105C7.18308 1.75895 7.607 1.93455 7.91956 2.24711C8.23212 2.55967 8.40771 2.98359 8.40771 3.42562V5.92562ZM17.5744 0.0922852H15.0744C14.1903 0.0922852 13.3425 0.443475 12.7174 1.0686C12.0922 1.69372 11.741 2.54156 11.741 3.42562V5.92562C11.741 6.80967 12.0922 7.65752 12.7174 8.28264C13.3425 8.90776 14.1903 9.25895 15.0744 9.25895H17.5744C18.4584 9.25895 19.3063 8.90776 19.9314 8.28264C20.5565 7.65752 20.9077 6.80967 20.9077 5.92562V3.42562C20.9077 2.54156 20.5565 1.69372 19.9314 1.0686C19.3063 0.443475 18.4584 0.0922852 17.5744 0.0922852ZM19.241 5.92562C19.241 6.36765 19.0655 6.79157 18.7529 7.10413C18.4403 7.41669 18.0164 7.59229 17.5744 7.59229H15.0744C14.6324 7.59229 14.2084 7.41669 13.8959 7.10413C13.5833 6.79157 13.4077 6.36765 13.4077 5.92562V3.42562C13.4077 2.98359 13.5833 2.55967 13.8959 2.24711C14.2084 1.93455 14.6324 1.75895 15.0744 1.75895H17.5744C18.0164 1.75895 18.4403 1.93455 18.7529 2.24711C19.0655 2.55967 19.241 2.98359 19.241 3.42562V5.92562ZM6.74105 10.9256H4.24105C3.35699 10.9256 2.50915 11.2768 1.88403 11.9019C1.2589 12.5271 0.907715 13.3749 0.907715 14.259L0.907715 16.759C0.907715 17.643 1.2589 18.4909 1.88403 19.116C2.50915 19.7411 3.35699 20.0923 4.24105 20.0923H6.74105C7.6251 20.0923 8.47295 19.7411 9.09807 19.116C9.72319 18.4909 10.0744 17.643 10.0744 16.759V14.259C10.0744 13.3749 9.72319 12.5271 9.09807 11.9019C8.47295 11.2768 7.6251 10.9256 6.74105 10.9256ZM8.40771 16.759C8.40771 17.201 8.23212 17.6249 7.91956 17.9375C7.607 18.25 7.18308 18.4256 6.74105 18.4256H4.24105C3.79902 18.4256 3.3751 18.25 3.06254 17.9375C2.74998 17.6249 2.57438 17.201 2.57438 16.759V14.259C2.57438 13.8169 2.74998 13.393 3.06254 13.0804C3.3751 12.7679 3.79902 12.5923 4.24105 12.5923H6.74105C7.18308 12.5923 7.607 12.7679 7.91956 13.0804C8.23212 13.393 8.40771 13.8169 8.40771 14.259V16.759ZM17.5744 10.9256H15.0744C14.1903 10.9256 13.3425 11.2768 12.7174 11.9019C12.0922 12.5271 11.741 13.3749 11.741 14.259V16.759C11.741 17.643 12.0922 18.4909 12.7174 19.116C13.3425 19.7411 14.1903 20.0923 15.0744 20.0923H17.5744C18.4584 20.0923 19.3063 19.7411 19.9314 19.116C20.5565 18.4909 20.9077 17.643 20.9077 16.759V14.259C20.9077 13.3749 20.5565 12.5271 19.9314 11.9019C19.3063 11.2768 18.4584 10.9256 17.5744 10.9256ZM19.241 16.759C19.241 17.201 19.0655 17.6249 18.7529 17.9375C18.4403 18.25 18.0164 18.4256 17.5744 18.4256H15.0744C14.6324 18.4256 14.2084 18.25 13.8959 17.9375C13.5833 17.6249 13.4077 17.201 13.4077 16.759V14.259C13.4077 13.8169 13.5833 13.393 13.8959 13.0804C14.2084 12.7679 14.6324 12.5923 15.0744 12.5923H17.5744C18.0164 12.5923 18.4403 12.7679 18.7529 13.0804C19.0655 13.393 19.241 13.8169 19.241 14.259V16.759Z" fill="#7F8589"/>
</svg>
