<svg width="114" height="154" viewBox="0 0 114 154" fill="none" xmlns="http://www.w3.org/2000/svg">
<rect y="14" width="114" height="140" fill="#E45F35"/>
<g filter="url(#filter0_di_1188_10637)">
<path d="M62.0081 50.114L34.8176 62.6162L12 13H44.9369L62.0081 50.114Z" fill="#E95454"/>
<path d="M17.724 13L38.2093 57.5424L40.4995 55.2018L21.0933 13H17.724ZM35.4482 13L55.9336 57.5424L58.2266 55.2018L38.8176 13H35.4482Z" fill="white"/>
<path d="M51.272 50.114L78.4625 62.6162L101.28 13H68.3432L51.272 50.114Z" fill="#E95454"/>
<path d="M95.556 13L75.0707 57.5424L72.7805 55.2018L92.1867 13H95.556ZM77.8318 13L57.3464 57.5424L55.0534 55.2018L74.4624 13H77.8318Z" fill="white"/>
<path d="M56.4298 102.491C74.9486 102.491 89.961 87.4783 89.961 68.9593C89.961 50.4403 74.9486 35.4277 56.4298 35.4277C37.9111 35.4277 22.8986 50.4403 22.8986 68.9593C22.8986 87.4783 37.9111 102.491 56.4298 102.491Z" fill="#E5E5E5"/>
<path d="M65.1139 64.949H42.941C41.2171 64.949 39.8015 63.5362 39.8015 61.8094L39.8268 61.5936V61.5459C39.8015 59.7267 41.2872 58.241 43.1092 58.241H58.4789C60.5139 58.241 62.3108 56.7329 62.4313 54.695C62.5266 52.5617 60.8251 50.7649 58.6947 50.7649H42.4169C40.62 50.7649 39.2773 49.2568 39.3026 47.46V47.3647C39.2773 45.5678 40.62 44.0597 42.4169 44.0597H59.4515C61.4642 44.0597 63.261 42.5516 63.3816 40.5389C63.4769 38.3833 61.7754 36.6089 59.645 36.6089H47.7456C33.4468 40.4408 22.9014 53.4532 22.9014 68.9631C22.9014 84.4731 33.444 97.4854 47.7456 101.317H63.0115C65.0242 101.317 66.821 99.8092 66.9415 97.7966C67.0368 95.6409 65.3353 93.8665 63.205 93.8665L45.1892 93.8609C43.0644 93.8609 41.3517 92.0809 41.4666 89.9308C41.5731 87.9154 43.3811 86.4017 45.4022 86.4017H52.3876C54.3975 86.3428 56.0177 84.7001 56.0177 82.6762C56.0177 80.6159 54.3414 78.9396 52.2811 78.9396H41.6908C39.9669 78.9396 38.5513 77.5268 38.5766 75.8029V75.5394C38.456 73.8378 39.8211 72.3998 41.5227 72.3998H64.9093C66.9443 72.3998 68.7412 70.8917 68.8617 68.879C68.9486 66.7234 67.2471 64.949 65.1139 64.949Z" fill="#F0EFEF"/>
<path d="M56.4298 40.3198C40.6369 40.3198 27.7873 53.1668 27.7873 68.9627C27.7873 84.7585 40.6369 97.6055 56.4298 97.6055C72.2227 97.6055 85.0723 84.7585 85.0723 68.9627C85.0723 53.1668 72.2227 40.3198 56.4298 40.3198ZM56.4298 93.1148C43.1121 93.1148 32.278 82.2805 32.278 68.9627C32.278 55.6448 43.1121 44.8105 56.4298 44.8105C69.7476 44.8105 80.5817 55.6448 80.5817 68.9627C80.5817 82.2805 69.7448 93.1148 56.4298 93.1148Z" fill="#CACACA"/>
<path d="M58.6303 72.1836C59.8468 71.0679 60.6878 70.213 61.1531 69.6187C61.8567 68.7217 62.3725 67.8667 62.6948 67.0482C63.02 66.2297 63.1826 65.3691 63.1826 64.4636C63.1826 62.8743 62.6163 61.5427 61.4839 60.4747C60.3514 59.4039 58.7928 58.8713 56.8082 58.8713C54.9974 58.8713 53.4893 59.3338 52.284 60.2561C51.0786 61.1783 50.361 62.7005 50.1311 64.8225L53.9686 65.2065C54.0415 64.0824 54.3162 63.2779 54.79 62.793C55.2665 62.308 55.9056 62.0669 56.7101 62.0669C57.523 62.0669 58.1621 62.2968 58.6219 62.7593C59.0816 63.2218 59.3142 63.8806 59.3142 64.7412C59.3142 65.5176 59.0479 66.3053 58.5181 67.0986C58.1257 67.6733 57.0605 68.7721 55.3226 70.3896C53.1669 72.391 51.7205 73.9972 50.9889 75.2082C50.2573 76.4192 49.82 77.7002 49.6714 79.0542H63.177V75.4745H55.5272C55.729 75.1269 55.9925 74.7709 56.3149 74.4065C56.6428 74.0393 57.4137 73.2993 58.6303 72.1836ZM44.281 83.3206C44.3427 82.8272 44.623 82.3984 44.7603 81.9358C44.8921 81.4705 44.9005 80.9799 44.8949 80.4838C44.8809 79.9848 44.8472 79.4831 44.6874 78.928C44.6398 78.9112 44.5921 78.8944 44.5445 78.8748C44.1576 79.228 43.9306 79.6456 43.7484 80.0913C43.5774 80.537 43.4513 81.008 43.4849 81.535C43.5213 82.0648 43.7344 82.6478 43.768 83.172C43.7736 83.2393 43.7568 83.3038 43.7596 83.3711C42.7764 82.072 41.9229 80.6796 41.2115 79.2139C41.2312 78.9224 41.276 78.6449 41.3797 78.3982C41.5507 77.9693 41.9151 77.6498 42.145 77.2657C42.372 76.8761 42.4842 76.4332 42.5823 75.9819C42.672 75.525 42.7421 75.0596 42.6972 74.513C42.6552 74.485 42.6131 74.457 42.5711 74.4317C42.1282 74.6644 41.8254 74.9952 41.5591 75.3568C41.304 75.724 41.0854 76.122 41.0041 76.607C40.9256 77.0948 41.0041 77.6722 40.9172 78.1487C40.9032 78.2412 40.8611 78.3197 40.8387 78.4094C40.2018 76.9655 39.7025 75.4648 39.3475 73.9272C39.4287 73.5964 39.5353 73.288 39.7175 73.0442C39.9669 72.6966 40.379 72.4919 40.6761 72.1976C40.9705 71.8977 41.1611 71.5164 41.3405 71.1184C41.5115 70.7147 41.6657 70.2999 41.7217 69.7757C41.6853 69.7392 41.6516 69.7028 41.6152 69.6663C41.1527 69.7757 40.8023 70.0083 40.4799 70.2802C40.166 70.5577 39.8829 70.8745 39.7119 71.3006C39.5437 71.7323 39.5044 72.2817 39.3278 72.6966C39.283 72.8087 39.2129 72.8956 39.154 72.9937C38.8647 71.4772 38.7145 69.9375 38.7055 68.3937C38.8625 68.0293 39.0475 67.6985 39.3138 67.4799C39.6166 67.2192 40.0398 67.1351 40.3762 66.9304C40.707 66.723 40.9593 66.4119 41.1975 66.0811C41.4302 65.7419 41.6488 65.3831 41.7946 64.8981C41.7666 64.8561 41.7413 64.8112 41.7133 64.7692C41.2592 64.758 40.8892 64.8953 40.5388 65.0719C40.194 65.257 39.8716 65.484 39.6306 65.8428C39.3923 66.2072 39.2549 66.7146 39.0083 67.0566C38.927 67.1771 38.8205 67.2668 38.7195 67.3621C38.7728 65.8568 38.9578 64.3487 39.2802 62.8658C39.2942 62.8434 39.311 62.821 39.325 62.7986C39.5661 62.4342 39.8324 62.1118 40.1632 61.9492C40.4911 61.7782 40.9004 61.809 41.248 61.6969C41.5928 61.582 41.8843 61.3437 42.1674 61.083C42.4477 60.8111 42.7168 60.5168 42.9439 60.0767C42.9271 60.029 42.9102 59.9786 42.8934 59.9309C42.4758 59.8104 42.1113 59.8524 41.7525 59.9365C41.3994 60.0318 41.0574 60.172 40.7658 60.4579C40.4771 60.7494 40.2501 61.2036 39.9585 61.4671C39.8324 61.5876 39.6894 61.6689 39.5465 61.7446C39.9421 60.2559 40.4722 58.8063 41.1302 57.4137C41.1443 57.4305 41.1555 57.4473 41.1695 57.4641C41.2256 57.4053 41.2844 57.3492 41.3405 57.2903C41.6348 56.996 41.9432 56.7493 42.2795 56.6764C42.6131 56.5923 42.9803 56.7241 43.3167 56.6989C43.6559 56.6708 43.967 56.5082 44.281 56.3148C44.5921 56.113 44.9005 55.8831 45.2032 55.4991C45.2004 55.4458 45.1948 55.3926 45.192 55.3421C44.8388 55.1263 44.4996 55.0842 44.1576 55.0814C43.8185 55.0898 43.4765 55.1487 43.1513 55.3589C42.8262 55.5776 42.5262 55.9644 42.2039 56.1494C42.0469 56.2476 41.8815 56.3036 41.7133 56.3401C41.7189 56.3064 41.7189 56.2756 41.7245 56.2447C42.8037 54.2433 44.1745 52.3511 45.8395 50.63C44.2614 52.1549 42.9187 53.834 41.8142 55.628C41.817 55.5748 41.8422 55.5131 41.8422 55.4599C41.8675 55.0758 41.8871 54.6946 41.8507 54.3302C41.7357 53.6238 41.5451 52.937 41.0181 52.3624C40.9621 52.382 40.906 52.4044 40.8499 52.424C40.2921 53.4023 40.1463 54.2601 40.1435 55.0422C40.166 55.4234 40.2557 55.7738 40.3706 56.1074C40.4659 56.4522 40.6369 56.7577 40.8499 57.0409C40.8808 57.0801 40.9116 57.1221 40.9396 57.1614C40.3061 58.3667 39.7735 59.6142 39.3418 60.8924C39.339 60.8784 39.3418 60.8644 39.339 60.8532C39.2634 60.4495 39.1793 60.0487 39.0531 59.6814C38.756 58.9666 38.3972 58.2883 37.7413 57.7837C37.6908 57.8145 37.6403 57.8482 37.5927 57.879C37.2927 59.0059 37.3656 59.9253 37.5647 60.7354C37.6852 61.1279 37.8646 61.4727 38.0664 61.7978C38.2514 62.1398 38.5009 62.4201 38.7868 62.6724C38.7952 62.6808 38.8036 62.6864 38.8121 62.6949C38.4871 63.9607 38.2575 65.2491 38.1253 66.5492C37.9487 66.168 37.7749 65.7895 37.5618 65.4476C37.0825 64.7664 36.5527 64.1301 35.7734 63.7208C35.7314 63.7629 35.6894 63.8049 35.6501 63.847C35.6305 65.0663 35.9388 66.0026 36.3481 66.8015C36.5695 67.1827 36.8386 67.5079 37.1274 67.8022C37.3796 68.091 37.6824 68.3124 38.0047 68.5058C37.9712 69.7906 38.033 71.0761 38.1898 72.3518C37.9291 72.021 37.6712 71.6874 37.3853 71.3987C36.7237 70.7932 36.0257 70.2382 35.1371 69.9523C35.1063 70.0027 35.0727 70.0532 35.0418 70.1036C35.3277 71.3567 35.8744 72.2593 36.4967 72.9965C36.819 73.3469 37.1778 73.6244 37.5478 73.8711C37.845 74.0926 38.1757 74.2327 38.5121 74.3617C38.7659 75.6181 39.1126 76.8539 39.5493 78.059C39.2157 77.7927 38.8849 77.518 38.5373 77.2938C37.702 76.806 36.847 76.3687 35.8659 76.237L35.8071 76.4052C36.4126 77.6274 37.2059 78.4431 38.0384 79.071C38.4617 79.3625 38.9046 79.5756 39.3503 79.7522C39.6754 79.9007 40.0146 79.9652 40.3538 80.0269C40.8949 81.2051 41.5227 82.3417 42.2319 83.4271C41.8366 83.2365 41.4414 83.0375 41.0462 82.8861C40.051 82.5581 39.0503 82.2778 37.9991 82.3227C37.9935 82.3843 37.9851 82.4432 37.9795 82.5049C38.9186 83.6289 39.9557 84.2961 40.9873 84.7642C41.5059 84.9745 42.0245 85.1006 42.5402 85.1875C42.8794 85.2604 43.2102 85.252 43.5438 85.252C44.1073 85.9688 44.707 86.6565 45.3406 87.3123L46.3553 86.2976C45.6261 85.5938 44.94 84.8468 44.3006 84.0606C44.2558 83.8027 44.2445 83.5533 44.281 83.3206ZM74.3335 77.2854C73.9859 77.5096 73.6579 77.7843 73.3215 78.0506C73.7589 76.8457 74.1056 75.6098 74.3587 74.3532C74.6951 74.2243 75.0258 74.0813 75.323 73.8627C75.693 73.616 76.0518 73.3385 76.3742 72.9881C76.9965 72.2481 77.5431 71.3482 77.829 70.0952C77.7981 70.0448 77.7645 69.9943 77.7337 69.9439C76.8451 70.2298 76.1471 70.7848 75.4856 71.3903C75.1996 71.679 74.9417 72.0126 74.6811 72.3434C74.8378 71.0677 74.8996 69.7822 74.8661 68.4974C75.1884 68.304 75.4912 68.0826 75.7435 67.7938C76.0322 67.4995 76.3013 67.1743 76.5227 66.7931C76.932 65.9942 77.2375 65.0579 77.2207 63.8385L77.0946 63.7124C76.3153 64.1217 75.7855 64.758 75.3062 65.4392C75.0931 65.7811 74.9165 66.1596 74.7427 66.5408C74.6105 65.2406 74.381 63.9522 74.056 62.6864C74.0644 62.678 74.0728 62.6724 74.0812 62.664C74.3671 62.4117 74.6166 62.1286 74.8016 61.7894C75.0034 61.4643 75.1828 61.1167 75.3034 60.727C75.5024 59.9141 75.5753 58.9947 75.2753 57.8706C75.2249 57.837 75.1744 57.8061 75.1268 57.7753C74.4708 58.2799 74.1092 58.9582 73.8149 59.673C73.6887 60.043 73.6018 60.4411 73.529 60.8448C73.5262 60.856 73.5262 60.8728 73.5262 60.884C73.0929 59.6001 72.5586 58.3525 71.9284 57.153C71.9592 57.1137 71.99 57.0717 72.0181 57.0324C72.2311 56.7493 72.4021 56.4438 72.4974 56.099C72.6123 55.7654 72.702 55.415 72.7245 55.0338C72.7217 54.2517 72.5759 53.3939 72.0181 52.4156C71.962 52.3932 71.9059 52.3736 71.8499 52.3539C71.3229 52.9286 71.1323 53.6154 71.0173 54.3218C70.9809 54.6834 71.0005 55.0646 71.0258 55.4515C71.0258 55.5047 71.0482 55.5636 71.0538 55.6196C69.9242 53.7933 68.5721 52.1144 67.0285 50.6216C68.6936 52.3455 70.0643 54.2377 71.1435 56.2363C71.1491 56.27 71.1519 56.3008 71.1547 56.3316C70.9818 56.2985 70.8165 56.2339 70.667 56.141C70.3446 55.956 70.0447 55.5664 69.7195 55.3505C69.3943 55.1403 69.0523 55.0842 68.7132 55.073C68.3712 55.0758 68.0292 55.1179 67.6788 55.3337C67.676 55.387 67.6704 55.4402 67.6676 55.4907C67.9703 55.8747 68.2759 56.1046 68.5898 56.3064C68.9038 56.497 69.2149 56.6624 69.5541 56.6905C69.8905 56.7157 70.2577 56.5839 70.5913 56.668C70.9277 56.7409 71.236 56.9876 71.5303 57.2819C71.5864 57.3408 71.6453 57.3969 71.7013 57.4557C71.7153 57.4389 71.7265 57.4221 71.7406 57.4053C72.4003 58.7972 72.9304 60.247 73.3243 61.7362C73.1814 61.6605 73.0384 61.5792 72.9123 61.4587C72.6207 61.1952 72.3937 60.7438 72.105 60.4495C71.8162 60.1636 71.4715 60.0234 71.1183 59.9281C70.7623 59.844 70.3951 59.802 69.9774 59.9225C69.9606 59.9702 69.9437 60.0206 69.9269 60.0683C70.154 60.5084 70.4231 60.8027 70.7034 61.0746C70.9865 61.3353 71.278 61.5736 71.6228 61.6885C71.9704 61.8006 72.3797 61.7698 72.7076 61.9408C73.0412 62.1034 73.3075 62.4229 73.5458 62.7902C73.5598 62.8126 73.5766 62.835 73.5906 62.8574C73.9108 64.3365 74.0985 65.8413 74.1513 67.3537C74.0503 67.2584 73.9466 67.1687 73.8625 67.0482C73.6159 66.7062 73.4785 66.1988 73.2402 65.8344C72.9992 65.4756 72.6768 65.2485 72.332 65.0635C71.9816 64.8869 71.6116 64.7496 71.1575 64.7608C71.1295 64.8028 71.1042 64.8477 71.0762 64.8897C71.222 65.3775 71.4406 65.7335 71.6761 66.0727C71.9172 66.4034 72.1666 66.7174 72.4974 66.922C72.831 67.1267 73.2571 67.208 73.5598 67.4715C73.8261 67.6901 74.0111 68.0209 74.1681 68.3853C74.1597 69.9298 74.0083 71.4688 73.7196 72.9853C73.6607 72.8872 73.5906 72.7975 73.5458 72.6882C73.3664 72.2733 73.3299 71.7239 73.1618 71.2922C72.9908 70.8661 72.7048 70.5493 72.3937 70.2718C72.0713 69.9999 71.7209 69.7673 71.2584 69.6579C71.222 69.6944 71.1883 69.7308 71.1519 69.7673C71.208 70.2886 71.3621 70.7035 71.5331 71.11C71.7125 71.5052 71.9031 71.8865 72.1975 72.1892C72.4946 72.4863 72.9067 72.6882 73.1561 73.0358C73.3384 73.2768 73.4477 73.588 73.529 73.9188C73.1752 75.4568 72.6758 76.9576 72.0377 78.401C72.0153 78.3141 71.9732 78.2328 71.9592 78.1403C71.8723 77.6638 71.9508 77.0863 71.8723 76.5986C71.791 76.1136 71.5724 75.7156 71.3173 75.3484C71.051 74.9868 70.7482 74.6588 70.3054 74.4233C70.2633 74.4514 70.2213 74.4794 70.1792 74.5046C70.1344 75.0512 70.2044 75.5166 70.2941 75.9735C70.3923 76.4276 70.5044 76.8705 70.7314 77.2573C70.9613 77.6442 71.3257 77.9637 71.4967 78.3898C71.6004 78.6365 71.6453 78.914 71.6649 79.2055C70.9541 80.6716 70.1007 82.064 69.1168 83.3626C69.1168 83.2954 69.1028 83.2309 69.1056 83.1636C69.1364 82.6394 69.3523 82.0564 69.3887 81.5266C69.4196 80.9996 69.2934 80.5286 69.1252 80.0829C68.943 79.64 68.716 79.2224 68.3291 78.8664C68.2815 78.8832 68.2338 78.9028 68.1862 78.9196C68.0264 79.4746 67.9956 79.9736 67.9787 80.4754C67.9731 80.9715 67.9815 81.4649 68.1133 81.9274C68.2478 82.3899 68.531 82.8188 68.5926 83.3122C68.6291 83.5477 68.6179 83.7943 68.5842 84.0466C67.9535 84.8231 67.2667 85.5715 66.5295 86.2836L67.5443 87.2983C68.1786 86.6432 68.7783 85.9555 69.3411 85.238C69.6746 85.2352 70.0054 85.2464 70.3446 85.1735C70.8604 85.0866 71.379 84.9605 71.8975 84.7502C72.9291 84.2821 73.9663 83.6149 74.9053 82.4909C74.9002 82.43 74.8936 82.3692 74.8857 82.3087C73.8345 82.2638 72.8338 82.5441 71.8387 82.8721C71.4434 83.0235 71.0482 83.2225 70.6529 83.4131C71.3627 82.328 71.9905 81.1914 72.531 80.0129C72.8702 79.9484 73.2094 79.8839 73.5346 79.7381C73.9803 79.5615 74.4232 79.3485 74.8464 79.057C75.679 78.4291 76.4723 77.6133 77.0777 76.3912L77.0189 76.223C76.0238 76.3603 75.1688 76.7976 74.3335 77.2854Z" fill="#CACACA"/>
<path d="M42.0217 33.1747L34.8176 17.3256C33.9711 15.4503 31.7622 14.6177 29.8897 15.4671C28.0172 16.3164 27.1819 18.5225 28.0312 20.3979L35.1456 36.0508C35.9837 37.9065 38.1001 38.9212 39.9838 38.2008C41.9852 37.3963 42.9019 35.1173 42.0217 33.1747ZM71.8051 33.1747L79.0091 17.3256C79.8557 15.4503 82.0646 14.6177 83.9371 15.4671C85.8124 16.3136 86.6449 18.5225 85.7955 20.3979L78.6812 36.0508C77.843 37.9065 75.7267 38.9212 73.8429 38.2008C71.8415 37.3963 70.9277 35.1173 71.8051 33.1747Z" fill="#DC494A"/>
</g>
<path d="M9.5 5.5L15.5 0H21.5H36H62.5H114V14H0L9.5 5.5Z" fill="#9A2600"/>
<defs>
<filter id="filter0_di_1188_10637" x="7" y="9" width="99.2801" height="102.491" filterUnits="userSpaceOnUse" color-interpolation-filters="sRGB">
<feFlood flood-opacity="0" result="BackgroundImageFix"/>
<feColorMatrix in="SourceAlpha" type="matrix" values="0 0 0 0 0 0 0 0 0 0 0 0 0 0 0 0 0 0 127 0" result="hardAlpha"/>
<feOffset dy="4"/>
<feGaussianBlur stdDeviation="2.5"/>
<feComposite in2="hardAlpha" operator="out"/>
<feColorMatrix type="matrix" values="0 0 0 0 0 0 0 0 0 0 0 0 0 0 0 0 0 0 0.35 0"/>
<feBlend mode="normal" in2="BackgroundImageFix" result="effect1_dropShadow_1188_10637"/>
<feBlend mode="normal" in="SourceGraphic" in2="effect1_dropShadow_1188_10637" result="shape"/>
<feColorMatrix in="SourceAlpha" type="matrix" values="0 0 0 0 0 0 0 0 0 0 0 0 0 0 0 0 0 0 127 0" result="hardAlpha"/>
<feOffset dy="-4"/>
<feGaussianBlur stdDeviation="2"/>
<feComposite in2="hardAlpha" operator="arithmetic" k2="-1" k3="1"/>
<feColorMatrix type="matrix" values="0 0 0 0 1 0 0 0 0 0.686997 0 0 0 0 0.620833 0 0 0 0.3 0"/>
<feBlend mode="normal" in2="shape" result="effect2_innerShadow_1188_10637"/>
</filter>
</defs>
</svg>
