<svg width="114" height="86" viewBox="0 0 114 86" fill="none" xmlns="http://www.w3.org/2000/svg">
<rect y="8" width="114" height="77.8687" fill="#E45F35"/>
<path d="M104.5 3.56947L98.5 0.617676H92.5H78H51.5H0V8.13132H114L104.5 3.56947Z" fill="#9A2600"/>
<path d="M46.8 59C46.6333 58.5 46.55 58.05 46.55 57.65C46.55 56.95 46.7667 56.3667 47.2 55.9C47.6667 55.4 48.3 55.15 49.1 55.15C50.1667 55.15 51.0333 55.75 51.7 56.95C52.1667 57.8167 52.7833 58.4667 53.55 58.9C54.3167 59.3333 55.3 59.55 56.5 59.55C58.1 59.55 59.35 59.0833 60.25 58.15C61.15 57.2167 61.6 55.9667 61.6 54.4C61.6 52.7 61.0833 51.3833 60.05 50.45C59.0167 49.4833 57.7333 49 56.2 49H55.7C54.9333 49 54.3167 48.7667 53.85 48.3C53.4167 47.8333 53.2 47.2333 53.2 46.5C53.2 45.7667 53.4167 45.1667 53.85 44.7C54.3167 44.2333 54.9333 44 55.7 44H56.2C57.6 44 58.7167 43.55 59.55 42.65C60.4167 41.75 60.85 40.55 60.85 39.05C60.85 37.6167 60.4333 36.5 59.6 35.7C58.8 34.8667 57.6833 34.45 56.25 34.45C55.05 34.45 54.1167 34.6833 53.45 35.15C52.7833 35.6167 52.2667 36.2333 51.9 37C51.6333 37.5667 51.2667 38 50.8 38.3C50.3667 38.6 49.9 38.75 49.4 38.75C48.6333 38.75 48.0167 38.5167 47.55 38.05C47.0833 37.5833 46.85 36.9833 46.85 36.25C46.85 35.8167 46.95 35.3667 47.15 34.9C47.7833 33.4 48.8667 32.1167 50.4 31.05C51.9667 29.9833 53.9833 29.45 56.45 29.45C58.0167 29.45 59.4167 29.6833 60.65 30.15C61.9167 30.6167 62.9833 31.2667 63.85 32.1C64.7167 32.9 65.3667 33.8667 65.8 35C66.2667 36.1333 66.5 37.3667 66.5 38.7C66.5 40.3333 66.15 41.7667 65.45 43C64.75 44.2 63.8333 45.1667 62.7 45.9V46C63.2333 46.2667 63.7667 46.6333 64.3 47.1C64.8333 47.5667 65.3167 48.15 65.75 48.85C66.1833 49.55 66.5333 50.3667 66.8 51.3C67.0667 52.2 67.2 53.2167 67.2 54.35C67.2 55.85 66.9333 57.2333 66.4 58.5C65.8667 59.7333 65.1167 60.8 64.15 61.7C63.2167 62.6 62.1 63.3 60.8 63.8C59.5 64.3 58.0833 64.55 56.55 64.55C54.0167 64.55 51.9167 64.0333 50.25 63C48.6167 61.9667 47.4667 60.6333 46.8 59Z" fill="#FCFCF9"/>
</svg>
