<svg width="114" height="106" viewBox="0 0 114 106" fill="none" xmlns="http://www.w3.org/2000/svg">
<path d="M9.5 4.56542L15.5 0.808594H21.5H36H62.5H114V10.3714H0L9.5 4.56542Z" fill="#9A2600"/>
<rect y="10.0005" width="114" height="95.6283" fill="#E45F35"/>
<path d="M44.78 76.06C44.78 75.38 44.92 74.74 45.2 74.14C45.52 73.54 46.06 72.78 46.82 71.86L60.14 55.36C60.98 54.32 61.64 53.3 62.12 52.3C62.6 51.26 62.84 50.16 62.84 49C62.84 47.32 62.34 46 61.34 45.04C60.38 44.04 59.06 43.54 57.38 43.54C55.9 43.54 54.7 43.86 53.78 44.5C52.9 45.14 52.2 46.14 51.68 47.5C51.08 49.1 50.04 49.9 48.56 49.9C47.64 49.9 46.88 49.64 46.28 49.12C45.68 48.56 45.38 47.82 45.38 46.9C45.38 46.74 45.38 46.6 45.38 46.48C45.42 46.32 45.46 46.14 45.5 45.94C45.74 44.9 46.16 43.88 46.76 42.88C47.4 41.88 48.22 40.98 49.22 40.18C50.26 39.38 51.46 38.74 52.82 38.26C54.22 37.78 55.8 37.54 57.56 37.54C59.44 37.54 61.12 37.84 62.6 38.44C64.08 39 65.34 39.78 66.38 40.78C67.42 41.78 68.2 42.98 68.72 44.38C69.28 45.78 69.56 47.28 69.56 48.88C69.56 50.8 69.2 52.56 68.48 54.16C67.76 55.76 66.76 57.32 65.48 58.84L53.78 72.88V73H66.74C67.74 73 68.5 73.28 69.02 73.84C69.58 74.4 69.86 75.12 69.86 76C69.86 76.88 69.58 77.6 69.02 78.16C68.5 78.72 67.74 79 66.74 79H47.96C46.96 79 46.18 78.74 45.62 78.22C45.06 77.66 44.78 76.94 44.78 76.06Z" fill="white"/>
</svg>
