<svg width="114" height="125" viewBox="0 0 114 125" fill="none" xmlns="http://www.w3.org/2000/svg">
<rect y="11" width="114" height="114" fill="#E45F35"/>
<g filter="url(#filter0_di_1188_10635)">
<path d="M65.7102 11H92L70.1447 38.893H43.8549L65.7102 11Z" fill="#E52E40"/>
<path d="M65.7102 11H76.8209L54.9656 38.893H43.8549L65.7102 11Z" fill="#E52E40"/>
<path d="M74.2078 11H83.5025L61.6472 38.893H52.3525L74.2078 11Z" fill="#EAEAE4"/>
<path d="M57 98.3417C72.0382 98.3417 84.2292 86.1508 84.2292 71.1125C84.2292 56.0742 72.0382 43.8833 57 43.8833C41.9617 43.8833 29.7708 56.0742 29.7708 71.1125C29.7708 86.1508 41.9617 98.3417 57 98.3417Z" fill="#FFC059"/>
<path d="M43.8553 47.2616V38.8928H70.145V47.2616L74.6011 50.3363V36.6646C74.6011 35.4346 73.6047 34.4365 72.3731 34.4365H41.6272C40.3973 34.4365 39.3992 35.4346 39.3992 36.6646V50.338L43.8553 47.2616Z" fill="#FFC059"/>
<path d="M57 91.497C68.258 91.497 77.3845 82.3706 77.3845 71.1125C77.3845 59.8545 68.258 50.728 57 50.728C45.742 50.728 36.6155 59.8545 36.6155 71.1125C36.6155 82.3706 45.742 91.497 57 91.497Z" fill="#DD8D19"/>
<path d="M48.2897 11H22L43.8553 38.893H70.145L48.2897 11Z" fill="#E52E40"/>
<path d="M48.2897 11H37.179L59.0344 38.893H70.145L48.2897 11Z" fill="#E52E40"/>
<path d="M39.7922 11H30.4975L52.3528 38.893H61.6475L39.7922 11Z" fill="#EAEAE4"/>
<path d="M62.2441 76.7124V75.967C62.2441 72.8283 60.3217 71.6905 57.4575 71.6905C56.4768 71.6905 56.1237 70.8665 56.1237 70.0427C56.1237 69.1796 56.4768 68.3556 57.4575 68.3556C59.8507 68.3556 61.5378 67.6102 61.5378 64.0399C61.5378 61.1759 60.1646 59.9988 57.6146 59.9988C54.4367 59.9988 53.5341 61.6073 53.5341 63.216C53.5341 64.2361 53.0633 64.9031 51.5725 64.9031C49.7287 64.9031 49.4146 64.4713 49.4146 62.9805C49.4146 60.4304 51.1802 56.3501 57.6537 56.3501C62.2439 56.3501 65.5397 58.1549 65.5397 63.3338C65.5397 66.5902 64.2841 68.9834 62.401 69.8858C64.7157 70.7882 66.4028 72.6323 66.4028 75.9671V76.7126C66.4028 82.9507 62.401 85.2654 57.4575 85.2654C51.3371 85.2654 48.7868 81.4596 48.7868 78.3605C48.7868 76.9872 49.2967 76.5949 50.7092 76.5949C52.4356 76.5949 52.8671 77.1048 52.8671 78.1643C52.8671 79.8907 54.3188 81.5776 57.4967 81.5776C60.7139 81.5775 62.2441 80.1259 62.2441 76.7124Z" fill="#FFC059"/>
</g>
<path d="M104.5 4.32143L98.5 0H92.5H78H51.5H0V11H114L104.5 4.32143Z" fill="#9A2600"/>
<defs>
<filter id="filter0_di_1188_10635" x="17" y="7" width="80" height="100.342" filterUnits="userSpaceOnUse" color-interpolation-filters="sRGB">
<feFlood flood-opacity="0" result="BackgroundImageFix"/>
<feColorMatrix in="SourceAlpha" type="matrix" values="0 0 0 0 0 0 0 0 0 0 0 0 0 0 0 0 0 0 127 0" result="hardAlpha"/>
<feOffset dy="4"/>
<feGaussianBlur stdDeviation="2.5"/>
<feComposite in2="hardAlpha" operator="out"/>
<feColorMatrix type="matrix" values="0 0 0 0 0 0 0 0 0 0 0 0 0 0 0 0 0 0 0.35 0"/>
<feBlend mode="normal" in2="BackgroundImageFix" result="effect1_dropShadow_1188_10635"/>
<feBlend mode="normal" in="SourceGraphic" in2="effect1_dropShadow_1188_10635" result="shape"/>
<feColorMatrix in="SourceAlpha" type="matrix" values="0 0 0 0 0 0 0 0 0 0 0 0 0 0 0 0 0 0 127 0" result="hardAlpha"/>
<feOffset dy="-4"/>
<feGaussianBlur stdDeviation="2"/>
<feComposite in2="hardAlpha" operator="arithmetic" k2="-1" k3="1"/>
<feColorMatrix type="matrix" values="0 0 0 0 1 0 0 0 0 0.686997 0 0 0 0 0.620833 0 0 0 0.3 0"/>
<feBlend mode="normal" in2="shape" result="effect2_innerShadow_1188_10635"/>
</filter>
</defs>
</svg>
