<svg width="121" height="126" viewBox="0 0 121 126" fill="none" xmlns="http://www.w3.org/2000/svg">
<rect y="8" width="121" height="117.486" fill="#E77552"/>
<path d="M113.213 4L104.969 0H101.305H88.0216H63.7459H16.5685L-7.62939e-06 8H121L113.213 4Z" fill="#9A2600"/>
<path d="M58.76 50.24H58.6L52.6 54.48C51.8533 55.0133 50.9467 55.28 49.88 55.28C48.8667 55.28 47.9867 54.9067 47.24 54.16C46.4933 53.36 46.12 52.4267 46.12 51.36C46.12 49.92 46.92 48.6133 48.52 47.44L57.24 41.28C58.2 40.5867 59.1067 40.08 59.96 39.76C60.8667 39.3867 61.8267 39.2 62.84 39.2C64.3333 39.2 65.5067 39.68 66.36 40.64C67.2667 41.6 67.72 42.88 67.72 44.48V89.68C67.72 91.1733 67.2933 92.3467 66.44 93.2C65.64 94 64.5733 94.4 63.24 94.4C61.9067 94.4 60.8133 94 59.96 93.2C59.16 92.3467 58.76 91.1733 58.76 89.68V50.24Z" fill="#FCFCF9"/>
</svg>
