<svg width="121" height="183" viewBox="0 0 121 183" fill="none" xmlns="http://www.w3.org/2000/svg">
<rect y="11" width="121" height="172" fill="#E77552"/>
<g filter="url(#filter0_di_1188_10636)">
<path d="M73.408 10H98.9305L73.408 44.729H47.8855L73.408 10Z" fill="#C32430"/>
<path d="M81.262 62.0347H40.0311C39.5548 62.0347 39.0981 61.8455 38.7613 61.5088C38.4246 61.172 38.2354 60.7153 38.2354 60.239V45.4603C38.2354 42.1243 40.3225 39.0747 43.4291 37.8717C43.6262 37.7954 43.8353 37.7544 44.0466 37.7506L69.2498 37.3171L69.2807 37.3169H74.9146C79.4047 37.3169 83.058 40.9699 83.058 45.4603V60.239C83.0579 60.7153 82.8686 61.1721 82.5319 61.5088C82.1951 61.8456 81.7383 62.0347 81.262 62.0347ZM41.8268 58.4433H79.4663V45.4603C79.4663 42.9503 77.4245 40.9085 74.9146 40.9085H69.2965L44.4562 41.3357C42.8722 42.0729 41.827 43.6946 41.827 45.4603L41.8268 58.4433Z" fill="#EAB14D"/>
<path d="M47.8855 10H22.363L47.8855 44.729H73.4079L47.8855 10Z" fill="#DA4A54"/>
<path d="M60.6465 129C82.5427 129 100.293 111.249 100.293 89.3531C100.293 67.4569 82.5427 49.7065 60.6465 49.7065C38.7504 49.7065 21 67.4569 21 89.3531C21 111.249 38.7504 129 60.6465 129Z" fill="#F4DD45"/>
<path d="M62.5256 128.954C61.9032 128.985 61.2757 129 60.646 129C38.7519 129 21.0002 111.25 21.0002 89.3538C21.0002 67.4574 38.7521 49.708 60.646 49.708C61.2757 49.708 61.903 49.7224 62.5256 49.7536C41.5008 50.733 24.7568 68.0872 24.7568 89.3541C24.7568 110.62 41.5008 127.975 62.5256 128.954Z" fill="#EAB14D"/>
<path d="M60.6465 118.468C76.7259 118.468 89.7608 105.433 89.7608 89.3536C89.7608 73.2742 76.7259 60.2393 60.6465 60.2393C44.5671 60.2393 31.5321 73.2742 31.5321 89.3536C31.5321 105.433 44.5671 118.468 60.6465 118.468Z" fill="#EAB14D"/>
<path d="M61.7362 109.244C59.7527 109.244 58.1446 107.636 58.1446 105.653V76.6456H54.7684C52.7849 76.6456 51.1768 75.0377 51.1768 73.054C51.1768 71.0703 52.7849 69.4624 54.7684 69.4624H61.7362C63.7197 69.4624 65.3278 71.0705 65.3278 73.054V105.653C65.3278 107.637 63.7197 109.244 61.7362 109.244Z" fill="#F4DD45"/>
</g>
<path d="M112.746 5.5L104.535 0H100.886H87.6579H63.4825H16.5L0 11H120.5L112.746 5.5Z" fill="#9A2600"/>
<defs>
<filter id="filter0_di_1188_10636" x="16" y="6" width="89.2931" height="132" filterUnits="userSpaceOnUse" color-interpolation-filters="sRGB">
<feFlood flood-opacity="0" result="BackgroundImageFix"/>
<feColorMatrix in="SourceAlpha" type="matrix" values="0 0 0 0 0 0 0 0 0 0 0 0 0 0 0 0 0 0 127 0" result="hardAlpha"/>
<feOffset dy="4"/>
<feGaussianBlur stdDeviation="2.5"/>
<feComposite in2="hardAlpha" operator="out"/>
<feColorMatrix type="matrix" values="0 0 0 0 0 0 0 0 0 0 0 0 0 0 0 0 0 0 0.35 0"/>
<feBlend mode="normal" in2="BackgroundImageFix" result="effect1_dropShadow_1188_10636"/>
<feBlend mode="normal" in="SourceGraphic" in2="effect1_dropShadow_1188_10636" result="shape"/>
<feColorMatrix in="SourceAlpha" type="matrix" values="0 0 0 0 0 0 0 0 0 0 0 0 0 0 0 0 0 0 127 0" result="hardAlpha"/>
<feOffset dy="-4"/>
<feGaussianBlur stdDeviation="2"/>
<feComposite in2="hardAlpha" operator="arithmetic" k2="-1" k3="1"/>
<feColorMatrix type="matrix" values="0 0 0 0 1 0 0 0 0 0.686997 0 0 0 0 0.620833 0 0 0 0.3 0"/>
<feBlend mode="normal" in2="shape" result="effect2_innerShadow_1188_10636"/>
</filter>
</defs>
</svg>
