<svg viewBox="0 0 546.62 361.22" xmlns="http://www.w3.org/2000/svg">
    <path
        d="m125.7 331.21c-3.3-.26-6.6-.62-9.91-.75s-6.72 0-10.08 0h-.32a.65.65 0 0 0 0-.72l-.35-2.34c-1.06-13.07-2-26.14-3.19-39.2-1.46-16.67-3-33.32-4.58-50h4.82c-.09-8.21-.18-15.72-.27-23.24 0-.54 0-1.07 0-1.6.41-2.23-.43-3.26-2.78-3-1.35.13-2.72.06-4.08.08-.44-5.08-.85-10.15-1.33-15.23q-2-21.7-4.09-43.42c1.11-.31 2.23-.6 3.32-1s2-.75 3-1.13c-.35-7.83-.71-15.65-1.1-24h-7.37l-3.58-42.66c4.23-2 8.41-4 12.7-5.82 3.89-1.63 7.78-3.51 11.87-4.39 9.91-2.12 19.88-4.64 29.94-5.25 8.68-.52 17.66.65 26.25 2.39a362.58 362.58 0 0 1 37 9.57c9.33 2.93 18.16 7.4 27.33 10.86q14.07 5.32 28.38 10c6.59 2.13 13.35 3.72 20.06 5.48a15.35 15.35 0 0 0 4.06.41c11.59-.22 23.21-.12 34.77-.83 13.87-.84 27.67-2.78 41.54-3.46 8.15-.4 16.39.45 24.55 1.23a115.18 115.18 0 0 1 19.42 3.18 173.72 173.72 0 0 1 21.95 7.94 95.31 95.31 0 0 1 26.27 17.34c6.76 6.13 12.85 13 19.06 19.72a87.57 87.57 0 0 1 5.94 7.93c-5.43 8.73-8.12 18.12-6.79 28.47a3.89 3.89 0 0 1 -.21 1.09l-67.48-.1c-4.16-6.1-8.87-8.48-14.29-6.17-2.89 1.23-5.13 4-7.67 6.07h-14l.71-9.62c.58-3.75-2.48-1.54-3.74-2.29a12.85 12.85 0 0 0 -1.93-2c-6.88-4.63-13.79-9.21-20.7-13.8-.72-4.63-1.44-9.27-2.16-13.85h-145.47c0 2.89-.16 5.5 0 8.08s-.66 4.06-2.87 5.43c-5.81 3.63-11.24 7.89-17.19 11.27s-10.37 7.37-8 15.09a1.21 1.21 0 0 1 0 .37 6.65 6.65 0 0 0 -.49 1.75q0 21.27.11 42.54v1.35q0 11 0 22v1.35c-1.86 0-3.72 0-5.59 0q-8.88.22-17.75.49a15.72 15.72 0 0 0 -.6 3.07c-.09 11.83-.11 23.65-.15 35.48l-12.89 1.48v27.55l.08 1.54c0 1.76-.06 3.51-.13 5.27z"
        fill="#e1f1fe" />
    <path
        d="m479.9 329.82h-30l-44.76-.09q-.06-34.92-.11-69.84l1.41-3.7h1.56c.58 2.13-1.82 5.25 2 6.27 2.54.69 4.39 2.06 4.59 4.74.22 2.86-2.05 3.91-4.21 5.07a26.35 26.35 0 0 0 -3.88 3.28c1.35.56 1.69.83 2 .81 9.88-.56 18 7.35 16.72 18.58-.33 2.83-1.07 6.34 3.47 7 .22 0 .37.56.65 1a17.46 17.46 0 0 0 .85-2.2q6.9-29.55 13.79-59.09c.45-1.93.55-5 1.74-5.53 4.41-2.1 2.35-5.71 2.58-8.67a4 4 0 0 0 -2.19-3.06c-3.26-1.18-6.78-1.62-10-2.82-6.32-2.34-13.69-1.7-19.08-6.73-.16-.15-1.09.53-1.66.81h-2.17a22.78 22.78 0 0 1 -1.62-2.82c-.43-1.08-1.17-2.56-.76-3.3a4.3 4.3 0 0 1 3.17-2 69.44 69.44 0 0 1 12.32 1.23c6.76 1.49 13.37 3.63 20.1 5.25a11.72 11.72 0 0 0 6.43.05c3.65-1.38 6.15 0 8.88 2a49.7 49.7 0 0 0 6.24 3.46v10.23l-4.84-.69c.5 2.35.38 5.26 1.36 5.69 2.34 1 1.93 2.62 1.93 4.26q0 16.09 0 32.2v44.56c0 2.67.46 4.32 3.65 4.15 3.49-.19 7 0 10.49 0h12.63c-.47 2.51-1.18 4.49-1.14 6.46.06 2.65-.87 3.52-3.46 3.37-2.93-.16-5.81.03-8.68.07zm-18.77-38.07c-1.83 1.09-2.88 1.67-3.88 2.33-6.12 4.05-12 8.65-18.44 12-4.72 2.46-6.66 5.71-7.32 10.64-.35 2.59.55 3.16 2.68 3.16h24c2 0 3-.78 3-2.87-.05-8.01-.04-16.17-.04-25.26zm-27.08 14.6c1.84-1 2.79-1.49 3.67-2.06q10.18-6.6 20.34-13.24c4.12-2.71 4-4.63-.21-7.26-4.44-2.76-8.91-5.5-13.15-8.53-2.22-1.59-3.12-.91-3.68 1.25-1 3.73-1.87 7.47-2.74 11.22-1.36 5.87-2.67 11.74-4.23 18.62zm26.79-48.74-19.47 12.91 19.47 13.09zm.29-16.34c-12.08 5.6-18.55 15.26-16.6 24.81 5.39-3.54 10.64-6.95 15.83-10.46a2.75 2.75 0 0 0 .74-2c.07-3.95.03-7.92.03-12.35z"
        fill="#b1d2fb" />
    <path
        d="m479.9 329.82c2.87 0 5.75-.23 8.61-.07 2.59.15 3.52-.72 3.46-3.37 0-2 .67-3.95 1.14-6.46h-12.63c-3.5 0-7-.15-10.49 0-3.19.17-3.67-1.48-3.65-4.15.08-14.86 0-29.71 0-44.56q0-16.1 0-32.2c0-1.64.41-3.22-1.93-4.26-1-.43-.86-3.34-1.36-5.69l4.84.69c.08 3.85-.05 7.71.35 11.52a6 6 0 0 0 2.46 3.93c.84.54 2.92.11 3.86-.63 3.86-3.06 7.51-6.41 11.23-9.65l5.78 1.23 11.09 2.44v.14c.12.3.24.6.35.91.28 2.49.55 5 .83 7.49-.35.12-.95.18-1 .39-1.43 5.34-3.07 10.66-4.06 16.09-.42 2.28 1.19 3.72 3.85 2.51 1.34-.61 2.73-1.12 4.1-1.68l4.77 30.72c.09.85.17 1.69.28 2.53.51 3.69 2.42 8 1.19 10.91-1.65 3.92-1 7.48-1.24 11.22-2.32-.27-3.48.5-3.29 3.08s0 5 0 7.47c-8.47 0-16.93 0-25.4 0a17.21 17.21 0 0 1 -3.14-.55z"
        fill="#e1f1fd" />
    <path
        d="m21.77 330.41a78.88 78.88 0 0 1 -9.73-.1 5.5 5.5 0 0 1 -3.81-2.65c-3.8-9-5.74-18.4-6.82-28-.59-5.33-1.47-10.66-1.41-15.96.18-13.7 1.88-27.21 7.46-39.87 3.32-7.54 7.25-14.82 10.85-22.23 4.5-9.27 8.38-18.72 10.17-29 1.6-9.12 3.78-18.14 5.53-27.24.86-4.46 1.35-9 2-13.64l-4.64-1 6 .38.6 2.34q-.62 7.49-1.24 15a17.24 17.24 0 0 0 -.92 3.08c-.46 4.06-.9 8.13-1.18 12.21-.63 8.88-1.15 17.76-1.72 26.65h-6.86v25.46l-1.4 1.47c.12.52.21 1.5.38 1.51 1.56.11 3.13.07 4.83.07l-.33 5q-1.27 14.41-2.53 28.82-1.09 12.72-2.2 25.44v4.58q-1.12 9.36-2.26 18.72z"
        fill="#e1f1fd" />
    <path
        d="m405 259.9q.06 34.92.11 69.84c0 .49-.05 1-.07 1.48q0 6 0 12l-.18.75h-7.51q-.06-6.35-.13-12.69.07-14.62.16-29.25l-1.21-3.33q.06-3.12.1-6.24l1.09-3.28-.21-5.93v-3.68q0-7.58 0-15.13l.27-14.3c0-1.34-.07-2.68-.11-4l.05-22.09c-.51-.52-1-1.48-1.55-1.5-3.86-.13-7.72-.07-11.59-.07-5.52 0-5.49 0-6.42 5.58-.18 1.09-.7 2.13-.9 3.22-.54 3-1 6.09-1.48 9.14-.39 2.27-.79 4.55-1.18 6.82-.76.85-1.92 1.59-2.19 2.57-.59 2.14-.54 4.44-1.07 6.59-1.59 6.49-3.44 12.91-5 19.4q-6 25.2-11.74 50.45c-.55 2.4-.69 4.88-1 7.33q-1.14 5.19-2.26 10.39l-8.33.05.75-4.51 1.5-6 1.5-6c.31-1.13.62-2.27.94-3.4.54-1.62 1.22-3.21 1.61-4.87 2.46-10.49 4.85-21 7.26-31.5.21-.76.41-1.52.61-2.28q4.17-17.61 8.32-35.22c2.39-9.8 5-19.55 7.06-29.42.76-3.59 1.89-5.88 5.87-5.74l23.36.54h3.57z"
        fill="#4d6c92" />
    <path
        d="m285.05 353.7c-.08-2-.15-4-.23-6q78 0 155.93 0a12.17 12.17 0 0 1 3 .81c-.21 2.31-.76 4.65-.55 6.92.34 3.59-1.11 4.31-4.44 4.31q-73.95-.15-147.9-.07h-3.52z"
        fill="#435c80" />
    <path
        d="m485.81 235c-3.72 3.24-7.37 6.59-11.23 9.65-.94.74-3 1.17-3.86.63a6 6 0 0 1 -2.46-3.93c-.4-3.81-.27-7.67-.35-11.52 0-3.41 0-6.82 0-10.23q0-8 0-16c0-.72 0-1.44 0-2.16v-8.21c0-.76 0-1.52 0-2.28v-2.16a3.89 3.89 0 0 0 .21-1.09c-1.33-10.35 1.36-19.74 6.79-28.47l1.59-2.65c12.78 10.64 20.65 23.58 21.58 40.3q-.09 5.43-.16 10.91l-6.06 18.43zm6.73-30.12c-.55-.79-1.16-1.69-1.77-2.59-.75.79-1.89 1.47-2.15 2.39a47.37 47.37 0 0 0 -1.54 8c-.08.81.89 1.73 1.38 2.6.7-.56 1.82-1 2-1.68.83-2.75 1.35-5.54 2.08-8.76zm-5.93-29c-2.59-3-5.09-5.93-7.71-8.77a2.2 2.2 0 0 0 -1.78.67 3 3 0 0 0 .15 2.39c1.68 2.44 3.48 4.79 5.37 7.06a2.8 2.8 0 0 0 2.18.74c.49-.1.87-.97 1.79-2.13zm5.74 17.89c-.8-3.2-1.37-6.11-2.32-8.9-.23-.68-1.66-1-2.54-1.41-.33.83-1 1.72-.92 2.48a53.22 53.22 0 0 0 1.82 7.9c.3.93 1.49 1.56 2.27 2.33zm-4.86 28.46c-3.6-.25-9.7 5.4-9.54 7.93 0 .63.63 1.65 1.08 1.71a2.7 2.7 0 0 0 2.18-.79c2.06-2.75 3.96-5.58 6.28-8.89z"
        fill="#d9474e" />
    <path
        d="m114.14 339.55v15.55c-3.55 1.9-7.13.07-10.7.07q-40.84 0-81.69 0c-2.76 0-5.51-.4-8.41-.63v-11.69l-.21-3.2 19.79-.21h80.49z"
        fill="#435c80" />
    <path
        d="m125.7 331.21.19-5.27h14.53v-1.54h-14.6v-27.69l12.89-1.48.24.15a11.78 11.78 0 0 0 2.42.52h23c3.32.1 6.65.16 10 .37.57 0 1.1.76 1.65 1.17-6.43.07-6.43.07-8.75 8.07l-7.94.55v1.51l9 .75c-.73 2.38-1.35 4.38-2 6.39-.91-1.49-1.82-3-3-4.88-1 1.95-2.33 3.31-2.19 4.5.2 1.82 1.4 3.53 2.18 5.29l3.16-3.39a100.16 100.16 0 0 1 2.29 10.77c.24 2.34-.55 4.79-.88 7.2h-17.23l.75-8.22h13.76v-1.56h-14.5v-17.16l4.38-.24-.05-.36h-20v.61h8.09q.38 13.44.76 26.9h-17.94l-.22-.73zm13.2-20.83h-1.2a36.22 36.22 0 0 0 -1.53 4.77c-.19 1.08-.15 3 .4 3.26a4.7 4.7 0 0 0 3.91.09c.68-.41.76-2.43.49-3.58a24.63 24.63 0 0 0 -2.07-4.54zm15.9-.42h-.7v11.68h.7z"
        fill="#3d5574" />
    <path
        d="m288.59 330.51q-39-.06-77.91-.08a10.12 10.12 0 0 0 -2.78.82c-.09-.52-.19-1-.29-1.54.14-3.27.28-6.53.43-9.8l8.62-.7a30.93 30.93 0 0 0 4.74.68q34-.28 68-.69c.06 2.76.11 5.52.17 8.27z"
        fill="#9fc0e7" />
    <path
        d="m520.36 251.65c-1.17 6.68 1.82 12.81 2.66 19.22 1.64 12.44 3.1 24.81.49 37.28-.92 4.41-1.66 8.86-2.48 13.29l-2.13-1.51h-.95c-.27-3.31.44-7.23-1.11-9.76a20 20 0 0 1 -2.67-7c-.53-2.7-1.26-5.37-1.9-8.05-.26-3.33-.37-6.67-.8-10-1-7.42-2.05-14.81-3.09-22.21a12.74 12.74 0 0 0 2.74-1.66c3.14-3.12 6.17-6.38 9.24-9.6z"
        fill="#dff0fb" />
    <path
        d="m182.94 332.69c-.08-.49-.15-1-.23-1.47l.12-5.25h14.62v-1.63h-14.75l-.15-4.47q-.06-11.53-.13-23.06l.69-.62h3.51l2.3-.13 11.23-.16 1.52.17 6.3.28v9.89h-15.97v1h8.1c0 4.41-.08 8.83.05 13.24s.46 9.11.71 13.67c-2.82 0-5.66.21-8.46 0-3.15-.29-6.3-.96-9.46-1.46zm12.06-23.31a46 46 0 0 0 -1.9 5.78c-.2 1.09-.13 3 .44 3.29a4.35 4.35 0 0 0 3.8-.06c.7-.52.81-2.46.5-3.58-.41-1.59-1.48-2.99-2.84-5.43z"
        fill="#3d5574" />
    <path
        d="m520.36 251.65c-3.07 3.22-6.1 6.48-9.24 9.63a12.74 12.74 0 0 1 -2.74 1.66l-.63-3.78c2.8-.92 4.34-2.79 4.75-6.18l-5.22 2.52q-2-13.19-4-26.37l4.27.49c.28-1.17.54-2.31.81-3.46.79-6.38 4.82-10.64 9.55-14.83 4 5.92 7.16 11.86 7.08 19.07a58.44 58.44 0 0 0 .61 6.29c-.69 2-1.37 4.09-2.06 6.14zm-2.68-33.94-1.26.54c-.13 3.72 1.24 6.53 4.88 7.91zm.93 18.2 1.65.33 1.32-5.76a9.41 9.41 0 0 0 -1.59-.19c-.52 1.86-.94 3.71-1.38 5.62z"
        fill="#b1d2fb" />
    <path
        d="m114.14 339.55-.76-.1a19.9 19.9 0 0 0 -3.89-.79q-31.68-.07-63.35 0a16.11 16.11 0 0 0 -3.48.77h-9.77a17.06 17.06 0 0 0 -3.46-.77c-6.08-.07-12.17 0-18.26 0v-5.72c2.93 0 5.57-.06 8.22 0 1.84.05 2.88-.46 2.38-2.53l.75-9 1.37.73v8.71l1.1.17 1.94-2.88a5.72 5.72 0 0 0 .59 0v2.26c.39.84.79 2.43 1.18 2.43 10.41 0 20.82-.1 31.23-.2h.33.33 6.69l.13.05.08.79c.44.21.87.59 1.31.59 9.88 0 19.75.06 29.62 0 .69 0 1.37-.75 2.06-1.15l-.18-2.54.2-1.52c.77 1.07 1.55 2.13 2.57 3.52l2-5.06c.11.78.23 1.56.35 2.34-.07.08-.2.17-.19.22a4.4 4.4 0 0 0 .21.5h.32c0 .51.05 1 .07 1.52l.63.77h9.72v5.34c-.24.48-.48.95-.71 1.43z"
        fill="#4a6689" />
    <path
        d="m13.31 342.85v11.68c2.9.23 5.65.63 8.41.63q40.85.07 81.69 0c3.57 0 7.15 1.83 10.7-.07l1.29.11c-.3 1.46-.61 2.93-.94 4.55h-102.7a1.85 1.85 0 0 0 -.47 0q1.01-8.44 2.02-16.9z"
        fill="#4a6689" />
    <path
        d="m83.81 83q1.78 21.36 3.58 42.72l-5.32-.08-1.18-11.92v-2.28l-.07-1.92-1.71-2.09-.2.06.56-1.41c.26-.47.78-1 .74-1.39-.48-5.49-1-11-1.58-16.45l-.08-2.27-.55-4.81-.12-4.16-.21-2.76-.3-4.06c-.07-1.49-.15-3-.22-4.47q-.8-8.94-1.6-17.88l-.84-3.56v-2.46l5.51-.05c.81 10.27 1.6 20.55 2.45 30.82.33 3.42.76 6.91 1.14 10.42z"
        fill="#516f93" />
    <path
        d="m40.28 125.68.22-3 1.42 1.12v-13.09c.21-.3.57-.59.6-.9.82-8.11 1.69-16.2 2.34-24.32.24-3.1 0-6.24-.06-9.37.78-8.4 1.63-16.81 2.29-25.22.26-3.31.07-6.64.09-10l5.46.81c0 .65-.09 1.3-.14 2v2.66q-.95 9.69-1.88 19.36l-.77.39.82.38h.21v.2l.12 2.23-.45.65a1.55 1.55 0 0 0 -.37.6l-.18 2.95.23 1.55-.67 2.49q-1.16 13-2.33 26l-.48 6.54-.15 1.39-.14 2.58-1.08 12.75z"
        fill="#516f93" />
    <path
        d="m443.78 348.53a12.17 12.17 0 0 0 -3-.81q-78 0-155.93 0l-3-.3c.93-.65 1.83-1.82 2.78-1.87 4.6-.2 9.22 0 13.82-.13 2.3-.06 4.6-.46 6.89-.7l8.89-.05a18.24 18.24 0 0 0 3.51.72c14.12.05 28.23 0 42.35.05l88.46.1c-.53.72-1.13 2.09-1.59 2-2.45-.25-2.31 1.53-2.69 3z"
        fill="#607eaa" />
    <path
        d="m521.15 348.36 7.54.37c-.35 4.14-.67 8-1 12.07h-25.96c-.25-3.76-.51-7.6-.81-12l7.46-.44.36.1.36-.07h11.34l.36.07z"
        fill="#4a6689" />
    <path d="m288.59 330.51 1-3h56.81l-1.5 6c-16.67 0-33.34 0-50 0a35.69 35.69 0 0 0 -5.09.74z"
        fill="#516f93" />
    <path
        d="m536.1 297.39c0-.72.09-1.44.13-2.16h1.36c3 3.4 3.17 7.84 3.69 11.91.61 4.75.15 9.64.15 14.66l4.84.68a15.27 15.27 0 0 1 .33 2.1c.12 5.9.11 5.89-6 5.84-2.62 0-5.24-.14-7.85 0-3 .2-4.49-.76-4.15-4a20.46 20.46 0 0 0 -.39-4l5.6-.54c0-3.58-.2-7.16.06-10.7.3-4.1 1-8.17 1.55-12.26z"
        fill="#b1d2fb" />
    <path
        d="m166.39 314.69c.62-2 1.24-4 2-6.39l-9-.75v-1.51l7.94-.55c2.32-8 2.32-8 8.75-8.07l.2 21.75v11.31c-.05 1.23-.11 2.47-.17 3.71h-8.16c.33-2.41 1.12-4.86.88-7.2a100.16 100.16 0 0 0 -2.21-10.76c-.12-.53-.18-1.03-.23-1.54z"
        fill="#374c6b" />
    <path
        d="m289.8 334.21a35.69 35.69 0 0 1 5.09-.74c16.67-.06 33.34 0 50 0l-1.5 6-53.71-.67c.05-1.56.08-3.07.12-4.59z"
        fill="#435c80" />
    <path
        d="m40.28 125.68 5.06.8a.43.43 0 0 1 .4-.12c-.82.77-1.58 2.1-2.48 2.22a58.09 58.09 0 0 1 -7.35.1l-.33-.16.31.17c2.28.25 4.55.66 6.83.71 1.92 0 3 .4 3 2.66-.12 4.58.08 9.17-.15 13.74a3.35 3.35 0 0 1 -2.32 2.27c-2.94.31-5.93.17-8.9.2l-1.57.25v-22.84z"
        fill="#9ab3d1" />
    <path
        d="m289.69 338.76 53.71.67-.75 4.51c-8.19 0-16.38 0-24.56.08a24.08 24.08 0 0 0 -3.9.66l-8.89.05a19.23 19.23 0 0 0 -3.52-.75c-4.37-.08-8.75 0-13.12 0z"
        fill="#516f93" />
    <path
        d="m520.44 348.38h-11.34l-.21-2.15c0-1 0-2.06 0-3.09q-.21-6-.41-12.08a1.78 1.78 0 0 0 0-.65c0-2.49.16-5 0-7.47s1-3.35 3.28-3.08l.22-.08.19.13c.15 4.24 3.84 1.19 5.65 3 .21.64.55 1.68.9 2.73l1-.2c-.27-1.83-.53-3.65-.8-5.48l2.13 1.52q-.16 13.13-.34 26.25a1.35 1.35 0 0 0 -.27.65zm-2-2h.75v-15.44h-.75z"
        fill="#9ab3d1" />
    <path
        d="m46.41 40.86c-2.89.7-.91-1.51-1.23-2.25a48.43 48.43 0 0 1 -1.7-5.85 15 15 0 0 1 3.34-.19c2.76.29 4.18-.64 5.19-3.41 3.15-8.54 6.66-16.94 10.05-25.39.4-1 .9-1.95 1.76-3.77.89 1.9 1.5 3 2 4.21 3.18 8 6.5 16 9.41 24 1.21 3.37 3 4.86 6.5 4.32a4.57 4.57 0 0 1 3.57 1.09l-3 1.25-1.3-.54c-9.64.11-19.29.1-28.92.38-5.76.16-5.76.36-5.67 6.15zm24-18.72-.06-.81-6-16.54h-.94q-3.17 8.21-6.34 16.38l-.16 1-3.39 7.39 1.88-.56-.4 3.68c5 0 9.78-.13 14.59 0 2.49.09 3.43-.84 3.22-3.2-.81-2.42-1.63-4.88-2.42-7.34z"
        fill="#516f93" />
    <path
        d="m46.41 40.86c-.09-5.79-.09-6 5.68-6.15 9.63-.28 19.28-.27 28.92-.38 0 .2-.08.4-.1.6v2.25c.47 2.63-1 3.1-3.21 3.07q-10.79-.15-21.57 0c-1.17 0-2.34.75-3.51 1.16a.19.19 0 0 1 0 .33l-5.46-.81z"
        fill="#435c80" />
    <path
        d="m503.28 229.13q2 13.19 4 26.37c.16 1.22.32 2.44.47 3.66l.63 3.78c1 7.4 2.14 14.79 3.09 22.21.43 3.31.54 6.65.8 10l-.75.07-4.77-30.72q-1.44-8.66-2.89-17.31-.42-3.75-.82-7.49l-.36-.91v-.14c-.53-3.34-1.05-6.68-1.58-10l-3.18-20.82q.07-5.47.16-10.91 1.86 11.67 3.71 23.31z"
        fill="#516f93" />
    <path
        d="m314.19 344.68a24.08 24.08 0 0 1 3.9-.66c8.18-.08 16.37-.07 24.56-.08l8.33-.05 1.39.36h7.63c8.28.14 16.57.35 24.86.4 3.69 0 7.38-.27 11.07-.42l1.48-.33h7.51.78l2.29.27a38.75 38.75 0 0 0 4 .42h37l-.39.84-88.46-.1c-14.12 0-28.23 0-42.35-.05a18.24 18.24 0 0 1 -3.6-.6z"
        fill="#2e425a" />
    <path
        d="m443.78 348.53.45 2v3.24l-.06 6.1a11.85 11.85 0 0 1 -2.72.66q-77.11 0-154.23 0c-.61 0-1.21-.1-2.17-.18v-6.7l2.32 6h3.52q74 0 147.9.07c3.33 0 4.78-.72 4.44-4.31-.23-2.23.34-4.57.55-6.88z"
        fill="#3d5574" />
    <path
        d="m80.91 34.93c0-.2.06-.4.1-.6l1.21.58v6.68l-2 .17-5.51.05h-4.78c-1.64 3.37-3 6.11-4.32 8.85l-4.12-.74c-1.11-2.59-2.23-5.18-3.54-8.22l-5.35-.28c1.17-.41 2.34-1.14 3.51-1.16q10.78-.16 21.57 0c2.26 0 3.68-.44 3.21-3.07.01-.76.01-1.51.02-2.26z"
        fill="#2e425a" />
    <path
        d="m537.59 295.22h-1.36q-4.76-23-9.49-46a22.88 22.88 0 0 0 -.84-4.36c-.37-.87-1.55-1.39-2.37-2.06.7-2.05 1.38-4.1 2.07-6.14q6 29.34 11.99 58.56z"
        fill="#cbe2fd" />
    <path
        d="m11.76 359.76h102.7c.33-1.62.64-3.09.94-4.55q.34 2.66.7 5.32l-3 .4h-5.1c-1.47-.14-2.93-.42-4.4-.42q-43.78 0-87.59-.05a27.14 27.14 0 0 1 -4.25-.7z"
        fill="#3d5574" />
    <path
        d="m167.89 334.17h8.16c-.47.52-1 1.49-1.43 1.49q-23.73.12-47.45 0c-.61 0-1.22-.76-1.84-1.16a1.24 1.24 0 0 0 .62-.35h17.94 24z"
        fill="#2e425a" />
    <path d="m176.22 330.48v-11.31l6.33.7.15 4.47c0 .54.09 1.09.13 1.63l-.12 5.25z"
        fill="#9fc0e7" />
    <path
        d="m11.76 359.76a27.14 27.14 0 0 0 4.24.69q43.8.06 87.59.05c1.47 0 2.93.28 4.4.42-1.24.1-2.47.28-3.71.28q-44.57 0-89.13 0c-1.29 0-2.57-.91-3.86-1.39a1.85 1.85 0 0 1 .47-.05z"
        fill="#84a9d8" />
    <path
        d="m37.43 151.17-6-.38 1.42-1.56 1.54.19 25.54.05h3 2.27 17.22 9.72l3 .25-6 .78-3.71.12-3.92-.12-14.06.14h-21l-.74-.15z"
        fill="#28384b" />
    <path
        d="m44.8 76.12c0 3.13.3 6.27.06 9.37-.65 8.12-1.52 16.21-2.34 24.32 0 .31-.39.6-.6.9-.22-.5-.43-1-.64-1.51q1.72-16.54 3.52-33.08z"
        fill="#435c80" />
    <path
        d="m182.94 332.69c3.16.5 6.31 1.17 9.49 1.45 2.8.24 5.64 0 8.46 0h5.4c.57-1.94 1-3.2 1.32-4.46l.29 1.54v2.18c-.06.1-.19.25-.15.31a3.57 3.57 0 0 0 .41.55c-.59.48-1.17 1.38-1.77 1.39-8 .09-15.94.06-24.06.06z"
        fill="#2e425a" />
    <path
        d="m288.66 344c4.37 0 8.75-.05 13.12 0a19.23 19.23 0 0 1 3.52.75c-2.29.24-4.59.64-6.89.7-4.6.11-9.22-.07-13.82.13-.95.05-1.85 1.22-2.78 1.87l-2.47-3.45z"
        fill="#374c6b" />
    <path
        d="m405.07 331.22c0-.49.05-1 .07-1.48l44.76.09a26.68 26.68 0 0 1 -3.93.6c-9.57.05-19.13-.05-28.7.06-4.07.04-8.13.51-12.2.73z"
        fill="#e1f1fd" />
    <path
        d="m503.28 229.13-1.5-8.95c1.18 1.33 2.28 2.74 3.57 4a20.28 20.28 0 0 0 3 2c-.27 1.15-.53 2.29-.81 3.46z"
        fill="#dff0fb" />
    <path
        d="m448.9 344.71c-12.32 0-24.64 0-37 0a38.75 38.75 0 0 1 -4-.42q20.1-.11 40.19-.19c.3-.04.55.39.81.61z"
        fill="#607eaa" />
    <path d="m41.28 109.2c.21.5.42 1 .64 1.51v13.09l-1.42-1.12z" fill="#53677f" />
    <path d="m11.17 338.64h18.26a17.06 17.06 0 0 1 3.46.77l-19.79.21z" fill="#28384b" />
    <path d="m508.49 331.06q.21 6 .41 12.08-.21-6.04-.41-12.08z" fill="#e1f1fd" />
    <path d="m444.17 359.9.06-6.1z" fill="#607eaa" />
    <path d="m113.06 360.93 3-.4z" fill="#84a9d8" />
    <path d="m115.42 339.4c.23-.48.47-.95.71-1.43z" fill="#28384b" />
    <path d="m34.35 149.42-1.54-.19a1.33 1.33 0 0 1 -.07-.71l1.57-.25c.01.38.03.73.04 1.15z"
        fill="#bedafc" />
    <path d="m508.89 346.23.21 2.15-.36.07-.36-.1z" fill="#e1f1fd" />
    <path d="m536.1 297.39-.63 1.56z" fill="#cbe2fd" />
    <path d="m106.41 332.71-.63-.77z" fill="#e1f1fe" />
    <path d="m126 334.19a1.24 1.24 0 0 1 -.62.35c.14-.36.27-.72.4-1.08z" fill="#e1f1fe" />
    <path
        d="m208.17 334.29a3.57 3.57 0 0 1 -.41-.55c0-.06.09-.21.15-.31a4.61 4.61 0 0 1 .36.54c.03.08-.07.21-.1.32z"
        fill="#9fc0e7" />
    <path d="m405.65 344h-.78l.18-.75z" fill="#e1f1fd" />
    <path d="m520.44 348.38a1.35 1.35 0 0 1 .25-.69l.46.67-.35.09z" fill="#dff0fb" />
    <path
        d="m201.67 296.09-1.52-.17-1.15-3.39h-10.1v3.55l-2.3.13c0-1.75-.06-3.51.11-5.24.28-2.63-.77-3.47-3.39-3.39-6.36.19-12.73.13-19.1.17l.3-2.35c6.38 0 12.75 0 19.12.14 2.61.07 3.14-1.05 3.08-3.35-.12-5 0-10 0-15 0-28.12 0-56.23.07-84.34 0-3.09-.81-4.18-4-4a138 138 0 0 1 -14.24 0c-3-.15-3.82.88-3.79 3.82.13 14.87.19 29.74 0 44.6-.05 3.63 1.19 4.65 4.49 4.24a18.5 18.5 0 0 1 3.47.19l.12 1.38a36.23 36.23 0 0 1 -5 .49c-2.22-.08-3.17.64-3.08 3 .15 3.61.13 7.24 0 10.86-.1 3.2-.42 6.38-.65 9.57l-.57-.74-.8-.07c0-.45 0-.9 0-1.35.37-.41 1.06-.83 1.05-1.24-.07-2.85-.28-5.69-.44-8.53q-.33-6.09-.64-12.19v-1.35a4.18 4.18 0 0 0 .52-1.35q0-21.48-.14-42.94a1.21 1.21 0 0 0 0-.37c-2.41-7.72 1.88-11.63 8-15.09s11.38-7.64 17.19-11.27c2.21-1.37 3.07-2.9 2.87-5.43s0-5.19 0-8.08h145.48c.72 4.58 1.44 9.22 2.16 13.85l-59.87.16h-9-1.52-16.46-13.53-4.49-11.27-15.76c-4.72 0-9.44-.13-14.16-.05a6.77 6.77 0 0 0 -3.49 1c-7.19 4.85-14.29 9.81-21.42 14.74l-.28.35.36-.25 14.19.06h.91 2.88l.84-.14c0-1.62.24-2.79 2.19-1.51.35.7.54 1.82 1.08 2 3.18 1.23 8.59-.22 11.14-3.28.28 1.74.47 3 .67 4.17v2.32q0 8.59 0 17.18v5.32 3.68 6.82 3.69 3a1.46 1.46 0 0 0 0 .72v9.75a1.26 1.26 0 0 0 0 .64v2.42 51.64 2.42c-.08 2.86-.11 5.63-.13 8.39zm134.08-136.92c0-3.15.15-6-.09-8.82a2.94 2.94 0 0 0 -2-2c-3.06-.22-6.15-.09-9.4-.09v10.87zm-78.73.09c0-3.18.11-6-.08-8.86-.05-.72-1-1.92-1.64-2a53.84 53.84 0 0 0 -8.23 0 2.64 2.64 0 0 0 -1.72 1.91c-.2 2.92-.09 5.86-.09 8.92zm40.9-.33c10.72 1.86 12.13.9 11.62-7.68 0-.24.09-.6 0-.73-.76-.77-1.48-2-2.36-2.15-8.84-1.3-9.58-.62-9.41 8.14-.01.74.08 1.49.15 2.42zm-73 .46c5.86 0 5.86 0 5.86-5.14 0-6 0-6-5-6-6.89.05-6.8-.93-6.78 5.32 0 5.82 0 5.82 5.93 5.82zm-26.39 0c6.14 0 6.29 0 5.87-8.41-.24-4.66-4.14-2.46-6.39-2.59-5.28-.31-5.29-.09-5.29 6.27.02 4.74.02 4.74 5.82 4.72zm79.47-11.11c-7.1.05-6.46-.63-6.47 6.23 0 4.89 0 4.89 6.78 4.88 4.9 0 5 0 4.84-8.81-.15-4.19-3.71-1.42-5.15-2.3zm18.05.23h-10.96v10.58h10.91zm-26.27.1h-10.78v10.52h10.78zm41.57 10.46h10.79v-10.52h-10.84zm-67.88.09v-10.59h-10.83v10.59zm-26.21-10.86c-3.26 0-6.1-.11-8.92.08-.75 0-2 1-2.05 1.56a49.41 49.41 0 0 0 0 7.79 2.36 2.36 0 0 0 1.69 1.53c3 .15 6.09.07 9.3.07zm-29 92.21c.71 3.48.41 7.31 2.15 8.89 1.52 1.4 6.54 1.41 7.85 0 1.63-1.76 1.05-5.58 1.45-8.66-1.75-.12-2.61-.22-3.46-.23-2.2-.02-4.43 0-7.96 0zm1-42.11c2.4 0 4.52-.12 6.61 0 2.79.2 3.88-1 3.62-3.72-.12-1.23.18-2.54-.12-3.71a3.08 3.08 0 0 0 -1.77-1.95c-7.44-1.73-9.08-.27-8.67 7.45a17.75 17.75 0 0 0 .33 1.93zm-.13 71.74h9.94a29.49 29.49 0 0 0 .58-5.8c-.09-1-1.15-2.67-1.93-2.77a71.8 71.8 0 0 0 -8.59-.13zm10.2 10.56v-8.48h-10.17v8.48zm-10.28-51.78h10v-8.44h-10zm0-10.44h10v-8.48h-10zm.1-19.08v8.6h9.85v-8.6zm0 51.75v8.59h9.85v-8.59zm.22-63.25a53.3 53.3 0 0 0 5.94-.05c1.35-.16 3.62-.64 3.76-1.33a27 27 0 0 0 0-7c0-.25-1-.56-1.59-.65-7.65-1.27-9.1 0-8.57 7.7a9.29 9.29 0 0 0 .48 1.33zm-.26 51.46h10.19v-5.68l-10.17-.52zm9.81 46.11c.88-2.81.23-3.89-2.24-3.74-2 .12-4-.11-5.94.12a2.48 2.48 0 0 0 -1.72 1.69 2.43 2.43 0 0 0 1.55 1.84c2.77.2 5.54.09 8.37.09zm0 2.17c-2.61 0-4.94.05-7.27 0-3-.08-3.33 1.26-2.27 3.56 9.28.8 9.77.59 9.62-3.56zm-9.59-57.38v.74h9.67v-.76z"
        fill="#84a9d8" />
    <path
        d="m278.92 161 59.87-.16c6.91 4.59 13.82 9.17 20.7 13.8a12.85 12.85 0 0 1 1.93 2h-75v-13.43z"
        fill="#c6e0fd" />
    <path
        d="m163.59 256.24.57.74a1.38 1.38 0 0 0 0 .67l.07 1.57h-.23c-6.6-1.16-6.6-1.16-6.61 5.63v1.84h-9.39v1.55h8.65q-.1 7.37-.19 14.73c0 4.08 1.75 8.24-.56 12.21l-16.95.23-.24-.15c0-11.83.06-23.65.15-35.48a15.72 15.72 0 0 1 .6-3.07c6.27.09 12.55.23 18.82.23a43.7 43.7 0 0 0 5.31-.7zm-11.59 14.87h-1c-.2.74-.4 1.48-.62 2.21a26.2 26.2 0 0 1 -.81 2.65 13.13 13.13 0 0 1 -1.1 1.78l4 2.19c.58-1.46 1.71-3 1.6-4.37s-1.35-2.97-2.07-4.46zm-10 11.56h.61v-12.22h-.61z"
        fill="#3d5574" />
    <path
        d="m401.43 215.57-23.36-.57-.24-11.29v-2.23-8.31l-1.42-2.12 2-2.51c2.54-2.07 4.78-4.83 7.67-6.06 5.42-2.31 10.13.07 14.29 6.17l.72 2.28v2.25l-.06 6.72-.94.4 1 .37c0 .28.07.56.11.84 0 .75.05 1.5.07 2.24zm-5.67-19.2a6.22 6.22 0 0 0 -5.76-6.17 6 6 0 1 0 -.33 12 6.08 6.08 0 0 0 6.09-5.83z"
        fill="#435c80" />
    <path
        d="m105 327.39-2 5.06c-1-1.39-1.8-2.45-2.57-3.52l-1-1.42.39-.41-.69-.2-.06.19h-.2c.05-.45.09-.91.13-1.36a26 26 0 0 0 .53-4.84c-.53-6.68-1.21-13.35-1.88-20-.54-5.41-1.15-10.82-1.73-16.22l-.09-1.78c0-.52 0-1 0-1.56l.11-2.52q-1.86-19.65-3.74-39.28l3-1.42h1.41l.31.09h.32c1.53 16.66 3.12 33.31 4.58 50 1.18 13.05 2.18 26.12 3.18 39.19z"
        fill="#516f93" />
    <path
        d="m286.4 176.67h75c1.26.75 4.32-1.46 3.74 2.29l-12.78.71h-65.2a24.18 24.18 0 0 0 -4-.68q-33.25 0-66.52.06l-6.75-.87 8.26-1.52z"
        fill="#96c4f8" />
    <path
        d="m97.25 238.21h-.32l-.31-.09c-.94-.48-1.86-1.32-2.83-1.38-2.78-.2-5.59-.08-8.38-.09a46.06 46.06 0 0 1 -.72-5.44c-.1-5.43 0-10.87 0-16.3h17.15c.09 7.52.18 15 .27 23.24z"
        fill="#9cb6d4" />
    <path
        d="m95.09 149.76-3-.25c-2.19-1.88-7.47-1.9-9.72 0h-1.48l.78-20.71h11.84c-7.69-.83-15.37-.74-23-.91-1.3 0-2.57-1.2-3.86-1.84a.37.37 0 0 1 .43-.36l15-.06 5.32.08h7.37c.39 8.37.75 16.19 1.1 24z"
        fill="#9cb6d4" />
    <path
        d="m85.43 150.67 3.71-.13.36 1.23q2.06 21.72 4.09 43.42c.48 5.08.89 10.15 1.33 15.23h-5q-.74-8.6-1.49-17.21l-.86-2.35.33-1.47c-.08-1-.15-2-.22-3q-1.48-17.25-3-34.49z"
        fill="#516f93" />
    <path
        d="m401.14 191-.72-2.28 67.48.1v2.16h-8.95a10.73 10.73 0 0 0 -2.73-.76q-16.81-.08-33.64 0a10.29 10.29 0 0 0 -2.7.81h-16.49a1.06 1.06 0 0 0 -.66 0z"
        fill="#9ab3d1" />
    <path d="m352.38 179.66 12.78-.71c-.24 3.21-.47 6.42-.71 9.62h-12q-.06-4.43-.07-8.91z"
        fill="#bedafc" />
    <path
        d="m352.42 188.61h12 14c-.66.83-1.33 1.66-2 2.5l-.77-.08a8.29 8.29 0 0 0 -2.34-.79q-13.08-.08-26.15 0a8.26 8.26 0 0 0 -2.34.78l-16.52-.24c1.56-.69 3.1-1.91 4.69-2 6.5-.25 13.01-.14 19.43-.17z"
        fill="#9ab3d1" />
    <path d="m89.87 210.43h5c1.36 0 2.73.05 4.08-.08 2.35-.23 3.19.8 2.78 3h-17.12l-3-3z"
        fill="#9cb6d4" />
    <path d="m84.66 213.42h17.12v1.6h-17.15-18.23v-1.51z" fill="#b1d2fb" />
    <path
        d="m163.16 187.22q.08 21.47.14 42.94a4.18 4.18 0 0 1 -.52 1.35q-.08-21.27-.11-42.54a6.65 6.65 0 0 1 .49-1.75z"
        fill="#bedafc" />
    <path d="m125.81 324.4h14.6v1.54h-14.52c-.03-.51-.05-1.02-.08-1.54z" fill="#2e425a" />
    <path
        d="m163.59 256.24a43.7 43.7 0 0 1 -5.32.67c-6.27 0-12.55-.14-18.82-.23q8.88-.26 17.75-.49c1.87-.05 3.73 0 5.59 0z"
        fill="#bedafc" />
    <path d="m162.78 232.86q.32 6.09.64 12.19c.16 2.84.37 5.68.44 8.53 0 .41-.68.83-1.05 1.24z"
        fill="#bedafc" />
    <path d="m89.5 151.77-.36-1.23 6-.78.77-.07c-1 .38-2 .79-3 1.13s-2.3.64-3.41.95z"
        fill="#53677f" />
    <path d="m105.39 330.45a4.4 4.4 0 0 1 -.21-.5c0-.05.12-.14.19-.22a.65.65 0 0 1 .02.72z"
        fill="#516f93" />
    <path
        d="m415.33 215.66c.57-.28 1.5-1 1.66-.81 5.39 5 12.76 4.39 19.08 6.73 3.24 1.2 6.76 1.64 10 2.82a4 4 0 0 1 2.19 3.06c-.23 3 1.83 6.57-2.58 8.67-1.19.57-1.29 3.6-1.74 5.53q-6.94 29.54-13.77 59.09a17.46 17.46 0 0 1 -.85 2.2c-.28-.45-.43-1-.65-1-4.54-.66-3.8-4.17-3.47-7 1.31-11.23-6.84-19.14-16.72-18.58-.33 0-.67-.25-2-.81a26.35 26.35 0 0 1 3.88-3.28c2.16-1.16 4.43-2.21 4.21-5.07-.2-2.68-2.05-4.05-4.59-4.74-3.8-1-1.4-4.14-2-6.27a47.77 47.77 0 0 0 1.4-4.94c2.02-11.86 3.97-23.73 5.95-35.6z"
        fill="#e1f1fd" />
    <path
        d="m401.43 215.57-.12-11.79h9l57.61-.15q0 8 0 16a49.7 49.7 0 0 1 -6.24-3.46c-2.73-2-5.23-3.4-8.88-2a11.72 11.72 0 0 1 -6.43-.05c-6.73-1.62-13.34-3.76-20.1-5.25a69.44 69.44 0 0 0 -12.27-1.32 4.3 4.3 0 0 0 -3.17 2c-.41.74.33 2.22.76 3.3a22.78 22.78 0 0 0 1.62 2.82c-1.24 7-2.54 14.07-3.72 21.12-1.07 6.45-2 12.93-3 19.39l-1.49 3.72v-44.33z"
        fill="#dff0fb" />
    <path
        d="m461.13 291.75v25.3c0 2.09-1 2.88-3 2.87-8 0-16 0-24 0-2.13 0-3-.57-2.68-3.16.66-4.93 2.6-8.18 7.32-10.64 6.48-3.38 12.32-8 18.44-12 1.04-.7 2.09-1.28 3.92-2.37z"
        fill="#e1f1fd" />
    <path
        d="m434.05 306.35c1.56-6.88 2.87-12.75 4.23-18.62.87-3.75 1.77-7.49 2.74-11.22.56-2.16 1.46-2.84 3.68-1.25 4.24 3 8.71 5.77 13.15 8.53 4.22 2.63 4.33 4.55.21 7.26q-10.15 6.65-20.34 13.24c-.88.57-1.83 1.03-3.67 2.06z"
        fill="#e1f1fd" />
    <path d="m460.84 257.61v26l-19.47-13.09z" fill="#dff0fb" />
    <path
        d="m461.13 241.27v12.36a2.75 2.75 0 0 1 -.74 2c-5.19 3.51-10.44 6.92-15.83 10.46-1.98-9.56 4.49-19.22 16.57-24.82z"
        fill="#dff0fb" />
    <path
        d="m406.44 256.2c1-6.46 1.93-12.94 3-19.39 1.18-7.05 2.48-14.08 3.72-21.12h2.17c-2 11.87-3.93 23.74-5.95 35.59a47.77 47.77 0 0 1 -1.4 4.94z"
        fill="#bedafc" />
    <path d="m501.09 228.6c.53 3.35 1.05 6.69 1.58 10l-11.08-2.44-5.78-1.16 6-8.75z"
        fill="#b1d2fb" />
    <path
        d="m503.86 247.17q1.44 8.66 2.89 17.31c-1.37.56-2.76 1.07-4.1 1.68-2.66 1.21-4.27-.23-3.85-2.51 1-5.43 2.63-10.75 4.06-16.09.05-.21.65-.27 1-.39z"
        fill="#b1d2fb" />
    <path
        d="m511.52 295.2.75-.07c.64 2.68 1.37 5.35 1.9 8.05a20 20 0 0 0 2.67 7c1.55 2.53.84 6.45 1.11 9.76h-5.8l-.19-.13-.22.08c.23-3.74-.4-7.3 1.25-11.22 1.23-2.95-.68-7.22-1.19-10.91-.11-.87-.19-1.71-.28-2.56z"
        fill="#435c80" />
    <path d="m502.68 238.77.36.91z" fill="#b1d2fb" />
    <path
        d="m26.93 328.18-1.93 2.88-1.1-.17v-8.71c.25-3.46.55-6.92.71-10.38.14-3 .12-6 .18-9.07v-4.58c.45-.56 1.24-1.1 1.29-1.69.6-7.37 1.11-14.74 1.58-22.11 0-.53-.43-1.09-.67-1.64q1.29-14.4 2.57-28.81c.6-1.45 1.19-2.9 2-5l3.59.72q-1.39 15.48-2.78 31l-.39 5-.34 3.38-.2 2.74a4.42 4.42 0 0 1 0 .63v2.31c-1 10.32-2 20.63-2.85 31-.28 3.37-.14 6.78-.19 10.17l.51 1.19-.23.07z"
        fill="#516f93" />
    <path
        d="m26.05 235.89v-25.46h6.95l1.36-.45 3.65.45h12.92a38.36 38.36 0 0 0 -5.7.82c-1 .29-1.71 1.4-2.56 2.14h-7v1.52h7q-.39 10.88-.76 21.75c-1.88 0-3.75.1-5.62 0-3.43-.18-6.83-.5-10.24-.77z"
        fill="#9cb6d4" />
    <path
        d="m38 210.43-3.67-.43c.77-11.19 1.57-22.39 2.3-33.59.17-2.62.11-5.27.16-7.9q.62-7.5 1.24-15c2.29-3.14 2.64-3.13 4.69.08l-2.67 31.41-.38 4.52.16 1.37-.83 4.6q-.51 7.51-1 14.94z"
        fill="#516f93" />
    <path
        d="m35.16 239.67-3.59-.67c-.85 2.05-1.44 3.5-2 5 .1-1.49.2-3 .33-5-1.7 0-3.27 0-4.83-.07-.17 0-.26-1-.38-1.51 1.25 0 2.49.16 3.73.16q30.14 0 60.26 0c2.19 0 4.38.34 6.57.53l-3 1.42-.85.14h-2.2l-21.77-1.05v15.68c-.73 1.89-4.24 2.69-2.24 5.66h-2.99l-.34-.31.31.33q-.78 2.24-1.57 4.45c-.19-1.35-.39-2.7-.57-4.05 0-1.39 0-2.78 0-4.18l-.75-.52 1.3-2v-14.74c-5.33 0-10.15-.07-15 0-2.4.05-4.78.42-7.17.65l-1.9.15z"
        fill="#374c6b" />
    <path
        d="m39.67 189.48c.13-1.51.25-3 .38-4.52.6.15 1.49.64 1.77.41 6.18-5.12 12.18-10.37 18.29-15.48 1.61-1.36 1.75-2.64.14-4-5.48-4.68-11-9.34-16.59-14.13l-.94 1.85c-2-3.21-2.4-3.22-4.69-.08l-.6-2.34 8.3-.66.32.83c5.09 4.54 10.13 9.14 15.35 13.53.82.69 2.47.39 3.74.55l1.51-1.5c4.45-3.71 8.93-7.39 13.34-11.15a10.19 10.19 0 0 0 1.52-2.23l3.92.12c-.25.43-.51.85-.76 1.27-5.93 4.81-11.9 9.57-17.72 14.5a3 3 0 0 0 .12 2.87c6.78 5.79 13.68 11.44 20.56 17.12.07 1 .14 2 .22 3l-21.1-17.79-1.43-.29c-.56-.66-1.12-1.32-1.69-2-.49.89-1.37 1.76-1.4 2.67-.2 5.57-.21 11.15-.29 16.73h-.28v-18z"
        fill="#53677f" />
    <path
        d="m36.79 168.49c0 2.63 0 5.28-.16 7.9-.73 11.2-1.53 22.4-2.3 33.59l-1.36.45c.57-8.89 1.09-17.77 1.72-26.65.28-4.08.72-8.15 1.18-12.21a17.24 17.24 0 0 1 .92-3.08z"
        fill="#435c80" />
    <path
        d="m95.21 238.09c-2.19-.19-4.38-.53-6.57-.53q-30.12-.08-60.26 0c-1.24 0-2.48-.11-3.73-.16l1.4-1.47c3.41.27 6.81.59 10.23.78 1.87.11 3.74 0 5.62 0h43.51c2.79 0 5.6-.11 8.38.09 1 .06 1.89.9 2.83 1.38z"
        fill="#b1d2fb" />
    <path
        d="m27 272.71c.24.55.71 1.11.67 1.64-.47 7.37-1 14.74-1.58 22.11-.05.59-.84 1.13-1.29 1.69q1.07-12.72 2.2-25.44z"
        fill="#435c80" />
    <path
        d="m24.78 302.73c-.06 3 0 6-.18 9.07-.16 3.46-.46 6.92-.71 10.38-.45-.25-.91-.49-1.37-.73q1.14-9.36 2.26-18.72z"
        fill="#3d5574" />
    <path
        d="m374.23 247.16c.39-2.27.79-4.55 1.18-6.82l5.11-16.34h16.83q0 11-.05 22.09l-25.4 16.91a11.93 11.93 0 0 1 -.27-3.17c.78-4.27 1.72-8.46 2.6-12.67z"
        fill="#dff0fb" />
    <path
        d="m352.37 344.25-1.39-.36q1.13-5.2 2.26-10.39c.44-.81.89-1.62 1.34-2.42l.45-.85.13-.11 16.69-.46h15.79l.8.69h6.67l1.57.77a2.48 2.48 0 0 0 .54.06q.06 6.34.13 12.69l-1.48.33h-35.93-7.58z"
        fill="#fefefe" />
    <path
        d="m346.4 327.46h-56.79c-.06-2.75-.11-5.51-.17-8.27.09-.52.19-1.05.28-1.58l57.35.05.27 6.39c-.34 1.14-.63 2.28-.94 3.41z"
        fill="#435c80" />
    <path
        d="m365.14 250.19q-4.15 17.61-8.32 35.22h-3.66a49.11 49.11 0 0 1 -.73-5.86c-.06-15.29 0-30.58 0-45.87h12c0 1.61-.06 3.23 0 4.84.19 3.9.47 7.78.71 11.67z"
        fill="#bedafc" />
    <path
        d="m397.41 250.08-.27 14.3a16.55 16.55 0 0 0 -10 12.13 5.79 5.79 0 0 0 1.71 4.75c.93.78 3.12.33 4.67 0a16.39 16.39 0 0 0 3.63-1.76v3.68l-2.07 4.69-26.08-16.87 2.1-4.48c6.23-4 12.44-8.11 18.7-12.09 2.46-1.55 5.07-2.9 7.61-4.35z"
        fill="#dff0fb" />
    <path
        d="m365.14 250.19c-.24-3.89-.52-7.77-.72-11.66-.08-1.61 0-3.23 0-4.84.36-.79 2.6-1.51.09-2.4v-27.43l13.36-.12.24 11.29c-4-.14-5.11 2.15-5.87 5.74-2.12 9.87-4.71 19.62-7.1 29.42z"
        fill="#dceefa" />
    <path
        d="m347.34 324.06-.27-6.39 1.22-2.27h-5.56l-.82-.74a1 1 0 0 0 0-.72c2.13-4.25 1.91-8.55.24-12.88l-1.77-8.12c-.49-1.75-1-3.5-1.48-5.25h17.31c-2.41 10.5-4.8 21-7.26 31.5-.39 1.66-1.07 3.25-1.61 4.87z"
        fill="#b1d2fb" />
    <path
        d="m397.23 331.22a2.48 2.48 0 0 1 -.54-.06l-1.57-.77h-6.67l-.8-.69c-.55-3.07 1.66-6.71-2.63-9.45l5.5-1.15c-.21-4.14-.44-8.42-.66-12.69l7.54-4.43q-.09 14.62-.17 29.24z"
        fill="#b1d2fb" />
    <path
        d="m397.39 302-7.54 4.43-18.64 12.15-14.08 8.94-.85-3.23.62-.6 6.1-3.69 2.33-1.44 29-19.09 1.81-.87z"
        fill="#4a6689" />
    <path
        d="m356.28 324.26c.28 1.08.57 2.16.85 3.23l-2 2.62-.13.12-.45.85c-.45.8-.9 1.61-1.34 2.42.32-2.45.46-4.93 1-7.33q5.79-25.25 11.79-50.45c1.54-6.49 3.39-12.91 5-19.4.53-2.15.48-4.45 1.07-6.59.27-1 1.43-1.72 2.19-2.57-.88 4.21-1.82 8.4-2.6 12.63a11.93 11.93 0 0 0 .27 3.17l-.81 3.58-2.12 4.46-.09 3.19a6.51 6.51 0 0 0 -1.12 1.74c-1.48 6.38-2.9 12.78-4.33 19.17q-2.91 12-5.8 24.07l-.78 4.49z"
        fill="#374c6b" />
    <path
        d="m397.15 279.51a16.39 16.39 0 0 1 -3.63 1.76c-1.55.32-3.74.77-4.67 0a5.79 5.79 0 0 1 -1.71-4.75 16.55 16.55 0 0 1 10-12.13q.02 7.55.01 15.12z"
        fill="#b1d2fb" />
    <path
        d="m368.9 274.21.1-3.21 26.1 16.86 2.28 1.24c-.37 1.09-.73 2.19-1.09 3.28l-1.89-.87c-1-.73-2-1.49-3-2.18q-11.24-7.57-22.5-15.12z"
        fill="#53677f" />
    <path
        d="m371.09 266.54.81-3.58 25.4-16.9c0 1.34.08 2.68.11 4-2.54 1.45-5.15 2.8-7.62 4.37-6.26 4-12.47 8.08-18.7 12.11z"
        fill="#53677f" />
    <path
        d="m397.35 224h-16.83l-5.11 16.37c.49-3.05.94-6.1 1.48-9.14.2-1.09.72-2.13.9-3.22.93-5.57.9-5.57 6.42-5.58 3.87 0 7.73-.06 11.59.07.54-.01 1.04.95 1.55 1.5z"
        fill="#3d5574" />
    <path d="m356.21 287.69h-17.31l-1.7-2.14 16-.13h3.66c-.24.75-.44 1.51-.65 2.27z"
        fill="#96c4f8" />
    <path d="m394.39 291.53 1.89.87q0 3.12-.1 6.24l-1.81.87c.01-2.66.01-5.32.02-7.98z"
        fill="#b1d2fb" />
    <path d="m397.37 289.12-2.28-1.24 2.07-4.69z" fill="#b1d2fb" />
    <path
        d="m401.11 199.93.06-6.72h66.71q0 4.09 0 8.21l-66.62.11c0-.28-.07-.56-.11-.84s-.04-.51-.04-.76z"
        fill="#4e7ab1" />
    <path d="m401.24 201.54 66.62-.11v2.16l-57.61.15h-9z" fill="#9ab3d1" />
    <path
        d="m467.88 193.22h-66.71v-2.25l1.55.1h.67 16.49a7.76 7.76 0 0 0 2 .57q17.3.06 34.59 0a9.9 9.9 0 0 0 2.43-.63h8.95c.03.69.03 1.45.03 2.21z"
        fill="#4a6689" />
    <path d="m501.09 228.6-9.24-2.39 6.06-18.43z" fill="#dceefa" />
    <path
        d="m492.54 204.84c-.73 3.22-1.25 6-2.06 8.71-.2.7-1.32 1.12-2 1.68-.49-.87-1.46-1.79-1.38-2.6a47.37 47.37 0 0 1 1.54-8c.26-.92 1.4-1.6 2.15-2.39.59.91 1.21 1.81 1.75 2.6z"
        fill="#dceefa" />
    <path
        d="m486.61 175.84c-.92 1.13-1.3 2-1.79 2.09a2.8 2.8 0 0 1 -2.18-.74c-1.89-2.27-3.69-4.62-5.37-7.06a3 3 0 0 1 -.15-2.39 2.2 2.2 0 0 1 1.78-.67c2.62 2.84 5.1 5.78 7.71 8.77z"
        fill="#dceefa" />
    <path
        d="m492.35 193.73-1.69 2.4c-.78-.77-2-1.4-2.27-2.33a53.22 53.22 0 0 1 -1.82-7.9c-.12-.76.59-1.65.92-2.48.88.46 2.31.73 2.54 1.41.97 2.79 1.52 5.7 2.32 8.9z"
        fill="#dceefa" />
    <path
        d="m487.49 222.19c-2.32 3.31-4.22 6.14-6.28 8.85a2.7 2.7 0 0 1 -2.18.79c-.45-.06-1-1.08-1.08-1.71-.16-2.53 5.94-8.18 9.54-7.93z"
        fill="#b1d2fb" />
    <path d="m42.66 339.44a16.11 16.11 0 0 1 3.48-.77q31.68-.07 63.35 0a19.9 19.9 0 0 1 3.89.79z"
        fill="#28384b" />
    <path
        d="m164.24 287.75c6.37 0 12.74 0 19.1-.17 2.62-.08 3.67.76 3.39 3.39-.17 1.73-.08 3.49-.11 5.24h-3.51-1.19l.5.64q.06 11.54.13 23.06l-6.33-.7q-.1-10.87-.2-21.75c-.55-.41-1.08-1.13-1.65-1.17-3.31-.21-6.64-.27-10-.37-.08-.23-.17-.46-.25-.68q.09-3.78.12-7.49z"
        fill="#bedafc" />
    <path d="m150.66 334.17h-6.77q-.37-13.46-.76-26.91h7.54v17.13h-4.82v1.61h5.56z"
        fill="#374c6b" />
    <path
        d="m166.39 314.69c.05.51.11 1 .17 1.52l-3.16 3.39c-.78-1.76-2-3.47-2.18-5.29-.14-1.19 1.17-2.55 2.19-4.5 1.16 1.91 2.07 3.39 2.98 4.88z"
        fill="#0a0b11" />
    <path
        d="m138.9 310.38a24.63 24.63 0 0 1 2.1 4.62c.27 1.15.19 3.17-.49 3.58a4.7 4.7 0 0 1 -3.91-.09c-.55-.27-.59-2.18-.4-3.26a36.22 36.22 0 0 1 1.53-4.77z"
        fill="#0a0b11" />
    <path d="m151.41 326h-5.56v-1.56h19.33v1.56z" fill="#2e425a" />
    <path d="m154.8 310v11.69h-.7v-11.69z" fill="#4a6689" />
    <path
        d="m164.16 295.2c.08.22.17.45.25.68-7.68 0-15.36 0-23 0a11.78 11.78 0 0 1 -2.42-.52l16.95-.23z"
        fill="#28384b" />
    <path d="m150.67 307.26h-15.67v-.61h20l.05.36z" fill="#28384b" />
    <path
        d="m289.72 317.62c-.09.53-.19 1.06-.28 1.58q-34 .36-68 .69a30.93 30.93 0 0 1 -4.74-.68c.24-4.92.58-9.84.7-14.76a39.46 39.46 0 0 0 -.61-6.21c-.49-3.51-1.07-7-1.61-10.52l11.9-.28-.06-2.07h-9.59c-.25-4.31-.71-8.63-.69-12.95 0-6.18.53-12.36.65-18.54.12-6.73 0-13.45.05-20.18 13.23 0 26.46 0 39.69-.08 1.17 0 2.33-.84 3.49-1.29-1.2-.54-2.38-1.52-3.59-1.55q-11.24-.21-22.47 0c-5.71.07-11.43.38-17.14.59-.24-3.57-.67-7.13-.7-10.7-.08-13.86 0-27.72-.05-41.58q33.26 0 66.52-.06a24.18 24.18 0 0 1 4 .68v85.57h2.42c-5.94 5.72-9.07 12.82-10.25 20.88a7.59 7.59 0 0 0 -2.09-.67q-15.17 0-30.34 0a6 6 0 0 0 -1.79.74c.63.59 1 1.19 1.3 1.19 11 .11 22 .15 32.93.21a5.86 5.86 0 0 1 .32 1.06 7.26 7.26 0 0 0 5.06 6.32c2.93 1 5.17-.47 7.23-2.57a71.12 71.12 0 0 1 5.63-4.73 21.93 21.93 0 0 0 -1.3 3.72c-.63 3.74-1.08 7.51-1.61 11.26l.51 4.47v6l-.69 2.19c-1.36 0-2.72-.11-4.08 0-2.23.11-1.85 1.1-.72 2.27zm-37.29-126.91-1.51.13c-2.6 5.63-5.42 11.18-7.72 16.94-1.52 3.79 0 7.64 3.18 9.93a9 9 0 0 0 10.49.07c3.21-2.23 4.81-6.06 3.31-9.84-2.32-5.85-5.18-11.49-7.75-17.23z"
        fill="#bedafc" />
    <path
        d="m215.14 287.72c.54 3.51 1.12 7 1.61 10.52a39.46 39.46 0 0 1 .61 6.21c-.12 4.92-.46 9.84-.7 14.76l-8.62.7-.12-12.59.05-1.06v-9.89l-6.3-.28c0-2.76.05-5.53.07-8.3z"
        fill="#c6e0fd" />
    <path
        d="m207.92 307.32.12 12.59c-.15 3.27-.29 6.53-.43 9.8-.37 1.26-.75 2.52-1.32 4.46h-5.4c-.25-4.56-.58-9.11-.71-13.67s0-8.83-.05-13.24z"
        fill="#374c6b" />
    <path
        d="m512.15 319.91h5.85.95c.27 1.82.53 3.64.8 5.47l-1 .2c-.35-1.05-.69-2.09-.9-2.73-1.85-1.75-5.55 1.3-5.7-2.94z"
        fill="#a4bedf" />
    <path d="m188.92 296.08v-3.55h10.08l1.13 3.39z" fill="#c6e0fd" />
    <path
        d="m195 309.38c1.32 2.44 2.39 3.84 2.84 5.43.31 1.12.2 3.06-.5 3.58a4.35 4.35 0 0 1 -3.8.06c-.57-.27-.64-2.2-.44-3.29a46 46 0 0 1 1.9-5.78z"
        fill="#0a0b11" />
    <path d="m182.83 326c0-.54-.09-1.09-.13-1.63h14.7v1.63z" fill="#2e425a" />
    <path d="m207.92 307.32-7.79-.06h-8.13v-1h16c0 .35-.06.74-.08 1.06z" fill="#28384b" />
    <path d="m182.42 296.81-.5-.64h1.19z" fill="#84a9d8" />
    <path d="m517.68 217.71 3.62 8.45c-3.64-1.38-5-4.19-4.88-7.91z" fill="#f4f8f9" />
    <path d="m507.75 259.16c-.15-1.22-.31-2.44-.47-3.66l5.22-2.5c-.41 3.37-1.95 5.24-4.75 6.16z"
        fill="#dceefa" />
    <path d="m518.61 235.91c.44-1.88.86-3.76 1.38-5.62a9.41 9.41 0 0 1 1.59.19l-1.32 5.76z"
        fill="#dff0fb" />
    <path
        d="m27.48 330.42c0-.75 0-1.5 0-2.26l1.13-1.07a1.43 1.43 0 0 0 .22-.08l29.74-18.92h1.84q0 12.3.1 24.62h-.33-.33c.41-2.7-1.13-3.06-3.35-3-9.64.29-19.33.46-29.02.71z"
        fill="#dceefa" />
    <path
        d="m98.85 327.09h.2l.06-.19.3.61 1 1.42-.2 1.52h-11.37-21.42q-.14-9.37-.28-18.74c0-1.27.09-2.54.13-3.8a34.3 34.3 0 0 1 3.57 1.69q14.03 8.7 28.01 17.49z"
        fill="#e1f1fd" />
    <path
        d="m67.14 311.7q.14 9.38.28 18.74l-.18 2.27h-6.69q-.06-12.32-.1-24.62l2.48-2.37h1.46l1.53.77z"
        fill="#2e425a" />
    <path
        d="m27.48 330.42c9.69-.25 19.38-.45 29.06-.76 2.22-.07 3.76.29 3.35 3-10.41.1-20.82.23-31.23.2-.39-.01-.79-1.6-1.18-2.44z"
        fill="#f4f8f9" />
    <path d="m67.24 332.71.18-2.27h21.47 11.37l.18 2.54-4.68.26h-27l-1.42-.49z" fill="#f4f8f9" />
    <path
        d="m95.76 333.25 4.68-.26c-.69.4-1.37 1.14-2.06 1.15-9.87.06-19.74 0-29.62 0-.44 0-.87-.38-1.31-.59l1.34-.3h27z"
        fill="#3d5574" />
    <path d="m28.65 327.09-1.13 1.07a5.72 5.72 0 0 1 -.59 0z" fill="#53677f" />
    <path d="m68.79 333.25-1.34.3c0-.26 0-.53-.08-.79z" fill="#516f93" />
    <path
        d="m61.49 49.92 4.12.74c.88-.13 2 0 2.59-.44 2.27-1.87 4.36-3.95 6.51-5.95l.84 3.56c-.57-.18-1.43-.69-1.66-.48-2.32 2-4.58 4.19-6.76 6.39a3.27 3.27 0 0 0 -.8 2c-.11 2 8.68 10 10.82 10 .07 1.49.15 3 .22 4.47l-9.93-9.82-2.07-.77-1.9-2.14c-.44.93-1.27 1.85-1.28 2.79q-.15 12.65 0 25.3c0 1.09.83 2.17 1.27 3.25l1-.13.94-2.61 2-.87q5.14-5.48 10.28-10.94l.2 2.73c-3.1 3.14-6.24 6.25-9.28 9.44-3.43 3.59-3.37 4.23.28 7.76l10.58 11.8c-.19.47-.37.94-.56 1.4l-12.26-12.57-1.27-.75-1.54-2.31-1.55.33v8.09c0 6.35-.14 12.71-.09 19.06a53.62 53.62 0 0 0 .62 5.76v1.12l-1.11 1-1.8-2.13-13.48-11.28c0-.86.09-1.72.14-2.58l4.29 3.44 10.44 9.21v-29.55l-14.58 15.51.48-6.54c.06.9.12 1.79.23 3.34 4.65-5 8.94-9.43 13-14.06.72-.82 1.15-3 .63-3.61-3.68-4-7.65-7.84-11.53-11.71.22-.83.45-1.66.67-2.49l11 10.42v-25.49l-10.19 9.32c0-.74 0-1.48-.08-2.23l9-8.35c1.56-1.43 2.38-3 .51-4.72-2.61-2.45-5.27-4.84-7.91-7.27 0-.89 0-1.77 0-2.66l7.59 8.91 1.17-1z"
        fill="#53677f" />
    <path d="m66.64 94.83 12.26 12.6.2-.05 1.71 2.09c0 .64 0 1.28.07 1.92l-14.15 11.91z"
        fill="#dff0fb" />
    <path
        d="m67.44 60.36 9.93 9.82.3 4.06q-5.15 5.46-10.28 10.94a6.35 6.35 0 0 1 -.73-2q-.07-10.45 0-20.92a5.83 5.83 0 0 1 .78-1.9z"
        fill="#f4f8f9" />
    <path
        d="m77.15 65.71c-2.14 0-10.93-8-10.82-10a3.27 3.27 0 0 1 .8-2c2.18-2.2 4.44-4.34 6.76-6.39.23-.21 1.09.3 1.66.48q.8 8.97 1.6 17.91z"
        fill="#f4f8f9" />
    <path
        d="m68.88 94.2c-3.65-3.53-3.71-4.17-.28-7.76 3-3.19 6.18-6.3 9.28-9.44 0 1.39.08 2.78.13 4.17.18 1.58.35 3.17.53 4.75 0 .76.06 1.51.08 2.27a22.58 22.58 0 0 0 -3.16 1.43c-2.24 1.46-4.39 3.04-6.58 4.58z"
        fill="#f4f8f9" />
    <path
        d="m68.88 94.2c2.19-1.54 4.34-3.12 6.58-4.58a22.58 22.58 0 0 1 3.16-1.43c.54 5.48 1.1 11 1.58 16.45 0 .44-.48.92-.74 1.39z"
        fill="#dceefa" />
    <path d="m82.07 125.59-15 .06 13.85-12q.57 5.98 1.15 11.94z" fill="#dceefa" />
    <path
        d="m80.89 113.67-13.89 11.98a.37.37 0 0 0 -.43.36l-.75.34-1.24-.08a1 1 0 0 0 -.2-.56.94.94 0 0 0 .06-.57l.84-1.59 1.41-.25 14.15-11.91c.04.76.05 1.52.05 2.28z"
        fill="#53677f" />
    <path
        d="m74.71 44.27c-2.15 2-4.24 4.08-6.51 5.95-.59.48-1.71.31-2.59.44 1.34-2.74 2.68-5.48 4.32-8.85h4.81z"
        fill="#f4f8f9" />
    <path d="m78.54 85.92c-.18-1.58-.35-3.17-.53-4.75.18 1.58.35 3.17.53 4.75z" fill="#dceefa" />
    <path d="m80.81 109.47-1.71-2.09z" fill="#53677f" />
    <path
        d="m49.52 77.17c3.88 3.83 7.85 7.66 11.53 11.71.52.58.09 2.79-.63 3.61-4.06 4.63-8.35 9.07-13 14.06-.11-1.55-.17-2.44-.23-3.34q1.17-13.02 2.33-26.04z"
        fill="#f4f8f9" />
    <path
        d="m51 68.93 10.18-9.32v25.49l-11-10.42c-.08-.52-.16-1-.23-1.55.06-1 .13-1.95.19-2.93a1 1 0 0 0 .37-.6z"
        fill="#f4f8f9" />
    <path
        d="m52.49 46.36c2.64 2.43 5.3 4.82 7.91 7.27 1.87 1.76 1.05 3.29-.51 4.72l-9 8.35v-.2h-.21c0-.26 0-.51 0-.77q.86-9.73 1.81-19.37z"
        fill="#f4f8f9" />
    <path
        d="m46.71 109.75 14.58-15.51v6c-1.6 2.37-3.12 4.8-4.81 7.11-1.8 2.47-3.75 4.84-5.63 7.24l-4.29-3.44z"
        fill="#f4f8f9" />
    <path d="m46.42 113.72 13.48 11.28-2.29 1.4h-11.87a.43.43 0 0 0 -.4.12z" fill="#dff0fb" />
    <path
        d="m61.49 49.92-.23 1.74-1.17 1-7.59-8.96c0-.65.09-1.3.14-2a.19.19 0 0 0 0-.33l5.36.33c1.26 3.04 2.38 5.63 3.49 8.22z"
        fill="#dceefa" />
    <path d="m50.15 70.2c-.06 1-.13 2-.19 2.93.04-.98.13-1.95.19-2.93z" fill="#53677f" />
    <path d="m50.61 65.72v.77l-.82-.38z" fill="#53677f" />
    <path d="m50.53 69.58a1 1 0 0 1 -.37.6 1.55 1.55 0 0 1 .37-.6z" fill="#53677f" />
    <path
        d="m45.74 126.36h11.87v1.55a4.36 4.36 0 0 0 0 .63c0 .07.2.15.3.15l23.68.08-.78 20.71h-2.14l.75-1.82-.65-.29-.89 2.12h-12.72c-.74-1.76-1.5-1.79-2.27 0h-1.47l-.78-1-.75 1-25.54-.05c0-.38 0-.77 0-1.15 3 0 6 .11 8.9-.2a3.35 3.35 0 0 0 2.32-2.27c.23-4.57 0-9.16.15-13.74.06-2.26-1-2.62-3-2.66-2.28-.05-4.55-.46-6.83-.71a58.09 58.09 0 0 0 7.35-.1c.92-.15 1.68-1.48 2.5-2.25z"
        fill="#a4bedf" />
    <path d="m35.89 128.69-.31-.17.33.16z" fill="#a4bedf" />
    <path d="m518.48 346.41v-15.41h.75v15.4z" fill="#a4bedf" />
    <path
        d="m57.07 21.17q3.17-8.17 6.35-16.41h.94l6 16.54-2.2 1.61-1.54.78-4.52.75-1.55-.78-.78-.79-1.54-.78z"
        fill="#f4f8f9" />
    <path
        d="m72.77 29.53c.21 2.36-.73 3.29-3.22 3.2-4.81-.18-9.63 0-14.59 0 .18-1.53.31-2.61.44-3.7.6-4.43 4.32-2.37 6.6-3.23l3.87.12c2.98-.06 5.92-.08 6.9 3.61z"
        fill="#374c6b" />
    <path
        d="m62 25.8c-2.31.86-6-1.2-6.63 3.18l-1.88.54c1.28-2.79 2.34-5.09 3.39-7.39l1.52.06 1.54.78.78.79 1.55.78c-.17.34-.21.8-.27 1.26z"
        fill="#e1f1fd" />
    <path
        d="m72.77 29.53c-1-3.69-3.92-3.67-6.87-3.61.25-.75.5-1.5.76-2.26l1.54-.78 2.26-.8c.72 2.52 1.54 4.98 2.31 7.45z"
        fill="#dff0fb" />
    <path d="m70.39 22.14-2.26.8 2.2-1.61z" fill="#607eaa" />
    <path d="m58.43 22.19-1.52-.06c.05-.32.11-.64.16-1z" fill="#607eaa" />
    <path d="m80.91 34.93v2.25c-.01-.75-.01-1.5 0-2.25z" fill="#516f93" />
    <path d="m360 344.26h35.93c-3.69.15-7.38.44-11.07.42-8.34-.07-16.63-.28-24.86-.42z"
        fill="#607eaa" />
    <path d="m65.14 165.42c-1.27-.16-2.92.14-3.74-.55-5.22-4.39-10.26-9-15.35-13.53l.43-.68h17.88z"
        fill="#dceefa" />
    <path
        d="m81.51 150.54a10.19 10.19 0 0 1 -1.51 2.23c-4.41 3.76-8.89 7.44-13.34 11.15q.39-6.63.8-13.24z"
        fill="#dff0fb" />
    <path d="m67.45 150.68q-.4 6.62-.8 13.24l-1.51 1.5-.78-14.75z" fill="#9ab3d1" />
    <path d="m82.42 149.48c2.25-1.87 7.53-1.85 9.72 0z" fill="#a4bedf" />
    <path d="m62.89 149.45c.77-1.77 1.53-1.74 2.27 0z" fill="#9cb6d4" />
    <path d="m77.88 149.47.89-2.12.65.29-.75 1.82z" fill="#9cb6d4" />
    <path d="m59.89 149.47.75-1 .78 1z" fill="#9cb6d4" />
    <path d="m46.48 150.66-.43.68c-.11-.27-.21-.55-.32-.83z" fill="#9ab3d1" />
    <path
        d="m164.17 257.65a1.38 1.38 0 0 1 0-.67c.23-3.19.55-6.37.65-9.57.12-3.62.14-7.25 0-10.86-.09-2.35.86-3.07 3.08-3a36.23 36.23 0 0 0 5-.49l-.12-1.38a18.5 18.5 0 0 0 -3.47-.19c-3.3.41-4.54-.61-4.49-4.24.22-14.86.16-29.73 0-44.6 0-2.94.78-4 3.79-3.82a138 138 0 0 0 14.24 0c3.16-.16 4 .93 4 4-.11 28.11-.07 56.22-.07 84.34 0 5-.09 10 0 15 .06 2.3-.47 3.42-3.08 3.35-6.37-.18-12.74-.11-19.12-.14l-.39-17.22c0-.49 0-1 0-1.49l-.15-7.5h.23c-.05-.48-.08-1-.1-1.52z"
        fill="#bedafc" />
    <path
        d="m286.4 176.67h-68.26c.36-1.66.62-3.34 1.11-5 1.07-3.58 2.26-7.13 3.4-10.69h11.27c3.63 2.45 3.63 2.45 4.49 0h13.51c2.61 1.3 5 2.36 8.21 1 2.46-1 5.48-.74 8.25-1h1.52c.08.57.15 1.14.23 1.65l7.25-1.66h1.54l7.48 2.22z"
        fill="#cbe2fd" />
    <path
        d="m217.4 233.7c0 6.73.07 13.45-.05 20.18-.12 6.18-.61 12.36-.65 18.54 0 4.32.44 8.64.69 12.95h-15.65q0-25.81 0-51.64z"
        fill="#c6e0fd" />
    <path
        d="m216.63 179.05c0 13.86 0 27.72.05 41.58 0 3.57.46 7.13.7 10.7l-15-.62h-.62c0-3.25 0-6.5 0-9.75.08-.07.24-.16.23-.21a3.82 3.82 0 0 0 -.23-.51c0-1 0-2 0-3v-3.69c0-2.27 0-4.54 0-6.82 0-1.22 0-2.45 0-3.68v-24l.65-.73h7.48z"
        fill="#c6e0fd" />
    <path
        d="m209.88 178.18h-7.48-.64c-.2-1.22-.39-2.43-.67-4.17-2.55 3.06-8 4.51-11.14 3.28-.54-.21-.73-1.33-1.08-2a9.93 9.93 0 0 1 1.31-1.55c5.56-4.24 11.14-8.44 16.71-12.66h15.76c-1.14 3.56-2.33 7.11-3.4 10.69-.49 1.62-.75 3.3-1.11 5z"
        fill="#dceefa" />
    <path
        d="m206.89 161c-5.57 4.22-11.15 8.42-16.71 12.66a9.93 9.93 0 0 0 -1.31 1.55c-2-1.28-2.23-.11-2.19 1.51l-.84.14h-2.88-.87l-14.19-.06-.08-.1c7.13-4.93 14.23-9.89 21.42-14.74a6.77 6.77 0 0 1 3.49-1c4.72-.07 9.44.04 14.16.04z"
        fill="#cbe2fd" />
    <path
        d="m164.15 268.18.39 17.22-.3 2.35q0 3.72-.08 7.45l-8.27-.05c2.31-4 .51-8.13.56-12.21q.09-7.37.19-14.73z"
        fill="#374c6b" />
    <path
        d="m202.42 230.71 15 .62c5.71-.21 11.43-.52 17.14-.59q11.23-.17 22.47 0c1.21 0 2.39 1 3.59 1.55-1.16.45-2.32 1.28-3.49 1.29-13.23.1-26.46.08-39.69.08h-15.7l.06-2.42z"
        fill="#96c4f8" />
    <g fill="#dceefa">
        <path
            d="m335.75 159.17h-11.53v-10.87c3.25 0 6.34-.13 9.4.09a2.94 2.94 0 0 1 2 2c.28 2.78.13 5.61.13 8.78z" />
        <path
            d="m257 159.26h-11.74c0-3.06-.11-6 .09-8.92a2.64 2.64 0 0 1 1.72-1.91 53.84 53.84 0 0 1 8.23 0c.62 0 1.59 1.25 1.64 2 .19 2.8.06 5.65.06 8.83z" />
        <path
            d="m297.92 158.93c-.07-1-.16-1.68-.18-2.42-.17-8.76.57-9.44 9.41-8.14.88.13 1.6 1.38 2.36 2.15.12.13 0 .49 0 .73.54 8.58-.87 9.54-11.59 7.68z" />
        <path
            d="m224.93 159.39c-5.94 0-5.92 0-6-5.78 0-6.25-.11-5.27 6.78-5.32 5 0 5 0 5 6 .08 5.1.08 5.1-5.78 5.1z" />
        <path
            d="m198.54 159.38c-5.8 0-5.8 0-5.81-4.73 0-6.36 0-6.58 5.29-6.27 2.25.13 6.15-2.07 6.39 2.59.42 8.39.27 8.4-5.87 8.41z" />
        <path
            d="m278 148.28c1.49.88 5.06-1.89 5.15 2.3.19 8.8.06 8.8-4.84 8.81-6.77 0-6.79 0-6.78-4.88-.04-6.86-.68-6.18 6.47-6.23z" />
        <path d="m296 148.51v10.58h-10.91v-10.58z" />
        <path d="m269.73 148.61v10.52h-10.73v-10.52z" />
        <path d="m311.3 159.07v-10.52h10.79v10.52z" />
        <path d="m243.42 159.16h-10.78v-10.59h10.78z" />
        <path
            d="m217.26 148.3v11c-3.21 0-6.26.08-9.3-.07a2.36 2.36 0 0 1 -1.69-1.53 49.41 49.41 0 0 1 0-7.79c.06-.6 1.3-1.52 2.05-1.56 2.84-.16 5.68-.05 8.94-.05z" />
    </g>
    <path
        d="m188.29 240.51h8c.85 0 1.71.11 3.46.23-.4 3.08.18 6.9-1.45 8.66-1.31 1.4-6.33 1.39-7.85 0-1.75-1.58-1.45-5.4-2.16-8.89z"
        fill="#c6e0fd" />
    <path
        d="m189.26 198.4a17.75 17.75 0 0 1 -.33-1.9c-.41-7.72 1.23-9.18 8.67-7.45a3.08 3.08 0 0 1 1.77 1.95c.3 1.17 0 2.48.12 3.71.26 2.73-.83 3.92-3.62 3.72-2.09-.15-4.21-.03-6.61-.03z"
        fill="#c6e0fd" />
    <path
        d="m189.13 270.14v-8.7a71.8 71.8 0 0 1 8.59.13c.78.1 1.84 1.76 1.93 2.77a29.49 29.49 0 0 1 -.58 5.8z"
        fill="#c6e0fd" />
    <path d="m199.33 280.7h-10.17v-8.48h10.17z" fill="#c6e0fd" />
    <path d="m189.05 228.92v-8.44h10v8.44z" fill="#c6e0fd" />
    <path d="m189.07 218.48v-8.48h10v8.49z" fill="#c6e0fd" />
    <path d="m189.17 199.4h9.83v8.6h-9.86z" fill="#c6e0fd" />
    <path d="m189.17 251.15h9.83v8.59h-9.86z" fill="#c6e0fd" />
    <path
        d="m189.39 187.9a9.29 9.29 0 0 1 -.42-1.29c-.53-7.66.92-9 8.57-7.7.57.09 1.57.4 1.59.65a27 27 0 0 1 0 7c-.14.69-2.41 1.17-3.76 1.33a53.3 53.3 0 0 1 -5.98.01z"
        fill="#c6e0fd" />
    <path d="m189.13 239.36v-6.2l10.17.52v5.68z" fill="#bedafc" />
    <path d="m201.74 285.37h25.26l.06 2.07-11.9.28-13.4.07z" fill="#96c4f8" />
    <path
        d="m198.94 285.47c-2.83 0-5.6.11-8.35-.09a2.43 2.43 0 0 1 -1.55-1.84 2.48 2.48 0 0 1 1.72-1.69c2-.23 4 0 5.94-.12 2.47-.15 3.12.93 2.24 3.74z"
        fill="#bedafc" />
    <path
        d="m199 287.64c.17 4.15-.32 4.31-9.54 3.55-1.06-2.3-.7-3.64 2.27-3.56 2.27.06 4.64.01 7.27.01z"
        fill="#c6e0fd" />
    <path d="m268.38 161c-2.77.29-5.79 0-8.25 1-3.21 1.35-5.6.29-8.21-1z" fill="#c6e0fd" />
    <path d="m189.39 230.26h9.61v.76h-9.6z" fill="#b0d2fc" />
    <path d="m277.38 161-7.25 1.66c-.08-.51-.15-1.08-.23-1.65z" fill="#c6e0fd" />
    <path d="m238.41 161c-.86 2.42-.86 2.42-4.49 0z" fill="#c6e0fd" />
    <path d="m201.75 203v3.68c0-1.25 0-2.48 0-3.68z" fill="#bedafc" />
    <path d="m167.9 176.79-.36.25.28-.35z" fill="#96c4f8" />
    <path d="m185.84 176.88.84-.14z" fill="#96c4f8" />
    <path d="m201.76 178.15h.64l-.65.73c0-.21.01-.47.01-.73z" fill="#bedafc" />
    <path d="m201.76 220.2a3.82 3.82 0 0 1 .23.51s-.15.14-.23.21a1.46 1.46 0 0 1 0-.72z"
        fill="#bedafc" />
    <path d="m202.42 230.71-.66.6a1.26 1.26 0 0 1 0-.64z" fill="#bedafc" />
    <path d="m164 259.19.15 7.5h-6.78c0-.62 0-1.23 0-1.84.04-6.85.04-6.85 6.63-5.66z"
        fill="#374c6b" />
    <path
        d="m152 271.11c.77 1.49 2 2.93 2.15 4.47s-1 2.91-1.6 4.37l-4-2.19a13.13 13.13 0 0 0 1.1-1.78 26.2 26.2 0 0 0 .81-2.65c.22-.73.42-1.47.62-2.21z"
        fill="#0a0b11" />
    <path d="m157.38 266.66h6.78v1.49h-7.51-8.65v-1.55z" fill="#2e425a" />
    <path d="m142 282.67v-12.19h.61v12.19z" fill="#4a6689" />
    <path d="m164.17 257.65c0 .52.05 1 .07 1.57-.02-.53-.05-1.05-.07-1.57z" fill="#84a9d8" />
    <path
        d="m377.89 193.2v8.31l-49.51.14-4.48-.33c.25-1.47.49-2.93.74-4.4-.25-1.17-.49-2.34-.78-3.72z"
        fill="#4e7ab1" />
    <path
        d="m377.89 193.2h-54.06c.29 1.38.53 2.55.78 3.72l-1.3-1.07-2.4 2.59c-.24-1.58-.49-3.17-.77-5l-2.43-.24c1.31-.75 2.55-1.88 4-2.14a42.37 42.37 0 0 1 6.68-.27l16.52.24a21.68 21.68 0 0 0 3.53.59q11.88.09 23.75 0a21 21 0 0 0 3.55-.59l.77.08z"
        fill="#4a6689" />
    <path
        d="m328.35 201.65 49.51-.14v2.23l-13.36.12-12.05-.07c-6.45 0-12.92.07-19.36-.18-1.63-.07-3.17-1.28-4.74-1.96z"
        fill="#9cb6d4" />
    <path
        d="m395.76 196.37a6.08 6.08 0 0 1 -6.1 5.83 6 6 0 1 1 .33-12 6.22 6.22 0 0 1 5.77 6.17zm-6.27 4.32c1.56-2.13 3.14-3.35 3.13-4.56 0-1-2-2.93-2.86-2.8a4.79 4.79 0 0 0 -3.2 3c-.23.88 1.44 2.25 2.93 4.36z"
        fill="#9ab3d1" />
    <path d="m401.11 199.93v.77l-1-.37z" fill="#4a6689" />
    <path
        d="m95.9 284.65c.58 5.4 1.19 10.81 1.73 16.22.67 6.66 1.35 13.33 1.88 20a26 26 0 0 1 -.53 4.84c-1.1-.79-2.18-1.62-3.32-2.36q-14.2-9.24-28.43-18.45l1-2.89z"
        fill="#dff0fb" />
    <path
        d="m95.8 281.31v1.56l-27.64 17.7c-.34-1.05-.69-2.1-1-3.15l.12-35.27a39.3 39.3 0 0 1 3.49 1.93q12.52 8.58 25.03 17.23z"
        fill="#e1f1fd" />
    <path
        d="m91.32 239.65.85-.14q1.88 19.63 3.74 39.28a14.75 14.75 0 0 1 -2.63-1.15q-11.7-8.08-23.35-16.25c-3.77-2.64-3.72-3.91.07-6.6z"
        fill="#dff0fb" />
    <path
        d="m91.32 239.65-21.32 15.14c-3.79 2.69-3.84 4-.07 6.6q11.66 8.16 23.35 16.25a14.75 14.75 0 0 0 2.63 1.15c0 .84-.07 1.68-.11 2.52q-12.52-8.62-25-17.23a39.3 39.3 0 0 0 -3.49-1.93l-2.2-2.15c-2-3 1.51-3.77 2.24-5.66 1.25-.77 2.55-1.48 3.76-2.31q9-6.12 18-12.31z"
        fill="#53677f" />
    <path
        d="m67.22 304.91q14.22 9.22 28.44 18.45c1.14.74 2.22 1.57 3.32 2.36 0 .45-.08.91-.13 1.36q-14-8.74-28-17.49a34.3 34.3 0 0 0 -3.57-1.69l-1.36-1.47c0-.5 0-1 0-1.5z"
        fill="#53677f" />
    <path d="m68.17 300.57 27.64-17.7.09 1.78-27.71 17.35c0-.46-.01-.95-.02-1.43z" fill="#53677f" />
    <path d="m99.41 327.51-.3-.61.69.2z" fill="#53677f" />
    <path
        d="m328.35 190.75a42.37 42.37 0 0 0 -6.68.27c-1.41.26-2.65 1.39-4 2.14-2.18 2.59-1.77 4.88.83 6.89.29 1.62 1 3.31.79 4.85-1.35 8.61-2.93 17.19-4.44 25.78-7 0-14-.05-20.95.08-1.17 0-2.32.85-3.47 1.31 1.2.54 2.39 1.51 3.6 1.54 6.73.15 13.47.06 20.21 0-1 6.46-2.23 12.89-3 19.38-.43 3.58-1.63 5.69-5.57 5.22a36.2 36.2 0 0 0 -16.12 7h-2.42v-85.54h65.22q0 4.49 0 9c-6.46 0-12.93-.08-19.38.17-1.52 0-3.06 1.22-4.62 1.91z"
        fill="#b0d2fc" />
    <path
        d="m85.41 236.67h-43.51q.38-10.87.76-21.75h16.74v-1.52h-16.76c.85-.74 1.58-1.85 2.56-2.14a38.36 38.36 0 0 1 5.7-.82l9.3-1 2.82.46h2l2.17.51 1 .06h13.46l3 3h-18.24v1.51h18.24c0 5.43-.06 10.87 0 16.3a46.06 46.06 0 0 0 .76 5.39z"
        fill="#a4bedf" />
    <path
        d="m81.67 128.76-23.67-.08c-.1 0-.28-.08-.3-.15a4.36 4.36 0 0 1 0-.63l6-.63.64-.06h1.6l-.07-.82.75-.34c1.29.64 2.56 1.81 3.86 1.84 7.67.17 15.35.08 23 .91z"
        fill="#bedafc" />
    <path
        d="m66.75 171.61 21.1 17.79-.33 1.47-20.14 15.82c1.84-3.64-3.91-7.22 0-11.19.75-.76-.75-3.75-1.21-5.71q.3-9.09.58-18.18z"
        fill="#dff0fb" />
    <path
        d="m87.63 186.42c-6.88-5.68-13.78-11.33-20.56-17.12a3 3 0 0 1 -.12-2.87c5.82-4.93 11.79-9.69 17.72-14.5q1.47 17.25 2.96 34.49z"
        fill="#dff0fb" />
    <path
        d="m81.65 210.45h-13.49l-1-.06a15.58 15.58 0 0 1 2.19-2.8q8-6.56 16.18-12.94a15.45 15.45 0 0 1 2.81-1.43q.75 8.61 1.49 17.21z"
        fill="#dceefa" />
    <path
        d="m88.38 193.22a15.45 15.45 0 0 0 -2.81 1.43q-8.14 6.35-16.18 12.94a15.58 15.58 0 0 0 -2.19 2.8l-2.2-.51c.78-1.06 1.57-2.12 2.35-3.19l20.14-15.82c.32.79.6 1.57.89 2.35z"
        fill="#53677f" />
    <path
        d="m458.92 191a9.9 9.9 0 0 1 -2.43.63q-17.3.06-34.59 0a7.76 7.76 0 0 1 -2-.57 10.29 10.29 0 0 1 2.7-.81q16.81-.08 33.64 0a10.73 10.73 0 0 1 2.68.75z"
        fill="#a4bedf" />
    <path d="m403.36 191.06h-.67a1.09 1.09 0 0 1 .67 0z" fill="#435c80" />
    <path
        d="m375.7 191a21 21 0 0 1 -3.55.59q-11.88.07-23.75 0a21.68 21.68 0 0 1 -3.53-.59 8.26 8.26 0 0 1 2.34-.78q13.08-.08 26.15 0a8.29 8.29 0 0 1 2.34.78z"
        fill="#a4bedf" />
    <path
        d="m28.37 325.83c.05-3.39-.09-6.8.19-10.17.86-10.33 1.89-20.64 2.85-31 1.18.66 2.38 1.28 3.53 2q12.12 7.57 24.22 15.19l1.39 1.69a.29.29 0 0 0 0 .47c-1 1.07-1.92 2.13-2.87 3.2z"
        fill="#dff0fb" />
    <path
        d="m60 260.38c.19 1.35.39 2.7.58 4.05v18.77 16.32l-.16.92h-1.27l-27.72-18a4.42 4.42 0 0 0 0-.63c8.75-6.11 17.52-12.19 26.22-18.38.76-.54 1-1.79 1.49-2.72l.86.05-.06-.85a.37.37 0 0 0 .06.47z"
        fill="#dceefa" />
    <path
        d="m59.24 255.68.74.52c0 1.25-.07 2.49-.1 3.73-.26.27-.53.54-.8.8l-9.88 6.61-17.56 11.66c.12-1.13.23-2.26.35-3.39l.39-5q1.4-15.48 2.78-31l1.34.1z"
        fill="#dff0fb" />
    <path d="m28.37 325.83 29.31-18.58.93.84-29.74 18.91c-.16-.38-.33-.77-.5-1.17z"
        fill="#53677f" />
    <path
        d="m31.64 279 17.63-11.75 9.88-6.61c-.48.93-.73 2.18-1.49 2.72-8.7 6.19-17.47 12.27-26.22 18.38.07-.89.13-1.8.2-2.74z"
        fill="#53677f" />
    <path
        d="m31.43 282.39 27.72 18v1.46q-12.1-7.59-24.22-15.19c-1.15-.72-2.35-1.34-3.53-2 .02-.73.02-1.5.03-2.27z"
        fill="#53677f" />
    <path d="m32.38 270.63-.39 5z" fill="#53677f" />
    <path d="m60.2 209.45-9.3 1h-12.92q.51-7.47 1-14.94c.28-.78.56-1.56 1-2.71z" fill="#dceefa" />
    <path d="m42.64 213.41h16.76v1.52h-23.75v-1.52z" fill="#b1d2fb" />
    <path
        d="m39.67 189.48 22-18.7v18c.19 2.8-2.51 5.68.27 8.47.36.36.11 1.45 0 2.17-.41 2.15-.9 4.28-1.35 6.42a7.4 7.4 0 0 1 -2.63-.74c-6.07-4.68-12.07-9.46-18.1-14.22z"
        fill="#dceefa" />
    <path
        d="m42.72 153.59.94-1.85c5.62 4.79 11.11 9.45 16.59 14.13 1.61 1.38 1.47 2.66-.14 4-6.11 5.13-12.11 10.38-18.29 15.5-.28.23-1.17-.26-1.77-.41z"
        fill="#dceefa" />
    <path
        d="m39.83 190.85c6 4.76 12 9.54 18.1 14.22a7.4 7.4 0 0 0 2.63.74l2.46 4.1-2.82-.46-20.2-16.67c-.42 1.15-.7 1.93-1 2.71.28-1.55.56-3.09.83-4.64z"
        fill="#53677f" />
    <path
        d="m60.61 283.2v-6c2.21-2 2.21-8.48 0-10.48v-2.27q.8-2.22 1.57-4.45h2.91l2.15 2.19-.12 35.27a12.35 12.35 0 0 0 -1.43 1.91c-.53 1.08-.88 2.24-1.31 3.36h-1.48c-.25-5.31-.42-10.63-.82-15.92-.08-1.26-.96-2.42-1.47-3.61z"
        fill="#2e425a" />
    <path
        d="m38.4 239.62c2.39-.23 4.77-.6 7.17-.65 4.82-.1 9.64 0 15 0v14.78a14.39 14.39 0 0 1 -3.2-1.2c-6.37-4.28-12.67-8.62-18.97-12.93z"
        fill="#dceefa" />
    <path d="m89.12 239.68q-9 6.16-18 12.31c-1.21.83-2.51 1.54-3.76 2.31v-15.67z" fill="#dff0fb" />
    <path
        d="m38.4 239.62c6.3 4.31 12.59 8.65 18.94 12.9a14.39 14.39 0 0 0 3.2 1.2l-1.3 2-22.74-15.95z"
        fill="#53677f" />
    <path d="m59.88 259.93c0-1.24.07-2.48.1-3.73 0 1.4 0 2.79.05 4.18a.36.36 0 0 1 -.15-.45z"
        fill="#53677f" />
    <path d="m62.17 260-.31-.33.34.31z" fill="#53677f" />
    <path
        d="m63 209.91-2.46-4.1c.45-2.14.94-4.27 1.35-6.42.13-.72.38-1.81 0-2.17-2.78-2.79-.08-5.67-.27-8.47h.28l3.22.11 1 .93c.46 2 2 5 1.21 5.71-3.93 4 1.82 7.55 0 11.19-.78 1.07-1.57 2.13-2.35 3.19z"
        fill="#2e425a" />
    <path
        d="m65.16 188.86-3.22-.11c.08-5.58.09-11.16.29-16.73 0-.91.91-1.78 1.4-2.67.57.65 1.13 1.31 1.69 2q-.07 8.73-.16 17.51z"
        fill="#e1f1fd" />
    <path d="m65.16 188.86q.07-8.78.16-17.54l1.43.29q-.27 9.09-.56 18.18z" fill="#9ab3d1" />
    <path
        d="m371.21 318.55 18.64-12.15c.22 4.27.45 8.55.66 12.69l-5.5 1.15c4.29 2.74 2.08 6.38 2.63 9.45h-15.79c-.21-3.69-.43-7.44-.64-11.14z"
        fill="#dff0fb" />
    <path d="m371.21 318.55c.21 3.7.43 7.41.64 11.11l-16.69.46c.65-.88 1.31-1.75 2-2.63z"
        fill="#9fc0e7" />
    <path d="m395.12 330.39 1.57.77z" fill="#dff0fb" />
    <path d="m387.65 329.7.8.69z" fill="#dff0fb" />
    <path d="m354.58 331.08.45-.85z" fill="#9fc0e7" />
    <path
        d="m289.72 317.62c-1.13-1.17-1.51-2.16.68-2.29 1.36-.08 2.72 0 4.08 0h16.69 24.76l6 .08.81-.05h5.56l-1.22 2.27z"
        fill="#2e425a" />
    <path
        d="m353.16 285.42-16 .13c-7.61-7.41-16.4-10.27-26.79-6.91l1-5.68c.76-.6 1.5-1.24 2.3-1.79 4-2.79 5.33-8.65-.17-11.92l4.32-25.59h34.58v45.87a49.11 49.11 0 0 0 .76 5.89z"
        fill="#b0d2fc" />
    <path
        d="m352.4 233.69h-34.58l.36-2.28a40.88 40.88 0 0 1 5.13-.65c9.7-.06 19.39 0 29.08 0l12.1.59c2.51.89.27 1.61-.09 2.4z"
        fill="#96c4f8" />
    <path d="m364.49 231.29-12.1-.59v-26.91l12.05.07q.05 13.72.05 27.43z" fill="#bedafc" />
    <path
        d="m341.92 315.45-6-.08c-.13-.89-.27-1.77-.59-3.9l-4 3.91h-20.2c-1.07-.73-2.11-2-3.22-2.09-3.93-.26-7.89-.11-11.84-.11l-.52-.09a1.49 1.49 0 0 1 -.42.08c0-2 0-4 0-6 .32-1.49.65-3 1-4.46.25-4.25 0-8.73 4.4-11 .07-1.14.14-2.22.2-3.29 2.38 2.28 4.79 4.52 7.12 6.84 5.12 5.1 10.14 10.29 15.32 15.33 2.75 2.68 6.22 2.71 8.65.37 2.63-2.53 2.64-5.31 0-8.53-.95-1.15-1.94-2.27-3-3.33q-8.47-8.67-17-17.32l.07-.75c7.84-3.16 18.14-.32 23.13 6.13 1.61 2.08 3.56 3.9 5.35 5.84l1.77 8.12a15.5 15.5 0 0 0 -1.69 3.15c-.33 1.16.2 2.69-.36 3.64-.72 1.2-2.15 2-3.27 2.94l4.16 2.53c.31.19.61.41.92.62a1 1 0 0 1 0 .72c.01.2.02.46.02.73z"
        fill="#3d5574" />
    <path
        d="m340.38 292.94c-1.79-1.94-3.74-3.76-5.35-5.84-5-6.45-15.29-9.29-23.13-6.13-.5-.78-1-1.55-1.49-2.33 10.39-3.36 19.18-.5 26.79 6.91l1.7 2.14c.49 1.75.99 3.5 1.48 5.25z"
        fill="#2e425a" />
    <path
        d="m341.91 313.94c-.31-.21-.61-.43-.92-.62l-4.16-2.53c1.12-1 2.55-1.74 3.27-2.94.56-1 0-2.48.36-3.64a15.5 15.5 0 0 1 1.69-3.15c1.67 4.33 1.85 8.63-.24 12.88z"
        fill="#374c6b" />
    <path d="m341.92 315.45c0-.27 0-.53 0-.79l.82.74z" fill="#374c6b" />
    <path
        d="m394.39 291.53v8l-29 19.09c-.26-3.59-.5-7.18-.79-10.76-.34-4.24-.73-8.48-1.1-12.72 1.43-6.39 2.85-12.79 4.33-19.17a6.51 6.51 0 0 1 1.12-1.74q11.25 7.56 22.49 15.14c.97.63 1.95 1.43 2.95 2.16z"
        fill="#dff0fb" />
    <path
        d="m363.45 295.12c.37 4.24.76 8.48 1.1 12.72.29 3.58.53 7.17.79 10.76l-2.34 1.4-5.36-.85q2.9-11.99 5.81-24.03z"
        fill="#bedafc" />
    <path d="m357.65 319.19 5.35.81-6.14 3.64z" fill="#9cb6d4" />
    <path d="m356.28 324.26.62-.6z" fill="#9cb6d4" />
    <path
        d="m289.58 265.24a36.22 36.22 0 0 1 16.1-7c5 .37 5.2.74 3.4 5.59a5.62 5.62 0 0 0 -.08.73q-1.67 7.69-3.32 15.41l-5.94 5-2.16 2.75a71.12 71.12 0 0 0 -5.63 4.73c-2.06 2.1-4.3 3.58-7.23 2.57a7.26 7.26 0 0 1 -5.06-6.32 5.86 5.86 0 0 0 -.32-1.06c0-.5 0-1 0-1.5 1.17-8.08 4.3-15.14 10.24-20.9z"
        fill="#d9474e" />
    <path
        d="m252.43 190.71c2.61 5.74 5.43 11.38 7.75 17.23 1.5 3.78-.1 7.61-3.31 9.84a9 9 0 0 1 -10.49-.07c-3.15-2.29-4.7-6.14-3.18-9.93 2.3-5.76 5.12-11.31 7.72-16.94zm-2.3 9.61-1.39-.52c-1.24 3.62-3 7.16-3.56 10.88a5.26 5.26 0 0 0 6.88 5.67c-6.18-2.67-6.85-4.44-4.13-10.82.74-1.74 1.47-3.47 2.2-5.21z"
        fill="#28384b" />
    <path
        d="m279.33 286.12v1.5c-11-.06-21.95-.1-32.93-.21-.34 0-.67-.6-1.3-1.19a6 6 0 0 1 1.79-.74q15.18-.08 30.34 0a7.59 7.59 0 0 1 2.1.64z"
        fill="#96c4f8" />
    <path
        d="m297.58 287.7 2.17-2.75c.33 1.13.67 2.27 1 3.41-.06 1.07-.13 2.15-.2 3.29-4.45 2.31-4.15 6.79-4.4 11h-1.48c.53-3.75 1-7.52 1.61-11.26a21.93 21.93 0 0 1 1.3-3.69z"
        fill="#2e425a" />
    <path
        d="m295.17 313.17a1.49 1.49 0 0 0 .42-.08 1.83 1.83 0 0 0 .52.09c3.95 0 7.91-.15 11.84.11 1.11.08 2.15 1.36 3.22 2.09h-16.69z"
        fill="#374c6b" />
    <path d="m294.67 302.68h1.48c-.32 1.49-.65 3-1 4.46z" fill="#374c6b" />
    <path
        d="m60.61 283.2c.51 1.19 1.38 2.35 1.47 3.57.4 5.29.57 10.61.82 15.92v3l-2.45 2.31h-1.84l-.93-.84c1-1.07 1.91-2.13 2.87-3.2a.33.33 0 0 0 0-.47l-1.39-1.69v-1.46h1.24c.06-.31.11-.61.16-.92z"
        fill="#374c6b" />
    <path d="m65.91 306.43 1.36 1.47c0 1.26-.09 2.53-.13 3.8z" fill="#374c6b" />
    <path d="m62.93 305.67v-3h1.5l1.46 2.33-1.52.73z" fill="#53677f" />
    <path d="m64.39 305.66 1.52-.73v1.5z" fill="#374c6b" />
    <path d="m50.85 114.58c1.88-2.4 3.83-4.77 5.63-7.24 1.69-2.31 3.21-4.74 4.81-7.11v23.56z"
        fill="#dff0fb" />
    <path
        d="m65.38 86.05-.94 2.61-1 .13c-.44-1.08-1.25-2.16-1.27-3.25q-.15-12.66 0-25.3c0-.94.84-1.86 1.28-2.79l1.9 2.14q.02 13.23.03 26.46z"
        fill="#f4f8f9" />
    <path
        d="m64.48 125.14a.94.94 0 0 1 -.06.57l-1.61-.7a53.62 53.62 0 0 1 -.62-5.76c0-6.35.05-12.71.09-19.06l1.82-.84.89 1.52v3.16q-.25 10.55-.51 21.11z"
        fill="#dff0fb" />
    <path
        d="m65 104c0-1.06 0-2.11 0-3.16.13-2.26.25-4.53.38-6.79l1.27.75.09 28.47-1.41.25q-.17-9.73-.33-19.52z"
        fill="#9ab3d1" />
    <path
        d="m65.38 86.05q0-13.23 0-26.46l2.07.77a5.83 5.83 0 0 0 -.77 1.94q-.09 10.45 0 20.92a6.35 6.35 0 0 0 .73 2z"
        fill="#9ab3d1" />
    <path
        d="m65.37 94.08c-.13 2.26-.25 4.53-.38 6.79-.3-.51-.59-1-.89-1.52l-1.82.84v-8.09l1.55-.33z"
        fill="#f4f8f9" />
    <path
        d="m62.81 125 1.61.7a1 1 0 0 1 .2.56l-.93 1-6 .63c0-.52 0-1 0-1.55l2.21-1.34c.61.73 1.23 1.46 1.84 2.2l1.11-1z"
        fill="#9cb6d4" />
    <path d="m62.85 126.13-1.11 1z" fill="#a4bedf" />
    <path d="m65 104q.18 9.75.34 19.52l-.84 1.59q.24-10.53.5-21.11z" fill="#f4f8f9" />
    <path d="m63.69 127.27.93-1 1.24.08c0 .27 0 .55.07.82h-1.6z" fill="#a4bedf" />
    <path d="m66.66 23.66c-.26.76-.51 1.51-.76 2.26l-3.9-.12c0-.46.07-.92.11-1.39z"
        fill="#607eaa" />
    <path d="m62.18 24.45-1.55-.78z" fill="#607eaa" />
    <path d="m68.16 22.91-1.54.78z" fill="#607eaa" />
    <path d="m59.93 22.94-1.54-.78z" fill="#607eaa" />
    <path d="m60.68 23.7-.78-.79z" fill="#607eaa" />
    <path
        d="m352.42 203.79v26.91c-9.69 0-19.38 0-29.08 0a40.88 40.88 0 0 0 -5.13.65c1.14-7.08 2.2-14.18 3.46-21.23.53-3 1.48-5.89 2.23-8.83l4.48.33c1.57.68 3.11 1.89 4.71 2 6.41.24 12.91.14 19.33.17z"
        fill="#b0d2fc" />
    <path
        d="m323.87 201.32c-.75 2.94-1.7 5.85-2.23 8.83-1.26 7-2.32 14.15-3.46 21.23l-.36 2.28-4.32 25.59a20.75 20.75 0 0 0 -.9 3.14c-.47 3.51-.83 7.05-1.23 10.57l-1 5.68c.49.78 1 1.55 1.49 2.33 0 .25 0 .5-.07.75l-3 .35a7.69 7.69 0 0 1 .6 2.48 7.87 7.87 0 0 1 -1.13 3.54c-.27.35-2.48 0-2.81-.65-.49-.91-.14-2.3-.09-3.48s.17-2.65.25-4q1.67-7.71 3.32-15.41a5.62 5.62 0 0 1 .08-.73c1.8-4.85 1.58-5.22-3.4-5.59 4 .47 5.16-1.64 5.59-5.22.78-6.49 2-12.92 3-19.38.2-1 .41-2 .61-3 1.51-8.59 3.09-17.17 4.44-25.78.24-1.54-.5-3.23-.79-4.85l2.37-1.61 2.4-2.59 1.3 1.07c-.17 1.52-.41 2.98-.66 4.45z"
        fill="#516f93" />
    <path d="m320.91 198.44-2.37 1.61c-2.6-2-3-4.3-.83-6.89l2.43.24c.28 1.87.53 3.46.77 5.04z"
        fill="#4e7ab1" />
    <path
        d="m389.49 200.69c-1.49-2.11-3.16-3.48-2.93-4.38a4.79 4.79 0 0 1 3.2-3c.85-.13 2.86 1.79 2.86 2.8.01 1.23-1.57 2.45-3.13 4.58z"
        fill="#4a6689" />
    <path
        d="m65.89 305-1.49-2.26c.43-1.12.78-2.28 1.31-3.36a12.35 12.35 0 0 1 1.43-1.91c.34 1.05.69 2.1 1 3.15v1.45c-.32 1-.64 1.93-1 2.89z"
        fill="#374c6b" />
    <path
        d="m314.89 230.68c-.2 1-.41 2-.61 3-6.74 0-13.48.1-20.21 0-1.21 0-2.4-1-3.6-1.54 1.15-.46 2.3-1.29 3.47-1.31 6.98-.2 13.97-.14 20.95-.15z"
        fill="#96c4f8" />
    <path d="m64.33 127.21h1.6z" fill="#9cb6d4" />
    <path d="m60.55 303.58a.33.33 0 0 1 0 .47.29.29 0 0 1 0-.47z" fill="#53677f" />
    <path d="m60.61 266.7c2.21 2 2.21 8.48 0 10.48z" fill="#374c6b" />
    <path d="m59.11 260.7c.27-.26.54-.53.8-.8l.06.85z" fill="#53677f" />
    <path d="m60.56 299.52c-.05.31-.1.61-.16.92.06-.31.11-.61.16-.92z" fill="#53677f" />
    <path d="m331.37 315.38 4-3.91c.32 2.13.46 3 .59 3.9z" fill="#374c6b" />
    <path
        d="m311.37 273c.4-3.52.76-7.06 1.23-10.57a20.75 20.75 0 0 1 .9-3.14c5.5 3.27 4.17 9.13.17 11.92-.8.51-1.54 1.15-2.3 1.79z"
        fill="#d9474e" />
    <path
        d="m305.68 280c-.08 1.32-.2 2.65-.25 4s-.4 2.57.09 3.48c.33.6 2.54 1 2.81.65a7.87 7.87 0 0 0 1.13-3.54 7.69 7.69 0 0 0 -.6-2.48l3-.35q8.51 8.65 17 17.32c1 1.06 2 2.18 3 3.33 2.68 3.22 2.67 6 0 8.53-2.43 2.34-5.9 2.31-8.65-.37-5.18-5-10.2-10.23-15.32-15.33-2.33-2.32-4.74-4.56-7.12-6.84-.33-1.14-.67-2.28-1-3.41q2.94-2.53 5.91-4.99zm12.32 22.55c2-2.49 3.89-3.84 4-5.32.08-1.08-2.12-3.18-3.41-3.27-1.14-.08-3.22 1.86-3.43 3.14s1.38 2.9 2.84 5.45z"
        fill="#4e7ab1" />
    <path d="m296.11 313.18a1.83 1.83 0 0 1 -.52-.09z" fill="#2e425a" />
    <path
        d="m250.13 200.32c-.73 1.74-1.46 3.47-2.2 5.21-2.72 6.38-2.05 8.15 4.13 10.82a5.26 5.26 0 0 1 -6.88-5.67c.53-3.72 2.32-7.26 3.56-10.88z"
        fill="#c6e0fd" />
    <path
        d="m318 302.55c-1.45-2.59-3.05-4.17-2.84-5.45s2.29-3.22 3.43-3.14c1.29.09 3.49 2.19 3.41 3.27-.12 1.48-2 2.83-4 5.32z"
        fill="#9cb6d4" />
</svg>