<svg width="90" height="64" viewBox="0 0 90 64" fill="none" xmlns="http://www.w3.org/2000/svg">
<path d="M82.2414 0L90 10.8621H0L9.31034 0H82.2414Z" fill="#FF9811"/>
<path d="M0 10.8613H90V17.0682H0V10.8613Z" fill="#FFA733"/>
<path d="M13.9655 17.0684H18.6207V52.758H13.9655V17.0684ZM71.3793 17.0684H76.0345V52.758H71.3793V17.0684Z" fill="#787680"/>
<path d="M3.10345 17.0684H9.31035V63.6201H3.10345V17.0684ZM80.6897 17.0684H86.8966V63.6201H80.6897V17.0684Z" fill="#ACABB1"/>
<path d="M13.9655 17.0684H18.6207V18.6201H13.9655V17.0684ZM71.3793 17.0684H76.0345V18.6201H71.3793V17.0684Z" fill="#57565C"/>
<path d="M3.10345 17.0684H9.31035V20.1718H3.10345V17.0684ZM80.6897 17.0684H86.8966V20.1718H80.6897V17.0684Z" fill="#787680"/>
</svg>
