<svg width="20" height="25" viewBox="0 0 20 25" fill="none" xmlns="http://www.w3.org/2000/svg">
<path d="M10 6.91667L10.0016 6.91667C10.1857 6.91623 10.3096 6.97119 10.4186 7.08016C10.5276 7.1892 10.5833 7.31408 10.5833 7.5L10.5833 7.50157C10.5838 7.68567 10.5288 7.80963 10.4198 7.9186C10.3108 8.02764 10.1859 8.08333 10 8.08333L9.99843 8.08334C9.81433 8.08377 9.69037 8.02881 9.58141 7.91985C9.47236 7.8108 9.41667 7.68592 9.41667 7.5L9.41667 7.49843C9.41623 7.31433 9.47119 7.19037 9.58015 7.08141C9.6892 6.97236 9.81408 6.91667 10 6.91667ZM0.666667 11.3752V11.375V4.212L10 0.712L19.3333 4.212V11.375C19.3333 14.3989 18.4362 17.1424 16.632 19.6243C14.8665 22.0528 12.6591 23.6035 10.0001 24.3114C7.3401 23.6027 5.1322 22.0516 3.36674 19.623C1.5626 17.1412 0.665872 14.3981 0.666667 11.3752ZM9.79837 23.0104L10 23.0744L10.2016 23.0104C12.5241 22.2735 14.4328 20.7992 15.9245 18.6275C17.4181 16.453 18.1667 14.0295 18.1667 11.375V5.46875V5.00675L17.7341 4.84453L10.2341 2.03203L10 1.94425L9.76592 2.03203L2.26592 4.84453L1.83333 5.00675V5.46875V11.375C1.83333 14.0295 2.5819 16.453 4.07548 18.6275C5.56719 20.7992 7.47585 22.2735 9.79837 23.0104ZM10.5833 11.9167V18.0833H9.41667V11.9167H10.5833Z" fill="#544C4C" stroke="#7F8589" stroke-width="1.33333"/>
</svg>
