<svg width="35" height="35" viewBox="0 0 35 35" fill="none" xmlns="http://www.w3.org/2000/svg">
    <path fill-rule="evenodd" clip-rule="evenodd" d="M8.356 2.88c-1.725 0-2.754 1.922-1.797 3.358l7.361 11.041-8.107 12.162c-.638.957.048 2.238 1.198 2.238h20.538c1.15 0 1.837-1.281 1.199-2.238L20.64 17.279l7.361-11.041c.957-1.436-.072-3.359-1.797-3.359H8.356z" fill="#D7FDFF"/>
    <path fill-rule="evenodd" clip-rule="evenodd" d="M5.96 6.637C4.684 4.723 6.056 2.16 8.356 2.16h17.848c2.3 0 3.672 2.563 2.396 4.477L21.505 17.28l7.842 11.761c.956 1.436-.073 3.359-1.798 3.359H7.011c-1.726 0-2.755-1.923-1.798-3.358l7.842-11.762L5.96 6.637zM20.64 17.28l7.361-11.042c.957-1.436-.072-3.358-1.797-3.358H8.356c-1.725 0-2.754 1.922-1.797 3.358L13.92 17.28 5.813 29.44c-.638.958.048 2.24 1.198 2.24h20.538c1.15 0 1.837-1.282 1.198-2.24L20.64 17.28z" fill="#03265B"/>
    <path d="M8.356 2.88c-1.725 0-2.754 1.922-1.797 3.358l7.361 11.041-8.107 12.162c-.638.957.048 2.238 1.198 2.238h7.39l2.88-14.4-2.88-14.4H8.355z" fill="#A4F3F8"/>
    <path d="M8.356 2.88c-1.725 0-2.754 1.922-1.797 3.358l7.361 11.041-8.107 12.162c-.638.957.048 2.238 1.198 2.238h4.51l5.76-14.4-5.76-14.4H8.355z" fill="#F8FFFF"/>
    <path d="M28.747 29.44c.639.958-.047 2.24-1.198 2.24H23.04l-5.76-14.4 5.76-14.4h3.164c1.725 0 2.754 1.922 1.797 3.358L20.64 17.279l8.107 12.162z" fill="#A4F3F8"/>
    <path fill-rule="evenodd" clip-rule="evenodd" d="M6.559 6.238c-.957-1.436.072-3.359 1.797-3.359h2.16c-1.725 0-2.754 1.923-1.797 3.359l7.361 11.041-8.107 12.162c-.638.957.048 2.238 1.198 2.238H7.01c-1.15 0-1.836-1.281-1.198-2.238l8.107-12.162L6.56 6.238z" fill="#86F8FF"/>
    <path fill-rule="evenodd" clip-rule="evenodd" d="M25.39 31.68h2.16c1.15 0 1.835-1.282 1.197-2.24L20.64 17.28l7.361-11.042c.957-1.436-.072-3.359-1.797-3.359h-2.16c1.725 0 2.754 1.923 1.797 3.359L18.48 17.279l8.107 12.162c.638.957-.048 2.238-1.198 2.238z" fill="#15D6E2"/>
    <path d="M27.55 31.68H7.01a1.435 1.435 0 0 1-1.394-1.08h23.329a1.435 1.435 0 0 1-1.396 1.08z" fill="#8B3ACA"/>
    <path d="M6.559 6.238H28l-6.986 10.48A2.88 2.88 0 0 1 18.62 18H15.94a2.88 2.88 0 0 1-2.396-1.283L6.56 6.237z" fill="#C25FFF"/>
    <path fill-rule="evenodd" clip-rule="evenodd" d="M7.2 6.588a.36.36 0 0 1 .36-.36H27a.36.36 0 0 1 0 .72H7.56a.36.36 0 0 1-.36-.36z" fill="#8232B2"/>
    <path fill-rule="evenodd" clip-rule="evenodd" d="M8.719 6.238h-2.16l6.986 10.48A2.88 2.88 0 0 0 15.941 18h2.16a2.88 2.88 0 0 1-2.396-1.283L8.72 6.237z" fill="#E56CEF"/>
    <path fill-rule="evenodd" clip-rule="evenodd" d="M16.459 18h2.16a2.88 2.88 0 0 0 2.396-1.283l6.986-10.48h-2.16l-6.986 10.48A2.88 2.88 0 0 1 16.459 18z" fill="#8B3ACA"/>
    <path d="M18 24.84a.72.72 0 1 1-1.44 0 .72.72 0 0 1 1.44 0zM18.36 19.08a1.08 1.08 0 1 1-2.16 0 1.08 1.08 0 0 1 2.16 0z" fill="#8B3ACA"/>
    <path d="M18.72 17.64a1.44 1.44 0 1 1-2.88 0 1.44 1.44 0 0 1 2.88 0z" fill="#C25FFF"/>
    <path d="M16.92 14.76a.36.36 0 1 1-.72 0 .36.36 0 0 1 .72 0zM16.56 16.2a.36.36 0 1 1-.72 0 .36.36 0 0 1 .72 0zM18 16.74a.54.54 0 1 1-1.08 0 .54.54 0 0 1 1.08 0zM19.08 15.84a.36.36 0 1 1-.72 0 .36.36 0 0 1 .72 0zM17.28 15.66a.18.18 0 1 1-.36 0 .18.18 0 0 1 .36 0zM15.48 14.94a.18.18 0 1 1-.36 0 .18.18 0 0 1 .36 0zM19.08 13.32a.36.36 0 1 1-.72 0 .36.36 0 0 1 .72 0zM16.92 12.24a.36.36 0 1 1-.72 0 .36.36 0 0 1 .72 0zM19.8 11.52a.36.36 0 1 1-.72 0 .36.36 0 0 1 .72 0zM13.68 10.44a.36.36 0 1 1-.72 0 .36.36 0 0 1 .72 0zM13.68 12.96a.36.36 0 1 1-.72 0 .36.36 0 0 1 .72 0zM21.24 12.6a.36.36 0 1 1-.72 0 .36.36 0 0 1 .72 0zM18.36 14.76a.36.36 0 1 1-.72 0 .36.36 0 0 1 .72 0zM20.16 15.12a.36.36 0 1 1-.72 0 .36.36 0 0 1 .72 0zM21.96 11.16a.36.36 0 1 1-.72 0 .36.36 0 0 1 .72 0zM15.84 13.5a.18.18 0 1 1-.36 0 .18.18 0 0 1 .36 0zM17.64 13.86a.18.18 0 1 1-.36 0 .18.18 0 0 1 .36 0zM18 12.06a.18.18 0 1 1-.36 0 .18.18 0 0 1 .36 0zM16.56 10.62a.18.18 0 1 1-.36 0 .18.18 0 0 1 .36 0zM15.48 11.34a.18.18 0 1 1-.36 0 .18.18 0 0 1 .36 0zM13.32 11.7a.18.18 0 1 1-.36 0 .18.18 0 0 1 .36 0zM11.88 10.62a.18.18 0 1 1-.36 0 .18.18 0 0 1 .36 0zM14.76 12.78a.18.18 0 1 1-.36 0 .18.18 0 0 1 .36 0zM15.12 13.86a.18.18 0 1 1-.36 0 .18.18 0 0 1 .36 0zM14.04 13.86a.18.18 0 1 1-.36 0 .18.18 0 0 1 .36 0zM19.8 12.42a.18.18 0 1 1-.36 0 .18.18 0 0 1 .36 0zM20.52 13.86a.18.18 0 1 1-.36 0 .18.18 0 0 1 .36 0zM22.68 11.34a.18.18 0 1 1-.36 0 .18.18 0 0 1 .36 0zM20.52 10.98a.18.18 0 1 1-.36 0 .18.18 0 0 1 .36 0zM19.44 9.9a.18.18 0 1 1-.36 0 .18.18 0 0 1 .36 0zM18.36 10.98a.18.18 0 1 1-.36 0 .18.18 0 0 1 .36 0zM17.28 10.98a.18.18 0 1 1-.36 0 .18.18 0 0 1 .36 0zM14.76 9.54a.18.18 0 1 1-.36 0 .18.18 0 0 1 .36 0zM22.32 9.54a.18.18 0 1 1-.36 0 .18.18 0 0 1 .36 0zM19.44 14.22a.18.18 0 1 1-.36 0 .18.18 0 0 1 .36 0z" fill="#FD89FF"/>
    <path fill-rule="evenodd" clip-rule="evenodd" d="M6.826 29.463a.36.36 0 0 0 .497-.11l6.66-10.44a.36.36 0 0 0-.607-.387l-6.66 10.44a.36.36 0 0 0 .11.497z" fill="#A8FFEF"/>
    <path fill-rule="evenodd" clip-rule="evenodd" d="M8.491 26.853a.36.36 0 0 0 .498-.11l1.664-2.61a.36.36 0 0 0-.607-.387l-1.665 2.61a.36.36 0 0 0 .11.497z" fill="#fff"/>
    <path fill-rule="evenodd" clip-rule="evenodd" d="M6.826 5.096a.36.36 0 0 1 .497.11l6.66 10.44a.36.36 0 0 1-.607.387l-6.66-10.44a.36.36 0 0 1 .11-.497z" fill="#A8FFEF"/>
    <path fill-rule="evenodd" clip-rule="evenodd" d="M8.491 7.706a.36.36 0 0 1 .498.11l1.664 2.61a.36.36 0 0 1-.607.387l-1.665-2.61a.36.36 0 0 1 .11-.497z" fill="#fff"/>
    <path fill-rule="evenodd" clip-rule="evenodd" d="M6.48 30.6a.36.36 0 0 1 .36-.36h20.88a.36.36 0 0 1 0 .72H6.84a.36.36 0 0 1-.36-.36zM7.2 3.96a.36.36 0 0 1 .36-.36H27a.36.36 0 0 1 0 .72H7.56a.36.36 0 0 1-.36-.36z" fill="#15D6E2"/>
</svg>
