<svg width="95" height="77" viewBox="0 0 95 77" fill="none" xmlns="http://www.w3.org/2000/svg">
    <path
        d="M44.7976 76.4683C36.6931 76.1309 29.21 74.2825 22.4245 70.942C9.80003 64.7268 1.52864 53.5668 0.158653 41.7898C-0.0917691 39.637 0.0277042 36.2923 0.0336323 34.3604L0.0358384 33.6415L0.238881 35.5064C1.82593 50.0828 18.7173 62.3665 39.3555 64.71C42.0356 65.0143 44.0965 65.1265 47.006 65.1265C49.2577 65.1265 50.5296 65.079 52.5006 64.9212C61.2434 64.2216 69.6918 61.7518 76.5563 57.8886C86.0559 52.5426 92.1892 43.0225 93.7224 34.6484C93.7955 34.2489 93.974 33.549 93.9772 33.4714C93.9901 33.1556 94.0182 34.0811 94.0078 34.9622C93.9203 42.358 92.1876 51.6695 87.4777 58.0109C79.8231 68.3171 66.6301 75.0912 51.8434 76.308C49.8248 76.4742 46.6645 76.546 44.7976 76.4683Z"
        fill="#6E6E6E" />
    <path
        d="M42.7791 65.2607C35.7741 64.7332 29.5999 63.3819 23.7717 61.1007C21.6896 60.2857 17.4105 58.145 15.6668 57.046C11.0218 54.1183 6.83511 50.174 4.30028 46.3376C-1.98475 36.8253 -1.35202 25.8643 6.01189 16.6866C11.6125 9.70654 21.1111 4.22106 31.8998 1.73617C34.2219 1.20135 34.4824 1.14864 36.1515 0.875987C57.9539 -2.68555 80.2492 4.86285 89.6217 18.9791C98.6682 32.6043 93.316 48.5715 76.5107 58.0937C69.8714 61.8556 61.9555 64.2334 53.2831 65.0708C50.9238 65.2987 44.762 65.41 42.7791 65.2607ZM10.7841 29.7021C12.0901 29.094 13.1411 27.7662 14.5539 24.9393C15.513 23.0202 16.5051 21.641 18.0431 20.0886C19.6369 18.4797 20.7509 17.5716 22.8277 16.1881C25.5128 14.3993 28.5792 12.9123 31.5892 11.9392C34.0013 11.1594 35.6527 10.8545 38.4024 10.6811C41.7025 10.473 43.6489 9.88994 44.9034 8.73354C45.5457 8.14155 45.7742 7.64774 45.6679 7.0814C45.307 5.15753 40.3827 4.3764 34.8715 5.36878C25.7855 7.00485 15.7031 12.6794 11.2015 18.6906C10.3188 19.8694 9.2405 21.9174 8.71962 23.4044C7.64629 26.4685 7.75412 29.0047 8.98974 29.7582C9.51927 30.081 10.0028 30.0659 10.7841 29.7021Z"
        fill="#9B9B9B" />
    <path
        d="M9.26028 29.8801C9.10534 29.8244 8.90422 29.7215 8.81334 29.6516C8.57991 29.4718 8.31017 28.9971 8.15629 28.4952C8.03962 28.1147 8.02457 27.9708 8.02345 27.2248C8.0216 25.9982 8.26598 24.7969 8.85841 23.1206C10.3057 19.0251 13.5038 15.4315 18.8225 11.924C23.8416 8.61411 30.4524 6.01002 35.8323 5.22364C38.1524 4.88451 40.6832 4.86398 42.4312 5.1701C44.5196 5.53584 45.7027 6.3027 45.712 7.29668C45.7224 8.41478 44.2951 9.54059 42.0776 10.1633C40.9466 10.4808 40.4074 10.6679 38.4654 10.7409C36.7252 10.8063 35.5208 10.97 33.8569 11.367C29.3563 12.4408 24.3204 14.829 20.4262 17.9115C19.4499 18.6843 18.0985 19.96 17.3003 20.8625C16.0765 22.2462 15.3047 23.4265 14.6184 24.9638C13.9369 26.4906 13.2238 27.5125 12.489 28.3666C11.8529 29.106 10.9598 29.7266 10.2754 29.9049C9.87061 30.0103 9.60412 30.0038 9.26028 29.8801Z"
        fill="#D3D3D3" />
</svg>
